<svg id="Layer_1" data-name="Layer 1" xmlns="http://www.w3.org/2000/svg" xmlns:xlink="http://www.w3.org/1999/xlink" viewBox="0 0 828 1437"><defs><style>.cls-1{fill:url(#linear-gradient);}.cls-2{fill:#e9c515;}.cls-3{fill:#e9a315;}.cls-4{fill:#43b649;}.cls-5{fill:#89d54a;}.cls-6{fill:#ece09c;}.cls-7{fill:#4ba14a;}.cls-8{fill:#8cc63f;}.cls-9{fill:#52a03f;}.cls-10{fill:#8c6239;}.cls-11{fill:#c1272d;}.cls-12{opacity:0.6;}.cls-13,.cls-14{fill:#a67c52;}.cls-13{stroke:#ccc;}.cls-13,.cls-14,.cls-16,.cls-24,.cls-25{stroke-miterlimit:10;}.cls-14{stroke:#999;}.cls-15{fill:#ffc228;}.cls-16,.cls-24,.cls-25,.cls-26{fill:#ff0;}.cls-16{stroke:#000;}.cls-17{fill:url(#linear-gradient-2);}.cls-18{fill:url(#linear-gradient-3);}.cls-19{fill:url(#linear-gradient-4);}.cls-20{fill:url(#linear-gradient-5);}.cls-21{fill:url(#linear-gradient-6);}.cls-22{fill:url(#linear-gradient-7);}.cls-23{fill:url(#linear-gradient-8);}.cls-24,.cls-25{stroke:#ff0;}.cls-24{stroke-width:0.5px;}</style><linearGradient id="linear-gradient" x1="414" y1="829" x2="414" gradientUnits="userSpaceOnUse"><stop offset="0.16" stop-color="#dee8e5"/><stop offset="0.35" stop-color="#bcd5df"/><stop offset="0.89" stop-color="#00a0c7"/></linearGradient><linearGradient id="linear-gradient-2" x1="89.47" y1="261" x2="89.47" y2="311" gradientUnits="userSpaceOnUse"><stop offset="0.04" stop-color="#dee8e5"/><stop offset="0.34" stop-color="#dce7e5"/><stop offset="0.41" stop-color="#dce7e5"/><stop offset="0.55" stop-color="#dce7e5"/><stop offset="0.63" stop-color="#bcd5df"/><stop offset="0.91" stop-color="#1fa9cb"/><stop offset="1" stop-color="#00a0c7"/></linearGradient><linearGradient id="linear-gradient-3" x1="160.66" y1="401.2" x2="160.66" y2="424.07" xlink:href="#linear-gradient-2"/><linearGradient id="linear-gradient-4" x1="223.1" y1="345.26" x2="223.1" y2="378.52" xlink:href="#linear-gradient-2"/><linearGradient id="linear-gradient-5" x1="57.67" y1="370.47" x2="57.67" y2="407.15" xlink:href="#linear-gradient-2"/><linearGradient id="linear-gradient-6" x1="786.12" y1="349.16" x2="786.12" y2="374.51" xlink:href="#linear-gradient-2"/><linearGradient id="linear-gradient-7" x1="691.35" y1="289" x2="691.35" y2="320.42" xlink:href="#linear-gradient-2"/><linearGradient id="linear-gradient-8" x1="727.48" y1="402.77" x2="727.48" y2="421.99" gradientTransform="matrix(-1, 0, 0, 1, 1419.21, 0)" xlink:href="#linear-gradient-2"/></defs><title>2</title><rect class="cls-1" width="828" height="829"/><path class="cls-2" d="M395.33,848l-.33-.32q-5.56-5.46-11.4-10.63c-1-.91-2.05-1.81-3.09-2.71q-2.85-2.48-5.78-4.87c-.19-.17-.38-.32-.57-.47l-.72-.6L372,827.2a344.12,344.12,0,0,0-33.82-24c-70.57-44-157.81-64-235.36-53.42A278.71,278.71,0,0,0,0,784.9V829H283.44l-.86.47H0v12.6L-1.21,842q.1.59.18,1.17l1,.17,26.8,4.38,2,.32,183.09,29.9,234.81,38.34A278.66,278.66,0,0,0,395.33,848Z"/><path class="cls-3" d="M345,873.26,230.59,862.91,65.65,848l-3.54-.32L0,842.07v-12.6H282.58l.86-.47H0V790.06A267.27,267.27,0,0,1,96.51,762.2c84.19-7.43,152.13,28.61,195.91,62,1.31,1,2.6,2,3.87,3l1.52,1.2.75.6.59.47q3.08,2.46,6,4.87c1.08.91,2.15,1.81,3.19,2.71,4.3,3.68,8.27,7.24,11.9,10.63l.35.32A325,325,0,0,1,345,873.26Z"/><path class="cls-4" d="M828.09,833.7l-.09.06-.28.18-.05,0q-10.92,7.23-22,13.71l-.54.32q-7.65,4.49-15.34,8.62-3.09,1.67-6.18,3.27c-10.25,5.35-20.5,10.27-30.66,14.79q-14.46,6.45-29.32,12.12c-1.61.62-3.22,1.24-4.84,1.84l-.78.29-3.87,1.43-3.88,1.4c-51.71,18.52-106.13,30.65-160,38.23-137.75,19.38-272.11,9.1-349.18,0-13.65-1.61-25.5-3.18-35.25-4.54a321.67,321.67,0,0,1,30.69-33.69c1-1,2-1.89,3-2.83l.31-.29,2-1.84q4.93-4.51,10.08-8.9,9-7.73,18.74-15,10.28-7.73,21.22-14.91a5.14,5.14,0,0,1,.49-.32q11.06-7.27,22.75-14,3.74-2.15,7.53-4.23l.86-.47q4.46-2.46,9-4.8c14.67-7.66,29.95-14.67,45.72-21a579.71,579.71,0,0,1,125.11-34.38A592.5,592.5,0,0,1,588,762.22a549.69,549.69,0,0,1,109.78,17.09q6.8,1.79,13.28,3.67,6.09,1.77,11.89,3.6l2.42.77c2.24.72,4.44,1.44,6.61,2.18A503.15,503.15,0,0,1,783,809.74q4,1.86,7.8,3.69c11.8,5.71,21.63,11.07,29.41,15.57l.81.47,1.91,1.11c1.76,1,3.39,2,4.9,2.93l.22.14Z"/><path class="cls-2" d="M828.09,769.16v64.06c-.13.11-.24.23-.37.35v34.08l-24.47-4.3-8.94-1.58-61-10.72q-30.51-5.38-61-10.74l-3.95-.7q-15-2.62-30-5.27l-6.39-1.12L625.16,832c1-1.08,2-2.3,3.26-3.63,2.81-3.07,6.37-6.74,10.68-10.77A204.89,204.89,0,0,1,687,784.31a194.78,194.78,0,0,1,37.9-14.26q5.13-1.34,10.51-2.44c1.94-.4,3.92-.77,5.92-1.11,1.58-.27,3.18-.53,4.8-.77a214.88,214.88,0,0,1,38.35-2.06c2.46.08,4.91.2,7.39.36A245.56,245.56,0,0,1,828.09,769.16Z"/><path class="cls-3" d="M828.09,776.69v52.72L812.21,833h0c-1.32.31-2.65.61-4,.9L733.3,850.82l-78,17.6a221.19,221.19,0,0,1,17-28.48q2.06-3,4.35-6.05c1.47-2,3-4,4.63-6,10.16-12.76,23.2-26.3,39-37.17,18-12.38,39.65-21.31,64.77-21.74A115.13,115.13,0,0,1,828.09,776.69Z"/><path class="cls-5" d="M828,1436.52V848H0v589H563.5a4.33,4.33,0,0,1,1.79-.42,4.71,4.71,0,0,1,1.89.42H825.91C826.6,1436.82,827.3,1436.67,828,1436.52Z"/><rect class="cls-6" y="829.47" width="828" height="18.21"/><rect class="cls-5" y="1147" width="828" height="288"/><path class="cls-7" d="M64.64,956.6l20.94-1c.08-1,.23-2.48.54-4.3.43-2.57.85-3.91.51-4.08-.69-.34-3.41,4.55-4.19,4.19s1.37-4.16,0-8.38c-.48-1.48-1.46-3.27-2.09-3.14-1.45.28-.29,10.38-1,10.47s-2.27-9.52-3.14-9.43-.53,8.36-1,8.38-.9-7.26-2.1-7.33-1.82,6.29-3.14,6.28c-1.61,0-2.75-9.47-3.14-9.42s1,11.32,0,11.52-2.64-8.55-4.19-8.38c-1.07.12-1.89,4.48-1,8.38A14.67,14.67,0,0,0,64.64,956.6Z"/><path class="cls-7" d="M202.68,1012.52l20.94-1c.08-1,.23-2.47.54-4.29.43-2.57.85-3.92.51-4.08-.68-.34-3.41,4.54-4.19,4.19s1.37-4.16,0-8.38c-.48-1.48-1.46-3.27-2.09-3.14-1.45.28-.29,10.37-1,10.47s-2.27-9.52-3.14-9.43-.53,8.35-1,8.38-.9-7.26-2.09-7.33-1.83,6.29-3.15,6.28c-1.61,0-2.75-9.47-3.14-9.42s1,11.32,0,11.52-2.64-8.55-4.19-8.38c-1.07.12-1.89,4.48-1,8.38A14.73,14.73,0,0,0,202.68,1012.52Z"/><path class="cls-7" d="M524.17,950.74l21-1c.08-1,.23-2.47.53-4.3.43-2.56.86-3.91.51-4.08-.68-.34-3.4,4.55-4.18,4.19s1.36-4.16,0-8.38c-.48-1.48-1.47-3.27-2.1-3.14-1.44.29-.29,10.38-1,10.47s-2.27-9.52-3.14-9.42-.52,8.35-1,8.37-.9-7.26-2.1-7.33-1.82,6.29-3.14,6.29c-1.61,0-2.75-9.48-3.14-9.43s1,11.32,0,11.52-2.65-8.55-4.19-8.38c-1.07.12-1.9,4.49-1.05,8.38A14.71,14.71,0,0,0,524.17,950.74Z"/><path class="cls-7" d="M427.83,1045l20.94-1c.08-1,.24-2.48.54-4.3.43-2.56.85-3.91.51-4.08-.68-.34-3.41,4.55-4.19,4.19s1.37-4.16,0-8.38c-.48-1.48-1.46-3.27-2.09-3.14-1.44.29-.29,10.38-1.05,10.47s-2.27-9.52-3.14-9.42-.53,8.35-1.05,8.37-.89-7.26-2.09-7.33-1.82,6.29-3.14,6.29c-1.62,0-2.75-9.48-3.15-9.43s1,11.32,0,11.52-2.64-8.55-4.19-8.38c-1.06.12-1.89,4.49-1,8.38A14.71,14.71,0,0,0,427.83,1045Z"/><path class="cls-7" d="M173.67,947.47l20.75-1c.08-1,.23-2.45.53-4.26.43-2.54.85-3.88.51-4-.68-.33-3.38,4.5-4.15,4.15s1.35-4.12,0-8.3c-.48-1.47-1.45-3.24-2.08-3.11-1.42.28-.28,10.28-1,10.37s-2.25-9.43-3.12-9.34-.52,8.28-1,8.3S183.16,933,182,933s-1.8,6.23-3.11,6.22c-1.6,0-2.72-9.38-3.11-9.33s1,11.21,0,11.41-2.62-8.47-4.15-8.3c-1.06.12-1.88,4.44-1,8.3A14.56,14.56,0,0,0,173.67,947.47Z"/><path class="cls-7" d="M118.66,1086.09l20.94-1c.08-1,.23-2.47.54-4.29.43-2.57.85-3.92.51-4.09-.68-.33-3.41,4.55-4.19,4.19s1.37-4.15,0-8.37c-.48-1.48-1.46-3.27-2.09-3.15-1.45.29-.29,10.38-1.05,10.48s-2.27-9.52-3.14-9.43-.53,8.35-1.05,8.38-.89-7.26-2.09-7.33-1.83,6.29-3.15,6.28c-1.61,0-2.75-9.48-3.14-9.42s1,11.31,0,11.52-2.64-8.55-4.19-8.38c-1.06.12-1.89,4.48-1,8.38A14.73,14.73,0,0,0,118.66,1086.09Z"/><path class="cls-7" d="M338.38,1086.51l20.95-1c.08-1,.23-2.47.53-4.3.43-2.56.85-3.91.51-4.08-.68-.33-3.41,4.55-4.19,4.19s1.37-4.16,0-8.38c-.48-1.48-1.46-3.27-2.09-3.14-1.44.29-.29,10.38-1,10.47s-2.27-9.52-3.14-9.42-.53,8.35-1,8.38-.89-7.27-2.09-7.34-1.82,6.29-3.14,6.29c-1.61,0-2.75-9.48-3.14-9.43s1,11.32,0,11.52-2.65-8.55-4.19-8.38c-1.07.12-1.9,4.49-1.05,8.38A14.71,14.71,0,0,0,338.38,1086.51Z"/><path class="cls-7" d="M49.64,1165.6l20.94-1c.08-1,.23-2.48.54-4.3.43-2.57.85-3.91.51-4.08-.69-.34-3.41,4.55-4.19,4.19s1.37-4.16,0-8.38c-.48-1.48-1.46-3.27-2.09-3.14-1.45.28-.29,10.38-1,10.47s-2.27-9.52-3.14-9.43-.53,8.36-1,8.38-.9-7.26-2.1-7.33-1.82,6.29-3.14,6.28c-1.61,0-2.75-9.47-3.14-9.42s1,11.32,0,11.52-2.64-8.55-4.19-8.38c-1.07.12-1.89,4.48-1,8.38A14.67,14.67,0,0,0,49.64,1165.6Z"/><path class="cls-7" d="M269.36,1166l20.94-1c.08-1,.24-2.47.54-4.3.43-2.56.85-3.91.51-4.08-.68-.33-3.41,4.55-4.19,4.19s1.37-4.15,0-8.38c-.48-1.47-1.46-3.26-2.09-3.14-1.44.29-.29,10.38-1.05,10.48s-2.27-9.52-3.14-9.43-.53,8.35-1.05,8.38-.89-7.26-2.09-7.33-1.82,6.29-3.14,6.28c-1.61,0-2.75-9.48-3.15-9.42s1,11.31,0,11.52-2.64-8.55-4.18-8.38c-1.07.12-1.9,4.48-1,8.38A14.73,14.73,0,0,0,269.36,1166Z"/><path class="cls-7" d="M509.17,1159.74l20.95-1c.08-1,.23-2.47.53-4.3.43-2.56.86-3.91.51-4.08-.68-.34-3.4,4.55-4.18,4.19s1.36-4.16,0-8.38c-.48-1.48-1.47-3.27-2.1-3.14-1.44.29-.29,10.38-1,10.47s-2.27-9.52-3.14-9.42-.52,8.35-1,8.37-.9-7.26-2.1-7.33-1.82,6.29-3.14,6.29c-1.61,0-2.75-9.48-3.14-9.43s1,11.32,0,11.52-2.65-8.55-4.19-8.38c-1.07.12-1.9,4.49-1.05,8.38A14.71,14.71,0,0,0,509.17,1159.74Z"/><path class="cls-7" d="M412.83,1254l20.94-1c.08-1,.24-2.48.54-4.3.43-2.56.85-3.91.51-4.08-.68-.34-3.41,4.55-4.19,4.19s1.37-4.16,0-8.38c-.48-1.48-1.46-3.27-2.09-3.14-1.44.29-.29,10.38-1.05,10.47s-2.27-9.52-3.14-9.42-.53,8.35-1.05,8.37-.89-7.26-2.09-7.33-1.82,6.29-3.14,6.29c-1.62,0-2.75-9.48-3.15-9.43s1,11.32,0,11.52-2.64-8.55-4.19-8.38c-1.06.12-1.89,4.49-1,8.38A14.71,14.71,0,0,0,412.83,1254Z"/><path class="cls-7" d="M618.64,1169.6l20.94-1c.08-1,.23-2.48.54-4.3.43-2.57.85-3.91.51-4.08-.69-.34-3.41,4.55-4.19,4.19s1.37-4.16,0-8.38c-.48-1.48-1.46-3.27-2.09-3.14-1.45.28-.29,10.38-1.05,10.47s-2.27-9.52-3.14-9.43-.53,8.36-1,8.38-.9-7.26-2.1-7.33-1.82,6.29-3.14,6.28c-1.61,0-2.75-9.47-3.14-9.42s1,11.32,0,11.52-2.64-8.55-4.19-8.38c-1.07.12-1.89,4.48-1,8.38A14.67,14.67,0,0,0,618.64,1169.6Z"/><path class="cls-7" d="M756.68,1225.52l20.94-1c.08-1,.23-2.47.54-4.29.43-2.57.85-3.92.51-4.08-.68-.34-3.41,4.54-4.19,4.19s1.37-4.16,0-8.38c-.48-1.48-1.46-3.27-2.09-3.14-1.45.28-.29,10.37-1,10.47s-2.27-9.52-3.14-9.43-.53,8.35-1.05,8.38-.9-7.26-2.09-7.33-1.83,6.29-3.15,6.28c-1.61,0-2.75-9.47-3.14-9.42s1,11.32,0,11.52-2.64-8.55-4.19-8.38c-1.07.12-1.89,4.48-1,8.38A14.73,14.73,0,0,0,756.68,1225.52Z"/><path class="cls-7" d="M727.67,1160.47l20.75-1c.08-1,.23-2.45.53-4.26.43-2.54.85-3.88.51-4-.68-.33-3.38,4.5-4.15,4.15s1.35-4.12,0-8.3c-.48-1.47-1.45-3.24-2.08-3.11-1.42.28-.28,10.28-1,10.37s-2.25-9.43-3.12-9.34-.52,8.28-1,8.3-.89-7.19-2.08-7.26-1.8,6.23-3.11,6.22c-1.6,0-2.72-9.38-3.11-9.33s1,11.21,0,11.41-2.62-8.47-4.15-8.3c-1.06.12-1.88,4.44-1,8.3A14.56,14.56,0,0,0,727.67,1160.47Z"/><path class="cls-7" d="M672.66,1299.09l20.94-1c.08-1,.23-2.47.54-4.29.43-2.57.85-3.92.51-4.09-.68-.33-3.41,4.55-4.19,4.19s1.37-4.15,0-8.37c-.48-1.48-1.46-3.27-2.09-3.15-1.45.29-.29,10.38-1,10.48s-2.27-9.52-3.14-9.43-.53,8.35-1,8.38-.89-7.26-2.09-7.33-1.83,6.29-3.15,6.28c-1.61,0-2.75-9.48-3.14-9.42s1,11.31,0,11.52-2.64-8.55-4.19-8.38c-1.06.12-1.89,4.48-1,8.38A14.73,14.73,0,0,0,672.66,1299.09Z"/><path class="cls-7" d="M684.64,1401.6l20.94-1c.08-1,.23-2.48.54-4.3.43-2.57.85-3.91.51-4.08-.69-.34-3.41,4.55-4.19,4.19s1.37-4.16,0-8.38c-.48-1.48-1.46-3.27-2.09-3.14-1.45.28-.29,10.38-1.05,10.47s-2.27-9.52-3.14-9.43-.53,8.36-1,8.38-.9-7.26-2.1-7.33-1.82,6.29-3.14,6.28c-1.61,0-2.75-9.47-3.14-9.42s1,11.32,0,11.52-2.64-8.55-4.19-8.38c-1.07.12-1.89,4.48-1,8.38A14.67,14.67,0,0,0,684.64,1401.6Z"/><path class="cls-7" d="M793.67,1392.47l20.75-1c.08-1,.23-2.45.53-4.26.43-2.54.85-3.88.51-4-.68-.33-3.38,4.5-4.15,4.15s1.35-4.12,0-8.3c-.48-1.47-1.45-3.24-2.08-3.11-1.42.28-.28,10.28-1,10.37s-2.25-9.43-3.12-9.34-.52,8.28-1,8.3-.89-7.19-2.08-7.26-1.8,6.23-3.11,6.22c-1.6,0-2.72-9.38-3.11-9.33s1,11.21,0,11.41-2.62-8.47-4.15-8.3c-1.06.12-1.88,4.44-1,8.3A14.56,14.56,0,0,0,793.67,1392.47Z"/><path class="cls-7" d="M54.64,1283.6l20.94-1c.08-1,.23-2.48.54-4.3.43-2.57.85-3.91.51-4.08-.69-.34-3.41,4.55-4.19,4.19s1.37-4.16,0-8.38c-.48-1.48-1.46-3.27-2.09-3.14-1.45.28-.29,10.38-1,10.47s-2.27-9.52-3.14-9.43-.53,8.36-1,8.38-.9-7.26-2.1-7.33-1.82,6.29-3.14,6.28c-1.61,0-2.75-9.47-3.14-9.42s1,11.32,0,11.52-2.64-8.55-4.19-8.38c-1.07.12-1.89,4.48-1,8.38A14.67,14.67,0,0,0,54.64,1283.6Z"/><path class="cls-7" d="M274.36,1284l20.94-1c.08-1,.24-2.47.54-4.3.43-2.56.85-3.91.51-4.08-.68-.33-3.41,4.55-4.19,4.19s1.37-4.15,0-8.38c-.48-1.47-1.46-3.26-2.09-3.14-1.44.29-.29,10.38-1.05,10.48s-2.27-9.52-3.14-9.43-.53,8.35-1.05,8.38-.89-7.26-2.09-7.33-1.82,6.29-3.14,6.28c-1.61,0-2.75-9.48-3.15-9.42s1,11.31,0,11.52-2.64-8.55-4.18-8.38c-1.07.12-1.9,4.48-1,8.38A14.73,14.73,0,0,0,274.36,1284Z"/><path class="cls-7" d="M133.68,1343.52l20.94-1c.08-1,.23-2.47.54-4.29.43-2.57.85-3.92.51-4.08-.68-.34-3.41,4.54-4.19,4.19s1.37-4.16,0-8.38c-.48-1.48-1.46-3.27-2.09-3.14-1.45.28-.29,10.37-1,10.47s-2.27-9.52-3.14-9.43-.53,8.35-1,8.38-.9-7.26-2.09-7.33-1.83,6.29-3.15,6.28c-1.61,0-2.75-9.47-3.14-9.42s1,11.32,0,11.52-2.64-8.55-4.19-8.38c-1.07.12-1.89,4.48-1,8.38A14.73,14.73,0,0,0,133.68,1343.52Z"/><path class="cls-7" d="M514.17,1277.74l21-1c.08-1,.23-2.47.53-4.3.43-2.56.86-3.91.51-4.08-.68-.34-3.4,4.55-4.18,4.19s1.36-4.16,0-8.38c-.48-1.48-1.47-3.27-2.1-3.14-1.44.29-.29,10.38-1,10.47s-2.27-9.52-3.14-9.42-.52,8.35-1,8.37-.9-7.26-2.1-7.33-1.82,6.29-3.14,6.29c-1.61,0-2.75-9.48-3.14-9.43s1,11.32,0,11.52-2.65-8.55-4.19-8.38c-1.07.12-1.9,4.49-1.05,8.38A14.71,14.71,0,0,0,514.17,1277.74Z"/><path class="cls-7" d="M417.83,1372l20.94-1c.08-1,.24-2.48.54-4.3.43-2.56.85-3.91.51-4.08-.68-.34-3.41,4.55-4.19,4.19s1.37-4.16,0-8.38c-.48-1.48-1.46-3.27-2.09-3.14-1.44.29-.29,10.38-1.05,10.47s-2.27-9.52-3.14-9.42-.53,8.35-1.05,8.37-.89-7.26-2.09-7.33-1.82,6.29-3.14,6.29c-1.62,0-2.75-9.48-3.15-9.43s1,11.32,0,11.52-2.64-8.55-4.19-8.38c-1.06.12-1.89,4.49-1,8.38A14.71,14.71,0,0,0,417.83,1372Z"/><path class="cls-7" d="M136.67,1262.47l20.75-1c.08-1,.23-2.45.53-4.26.43-2.54.85-3.88.51-4-.68-.33-3.38,4.5-4.15,4.15s1.35-4.12,0-8.3c-.48-1.47-1.45-3.24-2.08-3.11-1.42.28-.28,10.28-1,10.37s-2.25-9.43-3.12-9.34-.52,8.28-1,8.3-.89-7.19-2.08-7.26-1.8,6.23-3.11,6.22c-1.6,0-2.72-9.38-3.11-9.33s1,11.21,0,11.41-2.62-8.47-4.15-8.3c-1.06.12-1.88,4.44-1,8.3A14.56,14.56,0,0,0,136.67,1262.47Z"/><path class="cls-7" d="M108.66,1413.09l20.94-1c.08-1,.23-2.47.54-4.29.43-2.57.85-3.92.51-4.09-.68-.33-3.41,4.55-4.19,4.19s1.37-4.15,0-8.37c-.48-1.48-1.46-3.27-2.09-3.15-1.45.29-.29,10.38-1.05,10.48s-2.27-9.52-3.14-9.43-.53,8.35-1.05,8.38-.89-7.26-2.09-7.33-1.83,6.29-3.15,6.28c-1.61,0-2.75-9.48-3.14-9.42s1,11.31,0,11.52-2.64-8.55-4.19-8.38c-1.06.12-1.89,4.48-1,8.38A14.73,14.73,0,0,0,108.66,1413.09Z"/><path class="cls-7" d="M328.38,1413.51l20.95-1c.08-1,.23-2.47.53-4.3.43-2.56.85-3.91.51-4.08-.68-.33-3.41,4.55-4.19,4.19s1.37-4.16,0-8.38c-.48-1.48-1.46-3.27-2.09-3.14-1.44.29-.29,10.38-1,10.47s-2.27-9.52-3.14-9.42-.53,8.35-1,8.38-.89-7.27-2.09-7.34-1.82,6.29-3.14,6.29c-1.61,0-2.75-9.48-3.14-9.43s1,11.32,0,11.52-2.65-8.55-4.19-8.38c-1.07.12-1.9,4.49-1.05,8.38A14.71,14.71,0,0,0,328.38,1413.51Z"/><path class="cls-7" d="M282.64,903.6l20.94-1c.08-1,.23-2.48.54-4.3.43-2.57.85-3.91.51-4.08-.69-.34-3.41,4.55-4.19,4.19s1.37-4.16,0-8.38c-.48-1.48-1.46-3.27-2.09-3.14-1.45.28-.29,10.38-1.05,10.47s-2.27-9.52-3.14-9.43-.53,8.36-1.05,8.38-.9-7.26-2.1-7.33-1.82,6.29-3.14,6.28c-1.61,0-2.75-9.47-3.14-9.42s1,11.32,0,11.52-2.64-8.55-4.19-8.38c-1.07.12-1.89,4.48-1,8.38A14.67,14.67,0,0,0,282.64,903.6Z"/><path class="cls-7" d="M420.68,959.52l20.94-1c.08-1,.23-2.47.54-4.29.43-2.57.85-3.92.51-4.08-.68-.34-3.41,4.54-4.19,4.19s1.37-4.16,0-8.38c-.48-1.48-1.46-3.27-2.09-3.14-1.45.28-.29,10.37-1.05,10.47s-2.27-9.52-3.14-9.43-.53,8.35-1.05,8.38-.9-7.26-2.09-7.33-1.83,6.29-3.15,6.28c-1.61,0-2.75-9.47-3.14-9.42s1,11.32,0,11.52-2.64-8.55-4.19-8.38c-1.07.12-1.89,4.48-1,8.38A14.73,14.73,0,0,0,420.68,959.52Z"/><path class="cls-7" d="M742.17,897.74l21-1c.08-1,.23-2.47.53-4.3.43-2.56.86-3.91.51-4.08-.68-.34-3.4,4.55-4.18,4.19s1.36-4.16,0-8.38c-.48-1.48-1.47-3.27-2.1-3.14-1.44.29-.29,10.38-1,10.47s-2.27-9.52-3.14-9.42-.52,8.35-1,8.37-.9-7.26-2.1-7.33-1.82,6.29-3.14,6.29c-1.61,0-2.75-9.48-3.14-9.43s1,11.32,0,11.52-2.65-8.55-4.19-8.38c-1.07.12-1.9,4.49-1.05,8.38A14.71,14.71,0,0,0,742.17,897.74Z"/><path class="cls-7" d="M645.83,992l20.94-1c.08-1,.24-2.48.54-4.3.43-2.56.85-3.91.51-4.08-.68-.34-3.41,4.55-4.19,4.19s1.37-4.16,0-8.38c-.48-1.48-1.46-3.27-2.09-3.14-1.44.29-.29,10.38-1,10.47s-2.27-9.52-3.14-9.42-.53,8.35-1.05,8.37-.89-7.26-2.09-7.33-1.82,6.29-3.14,6.29c-1.62,0-2.75-9.48-3.15-9.43s1,11.32,0,11.52-2.64-8.55-4.19-8.38c-1.06.12-1.89,4.49-1,8.38A14.71,14.71,0,0,0,645.83,992Z"/><path class="cls-7" d="M391.67,894.47l20.75-1c.08-1,.23-2.45.53-4.26.43-2.54.85-3.88.51-4-.68-.33-3.38,4.5-4.15,4.15s1.35-4.12,0-8.3c-.48-1.47-1.45-3.24-2.08-3.11-1.42.28-.28,10.28-1,10.37s-2.25-9.43-3.12-9.34-.52,8.28-1,8.3S401.16,880,400,880s-1.8,6.23-3.11,6.22c-1.6,0-2.72-9.38-3.11-9.33s1,11.21,0,11.41-2.62-8.47-4.15-8.3c-1.06.12-1.88,4.44-1,8.3A14.56,14.56,0,0,0,391.67,894.47Z"/><path class="cls-7" d="M336.66,1033.09l20.94-1c.08-1,.23-2.47.54-4.29.43-2.57.85-3.92.51-4.09-.68-.33-3.41,4.55-4.19,4.19s1.37-4.15,0-8.37c-.48-1.48-1.46-3.27-2.09-3.15-1.45.29-.29,10.38-1.05,10.48s-2.27-9.52-3.14-9.43-.53,8.35-1.05,8.38-.89-7.26-2.09-7.33-1.83,6.29-3.15,6.28c-1.61,0-2.75-9.48-3.14-9.42s1,11.31,0,11.52-2.64-8.55-4.19-8.38c-1.06.12-1.89,4.48-1,8.38A14.73,14.73,0,0,0,336.66,1033.09Z"/><path class="cls-7" d="M609.38,1067.51l21-1c.08-1,.23-2.47.53-4.3.43-2.56.85-3.91.51-4.08-.68-.33-3.41,4.55-4.19,4.19s1.37-4.16,0-8.38c-.48-1.48-1.46-3.27-2.09-3.14-1.44.29-.29,10.38-1.05,10.47s-2.27-9.52-3.14-9.42-.53,8.35-1,8.38-.89-7.27-2.09-7.34-1.82,6.29-3.14,6.29c-1.61,0-2.75-9.48-3.14-9.43s1,11.32,0,11.52-2.65-8.55-4.19-8.38c-1.07.12-1.9,4.49-1,8.38A14.71,14.71,0,0,0,609.38,1067.51Z"/><polygon class="cls-8" points="621.32 715.12 640.45 791.01 602.19 791.01 621.32 715.12"/><polygon class="cls-9" points="621.58 716.16 621.58 790.05 621.26 791.01 640.61 791.01 621.58 716.16"/><path class="cls-10" d="M618.66,828.5l4.87.24q-.45-35.46-.92-70.91h-1.77Q619.75,793.17,618.66,828.5Z"/><polygon class="cls-8" points="379.11 735.64 390.21 779.69 368 779.69 379.11 735.64"/><polygon class="cls-9" points="379.26 736.25 379.26 779.13 379.07 779.69 390.3 779.69 379.26 736.25"/><path class="cls-10" d="M377.56,801.45l2.83.14-.54-41.16h-1Q378.2,781,377.56,801.45Z"/><polygon class="cls-8" points="349.79 749.22 363.1 802.01 336.49 802.01 349.79 749.22"/><polygon class="cls-9" points="349.98 749.94 349.98 801.34 349.75 802.01 363.21 802.01 349.98 749.94"/><path class="cls-10" d="M347.94,828.09l3.39.16q-.31-24.66-.64-49.32h-1.23Q348.7,803.52,347.94,828.09Z"/><path class="cls-9" d="M659.89,733.7l-.06,41.2-.49,1.88a34.74,34.74,0,0,0,6.35.28,6.64,6.64,0,0,0,3.59-.83,5.7,5.7,0,0,0,2.21-3,51.45,51.45,0,0,0-2.21-23.75c-2.5-7.32-4.17-11.77-7.89-14.68A16.81,16.81,0,0,0,659.89,733.7Z"/><path class="cls-8" d="M659.89,733.7v41.12l.28,2a41.45,41.45,0,0,1-6.08.28c-2.14-.06-3-.26-3.86-.83a5.2,5.2,0,0,1-1.93-2.76c-.09-1.81-.62-14.84,2.14-24.11a48.64,48.64,0,0,1,3.1-7.65,23,23,0,0,1,4.14-6.07A20.36,20.36,0,0,1,659.89,733.7Z"/><path class="cls-10" d="M658.44,795.15l2.77.13q-.26-20.19-.52-40.38h-1Q659.07,775,658.44,795.15Z"/><path class="cls-9" d="M312,755q0,23.36-.07,46.7l-.54,2.13a38.55,38.55,0,0,0,7.06.32c2.15-.11,3.1-.35,4-.94a6.49,6.49,0,0,0,2.45-3.45,59.41,59.41,0,0,0-2.45-26.92c-2.78-8.31-4.64-13.34-8.77-16.65A19.28,19.28,0,0,0,312,755Z"/><path class="cls-8" d="M312,755v46.61l.31,2.22a45.88,45.88,0,0,1-6.75.32c-2.39-.07-3.38-.3-4.3-.94a6,6,0,0,1-2.14-3.13c-.1-2-.69-16.83,2.37-27.33a55.46,55.46,0,0,1,3.46-8.67,26,26,0,0,1,4.6-6.89A22.21,22.21,0,0,1,312,755Z"/><path class="cls-10" d="M310.37,824.7l3.09.15q-.29-22.89-.58-45.78h-1.12Q311.07,801.89,310.37,824.7Z"/><rect class="cls-11" x="412.2" y="751.26" width="171.52" height="77.8"/><polygon class="cls-11" points="420.11 752.4 412.2 758.38 412.2 758.38 420.11 758.38 421.29 758.38 441.05 758.38 442.24 758.38 462.39 758.38 463.58 758.38 483.34 758.38 484.53 758.38 499.94 758.38 501.13 758.38 521.28 758.38 522.47 758.38 545.39 758.38 546.58 758.38 583.73 758.38 546.58 730.29 545.39 729.39 522.47 712.05 521.28 711.16 501.13 695.92 499.94 695.02 497.96 693.52 484.5 703.7 483.34 704.58 462.96 719.99 462.39 720.42 442.2 735.7 441.05 736.56 421.29 751.5 420.11 752.4"/><polygon class="cls-12" points="501.13 695.91 501.13 729.44 501.13 753.94 501.13 758.11 501.13 828.48 499.94 828.48 499.94 758.11 499.94 753.94 499.94 729.44 499.94 695.01 501.13 695.91"/><polygon class="cls-12" points="442.2 735.52 442.24 735.52 442.24 758.11 442.24 829.06 441.05 829.06 441.05 758.11 441.05 736.38 442.2 735.52"/><rect class="cls-12" x="462.4" y="719.88" width="1.19" height="109.18"/><polygon class="cls-12" points="476.23 705.69 476.23 759.26 476.23 828.77 477.41 828.77 477.41 759.26 477.41 755.1 477.41 730.59 477.41 704.82 477.39 704.82 476.23 705.69"/><rect class="cls-12" x="420.11" y="751.16" width="1.19" height="77.9"/><polygon class="cls-12" points="521.28 711.08 521.28 758.11 521.28 828.48 522.47 828.48 522.47 758.11 522.47 711.98 521.28 711.08"/><polygon class="cls-12" points="545.39 729.24 545.39 758.11 545.39 828.48 546.58 828.48 546.58 758.11 546.58 730.13 545.39 729.24"/><polygon class="cls-12" points="566.73 745.31 566.73 758.11 566.73 828.48 567.92 828.48 567.92 758.11 567.92 746.2 566.73 745.31"/><polygon class="cls-12" points="578.98 754.53 578.98 758.11 578.98 829.06 577.8 829.06 577.8 758.11 577.8 753.64 578.98 754.53"/><rect class="cls-13" x="483.14" y="775.34" width="32.41" height="53.87"/><rect class="cls-14" x="487.34" y="729.44" width="20.9" height="24.51"/><polygon class="cls-15" points="499.22 694.25 401.08 766.17 396 762.45 494.14 690.53 499.22 694.25"/><polygon class="cls-15" points="492.35 691.85 588.98 762.66 594 758.98 497.37 688.17 492.35 691.85"/><rect class="cls-16" x="484.36" y="760.99" width="28.46" height="7.12"/><path d="M487.4,762.3H489v.38a1.26,1.26,0,0,0-.45.21,1.09,1.09,0,0,0-.35.51l-.06.19a.25.25,0,0,1-.13.14.63.63,0,0,1-.26,0,.67.67,0,0,1-.26,0,.19.19,0,0,1-.1-.15Zm4.8,0V766a.18.18,0,0,0,.09.17l.1,0,.28,0c.19,0,.29.08.29.17s0,.1-.16.13a1.24,1.24,0,0,1-.39,0h-3.12a1.36,1.36,0,0,1-.4,0c-.09,0-.14-.07-.14-.13s.1-.15.29-.17l.28,0,.09,0a.18.18,0,0,0,.09-.17V762.3Zm2.11,0v1.28a.17.17,0,0,1-.1.15.63.63,0,0,1-.26,0,.62.62,0,0,1-.25,0,.22.22,0,0,1-.13-.14l-.06-.19a1,1,0,0,0-.36-.51,1.29,1.29,0,0,0-.44-.21v-.38Z"/><path d="M497.08,763.09l.31.65-1.08,2a.41.41,0,0,0-.05.17c0,.13.12.22.36.28l.22,0c.13,0,.2.08.2.15s-.15.16-.45.16h-1.54a1.15,1.15,0,0,1-.36-.05c-.09,0-.13-.07-.13-.13s.09-.11.27-.15l.37-.1a.71.71,0,0,0,.22-.13.86.86,0,0,0,.28-.34Zm.42-.79H500l1.69,3.68a1,1,0,0,0,.11.17.5.5,0,0,0,.24.1l.22.06a.12.12,0,0,1,.06.1c0,.11-.16.16-.47.16h-3a.78.78,0,0,1-.29,0c-.08,0-.11-.08-.11-.13a.09.09,0,0,1,.05-.09.82.82,0,0,1,.21-.08.39.39,0,0,0,.17-.07.09.09,0,0,0,.05-.09s0-.07,0-.09l-.19-.46h-1.7l.17-.37h1.36l-1.12-2.54Z"/><path d="M505.59,762.21v.36a2,2,0,0,0-.58.17.3.3,0,0,0-.19.27.33.33,0,0,0,.16.28,2.1,2.1,0,0,0,.54.22l1.15.28a7.65,7.65,0,0,1,.85.22,2.87,2.87,0,0,1,.57.24c.48.26.72.57.72.92a1,1,0,0,1-.39.74,2.75,2.75,0,0,1-1.07.53,5.65,5.65,0,0,1-.8.16,6,6,0,0,1-.81.06v-.36a3.13,3.13,0,0,0,.76-.18.35.35,0,0,0,.23-.32c0-.14-.12-.27-.36-.37a5.68,5.68,0,0,0-.93-.26l-1-.24a4.26,4.26,0,0,1-.54-.17c-.76-.28-1.14-.65-1.14-1.12A.9.9,0,0,1,503,763a2,2,0,0,1,.79-.49A5.84,5.84,0,0,1,505.59,762.21Zm-.32,4.09v.36a4.59,4.59,0,0,1-1.1-.15l-.31-.07-.16,0-.19,0-.19.1a.42.42,0,0,1-.24.07c-.23,0-.34-.09-.34-.27v-1.13a.17.17,0,0,1,.1-.15.52.52,0,0,1,.24-.07.41.41,0,0,1,.21,0,.39.39,0,0,1,.13.15,1.59,1.59,0,0,0,.41.5,2.39,2.39,0,0,0,.61.4A2.36,2.36,0,0,0,505.27,766.3Zm.8-3.73v-.34a5.2,5.2,0,0,1,.63,0c.18,0,.44.07.76.14l.21,0a.39.39,0,0,0,.17,0l.13-.1a.45.45,0,0,1,.24-.06.38.38,0,0,1,.24.06.22.22,0,0,1,.07.19v1a.17.17,0,0,1-.1.15.46.46,0,0,1-.25.06.79.79,0,0,1-.23,0l-.09-.06a.67.67,0,0,1-.06-.12,1.07,1.07,0,0,0-.23-.32,2,2,0,0,0-.39-.29A3,3,0,0,0,506.07,762.57Z"/><path class="cls-17" d="M64.09,307.07A50.61,50.61,0,0,0,85,311c10.29-.36,15.15-4,27.58-5.46a78.89,78.89,0,0,1,18.63,0c2.44-1.63,10.36-7.37,11.75-17,.46-3.22-1.12-7.66-1.79-10.2-.95-3.55-1.44-5.34-2.51-6.37-3.26-3.14-9.93-2.28-14.32.19-2.91,1.64-3.69,3.36-5.06,2.93-2.41-.76-.89-6.37-4.41-10.48s-9.15-3.62-9.75-3.57c-5.53.47-10.31,4.87-10.43,7.81,0,.49,0,3.12,0,3.12h0s-3.86-2.77-8.2-5.46c-2.46-1.53-3.71-2.31-4.75-2.58s-4.69-1.49-7.36.68c-2.91,2.37-2.76,5.83-4.73,6.18s-2.53-3-5.79-4.12A6.58,6.58,0,0,0,57,268.72c-1.93,2.48-.88,6.15-1.83,6.36-.68.15-1.09-1.78-3-3.12a7.18,7.18,0,0,0-4.65-1.18c-4.25.44-6.88,5.07-7.89,6.87l-.08.14c-5.53,9.93-3.08,18.39-3.08,18.39a19.79,19.79,0,0,0,8.25,10.89C53.74,312.62,63.46,307.42,64.09,307.07Z"/><path class="cls-18" d="M149.6,422.27a21,21,0,0,0,9.1,1.79c4.49-.17,6.6-1.82,12-2.5a32.78,32.78,0,0,1,8.13,0c1.07-.75,4.52-3.37,5.12-7.76.21-1.48-.48-3.51-.78-4.67-.41-1.62-.62-2.45-1.09-2.92-1.42-1.43-4.33-1-6.25.09-1.26.75-1.6,1.54-2.2,1.34-1.05-.34-.39-2.91-1.92-4.79a5.17,5.17,0,0,0-4.26-1.63c-2.41.21-4.49,2.22-4.55,3.57,0,.22,0,1.42,0,1.42h0s-1.68-1.26-3.57-2.49a9.22,9.22,0,0,0-2.07-1.18c-.39-.11-2.05-.68-3.22.31s-1.2,2.66-2.06,2.83-1.1-1.38-2.52-1.89a2.81,2.81,0,0,0-3,.95c-.84,1.13-.38,2.81-.8,2.9s-.47-.81-1.3-1.43a3,3,0,0,0-2-.53c-1.86.2-3,2.32-3.44,3.14l0,.06a12.3,12.3,0,0,0-1.34,8.41,9,9,0,0,0,3.59,5C145.08,424.81,149.32,422.43,149.6,422.27Z"/><path class="cls-19" d="M204.19,375.91a41.88,41.88,0,0,0,15.55,2.6c7.67-.24,11.29-2.65,20.55-3.64a66.4,66.4,0,0,1,13.89,0c1.82-1.08,7.73-4.9,8.76-11.29.34-2.14-.83-5.1-1.34-6.79-.7-2.36-1.07-3.55-1.86-4.24-2.43-2.08-7.4-1.51-10.68.13-2.16,1.1-2.75,2.23-3.77,1.95-1.79-.5-.66-4.23-3.28-7s-6.83-2.41-7.27-2.37c-4.12.31-7.69,3.23-7.78,5.19,0,.33,0,2.07,0,2.07h0s-2.88-1.83-6.11-3.63a16.18,16.18,0,0,0-3.54-1.71c-.66-.16-3.5-1-5.49.45-2.16,1.57-2,3.88-3.52,4.11s-1.88-2-4.32-2.74a5.27,5.27,0,0,0-5.09,1.37c-1.45,1.65-.66,4.09-1.37,4.23-.51.1-.81-1.19-2.22-2.08a5.91,5.91,0,0,0-3.47-.78c-3.17.29-5.13,3.37-5.88,4.57l-.06.09c-4.11,6.61-2.29,12.23-2.29,12.23a13.56,13.56,0,0,0,6.15,7.25C196.47,379.61,203.72,376.14,204.19,375.91Z"/><path class="cls-20" d="M41.4,404.27a28.93,28.93,0,0,0,13.38,2.86c6.6-.27,9.72-2.92,17.68-4a44.13,44.13,0,0,1,12,0c1.57-1.2,6.65-5.41,7.54-12.45.29-2.37-.72-5.62-1.15-7.48-.61-2.61-.92-3.92-1.61-4.68-2.09-2.3-6.37-1.67-9.18.15-1.87,1.2-2.37,2.45-3.24,2.14-1.55-.55-.58-4.67-2.83-7.68a7.19,7.19,0,0,0-6.25-2.62c-3.55.34-6.62,3.57-6.7,5.72,0,.36,0,2.29,0,2.29h0s-2.47-2-5.25-4a13.43,13.43,0,0,0-3.05-1.9c-.57-.17-3-1.08-4.72.51s-1.77,4.27-3,4.53-1.61-2.21-3.71-3a3.89,3.89,0,0,0-4.38,1.51c-1.24,1.81-.57,4.51-1.18,4.66-.43.11-.7-1.31-1.91-2.29a4.09,4.09,0,0,0-3-.86c-2.73.32-4.41,3.72-5.06,5l-.05.11a21.35,21.35,0,0,0-2,13.48,14.35,14.35,0,0,0,5.28,8C34.76,408.34,41,404.52,41.4,404.27Z"/><path class="cls-21" d="M773,372.52a26.41,26.41,0,0,0,10.76,2c5.3-.18,7.8-2,14.2-2.77a41.31,41.31,0,0,1,9.6,0c1.26-.83,5.34-3.74,6.06-8.61.24-1.63-.58-3.88-.92-5.17-.49-1.8-.75-2.71-1.3-3.23-1.67-1.59-5.11-1.16-7.37.1-1.5.83-1.9,1.7-2.61,1.48-1.24-.38-.46-3.23-2.27-5.31a6.33,6.33,0,0,0-5-1.81c-2.84.24-5.31,2.47-5.37,4,0,.25,0,1.58,0,1.58h0s-2-1.4-4.23-2.77a11,11,0,0,0-2.44-1.31c-.46-.12-2.42-.75-3.8.35s-1.42,2.95-2.44,3.13-1.29-1.53-3-2.09a3.43,3.43,0,0,0-3.52,1.05c-1,1.25-.45,3.12-.94,3.22s-.57-.9-1.54-1.58a3.73,3.73,0,0,0-2.4-.6c-2.19.22-3.54,2.57-4.06,3.48l0,.07a12.91,12.91,0,0,0-1.59,9.33,10.09,10.09,0,0,0,4.25,5.52C767.71,375.34,772.72,372.7,773,372.52Z"/><path class="cls-22" d="M675.15,318a32.9,32.9,0,0,0,13.33,2.45c6.57-.23,9.67-2.5,17.6-3.43a50.92,50.92,0,0,1,11.9,0c1.56-1,6.62-4.64,7.5-10.67.3-2-.71-4.81-1.14-6.41-.6-2.23-.92-3.36-1.6-4-2.08-2-6.34-1.43-9.15.13-1.85,1-2.35,2.11-3.22,1.84-1.54-.48-.57-4-2.82-6.59S701.7,289,701.32,289c-3.53.3-6.58,3.06-6.66,4.9,0,.31,0,2,0,2h0s-2.46-1.73-5.23-3.43a14,14,0,0,0-3-1.62c-.56-.14-3-.93-4.7.43s-1.76,3.66-3,3.89-1.61-1.9-3.69-2.59a4.25,4.25,0,0,0-4.37,1.29c-1.24,1.56-.56,3.87-1.17,4-.44.09-.7-1.12-1.9-2a4.62,4.62,0,0,0-3-.73c-2.72.27-4.4,3.18-5,4.31l0,.09a15.94,15.94,0,0,0-2,11.55,12.45,12.45,0,0,0,5.26,6.85C668.54,321.44,674.75,318.17,675.15,318Z"/><path class="cls-23" d="M700.91,420.48a17.5,17.5,0,0,1-7.55,1.5c-3.72-.14-5.48-1.53-10-2.1a27,27,0,0,0-6.74,0,10,10,0,0,1-4.25-6.53,11.85,11.85,0,0,1,.64-3.92A5.83,5.83,0,0,1,674,407c1.18-1.21,3.59-.88,5.18.07,1,.63,1.34,1.29,1.83,1.13.87-.29.32-2.45,1.6-4a4.24,4.24,0,0,1,3.52-1.37c2,.18,3.73,1.87,3.78,3,0,.19,0,1.2,0,1.2h0s1.4-1.06,3-2.1a7.43,7.43,0,0,1,1.72-1,2.87,2.87,0,0,1,2.67.26c1,.91,1,2.24,1.71,2.38s.91-1.16,2.09-1.59a2.28,2.28,0,0,1,2.47.8c.71.95.32,2.36.67,2.44s.39-.69,1.08-1.2a2.38,2.38,0,0,1,1.68-.45c1.54.16,2.49,2,2.85,2.64l0,.05a10.45,10.45,0,0,1,1.11,7.07,7.48,7.48,0,0,1-3,4.19C704.66,422.61,701.14,420.61,700.91,420.48Z"/><polygon class="cls-24" points="395.81 330.44 395.87 330.4 364.95 294.19 364.9 294.23 395.81 330.44"/><polygon class="cls-24" points="386.01 339.11 386.04 339.06 344.58 313.19 344.54 313.24 386.01 339.11"/><polygon class="cls-24" points="383 349.33 383.01 349.27 334.84 336.49 334.82 336.54 383 349.33"/><polygon class="cls-24" points="406.03 325.93 406.1 325.91 390.21 282.29 390.15 282.31 406.03 325.93"/><polygon class="cls-24" points="416.98 325.44 417.05 325.45 421.76 279.66 421.7 279.66 416.98 325.44"/><polygon class="cls-24" points="427.89 328.2 427.96 328.22 439.76 283.52 439.69 283.51 427.89 328.2"/><polygon class="cls-24" points="444.16 353.03 444.17 353.09 494.05 348.34 494.05 348.27 444.16 353.03"/><polygon class="cls-24" points="442.24 345.24 442.28 345.29 483.21 318.71 483.18 318.66 442.24 345.24"/><polygon class="cls-24" points="437.33 334.01 437.38 334.05 465.6 296.03 465.55 296 437.33 334.01"/><polygon class="cls-24" points="430.44 375.11 430.39 375.15 461.47 411.24 461.52 411.2 430.44 375.11"/><polygon class="cls-24" points="440.21 366.4 440.17 366.45 481.76 392.16 481.79 392.11 440.21 366.4"/><polygon class="cls-24" points="443.17 356.17 443.15 356.23 491.39 368.83 491.41 368.77 443.17 356.17"/><polygon class="cls-24" points="420.24 379.66 420.18 379.68 436.27 423.24 436.33 423.22 420.24 379.66"/><polygon class="cls-24" points="409.29 380.2 409.23 380.19 404.73 425.99 404.8 426 409.29 380.2"/><polygon class="cls-24" points="398.37 377.48 398.31 377.46 386.71 422.2 386.78 422.22 398.37 377.48"/><polygon class="cls-24" points="381.99 352.71 381.98 352.65 332.12 357.61 332.13 357.67 381.99 352.71"/><polygon class="cls-24" points="383.94 360.5 383.9 360.45 343.1 387.19 343.13 387.24 383.94 360.5"/><polygon class="cls-24" points="388.91 371.7 388.85 371.67 360.81 409.8 360.87 409.83 388.91 371.7"/><path class="cls-25" d="M381.91,304.57,403.39,332l.06,0L382,304.56Z"/><path class="cls-25" d="M368.83,319.67l-.14.13,21.07,12.79.11-.15Z"/><path class="cls-25" d="M386.84,345.05l-35.61-9.45,0,.06,35.62,9.45Z"/><path class="cls-25" d="M406.61,303.31l3.29,24.28H410l-3.28-24.26Z"/><path class="cls-25" d="M423.13,304.11l-2.32,22.5h.07l2.32-22.49Z"/><path class="cls-25" d="M436.78,317.42l-7,10.5.05,0,7-10.5Z"/><path class="cls-25" d="M476.69,346.08,448,348.81v.06l28.7-2.73Z"/><path class="cls-25" d="M446.11,346.46l34.81-22.6,0-.06-34.82,22.61Z"/><path class="cls-25" d="M451.29,326.15,441.16,339.8l0,0,10.13-13.65Z"/><path class="cls-25" d="M457,392.71l-17.46-20.28,0,0,17.46,20.28Z"/><path class="cls-25" d="M442.15,363.56l0,.06,35.16,13.58,0-.06Z"/><path class="cls-25" d="M464.91,357.17l-18.27-1.23V356l18.25,1.23Z"/><path class="cls-25" d="M435.38,402l-7.8-21.13-.07,0L435.32,402Z"/><path class="cls-25" d="M414.52,381.31l.86,33h.07l-.87-33Z"/><path class="cls-25" d="M396.14,402.05l6.06-23.41h-.06L396.08,402Z"/><path class="cls-25" d="M360,360.29l25.79-2.56v-.06L360,360.23A.13.13,0,0,0,360,360.29Z"/><path class="cls-25" d="M369.16,379.24l21.49-19.1,0,0-21.49,19.1Z"/><path class="cls-25" d="M392.68,372.84l-21,28.61.05.05,21.05-28.63Z"/><ellipse class="cls-26" cx="414.71" cy="353.15" rx="34.63" ry="30.4"/></svg>