<svg xmlns="http://www.w3.org/2000/svg" xmlns:xlink="http://www.w3.org/1999/xlink" viewBox="0 0 1900 800" xmlns:v="https://vecta.io/nano"><style><![CDATA[.K{stroke-miterlimit:10}.L{stroke:#231f20}.M{fill:#fff}.N{enable-background:new}.O{fill:#fff100}.P{stroke-width:.5}.Q{fill:#327942}]]></style><path d="M0 0h1900v800H0z" fill="#89cd4b"/><path d="M1086.1 106.3h12c5.2 0 9.4.7 12.6 2.1s5.8 4 7.8 7.7 2.9 8.8 2.9 15.2c0 4.5-.6 8.6-1.8 12.1s-2.7 6.3-4.7 8.3-4.1 3.4-6.5 4.1-5.4 1-9.1 1H1086v-50.5zm11.1 8.7v33.2h1.9c2.6 0 4.6-.5 6-1.5s2.5-2.7 3.4-5.2 1.3-6 1.3-10.7c0-4.3-.5-7.6-1.4-9.9s-2.1-3.9-3.5-4.7-3.3-1.2-5.7-1.2h-2zm31.5-8.7h30.7v8.7h-19.6v11.7h15.3v8.7h-15.3v12.4h19.6v9h-30.7v-50.5zm67.1 11l-9.2 3.5c-1.3-4.2-3.7-6.3-7.2-6.3-1.6 0-2.9.5-3.9 1.4s-1.4 2-1.4 3.2c0 1.4.6 2.6 1.7 3.4 1.1.9 3.5 2 7.1 3.4 3.3 1.2 5.8 2.4 7.7 3.6s3.4 2.8 4.5 4.8 1.7 4.4 1.7 7.1c0 4.7-1.6 8.6-4.9 11.6-3.2 3-7.6 4.5-13.1 4.5-9.2 0-15-4.6-17.6-13.9l9.7-2.8c1.2 5.1 3.9 7.6 8.1 7.6 1.9 0 3.5-.5 4.7-1.5s1.8-2.3 1.8-3.9c0-1.2-.4-2.3-1.3-3.3-.8-1-2.8-2-5.8-3.1-3.9-1.4-6.8-2.6-8.7-3.8-1.9-1.1-3.5-2.7-4.7-4.8s-1.9-4.5-1.9-7.1c0-4.5 1.5-8.3 4.4-11.2s6.8-4.4 11.6-4.4c9.1.3 14.5 4.2 16.7 12zm7.9-11h14.6c4.4 0 7.8.4 10.3 1.1 2.4.7 4.5 2.4 6.1 5 1.7 2.6 2.5 5.8 2.5 9.7 0 3.7-.7 6.8-2 9.2s-3.2 4.2-5.5 5.2-6 1.6-10.9 1.6h-3.9v18.7h-11.1v-50.5zm11.1 8.2v15h3.4c3 0 5-.7 5.9-2.1s1.3-3.2 1.3-5.5c0-1.9-.3-3.4-1-4.6s-1.5-1.9-2.4-2.3c-.9-.3-2.2-.5-3.8-.5h-3.4zm27.6-8.2h15.9c3.1 0 5.4.1 7.1.4 1.6.3 3.3 1 5 2.3 1.7 1.2 3 3 3.9 5.1s1.4 4.6 1.4 7.3c0 6.3-2.4 10.8-7.1 13.3l9.3 22.1h-12.1l-6.8-20h-5.6v20h-11.1v-50.5zm11.1 8.2v14.2h4.9c4.3 0 6.5-2.4 6.5-7.3 0-1.7-.3-3.1-1-4.1-.6-1.1-1.4-1.8-2.2-2.2-.9-.4-2.1-.6-3.8-.6h-4.4zm30.3-8.2h30.7v8.7h-19.6v11.7h15.3v8.7h-15.3v12.4h19.6v9h-30.7v-50.5zm49.9 0h12.3l13 31.4v-31.4h8.6v50.6h-9.9l-15.4-36.6v36.6h-8.6v-50.6zm77.9 25.3c0 17.4-6.1 26.1-18.3 26.1-6.1 0-10.7-2.2-13.7-6.6-3.1-4.4-4.6-10.9-4.6-19.4 0-17.4 6.1-26 18.3-26 6 0 10.5 2.2 13.7 6.5 3 4.2 4.6 10.7 4.6 19.4zm-11.7 0c0-6.8-.5-11.4-1.6-13.6s-2.8-3.4-5.1-3.4-4 1.1-5 3.4-1.6 6.8-1.6 13.6c0 6.7.5 11.2 1.6 13.5 1 2.3 2.7 3.5 5.1 3.5 2.3 0 4-1.1 5.1-3.4 1-2.2 1.5-6.7 1.5-13.6zm19.4-25.3h11.1v50.6h-11.1v-50.6z" class="M N"/><g class="M N"><path d="M897.5 324.1c-1.4-.6-2.5-1.6-3.3-2.7-.8-1.2-1.1-2.5-1.1-4 0-1.3.3-2.5.8-3.5.5-1.1 1.3-1.9 2.2-2.5s2-.9 3.1-.9c1 0 1.9.3 2.6.8s1.1 1.2 1.3 2.1c-1.5 0-2.8.4-3.7 1.2s-1.4 1.9-1.4 3.3c0 1.3.4 2.3 1.1 3 .8.8 1.8 1.1 3 1.1 1.6 0 2.8-.5 3.9-1.6 1-1 1.5-2.4 1.5-4 0-1.4-.4-2.7-1.1-3.9-.8-1.2-1.9-2.7-3.4-4.5-1.6-1.8-2.8-3.4-3.6-4.7s-1.2-2.7-1.2-4.3c0-1.5.4-2.9 1.3-4.1s2-2.2 3.5-2.9 3.2-1.1 5.1-1.1c2.4 0 4.3.6 5.7 1.7s2.1 2.6 2.1 4.5c0 1.2-.3 2.2-.9 3s-1.4 1.1-2.4 1.1c-1.1 0-2-.5-2.7-1.4.6-.4 1-1 1.3-1.6.3-.7.5-1.4.5-2.1 0-.9-.3-1.7-.8-2.3-.6-.6-1.3-.8-2.3-.8-1.2 0-2.1.4-2.9 1.3-.8.8-1.1 1.9-1.1 3.2 0 1.2.3 2.3 1 3.3s1.7 2.3 3.2 3.9l2.8 3.3c.7.9 1.3 2 1.9 3.2.5 1.2.8 2.5.8 3.9 0 1.9-.5 3.6-1.6 5.1-1 1.5-2.5 2.7-4.3 3.6s-3.8 1.3-6 1.3c-1.8 0-3.4-.3-4.9-1zm20.2-.9c-.9-.9-1.3-2.2-1.3-4 0-.7.1-1.7.4-2.9l3-14.2h6.4l-3.2 15c-.1.4-.1.9-.1 1.2 0 1.2.4 1.8 1.3 1.8.8 0 1.5-.3 2.1-1s1.1-1.6 1.4-2.8l3-14.2h6.4l-3.2 15c-.1.4-.2.9-.2 1.4 0 .6.1 1 .4 1.3s.7.4 1.4.4c.8 0 1.5-.4 2.1-1.1s1.1-1.6 1.4-2.8h1.9c-1.1 3.2-2.4 5.3-4 6.5-1.6 1.1-3.2 1.7-4.8 1.7-1.3 0-2.3-.4-3-1.1-.8-.7-1.2-1.8-1.3-3.1-1 1.6-2.1 2.7-3.2 3.3s-2.2.9-3.4.9c-1.4.1-2.6-.4-3.5-1.3z"/><use xlink:href="#B"/><path d="M962.4 323.2c-.9-.9-1.3-2.2-1.3-4 0-.7.1-1.7.4-2.9l2.7-12.4h-1.5l.4-1.8h1.5l1.3-6.1 6.5-.9-1.5 7h2.7l-.4 1.8h-2.7l-2.8 13.3c-.1.4-.2.9-.2 1.4 0 .6.1 1 .4 1.3s.7.4 1.4.4c.9 0 1.6-.4 2.4-1.1.7-.7 1.3-1.7 1.6-2.8h1.9c-1.1 3.2-2.5 5.3-4.2 6.5-1.7 1.1-3.4 1.7-5.1 1.7-1.5 0-2.7-.5-3.5-1.4z"/><use xlink:href="#C"/><path d="M1012.9 323.1c-.7-.9-1.1-2.1-1.1-3.6 0-.6.1-1.3.2-2.1s.3-1.5.5-2.3c.2-.7.3-1.2.3-1.4l.7-3c.2-1 .3-1.8.3-2.4 0-1.5-.5-2.3-1.6-2.3-.8 0-1.4.4-2 1.1-.6.8-1.1 1.7-1.4 2.9l-3 14.2h-6.4l3.2-15.2c.1-.4.1-.7.1-1.1 0-1.3-.4-1.9-1.3-1.9-.8 0-1.5.4-2.1 1.1-.6.8-1.1 1.7-1.4 3l-3 14.2h-6.4l4.7-22.1h6.4l-.5 2.3c1.5-1.7 3.3-2.5 5.4-2.5 2.6 0 4.1 1.3 4.5 3.8 1.6-2.5 3.7-3.8 6.1-3.8 1.5 0 2.7.4 3.6 1.2s1.3 2.1 1.3 3.8c0 .9-.1 1.8-.3 2.8l-.9 3.8-.6 2.7c-.2.9-.3 1.6-.3 2.1 0 .6.1 1 .4 1.4.3.3.7.5 1.4.5s1.2-.1 1.5-.3c-.2 1.5-.7 2.6-1.6 3.4s-2 1.1-3.2 1.1c-1.7.1-2.8-.4-3.5-1.4zm19.1-.3c-1.3-1.1-1.9-2.9-1.9-5.3 0-2 .4-4.3 1.2-6.7a15.91 15.91 0 0 1 3.9-6.3c1.8-1.8 4.1-2.7 6.9-2.7 3.5 0 5.3 2 5.6 6 .6-.1 1.2-.5 1.7-1.1s1-1.2 1.4-2h1.4c-.8 1.6-1.5 2.8-2.1 3.7s-1.4 1.6-2.4 2.2c-.2 2.8-.7 5.2-1.7 7.3s-2.2 3.7-3.7 4.8-3.2 1.7-5.1 1.7c-2.2.1-3.9-.5-5.2-1.6zm10-5c.9-1.8 1.6-3.9 1.9-6.5-.7-.3-1.1-.9-1.1-2s.4-1.9 1.2-2.3c-.1-.9-.2-1.6-.5-2s-.7-.6-1.2-.6c-1 0-1.9.7-2.8 2.1s-1.6 3.1-2.1 5.1-.8 3.7-.8 5.2c0 1.4.2 2.4.5 2.8.3.5.9.7 1.8.7 1.1.2 2.1-.7 3.1-2.5z"/><use xlink:href="#D"/><use xlink:href="#E"/><path d="M1107.7 323.1c-.8-1-1.3-2.1-1.3-3.6 0-.6.1-1.3.2-2.1s.3-1.5.5-2.3c.2-.7.3-1.2.3-1.4l.7-3c.2-1 .3-1.8.3-2.4 0-1.5-.5-2.3-1.6-2.3-.8 0-1.4.4-2 1.1s-1.1 1.7-1.4 2.9l-3 14.2h-6.4l6.4-30 6.5-.9-2.4 11.1c1.5-1.6 3.2-2.5 5.2-2.5 1.5 0 2.7.4 3.6 1.2s1.3 2.1 1.3 3.8c0 .9-.1 1.8-.3 2.8l-.9 3.8-.6 2.7c-.2.9-.3 1.6-.3 2.1 0 .6.1 1 .4 1.4.3.3.7.5 1.4.5.9 0 1.6-.3 2.1-1 .5-.6 1.1-1.6 1.6-2.9h1.9c-1.1 3.2-2.3 5.4-3.8 6.5-1.4 1.1-2.9 1.7-4.4 1.7-1.8.1-3.1-.4-4-1.4z"/><use xlink:href="#F"/><path d="M1133.2 300.6h6.4l-.7 3.3c1.5-1.3 3.2-1.9 5.2-1.9 1.6 0 3 .5 3.9 1.6 1 1.1 1.5 2.9 1.5 5.3 0 2.3-.3 4.7-1 7-.7 2.4-1.8 4.4-3.4 6.1s-3.8 2.5-6.4 2.5c-1.9 0-3.1-.5-3.8-1.6l-2.3 10.8-6.7 1.6 7.3-34.7zm7.5 18.1c.9-1.3 1.6-2.9 2-4.7s.6-3.6.6-5.1c0-2.4-.7-3.7-2.2-3.7-.5 0-1.1.2-1.6.6s-1 .9-1.4 1.6l-2.6 12.4c.2.7.8 1 1.7 1 1.4-.1 2.6-.8 3.5-2.1zm10.9 4.1c-1.1-1.1-1.7-2.9-1.7-5.4 0-2.2.4-4.5 1.3-6.9s2.2-4.4 3.9-6.1 3.8-2.5 6.2-2.5c1.2 0 2.1.2 2.7.6s.9 1 .9 1.6v.3l.5-2.3h6.4l-3.2 15c-.1.4-.2.9-.2 1.4 0 1.3.6 1.9 1.8 1.9.8 0 1.5-.4 2.1-1.1.6-.8 1.1-1.8 1.4-3h1.9c-1.1 3.2-2.4 5.3-4 6.5-1.6 1.1-3.2 1.7-4.8 1.7-1.2 0-2.2-.3-3-1s-1.2-1.7-1.3-3c-.9 1.2-1.8 2.2-2.8 2.9-1 .8-2.3 1.1-3.7 1.1-1.9.1-3.3-.5-4.4-1.7zm9.3-3.6c.7-.7 1.2-1.6 1.5-2.8l2.1-10c0-.4-.1-.8-.4-1.1-.3-.4-.8-.6-1.4-.6-1.2 0-2.2.7-3.2 2.1-.9 1.4-1.7 3-2.2 4.9s-.8 3.6-.8 5.1.2 2.4.6 2.8.9.6 1.6.6c.7.1 1.4-.3 2.2-1zm-2-22.5c-1.1-1-1.7-2.6-1.7-4.6h3.9c0 1.2.3 2.1.9 2.7s1.5 1 2.6 1c1.2 0 2.3-.4 3.2-1.1s1.5-1.6 1.6-2.6h3.8c-.1 1.1-.7 2.2-1.5 3.1-.9.9-2 1.7-3.4 2.2s-2.8.8-4.4.8c-2.2.1-3.9-.5-5-1.5zm25.5 26.1c-1.1-1.1-1.7-2.9-1.7-5.4 0-2.2.4-4.5 1.3-6.9s2.2-4.4 3.9-6.1 3.8-2.5 6.2-2.5c1.2 0 2.1.2 2.7.6s.9 1 .9 1.6v.2l2.2-10.2 6.5-.9-5.1 23.9c-.1.4-.2.9-.2 1.4 0 .6.1 1 .4 1.3s.7.4 1.4.4c.8 0 1.5-.4 2.1-1.1s1.1-1.6 1.4-2.8h1.9c-1.8 5.3-4.8 7.9-8.9 7.9-1.2 0-2.2-.3-2.9-1-.8-.6-1.2-1.6-1.4-2.8-.8 1.2-1.7 2.2-2.8 2.9-1.1.8-2.3 1.1-3.8 1.1-1.6.2-3-.4-4.1-1.6zm9.2-3.5c.7-.6 1.2-1.5 1.5-2.7v-.2l2.2-10.1c-.3-1-.9-1.5-1.8-1.5-1.2 0-2.2.7-3.2 2.1-.9 1.4-1.7 3-2.2 4.9s-.8 3.6-.8 5.1.2 2.4.6 2.8.9.6 1.6.6 1.4-.4 2.1-1z"/><use xlink:href="#G"/><use xlink:href="#B" x="279.2"/><path d="M1241.7 322.8c-1.1-1.1-1.7-2.9-1.7-5.4 0-2.2.4-4.5 1.3-6.9s2.2-4.4 3.9-6.1 3.8-2.5 6.2-2.5c1.2 0 2.1.2 2.7.6s.9 1 .9 1.6v.3l.5-2.3h6.4l-3.2 15c-.1.4-.2.9-.2 1.4 0 1.3.6 1.9 1.8 1.9.8 0 1.5-.4 2.1-1.1.6-.8 1.1-1.8 1.4-3h1.9c-1.1 3.2-2.4 5.3-4 6.5-1.6 1.1-3.2 1.7-4.8 1.7-1.2 0-2.2-.3-3-1s-1.2-1.7-1.3-3c-.9 1.2-1.8 2.2-2.8 2.9-1 .8-2.3 1.1-3.7 1.1-1.9.1-3.3-.5-4.4-1.7zm9.3-3.6c.7-.7 1.2-1.6 1.5-2.8l2.1-10c0-.4-.1-.8-.4-1.1-.3-.4-.8-.6-1.4-.6-1.2 0-2.2.7-3.2 2.1-.9 1.4-1.7 3-2.2 4.9s-.8 3.6-.8 5.1.2 2.4.6 2.8.9.6 1.6.6c.7.1 1.4-.3 2.2-1z"/><path d="M1286.7 323.1c-.8-1-1.3-2.1-1.3-3.6 0-.6.1-1.3.2-2.1s.3-1.5.5-2.3c.2-.7.3-1.2.3-1.4l.7-3c.2-1 .3-1.8.3-2.4 0-1.5-.5-2.3-1.6-2.3-.8 0-1.4.4-2 1.1-.6.8-1.1 1.7-1.4 2.9l-3 14.2h-6.4l3.2-15.2c.1-.4.1-.7.1-1.1 0-1.3-.4-1.9-1.3-1.9-.8 0-1.5.4-2.1 1.1s-1.1 1.7-1.4 3l-3 14.2h-6.4l4.7-22.1h6.4l-.5 2.3c1.5-1.7 3.3-2.5 5.4-2.5 2.6 0 4.1 1.3 4.5 3.8 1.6-2.5 3.7-3.8 6.1-3.8 1.5 0 2.7.4 3.6 1.2s1.3 2.1 1.3 3.8c0 .9-.1 1.8-.3 2.8l-.9 3.8-.6 2.7c-.2.9-.3 1.6-.3 2.1 0 .6.1 1 .4 1.4.3.3.7.5 1.4.5.9 0 1.6-.3 2.1-1 .5-.6 1.1-1.6 1.6-2.9h1.9c-1.1 3.2-2.3 5.4-3.8 6.5-1.4 1.1-2.9 1.7-4.4 1.7-1.8 0-3.1-.5-4-1.5z"/><path d="M1298 323.2c-.9-.9-1.3-2.2-1.3-4 0-.7.1-1.7.4-2.9l3-14.2h6.4l-3.2 15c-.1.4-.2.9-.2 1.4 0 .6.1 1 .4 1.3s.7.4 1.4.4c.9 0 1.6-.4 2.4-1.1s1.3-1.7 1.6-2.8h1.9c-1.1 3.2-2.5 5.3-4.2 6.5-1.7 1.1-3.4 1.7-5.1 1.7-1.5.1-2.6-.4-3.5-1.3zm4-24.4c-.7-.7-1-1.5-1-2.5s.3-1.8 1-2.5 1.5-1 2.5-1 1.8.3 2.5 1 1 1.5 1 2.5-.3 1.8-1 2.5-1.5 1-2.5 1-1.9-.3-2.5-1z"/><use xlink:href="#H"/><path d="M1325 322.8c-1.1-1.1-1.7-2.9-1.7-5.4 0-2.2.4-4.5 1.3-6.9s2.2-4.4 3.9-6.1 3.8-2.5 6.2-2.5c1.2 0 2.1.2 2.7.6s.9 1 .9 1.6v.3l.5-2.3h6.4l-3.2 15c-.1.4-.2.9-.2 1.4 0 1.3.6 1.9 1.8 1.9.8 0 1.5-.4 2.1-1.1.6-.8 1.1-1.8 1.4-3h1.9c-1.1 3.2-2.4 5.3-4 6.5-1.6 1.1-3.2 1.7-4.8 1.7-1.2 0-2.2-.3-3-1s-1.2-1.7-1.3-3c-.9 1.2-1.8 2.2-2.8 2.9-1 .8-2.3 1.1-3.7 1.1-1.9.1-3.3-.5-4.4-1.7zm9.3-3.6c.7-.7 1.2-1.6 1.5-2.8l2.1-10c0-.4-.1-.8-.4-1.1-.3-.4-.8-.6-1.4-.6-1.2 0-2.2.7-3.2 2.1-.9 1.4-1.7 3-2.2 4.9s-.8 3.6-.8 5.1.2 2.4.6 2.8.9.6 1.6.6c.7.1 1.5-.3 2.2-1zm-2-22.5c-1.1-1-1.7-2.6-1.7-4.6h3.9c0 1.2.3 2.1.9 2.7s1.5 1 2.6 1c1.2 0 2.3-.4 3.2-1.1s1.5-1.6 1.6-2.6h3.8c-.1 1.1-.7 2.2-1.5 3.1-.9.9-2 1.7-3.4 2.2s-2.8.8-4.4.8c-2.2.1-3.8-.5-5-1.5zm25.9 27c-1-.5-1.7-1.3-2.2-2.1a5.44 5.44 0 0 1-.7-2.7c0-1 .2-1.8.7-2.5s1-1.2 1.7-1.6l3-6.3c.9-2.2 1.7-4.4 2.4-6.8l6.5-.9c.1 3.8.4 7.8.8 12.2l.2 3.8c0 .7-.1 1.2-.2 1.7 1.4-.8 2.4-1.5 3.2-2.2h1.9c-1.9 2.2-4.1 4-6.8 5.5-.9.9-1.9 1.6-3.2 2s-2.5.6-3.8.6a5.19 5.19 0 0 1-3.5-.7zm4.9-3.6c.7-.6 1.1-1.7 1.1-3.1 0-.9-.1-2.1-.3-3.7l-.6-6.8c-.7 2.3-1.9 5.1-3.6 8.3.7.4 1 .9 1 1.5s-.2 1.1-.6 1.5-.8.7-1.4.7-1-.2-1.2-.6c0 1.1.2 1.8.6 2.3s1.1.8 2.1.8c1.2.1 2.2-.3 2.9-.9zm-4.1 14.3c.6-.6.9-1.1 1.2-1.4.2-.3.3-.6.3-.9 0-.2-.1-.4-.2-.6s-.3-.4-.5-.6c-.3-.3-.5-.6-.7-.8-.1-.3-.2-.5-.2-.9 0-.6.2-1.1.7-1.5s1.1-.6 1.8-.6 1.3.2 1.7.7c.4.4.6 1 .6 1.8 0 1-.4 2-1.1 3.1a8.06 8.06 0 0 1-2.8 2.7l-.8-1z"/><path d="M1374.6 323.2c-.9-.9-1.3-2.2-1.3-4 0-.7.1-1.7.4-2.9l3-14.2h6.4l-3.2 15c-.1.4-.2.9-.2 1.4 0 .6.1 1 .4 1.3s.7.4 1.4.4c.5 0 1-.1 1.4-.3-.1 1.5-.6 2.6-1.6 3.4-.9.8-2 1.2-3.3 1.2-1.4.1-2.6-.4-3.4-1.3zm3.9-24.4c-.7-.7-1-1.5-1-2.5s.3-1.8 1-2.5 1.5-1 2.5-1 1.8.3 2.5 1 1 1.5 1 2.5-.3 1.8-1 2.5-1.5 1-2.5 1-1.8-.3-2.5-1z"/><use xlink:href="#E" x="313.7"/><path d="M1410.3 323.2c-.9-.9-1.3-2.2-1.3-4 0-.7.1-1.7.4-2.9l3-14.2h6.4l-3.2 15c-.1.4-.1.7-.1 1.1 0 1.3.4 1.9 1.3 1.9.8 0 1.5-.3 2.1-1s1.1-1.6 1.4-2.8l3-14.2h6.4l-3.2 15c-.1.4-.2.9-.2 1.4 0 .6.1 1 .4 1.3s.7.4 1.4.4c.5 0 .8 0 1-.1s.4-.1.4-.2c-.1 1.5-.6 2.6-1.5 3.4s-2 1.1-3.4 1.1c-1.2 0-2.2-.4-3-1.1s-1.2-1.8-1.3-3.1c-1 1.6-2.1 2.7-3.2 3.3s-2.2.9-3.4.9c-1.4.2-2.5-.3-3.4-1.2zm30.5-.4c-1.4-1.1-2.2-3-2.2-5.5 0-1.9.4-4.1 1.2-6.5a15.91 15.91 0 0 1 3.9-6.3c1.8-1.8 4.1-2.7 6.8-2.7 3.2 0 4.9 1.4 4.9 4.2 0 1.7-.5 3.2-1.4 4.5-.9 1.4-2.2 2.5-3.8 3.3s-3.2 1.3-5 1.4v1.2c0 2.9 1.5 4.4 4.4 4.4 1.7 0 3.5-.4 5.4-1.3s3.6-2.1 5-3.7l-2.5-13.7h6.2l1.7 9.5c1.3-1.4 2.4-2.7 3.1-4 .7-1.2 1.1-2.3 1.1-3v-.5c-.4.1-.7.1-.8.1-.7 0-1.2-.2-1.5-.7-.3-.4-.5-1-.5-1.6 0-.7.2-1.3.7-1.7.4-.4 1-.6 1.7-.6 1 0 1.8.4 2.3 1.1s.8 1.6.8 2.8c0 1.4-.5 2.9-1.5 4.5s-2.6 3.7-4.9 6.1l.4 2.2c0 .1.1.6.3 1.4s.4 1.4.8 1.8.9.7 1.5.7c.9 0 1.6-.4 2.4-1.1s1.3-1.7 1.6-2.8h1.9c-1.1 3.2-2.5 5.3-4.1 6.5-1.6 1.1-3.3 1.7-4.9 1.7-1.5 0-2.6-.5-3.4-1.4s-1.4-2.5-1.9-4.8c-1.8 1.9-3.9 3.3-6.5 4.5s-5 1.7-7.5 1.7c-2.3.1-4.2-.5-5.7-1.7zm8-10.7c1-.7 1.8-1.6 2.4-2.7s.9-2.3.9-3.5-.4-1.8-1.1-1.8c-1 0-2.1.9-3.1 2.8s-1.8 4-2.3 6.3c1.1 0 2.2-.4 3.2-1.1z"/><path d="M1476.3 300.6h6.4l-.7 3.3c1.5-1.3 3.2-1.9 5.2-1.9 1.6 0 3 .5 3.9 1.6 1 1.1 1.5 2.9 1.5 5.3 0 2.3-.3 4.7-1 7-.7 2.4-1.8 4.4-3.4 6.1s-3.8 2.5-6.4 2.5c-1.9 0-3.1-.5-3.8-1.6l-2.3 10.8-6.7 1.6 7.3-34.7zm7.4 18.1c.9-1.3 1.6-2.9 2-4.7s.6-3.6.6-5.1c0-2.4-.7-3.7-2.2-3.7-.5 0-1.1.2-1.6.6s-1 .9-1.4 1.6l-2.6 12.4c.2.7.8 1 1.7 1 1.5-.1 2.6-.8 3.5-2.1z"/><use xlink:href="#C" x="520.4"/><use xlink:href="#I"/><path d="M1528.1 323.2c-.9-.9-1.3-2.2-1.3-4 0-.7.1-1.7.4-2.9l3-14.2h6.4l-3.2 15c-.1.4-.2.9-.2 1.4 0 .6.1 1 .4 1.3s.7.4 1.4.4c.9 0 1.6-.4 2.4-1.1s1.3-1.7 1.6-2.8h1.9c-1.1 3.2-2.5 5.3-4.2 6.5-1.7 1.1-3.4 1.7-5.1 1.7-1.5.1-2.6-.4-3.5-1.3zm3.9-24.4c-.7-.7-1-1.5-1-2.5s.3-1.8 1-2.5 1.5-1 2.5-1 1.8.3 2.5 1 1 1.5 1 2.5-.3 1.8-1 2.5-1.5 1-2.5 1-1.8-.3-2.5-1z"/><use xlink:href="#J"/><use xlink:href="#K"/><path d="M1576.9 323.2c-.9-.9-1.3-2.2-1.3-4 0-.7.1-1.7.4-2.9l2.7-12.4h-1.5l.4-1.8h1.5l1.3-6.1 6.5-.9-1.5 7h2.7l-.4 1.8h-2.7l-2.8 13.3c-.1.4-.2.9-.2 1.4 0 .6.1 1 .4 1.3s.7.4 1.4.4c.9 0 1.6-.4 2.4-1.1.7-.7 1.3-1.7 1.6-2.8h1.9c-1.1 3.2-2.5 5.3-4.2 6.5-1.7 1.1-3.4 1.7-5.1 1.7-1.5 0-2.6-.5-3.5-1.4zm-.9 11.2c.6-.6 1-1.1 1.2-1.4s.3-.6.3-.9c0-.2-.1-.4-.2-.6s-.3-.4-.6-.7-.5-.6-.7-.8c-.1-.2-.2-.5-.2-.8 0-.6.2-1.1.7-1.5s1.1-.6 1.8-.6a2.19 2.19 0 0 1 1.7.7c.4.4.6 1 .6 1.8 0 1-.4 2-1.1 3.1a8.06 8.06 0 0 1-2.8 2.7l-.7-1z"/><path d="M1588.9 322.8c-1.1-1.1-1.7-2.9-1.7-5.4 0-2.2.4-4.5 1.3-6.9s2.2-4.4 3.9-6.1 3.8-2.5 6.2-2.5c1.2 0 2.1.2 2.7.6s.9 1 .9 1.6v.3l.5-2.3h6.4l-3.2 15c-.1.4-.2.9-.2 1.4 0 1.3.6 1.9 1.8 1.9.8 0 1.5-.4 2.1-1.1.6-.8 1.1-1.8 1.4-3h1.9c-1.1 3.2-2.4 5.3-4 6.5-1.6 1.1-3.2 1.7-4.8 1.7-1.2 0-2.2-.3-3-1s-1.2-1.7-1.3-3c-.9 1.2-1.8 2.2-2.8 2.9-1 .8-2.3 1.1-3.7 1.1-1.9.1-3.3-.5-4.4-1.7zm9.2-3.6c.7-.7 1.2-1.6 1.5-2.8l2.1-10c0-.4-.1-.8-.4-1.1-.3-.4-.8-.6-1.4-.6-1.2 0-2.2.7-3.2 2.1s-1.7 3-2.2 4.9-.8 3.6-.8 5.1.2 2.4.6 2.8 1 .6 1.6.6c.8.1 1.5-.3 2.2-1zm-2-22.5c-1.1-1-1.7-2.6-1.7-4.6h3.9c0 1.2.3 2.1.9 2.7s1.5 1 2.6 1c1.2 0 2.3-.4 3.2-1.1s1.5-1.6 1.6-2.6h3.8c-.1 1.1-.7 2.2-1.5 3.1-.9.9-2 1.7-3.4 2.2s-2.8.8-4.4.8c-2.1.1-3.8-.5-5-1.5z"/></g><g class="M N"><use xlink:href="#L"/><use xlink:href="#M"/><path d="M946.8 355.2h6.4l-.6 2.7c1-.9 1.9-1.6 2.7-2 .8-.5 1.7-.7 2.6-.7s1.7.3 2.2 1c.5.6.8 1.4.8 2.3s-.3 1.6-.8 2.3c-.6.6-1.3 1-2.3 1-.6 0-1.1-.2-1.3-.5s-.4-.8-.5-1.3c-.1-.4-.2-.7-.3-.8a.55.55 0 0 0-.5-.3c-.6 0-1.1.1-1.6.4l-1.7 1.3-3.5 16.8H942l4.8-22.2z"/><use xlink:href="#N"/><use xlink:href="#G" x="-223.8" y="53"/><use xlink:href="#H" x="-314.4" y="53"/><use xlink:href="#O"/><path d="M1043.8 376.7c-1-.5-1.7-1.3-2.2-2.1a5.44 5.44 0 0 1-.7-2.7c0-1 .2-1.8.7-2.5s1-1.2 1.7-1.6l3-6.3c.9-2.2 1.7-4.4 2.4-6.8l6.5-.9c.1 3.8.4 7.8.8 12.2l.2 3.8c0 1.8-.5 3.3-1.4 4.4s-2 2-3.4 2.5c-1.3.5-2.7.8-4.1.8-1.3.1-2.5-.2-3.5-.8zm4.9-3.6c.7-.6 1.1-1.7 1.1-3.1 0-.9-.1-2.1-.3-3.7l-.6-6.8c-.7 2.3-1.9 5.1-3.6 8.3.7.4 1 .9 1 1.5s-.2 1.1-.6 1.5-.8.7-1.4.7-1-.2-1.2-.6c0 1.1.2 1.8.6 2.3s1.1.8 2.1.8c1.3.1 2.2-.3 2.9-.9z"/><path d="M1057.4 375.8c-1.1-1.1-1.7-2.9-1.7-5.4 0-2.2.4-4.5 1.3-6.9s2.2-4.4 3.9-6.1 3.8-2.5 6.2-2.5c1.2 0 2.1.2 2.7.6s.9 1 .9 1.6v.3l.5-2.3h6.4l-3.2 15c-.1.4-.2.9-.2 1.4 0 1.3.6 1.9 1.8 1.9.8 0 1.5-.4 2.1-1.1.6-.8 1.1-1.8 1.4-3h1.9c-1.1 3.2-2.4 5.3-4 6.5-1.6 1.1-3.2 1.7-4.8 1.7-1.2 0-2.2-.3-3-1s-1.2-1.7-1.3-3c-.9 1.2-1.8 2.2-2.8 2.9-1 .8-2.3 1.1-3.7 1.1-1.8.1-3.2-.5-4.4-1.7zm9.3-3.6c.7-.7 1.2-1.6 1.5-2.8l2.1-10c0-.4-.1-.8-.4-1.1-.3-.4-.8-.6-1.4-.6-1.2 0-2.2.7-3.2 2.1s-1.7 3-2.2 4.9-.8 3.6-.8 5.1.2 2.4.6 2.8 1 .6 1.6.6c.7.1 1.5-.3 2.2-1zm-2-22.5c-1.1-1-1.7-2.6-1.7-4.6h3.9c0 1.2.3 2.1.9 2.7s1.5 1 2.6 1c1.2 0 2.3-.4 3.2-1.1s1.5-1.6 1.6-2.6h3.8c-.1 1.1-.7 2.2-1.5 3.1-.9.9-2 1.7-3.4 2.2s-2.8.8-4.4.8c-2.2.1-3.8-.4-5-1.5z"/><use xlink:href="#P"/><path d="M1100.9 387c-1-.9-1.6-2-1.6-3.4 0-1.3.3-2.3 1-3.1s1.5-1.5 2.5-2 2.4-1 4.1-1.5l5.3-25.2c.6-2.8 1.6-4.8 3.1-5.9s3.1-1.6 4.9-1.6c1.4 0 2.6.4 3.6 1.3s1.6 2 1.6 3.4c0 .7 0 1.3-.1 1.8h-2.1c.1-.6.1-1 .1-1.2 0-.5-.2-.8-.5-1.1s-.7-.4-1.2-.4c-.6 0-1.2.3-1.8.8s-1 1.5-1.3 2.8l-.8 3.5h3.2l-.3 1.8h-3.3l-5.1 23.9c-.6 2.9-1.6 4.8-3 5.9s-3.1 1.6-4.9 1.6c-1.1-.1-2.3-.5-3.4-1.4zm5.2-6l.6-2.6c-1.6.5-2.8 1.1-3.6 1.8s-1.3 1.6-1.3 2.7c0 .4.2.7.5 1 .4.3.8.5 1.2.5 1.2 0 2.1-1.1 2.6-3.4z"/><use xlink:href="#J" x="-418.6" y="53"/><use xlink:href="#Q"/><use xlink:href="#R"/><use xlink:href="#E" x="100.9" y="53"/><use xlink:href="#S"/><use xlink:href="#G" x="1.9" y="53"/><use xlink:href="#C" x="247" y="53"/><use xlink:href="#K" x="-318.7" y="53"/><path d="M1258.2 376.2c-.9-.9-1.3-2.2-1.3-4 0-.7.1-1.7.4-2.9l2.7-12.4h-1.5l.4-1.8h1.5l1.3-6.1 6.5-.9-1.5 7h2.7l-.4 1.8h-2.7l-2.8 13.3c-.1.4-.2.9-.2 1.4 0 .6.1 1 .4 1.3s.7.4 1.4.4c.9 0 1.6-.4 2.4-1.1.7-.7 1.3-1.7 1.6-2.8h1.9c-1.1 3.2-2.5 5.3-4.2 6.5-1.7 1.1-3.4 1.7-5.1 1.7-1.5 0-2.7-.5-3.5-1.4zm-.9 11.2c.6-.6 1-1.1 1.2-1.4s.3-.6.3-.9c0-.2-.1-.4-.2-.6s-.3-.4-.6-.7-.5-.6-.7-.8c-.1-.2-.2-.5-.2-.8 0-.6.2-1.1.7-1.5s1.1-.6 1.8-.6a2.19 2.19 0 0 1 1.7.7c.4.4.6 1 .6 1.8 0 1-.4 2-1.1 3.1a8.06 8.06 0 0 1-2.8 2.7l-.7-1z"/><use xlink:href="#T"/><use xlink:href="#S" x="84.2"/><path d="M1293.9 375.8c-1.3-1.1-1.9-2.9-1.9-5.3 0-2 .4-4.2 1.2-6.7.8-2.4 2.1-4.6 4-6.3 1.8-1.8 4.1-2.7 6.9-2.7 3.8 0 5.7 2.4 5.7 7.1h.5c1 0 2.1-.3 3.4-.8s2.4-1.1 3.4-1.9l.4 1.2a11.44 11.44 0 0 1-3.3 2.3c-1.4.6-2.9 1.1-4.5 1.3-.2 2.7-.8 5-1.8 7s-2.2 3.5-3.8 4.6c-1.5 1.1-3.2 1.6-5 1.6-2.2.3-4-.3-5.2-1.4zm9-3.5c.7-.8 1.3-1.9 1.9-3.3s.9-3 1.1-4.7c-.8-.2-1.2-.8-1.2-1.9 0-1.2.5-2 1.4-2.4-.1-1-.2-1.6-.4-2s-.6-.6-1.2-.6c-1 0-1.9.7-2.8 2.1s-1.6 3.1-2.2 5.1-.8 3.7-.8 5.2c0 1.4.2 2.4.5 2.8.3.5.9.7 1.8.7.5.2 1.2-.2 1.9-1z"/><use xlink:href="#Q" x="174.7"/><use xlink:href="#N" x="377.8"/><path d="M1361.8 375.8c-1.3-1.1-1.9-2.9-1.9-5.3 0-2 .4-4.3 1.2-6.7a15.91 15.91 0 0 1 3.9-6.3c1.8-1.8 4.1-2.7 6.9-2.7 3.5 0 5.3 2 5.6 6 .6-.1 1.2-.5 1.7-1.1s1-1.2 1.4-2h1.4c-.8 1.6-1.5 2.8-2.1 3.7s-1.4 1.6-2.4 2.2c-.2 2.8-.7 5.2-1.7 7.3s-2.2 3.7-3.7 4.8-3.2 1.7-5.1 1.7c-2.2.1-4-.5-5.2-1.6zm10-5c.9-1.8 1.6-3.9 1.9-6.5-.7-.3-1.1-.9-1.1-2s.4-1.9 1.2-2.3c-.1-.9-.2-1.6-.5-2s-.7-.6-1.2-.6c-1 0-1.9.7-2.8 2.1s-1.6 3.1-2.1 5.1-.8 3.7-.8 5.2c0 1.4.2 2.4.5 2.8.3.5.9.7 1.8.7 1.1.2 2.1-.7 3.1-2.5zm11.7 5.9c-1-.5-1.7-1.3-2.2-2.1a5.44 5.44 0 0 1-.7-2.7c0-1 .2-1.8.7-2.5s1-1.2 1.7-1.6l3-6.3c.9-2.1 1.7-4.4 2.4-6.8l6.5-.9c.1 3.8.4 7.8.8 12.2l.2 3.8c0 .7-.1 1.2-.2 1.7 1.4-.8 2.4-1.5 3.2-2.2h1.9c-1.9 2.2-4.1 4-6.8 5.5-.9.9-1.9 1.6-3.2 2s-2.5.6-3.8.6c-1.4.2-2.6-.1-3.5-.7zm4.9-3.6c.7-.6 1.1-1.7 1.1-3.1 0-.9-.1-2.1-.3-3.7l-.6-6.8c-.7 2.3-1.9 5.1-3.6 8.3.7.4 1 .9 1 1.5s-.2 1.1-.6 1.5-.8.7-1.4.7-1-.2-1.2-.6c0 1.1.2 1.8.6 2.3s1.1.8 2.1.8c1.2.1 2.1-.3 2.9-.9zm-4.1 14.3c.6-.6 1-1.1 1.2-1.4s.3-.6.3-.9c0-.2-.1-.4-.2-.6s-.3-.4-.5-.6c-.3-.3-.5-.6-.7-.8-.1-.3-.2-.5-.2-.9 0-.6.2-1.1.7-1.5s1.1-.6 1.8-.6 1.3.2 1.7.7c.4.4.6 1 .6 1.8 0 1-.4 2-1.1 3.1a8.06 8.06 0 0 1-2.8 2.7l-.8-1z"/><use xlink:href="#U"/><use xlink:href="#Q" x="273.4"/><path d="M1428.2 376.2c-.9-.9-1.3-2.2-1.3-4 0-.7.1-1.7.4-2.9l3-14.2h6.4l-3.2 15c-.1.4-.2.9-.2 1.4 0 .6.1 1 .4 1.3s.7.4 1.4.4c.5 0 1-.1 1.4-.3-.1 1.5-.6 2.6-1.6 3.4s-2 1.2-3.3 1.2c-1.4.1-2.5-.4-3.4-1.3zm4-24.4c-.7-.7-1-1.5-1-2.5s.3-1.8 1-2.5 1.5-1 2.5-1 1.8.3 2.5 1 1 1.5 1 2.5-.3 1.8-1 2.5-1.5 1-2.5 1-1.8-.3-2.5-1zm17.3 1.8h6.4l-.7 3.3c1.5-1.3 3.2-1.9 5.2-1.9 1.6 0 3 .5 3.9 1.6 1 1.1 1.5 2.9 1.5 5.3 0 2.3-.3 4.7-1 7-.7 2.4-1.8 4.4-3.4 6.1s-3.8 2.5-6.4 2.5c-1.9 0-3.1-.5-3.8-1.6l-2.3 10.8-6.7 1.6 7.3-34.7zm7.4 18.1c.9-1.3 1.6-2.9 2-4.7s.6-3.6.6-5.1c0-2.4-.7-3.7-2.2-3.7-.5 0-1.1.2-1.6.6s-1 .9-1.4 1.6l-2.6 12.4c.2.7.8 1 1.7 1 1.4-.1 2.6-.7 3.5-2.1z"/><use xlink:href="#I" x="-43.7" y="53"/><path d="M1484.7 375.8c-1.3-1.1-1.9-2.9-1.9-5.3 0-2 .4-4.2 1.2-6.7.8-2.4 2.1-4.6 4-6.3 1.8-1.8 4.1-2.7 6.9-2.7 3.8 0 5.7 2.4 5.7 7.1h.5c1 0 2.1-.3 3.4-.8s2.4-1.1 3.4-1.9l.4 1.2a11.44 11.44 0 0 1-3.3 2.3c-1.4.6-2.9 1.1-4.5 1.3-.2 2.7-.8 5-1.8 7s-2.2 3.5-3.8 4.6c-1.5 1.1-3.2 1.6-5 1.6-2.3.3-4-.3-5.2-1.4zm9-3.5c.7-.8 1.3-1.9 1.9-3.3a21.59 21.59 0 0 0 1.1-4.7c-.8-.2-1.2-.8-1.2-1.9 0-1.2.5-2 1.4-2.4-.1-1-.2-1.6-.4-2s-.6-.6-1.2-.6c-1 0-1.9.7-2.8 2.1s-1.6 3.1-2.2 5.1-.8 3.7-.8 5.2c0 1.4.2 2.4.5 2.8.3.5.9.7 1.8.7.5.2 1.2-.2 1.9-1z"/><path d="M1503.9 375.8c-1.1-1.1-1.7-2.9-1.7-5.4 0-2.2.4-4.5 1.3-6.9s2.2-4.4 3.9-6.1 3.8-2.5 6.2-2.5c1.2 0 2.1.2 2.7.6s.9 1 .9 1.6v.2l2.2-10.2 6.5-.9-5.1 23.9c-.1.4-.2.9-.2 1.4 0 .6.1 1 .4 1.3s.7.4 1.4.4c.8 0 1.5-.4 2.1-1.1s1.1-1.6 1.4-2.8h1.9c-1.8 5.3-4.8 7.9-8.9 7.9-1.2 0-2.2-.3-2.9-1-.8-.6-1.2-1.6-1.4-2.8-.8 1.2-1.7 2.2-2.8 2.9-1.1.8-2.3 1.1-3.8 1.1-1.6.2-3-.4-4.1-1.6zm9.2-3.5c.7-.6 1.2-1.5 1.5-2.7v-.2l2.2-10.1c-.3-1-.9-1.5-1.8-1.5-1.2 0-2.2.7-3.2 2.1s-1.7 3-2.2 4.9-.8 3.6-.8 5.1.2 2.4.6 2.8 1 .6 1.6.6 1.4-.3 2.1-1z"/><use xlink:href="#V"/><path d="M1549.7 376.7c-1-.5-1.7-1.3-2.2-2.1a5.44 5.44 0 0 1-.7-2.7c0-1 .2-1.8.7-2.5s1-1.2 1.7-1.6l3-6.3c.9-2.2 1.7-4.4 2.4-6.8l6.5-.9c.1 3.8.4 7.8.8 12.2l.2 3.8c0 .7-.1 1.2-.2 1.7 1.4-.8 2.4-1.5 3.2-2.2h1.9c-1.9 2.2-4.1 4-6.8 5.5-.9.9-1.9 1.6-3.2 2s-2.5.6-3.8.6a5.19 5.19 0 0 1-3.5-.7zm4.9-3.6c.7-.6 1.1-1.7 1.1-3.1 0-.9-.1-2.1-.3-3.7l-.6-6.8c-.7 2.3-1.9 5.1-3.6 8.3.7.4 1 .9 1 1.5s-.2 1.1-.6 1.5-.8.7-1.4.7-1-.2-1.2-.6c0 1.1.2 1.8.6 2.3s1.1.8 2.1.8c1.3.1 2.2-.3 2.9-.9z"/><use xlink:href="#W"/></g><g class="M N"><use xlink:href="#L" x="-9.6" y="53"/><use xlink:href="#R" x="-239.1" y="53"/><use xlink:href="#E" x="-138.2" y="106"/><path d="M958.8 428.9c-1.2-1.1-1.8-2.9-1.8-5.3 0-2 .4-4.3 1.2-6.7s2.1-4.6 3.9-6.3c1.8-1.8 4.1-2.7 6.8-2.7 3.2 0 4.9 1.4 4.9 4.2 0 1.7-.5 3.2-1.4 4.5-.9 1.4-2.2 2.5-3.8 3.3s-3.2 1.3-5 1.4c-.1.9-.1 1.5-.1 1.8 0 1.4.3 2.4.8 2.9s1.3.8 2.4.8c1.6 0 3-.4 4.1-1.1s2.4-1.9 3.7-3.4h1.5c-3.3 5.4-7.3 8.2-12.1 8.2-2.2.1-3.9-.5-5.1-1.6zm8.2-10.8c1-.7 1.8-1.6 2.4-2.7s.9-2.2.9-3.4-.4-1.8-1.1-1.8c-1.1 0-2.1.9-3.1 2.8s-1.7 4-2.2 6.3c1.1-.1 2.2-.5 3.1-1.2z"/><path d="M975.6 428.8c-1.1-1.1-1.7-2.9-1.7-5.4 0-2.2.4-4.5 1.3-6.9s2.2-4.4 3.9-6.1 3.8-2.5 6.2-2.5c1.2 0 2.1.2 2.7.6s.9 1 .9 1.6v.3l.5-2.3h6.4l-3.2 15c-.1.4-.2.9-.2 1.4 0 .6.1 1 .4 1.3s.7.4 1.4.4c.4 0 .7-.1 1-.2-.6 1.6-1.3 2.8-1.9 3.5s-1.4 1-2.6 1-2.2-.4-2.9-1.1c-.8-.7-1.2-1.7-1.4-3-1.8 2.7-4 4.1-6.6 4.1a5.05 5.05 0 0 1-4.2-1.7zm9.2-3.6c.7-.7 1.2-1.6 1.5-2.8l2.1-10c0-.4-.1-.8-.4-1.1-.3-.4-.8-.6-1.4-.6-1.2 0-2.2.7-3.2 2.1s-1.7 3-2.2 4.9-.8 3.6-.8 5.1.2 2.4.6 2.8 1 .6 1.6.6c.8.1 1.5-.3 2.2-1zm42.8 3.9c-.8-1-1.3-2.1-1.3-3.6 0-.6.1-1.3.2-2.1s.3-1.5.5-2.3c.2-.7.3-1.2.3-1.4l.7-3c.2-1 .3-1.8.3-2.4 0-1.5-.5-2.3-1.6-2.3-.8 0-1.4.4-2 1.1-.6.8-1.1 1.7-1.4 2.9l-3 14.2h-6.4l3.2-15.2c.1-.4.1-.7.1-1.1 0-1.3-.4-1.9-1.3-1.9-.8 0-1.5.4-2.1 1.1-.6.8-1.1 1.7-1.4 3l-3 14.2h-6.4l4.7-22.1h6.4l-.5 2.3c1.5-1.7 3.3-2.5 5.4-2.5 2.6 0 4.1 1.3 4.5 3.8 1.6-2.5 3.7-3.8 6.1-3.8 1.5 0 2.7.4 3.6 1.2s1.3 2.1 1.3 3.8c0 .9-.1 1.8-.3 2.8l-.9 3.8-.6 2.7c-.2.9-.3 1.6-.3 2.1 0 .6.1 1 .4 1.4.3.3.7.5 1.4.5.9 0 1.6-.3 2.1-1 .5-.6 1.1-1.6 1.6-2.9h1.9c-1.1 3.2-2.3 5.4-3.8 6.5-1.4 1.1-2.9 1.7-4.4 1.7-1.8 0-3.2-.5-4-1.5z"/><path d="M1039 428.8c-1.1-1.1-1.7-2.9-1.7-5.4 0-2.2.4-4.5 1.3-6.9s2.2-4.4 3.9-6.1 3.8-2.5 6.2-2.5c1.2 0 2.1.2 2.7.6s.9 1 .9 1.6v.3l.5-2.3h6.4l-3.2 15c-.1.4-.2.9-.2 1.4 0 1.3.6 1.9 1.8 1.9.8 0 1.5-.4 2.1-1.1.6-.8 1.1-1.8 1.4-3h1.9c-1.1 3.2-2.4 5.3-4 6.5-1.6 1.1-3.2 1.7-4.8 1.7-1.2 0-2.2-.3-3-1s-1.2-1.7-1.3-3c-.9 1.2-1.8 2.2-2.8 2.9-1 .8-2.3 1.1-3.7 1.1-1.9.1-3.3-.5-4.4-1.7zm9.3-3.6c.7-.7 1.2-1.6 1.5-2.8l2.1-10c0-.4-.1-.8-.4-1.1-.3-.4-.8-.6-1.4-.6-1.2 0-2.2.7-3.2 2.1s-1.7 3-2.2 4.9-.8 3.6-.8 5.1.2 2.4.6 2.8 1 .6 1.6.6c.7.1 1.5-.3 2.2-1z"/><path d="M1062.1 429.2c-.9-.9-1.3-2.2-1.3-4 0-.7.1-1.7.4-2.9l3-14.2h6.4l-3.2 15c-.1.4-.2.9-.2 1.4 0 .6.1 1 .4 1.3s.7.4 1.4.4c.5 0 1-.1 1.4-.3-.1 1.5-.6 2.6-1.6 3.4s-2 1.2-3.3 1.2c-1.4.1-2.5-.4-3.4-1.3zm4-24.4c-.7-.7-1-1.5-1-2.5s.3-1.8 1-2.5 1.5-1 2.5-1 1.8.3 2.5 1 1 1.5 1 2.5-.3 1.8-1 2.5-1.5 1-2.5 1-1.9-.3-2.5-1z"/><use xlink:href="#X"/><use xlink:href="#V" x="-426.4" y="53"/><use xlink:href="#K" x="-434" y="106"/><path d="M1143 428.8c-1.1-1.1-1.7-2.9-1.7-5.4 0-2.2.4-4.5 1.3-6.9s2.2-4.4 3.9-6.1 3.8-2.5 6.2-2.5c1.2 0 2.1.2 2.7.6s.9 1 .9 1.6v.3l.5-2.3h6.4l-3.2 15c-.1.4-.2.9-.2 1.4 0 1.3.6 1.9 1.8 1.9.8 0 1.5-.4 2.1-1.1.6-.8 1.1-1.8 1.4-3h1.9c-1.1 3.2-2.4 5.3-4 6.5-1.6 1.1-3.2 1.7-4.8 1.7-1.2 0-2.2-.3-3-1s-1.2-1.7-1.3-3c-.9 1.2-1.8 2.2-2.8 2.9-1 .8-2.3 1.1-3.7 1.1-1.8.1-3.2-.5-4.4-1.7zm9.3-3.6c.7-.7 1.2-1.6 1.5-2.8l2.1-10c0-.4-.1-.8-.4-1.1-.3-.4-.8-.6-1.4-.6-1.2 0-2.2.7-3.2 2.1s-1.7 3-2.2 4.9-.8 3.6-.8 5.1.2 2.4.6 2.8 1 .6 1.6.6c.7.1 1.5-.3 2.2-1zm-2-22.5c-1.1-1-1.7-2.6-1.7-4.6h3.9c0 1.2.3 2.1.9 2.7s1.5.9 2.6.9c1.2 0 2.3-.4 3.2-1.1s1.5-1.6 1.6-2.6h3.8c-.1 1.1-.7 2.2-1.5 3.1-.9.9-2 1.7-3.4 2.2s-2.8.8-4.4.8c-2.2.2-3.8-.3-5-1.4z"/><use xlink:href="#E" x="96" y="106"/><use xlink:href="#Y"/><use xlink:href="#Z"/><use xlink:href="#F" x="108.7" y="106"/><use xlink:href="#U" x="-160.3" y="53"/><use xlink:href="#a"/><use xlink:href="#b"/><path d="M1286.5 428.9c-1.2-1.1-1.8-2.9-1.8-5.3 0-2 .4-4.3 1.2-6.7s2.1-4.6 3.9-6.3c1.8-1.8 4.1-2.7 6.8-2.7 3.2 0 4.9 1.4 4.9 4.2 0 1.7-.5 3.2-1.4 4.5-.9 1.4-2.2 2.5-3.8 3.3s-3.2 1.3-5 1.4c-.1.6-.1 1.1-.1 1.3 0 2.4.9 3.7 2.7 3.7.8 0 1.7-.2 2.6-.7s1.8-1 2.6-1.7c-.8 4.4-3.3 6.5-7.6 6.5-2.1.2-3.7-.4-5-1.5zm8.3-10.8c1-.7 1.8-1.6 2.4-2.7s.9-2.3.9-3.5-.4-1.8-1.1-1.8c-1 0-2.1.9-3.1 2.8s-1.8 4-2.3 6.3c1.2 0 2.2-.3 3.2-1.1z"/><use xlink:href="#S" x="114.5" y="53"/><path d="M1324 428.8c-1.1-1.1-1.7-2.9-1.7-5.4 0-2.2.4-4.5 1.3-6.9s2.2-4.4 3.9-6.1 3.8-2.5 6.2-2.5c1.2 0 2.1.2 2.7.6s.9 1 .9 1.6v.3l.5-2.3h6.4l-3.2 15c-.1.4-.2.9-.2 1.4 0 .6.1 1 .4 1.3s.7.4 1.4.4c.4 0 .7-.1 1-.2-.6 1.6-1.3 2.8-1.9 3.5s-1.4 1-2.6 1-2.2-.4-2.9-1.1c-.8-.7-1.2-1.7-1.4-3-1.8 2.7-4 4.1-6.6 4.1a5.05 5.05 0 0 1-4.2-1.7zm9.3-3.6c.7-.7 1.2-1.6 1.5-2.8l2.1-10c0-.4-.1-.8-.4-1.1-.3-.4-.8-.6-1.4-.6-1.2 0-2.2.7-3.2 2.1-.9 1.4-1.7 3-2.2 4.9s-.8 3.6-.8 5.1.2 2.4.6 2.8.9.6 1.6.6c.7.1 1.4-.3 2.2-1z"/><use xlink:href="#E" x="274.4" y="106"/><use xlink:href="#C" x="396.9" y="106"/><use xlink:href="#Z" x="172.1"/><use xlink:href="#W" x="-166.3" y="53"/><path d="M1447.5 429.1c-.8-1-1.3-2.1-1.3-3.6 0-.6.1-1.3.2-2.1s.3-1.5.5-2.3c.2-.7.3-1.2.3-1.4l.7-3c.2-1 .3-1.8.3-2.4 0-1.5-.5-2.3-1.6-2.3-.8 0-1.4.4-2 1.1-.6.8-1.1 1.7-1.4 2.9l-3 14.2h-6.4l3.2-15.2c.1-.4.1-.7.1-1.1 0-1.3-.4-1.9-1.3-1.9-.8 0-1.5.4-2.1 1.1-.6.8-1.1 1.7-1.4 3l-3 14.2h-6.4l4.7-22.1h6.4l-.5 2.3c1.5-1.7 3.3-2.5 5.4-2.5 2.6 0 4.1 1.3 4.5 3.8 1.6-2.5 3.7-3.8 6.1-3.8 1.5 0 2.7.4 3.6 1.2s1.3 2.1 1.3 3.8c0 .9-.1 1.8-.3 2.8l-.9 3.8-.6 2.7c-.2.9-.3 1.6-.3 2.1 0 .6.1 1 .4 1.4.3.3.7.5 1.4.5.9 0 1.6-.3 2.1-1 .5-.6 1.1-1.6 1.6-2.9h1.9c-1.1 3.2-2.3 5.4-3.8 6.5-1.4 1.1-2.9 1.7-4.4 1.7-1.9 0-3.2-.5-4-1.5z"/><path d="M1458.9 428.8c-1.1-1.1-1.7-2.9-1.7-5.4 0-2.2.4-4.5 1.3-6.9s2.2-4.4 3.9-6.1 3.8-2.5 6.2-2.5c1.2 0 2.1.2 2.7.6s.9 1 .9 1.6v.3l.5-2.3h6.4l-3.2 15c-.1.4-.2.9-.2 1.4 0 1.3.6 1.9 1.8 1.9.8 0 1.5-.4 2.1-1.1.6-.8 1.1-1.8 1.4-3h1.9c-1.1 3.2-2.4 5.3-4 6.5-1.6 1.1-3.2 1.7-4.8 1.7-1.2 0-2.2-.3-3-1s-1.2-1.7-1.3-3c-.9 1.2-1.8 2.2-2.8 2.9-1 .8-2.3 1.1-3.7 1.1-1.9.1-3.3-.5-4.4-1.7zm9.3-3.6c.7-.7 1.2-1.6 1.5-2.8l2.1-10c0-.4-.1-.8-.4-1.1-.3-.4-.8-.6-1.4-.6-1.2 0-2.2.7-3.2 2.1s-1.7 3-2.2 4.9-.8 3.6-.8 5.1.2 2.4.6 2.8 1 .6 1.6.6c.7.1 1.4-.3 2.2-1z"/><path d="M1482 429.2c-.9-.9-1.3-2.2-1.3-4 0-.7.1-1.7.4-2.9l3-14.2h6.4l-3.2 15c-.1.4-.2.9-.2 1.4 0 .6.1 1 .4 1.3s.7.4 1.4.4c.5 0 1-.1 1.4-.3-.1 1.5-.6 2.6-1.6 3.4s-2 1.2-3.3 1.2c-1.4.1-2.5-.4-3.4-1.3zm3.9-24.4c-.7-.7-1-1.5-1-2.5s.3-1.8 1-2.5 1.5-1 2.5-1 1.8.3 2.5 1 1 1.5 1 2.5-.3 1.8-1 2.5-1.5 1-2.5 1-1.8-.3-2.5-1z"/><use xlink:href="#X" x="419.9"/><use xlink:href="#V" x="-6.5" y="53"/><path d="M1553.8 429.1c-.8-1-1.3-2.1-1.3-3.6 0-.6.1-1.3.2-2.1s.3-1.5.5-2.3c.2-.7.3-1.2.3-1.4l.7-3c.2-1 .3-1.8.3-2.4 0-1.5-.5-2.3-1.6-2.3-.8 0-1.4.4-2 1.1s-1.1 1.7-1.4 2.9l-3 14.2h-6.4l4.7-22.1h6.4l-.5 2.3c1.5-1.6 3.2-2.5 5.2-2.5 1.5 0 2.7.4 3.6 1.2s1.3 2.1 1.3 3.8c0 .9-.1 1.8-.3 2.8l-.9 3.8-.6 2.7c-.2.9-.3 1.6-.3 2.1 0 .6.1 1 .4 1.4.3.3.7.5 1.4.5.9 0 1.6-.3 2.1-1 .5-.6 1.1-1.6 1.6-2.9h1.9c-1.1 3.2-2.3 5.4-3.8 6.5-1.4 1.1-2.9 1.7-4.4 1.7-2 .1-3.3-.4-4.1-1.4z"/><path d="M1565.3 428.9c-1.2-1.1-1.8-2.9-1.8-5.3 0-2 .4-4.3 1.2-6.7s2.1-4.6 3.9-6.3c1.8-1.8 4.1-2.7 6.8-2.7 3.2 0 4.9 1.4 4.9 4.2 0 1.7-.5 3.2-1.4 4.5-.9 1.4-2.2 2.5-3.8 3.3s-3.2 1.3-5 1.4c-.1.6-.1 1.1-.1 1.3 0 2.4.9 3.7 2.7 3.7.8 0 1.7-.2 2.6-.7s1.8-1 2.6-1.7c-.8 4.4-3.3 6.5-7.6 6.5-2.1.2-3.8-.4-5-1.5zm8.2-10.8c1-.7 1.8-1.6 2.4-2.7s.9-2.3.9-3.5-.4-1.8-1.1-1.8c-1 0-2.1.9-3.1 2.8s-1.8 4-2.3 6.3c1.2 0 2.3-.3 3.2-1.1z"/></g><g class="M N"><path d="M914.1 459.6h6.4l-.7 3.3c1.5-1.3 3.2-1.9 5.2-1.9 1.6 0 3 .5 3.9 1.6 1 1.1 1.5 2.9 1.5 5.3 0 2.3-.3 4.7-1 7-.7 2.4-1.8 4.4-3.4 6.1s-3.8 2.5-6.4 2.5c-1.9 0-3.1-.5-3.8-1.6l-2.3 10.8-6.7 1.6 7.3-34.7zm7.5 18.1c.9-1.3 1.6-2.9 2-4.7s.6-3.6.6-5.1c0-2.4-.7-3.7-2.2-3.7-.5 0-1.1.2-1.6.6s-1 .9-1.4 1.6l-2.6 12.4c.2.7.8 1 1.7 1 1.4-.1 2.6-.7 3.5-2.1z"/><use xlink:href="#c"/><use xlink:href="#d"/><path d="M965.2 482.2c-.9-.9-1.3-2.2-1.3-4 0-.7.1-1.7.4-2.9l2.7-12.4h-1.5l.4-1.8h1.5l1.3-6.1 6.5-.9-1.5 7h2.7l-.4 1.8h-2.7l-2.8 13.3c-.1.4-.2.9-.2 1.4 0 .6.1 1 .4 1.3s.7.4 1.4.4c.9 0 1.6-.4 2.4-1.1s1.3-1.7 1.6-2.8h1.9c-1.1 3.2-2.5 5.3-4.2 6.5-1.7 1.1-3.4 1.7-5.1 1.7-1.5 0-2.6-.5-3.5-1.4zm-.9 11.2c.6-.6 1-1.1 1.2-1.4s.3-.6.3-.9c0-.2-.1-.4-.2-.6s-.3-.4-.6-.7-.5-.6-.7-.8c-.1-.2-.2-.5-.2-.8 0-.6.2-1.1.7-1.5s1.1-.6 1.8-.6a2.19 2.19 0 0 1 1.7.7c.4.4.6 1 .6 1.8 0 1-.4 2-1.1 3.1a8.06 8.06 0 0 1-2.8 2.7l-.7-1z"/><use xlink:href="#e"/><use xlink:href="#Q" x="-139" y="106"/><path d="M1015.9 482.2c-.9-.9-1.3-2.2-1.3-4 0-.7.1-1.7.4-2.9l3-14.2h6.4l-3.2 15c-.1.4-.2.9-.2 1.4 0 .6.1 1 .4 1.3s.7.4 1.4.4c.5 0 1-.1 1.4-.3-.1 1.5-.6 2.6-1.6 3.4-.9.8-2 1.2-3.3 1.2-1.4.1-2.5-.4-3.4-1.3zm3.9-24.4c-.7-.7-1-1.5-1-2.5s.3-1.8 1-2.5 1.5-1 2.5-1 1.8.3 2.5 1 1 1.5 1 2.5-.3 1.8-1 2.5-1.5 1-2.5 1-1.8-.3-2.5-1zm6.8 24.7c-.7-.7-1-1.5-1-2.5s.3-1.8 1-2.5 1.5-1 2.5-1 1.8.3 2.5 1 1 1.5 1 2.5-.3 1.8-1 2.5-1.5 1-2.5 1-1.9-.4-2.5-1z"/></g><g class="M N"><path d="M892.3 506.8c-1.9.1-3.3.8-4.3 2.1-1 1.4-1.5 3.7-1.5 7 0 1.1.1 1.8.3 2.3l.3.7c-1.6 0-2.8-.3-3.6-1s-1.2-1.8-1.2-3.3c0-2.1.5-4 1.5-5.7s2.7-3.1 4.9-4.2c2.3-1.1 5.1-1.6 8.6-1.6.7 0 1.6.1 2.8.2l4.5.3c1.6 0 2.9-.2 4-.5-.1.3-.3.8-.5 1.7s-.7 1.7-1.3 2.3-1.4 1.1-2.5 1.3c-1.7 0-3.8-.3-6.2-.8l-1.9 8.8h6.4l-.7 3.3h-6.4l-3.6 16.6h-6.4l6.8-29.5z"/><use xlink:href="#e" x="-73.7" y="53"/><use xlink:href="#c" x="-6.9" y="53"/><use xlink:href="#f"/><path d="M964.5 535.2c-.9-.9-1.3-2.2-1.3-4 0-.7.1-1.7.4-2.9l3-14.2h6.4l-3.2 15c-.1.4-.2.9-.2 1.4 0 .6.1 1 .4 1.3s.7.4 1.4.4c.5 0 1-.1 1.4-.3-.1 1.5-.6 2.6-1.6 3.4-.9.8-2 1.2-3.3 1.2-1.4.1-2.6-.4-3.4-1.3zm3.9-24.4c-.7-.7-1-1.5-1-2.5s.3-1.8 1-2.5 1.5-1 2.5-1 1.8.3 2.5 1 1 1.5 1 2.5-.3 1.8-1 2.5-1.5 1-2.5 1-1.8-.3-2.5-1zm15.6 5.8h-2.5c-.8 0-1.4 0-1.8.1s-.6.3-.6.6c0 .1.1.1.2.2.2.1.2.3.2.8 0 .8-.2 1.3-.7 1.7a2.52 2.52 0 0 1-1.7.6c-.6 0-1-.2-1.4-.5s-.6-.8-.6-1.4.2-1.3.6-2 1-1.3 1.8-1.8 1.7-.7 2.7-.7h11.4l-10.8 18.7a4.59 4.59 0 0 1 1 .1l2.4.2c1.3 0 2-.3 2.1-.9-.3 0-.5-.1-.6-.3s-.2-.4-.2-.6c0-.5.2-.9.7-1.3s1-.6 1.8-.6c.6 0 1.1.2 1.5.6.3.4.5.9.5 1.5 0 .7-.2 1.4-.7 2.2s-1.1 1.3-1.9 1.8-1.8.7-2.8.7h-11.7l11.1-19.7z"/><use xlink:href="#O" x="-17.9" y="159"/><path d="M1037.6 535.2c-.7-.9-1.1-2.1-1.1-3.6 0-.6.1-1.3.2-2.1s.3-1.5.5-2.3c.2-.7.3-1.2.3-1.4l.7-3c.2-1 .3-1.8.3-2.4 0-1.5-.5-2.3-1.6-2.3-.8 0-1.4.4-2 1.1-.6.8-1.1 1.7-1.4 2.9l-3 14.2h-6.4l3.2-15.2c.1-.4.1-.7.1-1.1 0-1.3-.4-1.9-1.3-1.9-.8 0-1.5.4-2.1 1.1s-1.1 1.7-1.4 3l-3 14.2h-6.4l4.7-22.1h6.4l-.5 2.3c1.5-1.7 3.3-2.5 5.4-2.5 2.6 0 4.1 1.3 4.5 3.8 1.6-2.5 3.7-3.8 6.1-3.8 1.5 0 2.7.4 3.6 1.2s1.3 2.1 1.3 3.8c0 .9-.1 1.8-.3 2.8l-.9 3.8-.6 2.7c-.2.9-.3 1.6-.3 2.1 0 .6.1 1 .4 1.4.3.3.7.5 1.4.5s1.2-.1 1.5-.3c-.2 1.5-.7 2.6-1.6 3.4s-2 1.1-3.2 1.1c-1.7 0-2.8-.5-3.5-1.4z"/><use xlink:href="#E" x="-23.3" y="212"/><use xlink:href="#D" x="10.6" y="212"/><use xlink:href="#Q" x="-47.9" y="159"/><use xlink:href="#C" x="132.8" y="212"/><use xlink:href="#a" x="-127.4" y="106"/><use xlink:href="#Z" x="-68.8" y="106"/><use xlink:href="#d" x="209.9" y="53"/><use xlink:href="#g"/><path d="M1201.5 535.2c-.9-.9-1.3-2.2-1.3-4 0-.7.1-1.7.4-2.9l3-14.2h6.4l-3.2 15c-.1.4-.2.9-.2 1.4 0 .6.1 1 .4 1.3s.7.4 1.4.4c.5 0 1-.1 1.4-.3-.1 1.5-.6 2.6-1.6 3.4-.9.8-2 1.2-3.3 1.2-1.3.1-2.5-.4-3.4-1.3zm4-24.4c-.7-.7-1-1.5-1-2.5s.3-1.8 1-2.5 1.5-1 2.5-1 1.8.3 2.5 1 1 1.5 1 2.5-.3 1.8-1 2.5-1.5 1-2.5 1-1.8-.3-2.5-1zm6.3 35.2c-1-.9-1.6-2-1.6-3.4 0-1.3.3-2.3 1-3.1s1.5-1.5 2.5-2 2.4-1 4.1-1.5l5.3-25.2c.6-2.8 1.6-4.8 3.1-5.9s3.1-1.6 4.9-1.6c1.4 0 2.6.4 3.6 1.3s1.6 2 1.6 3.4c0 .7 0 1.3-.1 1.8h-2.1c.1-.6.1-1 .1-1.2 0-.5-.2-.8-.5-1.1s-.7-.4-1.2-.4c-.6 0-1.2.3-1.8.8s-1 1.5-1.3 2.8l-.8 3.5h11.8l-3.2 15c-.1.4-.1.9-.1 1.2 0 1.2.4 1.8 1.3 1.8.8 0 1.5-.3 2.1-1s1.1-1.6 1.4-2.8l3-14.2h6.4l-3.2 15c-.1.4-.2.9-.2 1.4 0 .6.1 1 .4 1.3s.7.4 1.4.4c.8 0 1.5-.4 2.1-1.1s1.1-1.6 1.4-2.8h1.9c-1.1 3.2-2.4 5.3-4 6.5-1.6 1.1-3.2 1.7-4.8 1.7-1.3 0-2.3-.4-3-1.1s-1.2-1.8-1.3-3.1c-1 1.6-2.1 2.7-3.2 3.3s-2.2.9-3.4.9c-1.4 0-2.6-.4-3.4-1.3-.9-.9-1.3-2.2-1.3-4 0-.7.1-1.7.4-2.9l2.6-12.4h-5.4l-5.1 23.9c-.6 2.9-1.6 4.8-3 5.9s-3.1 1.6-4.9 1.6c-1.2-.1-2.5-.5-3.5-1.4zm5.1-6l.6-2.6c-1.6.5-2.8 1.1-3.6 1.8s-1.3 1.6-1.3 2.7c0 .4.2.7.5 1 .4.3.8.5 1.2.5 1.3 0 2.1-1.1 2.6-3.4z"/><use xlink:href="#I" x="-257" y="212"/><use xlink:href="#Y" x="78.4" y="106"/><path d="M1285.8 546.2c-.9-.7-1.4-1.8-1.4-3.2 0-2.9 2.4-5.1 7.2-6.6l4.7-22.3h6.4l-4.4 20.5c1.4-.5 2.5-1.2 3.4-2.1s1.6-2.3 2.2-4.2h1.9c-.8 2.6-1.9 4.5-3.2 5.8-1.4 1.2-2.9 2.1-4.6 2.5l-.7 3.2c-.6 2.9-1.6 4.8-3 5.9s-3.1 1.6-4.9 1.6c-1.4 0-2.6-.3-3.6-1.1zm4-3.3c.5-.7.8-1.6 1.1-2.9l.3-1.3c-2.9 1.1-4.3 2.3-4.3 3.8 0 .4.1.7.4 1s.6.4 1.1.4.9-.3 1.4-1zm8.1-32.1c-.7-.7-1-1.5-1-2.5s.3-1.8 1-2.5 1.5-1 2.5-1 1.8.3 2.5 1 1 1.5 1 2.5-.3 1.8-1 2.5-1.5 1-2.5 1-1.8-.3-2.5-1z"/><path d="M1305.1 534.9c-1.2-1.1-1.8-2.9-1.8-5.3 0-2 .4-4.3 1.2-6.7s2.1-4.6 3.9-6.3c1.8-1.8 4.1-2.7 6.8-2.7 3.2 0 4.9 1.4 4.9 4.2 0 1.7-.5 3.2-1.4 4.5-.9 1.4-2.2 2.5-3.8 3.3s-3.2 1.3-5 1.4c-.1.6-.1 1.1-.1 1.3 0 2.4.9 3.7 2.7 3.7.8 0 1.7-.2 2.7-.7s1.8-1 2.6-1.7c-.8 4.4-3.3 6.5-7.6 6.5-2.2.2-3.8-.4-5.1-1.5zm8.3-10.7c1-.7 1.8-1.6 2.4-2.7s.9-2.3.9-3.5-.4-1.8-1.1-1.8c-1 0-2.1.9-3.1 2.8s-1.8 4-2.3 6.3c1.2-.1 2.2-.4 3.2-1.1zm17.3 11c-.9-.9-1.3-2.2-1.3-4 0-.7.1-1.7.4-2.9l3-14.2h6.4l-3.2 15c-.1.4-.2.9-.2 1.4 0 .6.1 1 .4 1.3s.7.4 1.4.4c.9 0 1.6-.4 2.4-1.1.7-.7 1.3-1.7 1.6-2.8h1.9c-1.1 3.2-2.5 5.3-4.2 6.5-1.7 1.1-3.4 1.7-5.1 1.7-1.5.1-2.7-.4-3.5-1.3zm8.4-32h.9l2.7 8.3h-1.4l-2.7-3.5-6.9 3.5h-1.9l9.3-8.3z"/><use xlink:href="#h"/><use xlink:href="#b" x="97.6" y="106"/><use xlink:href="#P" x="293.8" y="159"/><use xlink:href="#Y" x="210.6" y="106"/><path d="M1426.4 535.2c-.7-.9-1.1-2.1-1.1-3.6 0-.8.1-1.5.3-2.3l2.8-13.3h-1.5l.4-1.8h1.5l1.3-6.1 6.5-.9c-.3 1.1-.4 1.8-.4 2l-1.1 5h2.7l-.4 1.8h-2.7l-2.8 13.3-.2 1.5c0 1.1.5 1.6 1.5 1.6.5 0 .9 0 1.1-.1-.6 1.7-1.3 2.9-2.1 3.4s-1.7.9-2.6.9c-1.4 0-2.5-.5-3.2-1.4zm12.4-.4c-1.1-1.1-1.7-2.9-1.7-5.4 0-2.2.4-4.5 1.3-6.9s2.2-4.4 3.9-6.1 3.8-2.5 6.2-2.5c1.2 0 2.1.2 2.7.6s.9 1 .9 1.6v.3l.5-2.3h6.4l-3.2 15c-.1.4-.2.9-.2 1.4 0 1.3.6 1.9 1.8 1.9.8 0 1.5-.4 2.1-1.1.6-.8 1.1-1.8 1.4-3h1.9c-1.1 3.2-2.4 5.3-4 6.5-1.6 1.1-3.2 1.7-4.8 1.7-1.2 0-2.2-.3-3-1s-1.2-1.7-1.3-3c-.9 1.2-1.8 2.2-2.8 2.9-1 .8-2.3 1.1-3.7 1.1-1.8.1-3.2-.5-4.4-1.7zm9.3-3.6c.7-.7 1.2-1.6 1.5-2.8l2.1-10c0-.4-.1-.8-.4-1.1-.3-.4-.8-.6-1.4-.6-1.2 0-2.2.7-3.2 2.1-.9 1.4-1.7 3-2.2 4.9s-.8 3.6-.8 5.1.2 2.4.6 2.8.9.6 1.6.6c.8.1 1.5-.3 2.2-1zm-2-22.5c-1.1-1-1.7-2.6-1.7-4.6h3.9c0 1.2.3 2.1.9 2.7s1.5 1 2.6 1c1.2 0 2.3-.4 3.2-1.1s1.5-1.6 1.6-2.6h3.8c-.1 1.1-.7 2.2-1.5 3.1-.9.9-2 1.7-3.4 2.2s-2.8.8-4.4.8c-2.2.1-3.8-.4-5-1.5z"/><use xlink:href="#Q" x="333.3" y="159"/><use xlink:href="#C" x="514" y="212"/><path d="M1508.4 546.2c-.9-.7-1.4-1.8-1.4-3.2 0-1.7.7-3 2-4 1.4-1 3.1-1.9 5.2-2.5l.5-2.3c-1.5 1.6-3.3 2.4-5.3 2.4-1.7 0-3.1-.6-4.2-1.7s-1.7-2.9-1.7-5.4c0-2.2.4-4.5 1.3-6.9s2.2-4.4 3.9-6.1 3.8-2.5 6.2-2.5c1.2 0 2.1.2 2.7.6s.9 1 .9 1.6v.3l.5-2.3h6.4l-4.4 20.5c1.4-.5 2.5-1.2 3.4-2.1s1.6-2.3 2.2-4.2h1.9c-.8 2.6-1.9 4.5-3.2 5.8-1.4 1.2-2.9 2.1-4.6 2.5l-.7 3.2c-.6 2.9-1.6 4.8-3 5.9s-3.1 1.6-4.9 1.6c-1.6-.1-2.7-.4-3.7-1.2zm4-3.3c.5-.7.8-1.6 1.1-2.9l.3-1.3c-2.9 1.1-4.3 2.3-4.3 3.8 0 .4.1.7.4 1s.6.4 1.1.4c.4 0 .9-.3 1.4-1zm2-11.5c.7-.6 1.2-1.5 1.5-2.5l2.3-10.5c0-.4-.1-.7-.4-1.1s-.8-.6-1.4-.6c-1.2 0-2.2.7-3.2 2.1-.9 1.4-1.7 3-2.2 4.9s-.8 3.6-.8 5.1.2 2.4.6 2.8.9.6 1.6.6c.6.1 1.3-.2 2-.8z"/><use xlink:href="#T" x="257.5" y="159"/><path d="M1539.3 535.2c-.9-.9-1.3-2.2-1.3-4 0-.7.1-1.7.4-2.9l3-14.2h6.4l-3.2 15c-.1.4-.1.9-.1 1.2 0 1.2.4 1.8 1.3 1.8.8 0 1.5-.3 2.1-1s1.1-1.6 1.4-2.8l3-14.2h6.4l-3.2 15c-.1.4-.2.9-.2 1.4 0 .6.1 1 .4 1.3s.7.4 1.4.4c.8 0 1.5-.4 2.1-1.1s1.1-1.6 1.4-2.8h1.9c-1.1 3.2-2.4 5.3-4 6.5-1.6 1.1-3.2 1.7-4.8 1.7-1.3 0-2.3-.4-3-1.1s-1.2-1.8-1.3-3.1c-1 1.6-2.1 2.7-3.2 3.3s-2.2.9-3.4.9c-1.5.1-2.7-.4-3.5-1.3z"/><use xlink:href="#f" x="619.4"/><use xlink:href="#J" x="44" y="212"/><path d="M1601 534.8c-1.1-1.1-1.7-2.9-1.7-5.4 0-2.2.4-4.5 1.3-6.9s2.2-4.4 3.9-6.1 3.8-2.5 6.2-2.5c1.2 0 2.1.2 2.7.6s.9 1 .9 1.6v.3l.5-2.3h6.4l-3.2 15c-.1.4-.2.9-.2 1.4 0 .6.1 1 .4 1.3s.7.4 1.4.4c.4 0 .7-.1 1-.2-.6 1.6-1.3 2.8-1.9 3.5s-1.4 1-2.6 1-2.2-.4-2.9-1.1c-.8-.7-1.2-1.7-1.4-3-1.8 2.7-4 4.1-6.6 4.1a5.05 5.05 0 0 1-4.2-1.7zm9.3-3.6c.7-.7 1.2-1.6 1.5-2.8l2.1-10c0-.4-.1-.8-.4-1.1-.3-.4-.8-.6-1.4-.6-1.2 0-2.2.7-3.2 2.1s-1.7 3-2.2 4.9-.8 3.6-.8 5.1.2 2.4.6 2.8 1 .6 1.6.6c.7.1 1.4-.3 2.2-1z"/></g><g class="M N"><path d="M905.8 559c-2.2.7-4 2-5.2 3.6-1.2 1.7-1.8 3.8-1.8 6.3 0 1.1.1 1.9.3 2.3s.3.7.3.8c-3.2 0-4.7-1.3-4.7-4 0-1.8.7-3.7 2.1-5.5s3.2-3.3 5.4-4.5 4.4-1.7 6.6-1.7c1.1 0 2.2.2 3.4.6l-1 23.3 9.7-23.3h6.4l-4.6 32.5h-6.4l2.8-19.8-8.3 19.8h-6.1l.9-19.9-7.4 19.9h-3.5l11.1-30.4z"/><use xlink:href="#M" x="2" y="212"/><path d="M946.7 588.3c-.9-.9-1.3-2.2-1.3-4 0-.7.1-1.7.4-2.9l4.7-22.1 6.5-.9-5.1 23.9c-.1.4-.2.9-.2 1.4 0 .6.1 1 .4 1.3s.7.4 1.4.4c.9 0 1.6-.4 2.4-1.1s1.3-1.7 1.6-2.8h1.9c-1.1 3.2-2.5 5.3-4.2 6.5-1.7 1.1-3.4 1.7-5.1 1.7-1.4-.1-2.5-.6-3.4-1.4z"/><path d="M958.7 587.9c-1.1-1.1-1.7-2.9-1.7-5.4 0-2.2.4-4.5 1.3-6.9s2.2-4.4 3.9-6.1 3.8-2.5 6.2-2.5c1.2 0 2.1.2 2.7.6s.9 1 .9 1.6v.2l2.2-10.2 6.5-.9-5.1 23.9c-.1.4-.2.9-.2 1.4 0 .6.1 1 .4 1.3s.7.4 1.4.4c.8 0 1.5-.4 2.1-1.1s1.1-1.6 1.4-2.8h1.9c-1.8 5.3-4.8 7.9-8.9 7.9-1.2 0-2.2-.3-2.9-1-.8-.6-1.2-1.6-1.4-2.8-.8 1.2-1.7 2.2-2.8 2.9-1.1.8-2.3 1.1-3.8 1.1-1.6.1-3-.5-4.1-1.6zm9.2-3.6c.7-.6 1.2-1.5 1.5-2.7v-.2l2.2-10.1c-.3-1-.9-1.5-1.8-1.5-1.2 0-2.2.7-3.2 2.1-.9 1.4-1.7 3-2.2 4.9s-.8 3.6-.8 5.1.2 2.4.6 2.8.9.6 1.6.6c.6 0 1.4-.3 2.1-1z"/><path d="M982 587.8c-1.3-1.1-1.9-2.9-1.9-5.3 0-2 .4-4.2 1.2-6.7.8-2.4 2.1-4.6 4-6.3 1.8-1.8 4.1-2.7 6.9-2.7 3.8 0 5.7 2.4 5.7 7.1h.5c1 0 2.1-.3 3.4-.8s2.4-1.1 3.4-1.9l.4 1.2a11.44 11.44 0 0 1-3.3 2.3c-1.4.6-2.9 1.1-4.5 1.3-.2 2.7-.8 5-1.8 7s-2.2 3.5-3.8 4.6c-1.5 1.1-3.2 1.6-5 1.6-2.2.3-3.9-.3-5.2-1.4zm9.1-3.5c.7-.8 1.3-1.9 1.9-3.3a21.59 21.59 0 0 0 1.1-4.7c-.8-.2-1.2-.8-1.2-1.9 0-1.2.5-2 1.4-2.4-.1-1-.2-1.6-.4-2s-.6-.6-1.2-.6c-1 0-1.9.7-2.8 2.1s-1.6 3.1-2.2 5.1-.8 3.7-.8 5.2c0 1.4.2 2.4.5 2.8.3.5.9.7 1.8.7.5.2 1.2-.2 1.9-1z"/><path d="M1001.2 588.3c-1-.9-1.4-2.2-1.4-3.9 0-.7.1-1.4.2-2.1l3.2-15h6.4l-3.2 15-.2 1.6c0 1 .5 1.5 1.5 1.5 1.4 0 2.6-.9 3.8-2.6s2.1-3.7 2.8-6.1 1.1-4.4 1.1-6.1c-.1.1-.3.3-.6.3-.3.1-.6.1-.8.1-.5 0-.9-.2-1.2-.7s-.4-1-.4-1.5c0-.7.2-1.3.7-1.7s1.1-.7 2.1-.7 1.7.4 2.1 1.1.7 1.6.7 2.8c0 2.7-.5 5.5-1.4 8.5s-2.3 5.6-4.2 7.7-4.2 3.2-7 3.2c-1.9-.1-3.3-.6-4.2-1.4z"/><use xlink:href="#J" x="-520.5" y="265"/><path d="M1036.3 588.3c-.9-.9-1.3-2.2-1.3-4 0-.7.1-1.7.4-2.9l3-14.2h6.4l-3.2 15c-.1.4-.2.9-.2 1.4 0 .6.1 1 .4 1.3s.7.4 1.4.4c.5 0 1-.1 1.4-.3-.1 1.5-.6 2.6-1.6 3.4-.9.8-2 1.2-3.3 1.2s-2.5-.5-3.4-1.3zm4-24.5c-.7-.7-1-1.5-1-2.5s.3-1.8 1-2.5 1.5-1 2.5-1 1.8.3 2.5 1 1 1.5 1 2.5-.3 1.8-1 2.5-1.5 1-2.5 1-1.8-.3-2.5-1z"/><use xlink:href="#g" x="-129.5" y="53"/><path d="M1072 588.3c-.9-.9-1.3-2.2-1.3-4 0-.7.1-1.7.4-2.9l3-14.2h6.4l-3.2 15c-.1.4-.2.9-.2 1.4 0 .6.1 1 .4 1.3s.7.4 1.4.4c.5 0 1-.1 1.4-.3-.1 1.5-.6 2.6-1.6 3.4-.9.8-2 1.2-3.3 1.2-1.4 0-2.5-.5-3.4-1.3zm4-24.5c-.7-.7-1-1.5-1-2.5s.3-1.8 1-2.5 1.5-1 2.5-1 1.8.3 2.5 1 1 1.5 1 2.5-.3 1.8-1 2.5-1.5 1-2.5 1-1.8-.3-2.5-1zm14.9 24.5c-.9-.9-1.3-2.2-1.3-4 0-.7.1-1.7.4-2.9l3-14.2h6.4l-3.2 15c-.1.4-.2.9-.2 1.4 0 .6.1 1 .4 1.3s.7.4 1.4.4c.9 0 1.6-.4 2.4-1.1s1.3-1.7 1.6-2.8h1.9c-1.1 3.2-2.5 5.3-4.2 6.5-1.7 1.1-3.4 1.7-5.1 1.7-1.5 0-2.7-.5-3.5-1.3zm8.4-32.1h.9l2.7 8.3h-1.4l-2.7-3.5-6.9 3.5h-1.9l9.3-8.3z"/><use xlink:href="#h" x="-239.8" y="53"/><path d="M1132.3 588.3c-.9-.9-1.3-2.2-1.3-4 0-.7.1-1.7.4-2.9l3-14.2h6.4l-3.2 15c-.1.4-.2.9-.2 1.4 0 .6.1 1 .4 1.3s.7.4 1.4.4c.9 0 1.6-.4 2.4-1.1.7-.7 1.3-1.7 1.6-2.8h1.9c-1.1 3.2-2.5 5.3-4.2 6.5-1.7 1.1-3.4 1.7-5.1 1.7-1.5 0-2.6-.5-3.5-1.3zm8.4-32.1h.9l2.7 8.3h-1.4l-2.7-3.5-6.9 3.5h-1.9l9.3-8.3z"/><use xlink:href="#f" x="201.9" y="53"/><path d="M1166.4 588.3c-.9-.9-1.3-2.2-1.3-4 0-.7.1-1.7.4-2.9l2.7-12.4h-1.5l.4-1.8h1.5l1.3-6.1 6.5-.9-1.5 7h2.7l-.4 1.8h-2.7l-2.8 13.3c-.1.4-.2.9-.2 1.4 0 .6.1 1 .4 1.3s.7.4 1.4.4c.9 0 1.6-.4 2.4-1.1.7-.7 1.3-1.7 1.6-2.8h1.9c-1.1 3.2-2.5 5.3-4.2 6.5-1.7 1.1-3.4 1.7-5.1 1.7-1.5-.1-2.6-.6-3.5-1.4z"/><use xlink:href="#I" x="-333.3" y="265"/><use xlink:href="#J" x="-345.1" y="265"/><path d="M1211.9 587.9c-1.1-1.1-1.7-2.9-1.7-5.4 0-2.2.4-4.5 1.3-6.9s2.2-4.4 3.9-6.1 3.8-2.5 6.2-2.5c1.2 0 2.1.2 2.7.6s.9 1 .9 1.6v.3l.5-2.3h6.4l-3.2 15c-.1.4-.2.9-.2 1.4 0 1.3.6 1.9 1.8 1.9.8 0 1.5-.4 2.1-1.1.6-.8 1.1-1.8 1.4-3h1.9c-1.1 3.2-2.4 5.3-4 6.5-1.6 1.1-3.2 1.7-4.8 1.7-1.2 0-2.2-.3-3-1s-1.2-1.7-1.3-3c-.9 1.2-1.8 2.2-2.8 2.9-1 .8-2.3 1.1-3.7 1.1-1.9 0-3.3-.6-4.4-1.7zm9.3-3.6c.7-.7 1.2-1.6 1.5-2.8l2.1-10c0-.4-.1-.8-.4-1.1-.3-.4-.8-.6-1.4-.6-1.2 0-2.2.7-3.2 2.1-.9 1.4-1.7 3-2.2 4.9s-.8 3.6-.8 5.1.2 2.4.6 2.8.9.6 1.6.6 1.4-.3 2.2-1z"/><path d="M1238.3 599.3c-.9-.7-1.4-1.8-1.4-3.2 0-1.7.7-3 2-4 1.4-1 3.1-1.9 5.2-2.5l.5-2.3c-1.5 1.6-3.3 2.4-5.3 2.4-1.7 0-3.1-.6-4.2-1.7s-1.7-2.9-1.7-5.4c0-2.2.4-4.5 1.3-6.9s2.2-4.4 3.9-6.1 3.8-2.5 6.2-2.5c1.2 0 2.1.2 2.7.6s.9 1 .9 1.6v.3l.5-2.3h6.4l-4.4 20.5c1.4-.5 2.5-1.2 3.4-2.1s1.6-2.3 2.2-4.2h1.9c-.8 2.6-1.9 4.5-3.2 5.8-1.4 1.2-2.9 2.1-4.6 2.5l-.7 3.2c-.6 2.9-1.6 4.8-3 5.9s-3.1 1.6-4.9 1.6c-1.6-.1-2.7-.5-3.7-1.2zm4-3.4c.5-.7.8-1.6 1.1-2.9l.3-1.3c-2.9 1.1-4.3 2.3-4.3 3.8 0 .4.1.7.4 1s.6.4 1.1.4c.4 0 .9-.3 1.4-1zm2-11.5c.7-.6 1.2-1.5 1.5-2.5l2.3-10.5c0-.4-.1-.7-.4-1.1s-.8-.6-1.4-.6c-1.2 0-2.2.7-3.2 2.1-.9 1.4-1.7 3-2.2 4.9s-.8 3.6-.8 5.1.2 2.4.6 2.8.9.6 1.6.6c.6.1 1.3-.2 2-.8z"/><path d="M1257.5 587.9c-1.1-1.1-1.7-2.9-1.7-5.4 0-2.2.4-4.5 1.3-6.9s2.2-4.4 3.9-6.1 3.8-2.5 6.2-2.5c1.2 0 2.1.2 2.7.6s.9 1 .9 1.6v.3l.5-2.3h6.4l-3.2 15c-.1.4-.2.9-.2 1.4 0 .6.1 1 .4 1.3s.7.4 1.4.4c.4 0 .7-.1 1-.2-.6 1.6-1.3 2.8-1.9 3.5s-1.4 1-2.6 1-2.2-.4-2.9-1.1c-.8-.7-1.2-1.7-1.4-3-1.8 2.7-4 4.1-6.6 4.1-1.7 0-3.1-.6-4.2-1.7zm9.3-3.6c.7-.7 1.2-1.6 1.5-2.8l2.1-10c0-.4-.1-.8-.4-1.1-.3-.4-.8-.6-1.4-.6-1.2 0-2.2.7-3.2 2.1-.9 1.4-1.7 3-2.2 4.9s-.8 3.6-.8 5.1.2 2.4.6 2.8.9.6 1.6.6 1.5-.3 2.2-1zm20.8 4c-.9-.9-1.3-2.2-1.3-4 0-.7.1-1.7.4-2.9l2.7-12.4h-1.5l.4-1.8h1.5l1.3-6.1 6.5-.9-1.5 7h2.7l-.4 1.8h-2.7l-2.8 13.3c-.1.4-.2.9-.2 1.4 0 .6.1 1 .4 1.3s.7.4 1.4.4c.9 0 1.6-.4 2.4-1.1.7-.7 1.3-1.7 1.6-2.8h1.9c-1.1 3.2-2.5 5.3-4.2 6.5-1.7 1.1-3.4 1.7-5.1 1.7-1.5-.1-2.6-.6-3.5-1.4zm-.9 11.1c.6-.6 1-1.1 1.2-1.4s.3-.6.3-.9c0-.2-.1-.4-.2-.6s-.3-.4-.6-.7-.5-.6-.7-.8c-.1-.2-.2-.5-.2-.8 0-.6.2-1.1.7-1.5s1.1-.6 1.8-.6a2.19 2.19 0 0 1 1.7.7c.4.4.6 1 .6 1.8 0 1-.4 2-1.1 3.1a8.06 8.06 0 0 1-2.8 2.7l-.7-1z"/><path d="M1299.5 587.9c-1.1-1.1-1.7-2.9-1.7-5.4 0-2.2.4-4.5 1.3-6.9s2.2-4.4 3.9-6.1 3.8-2.5 6.2-2.5c1.2 0 2.1.2 2.7.6s.9 1 .9 1.6v.3l.5-2.3h6.4l-3.2 15c-.1.4-.2.9-.2 1.4 0 1.3.6 1.9 1.8 1.9.8 0 1.5-.4 2.1-1.1.6-.8 1.1-1.8 1.4-3h1.9c-1.1 3.2-2.4 5.3-4 6.5-1.6 1.1-3.2 1.7-4.8 1.7-1.2 0-2.2-.3-3-1s-1.2-1.7-1.3-3c-.9 1.2-1.8 2.2-2.8 2.9-1 .8-2.3 1.1-3.7 1.1-1.8 0-3.2-.6-4.4-1.7zm9.3-3.6c.7-.7 1.2-1.6 1.5-2.8l2.1-10c0-.4-.1-.8-.4-1.1-.3-.4-.8-.6-1.4-.6-1.2 0-2.2.7-3.2 2.1s-1.7 3-2.2 4.9-.8 3.6-.8 5.1.2 2.4.6 2.8 1 .6 1.6.6c.7 0 1.5-.3 2.2-1z"/><use xlink:href="#I" x="-188.8" y="265"/><path d="M1339.4 587.9c-1.1-1.1-1.7-2.9-1.7-5.4 0-2.2.4-4.5 1.3-6.9s2.2-4.4 3.9-6.1 3.8-2.5 6.2-2.5c1.2 0 2.1.2 2.7.6s.9 1 .9 1.6v.3l.5-2.3h6.4l-3.2 15c-.1.4-.2.9-.2 1.4 0 1.3.6 1.9 1.8 1.9.8 0 1.5-.4 2.1-1.1.6-.8 1.1-1.8 1.4-3h1.9c-1.1 3.2-2.4 5.3-4 6.5-1.6 1.1-3.2 1.7-4.8 1.7-1.2 0-2.2-.3-3-1s-1.2-1.7-1.3-3c-.9 1.2-1.8 2.2-2.8 2.9-1 .8-2.3 1.1-3.7 1.1-1.9 0-3.3-.6-4.4-1.7zm9.2-3.6c.7-.7 1.2-1.6 1.5-2.8l2.1-10c0-.4-.1-.8-.4-1.1-.3-.4-.8-.6-1.4-.6-1.2 0-2.2.7-3.2 2.1-.9 1.4-1.7 3-2.2 4.9s-.8 3.6-.8 5.1.2 2.4.6 2.8.9.6 1.6.6c.8 0 1.5-.3 2.2-1zm-1.9-22.6c-1.1-1-1.7-2.6-1.7-4.6h3.9c0 1.2.3 2.1.9 2.7s1.5 1 2.6 1c1.2 0 2.3-.4 3.2-1.1s1.5-1.6 1.6-2.6h3.8c-.1 1.1-.7 2.2-1.5 3.1-.9.9-2 1.7-3.4 2.2s-2.8.8-4.4.8c-2.2.1-3.9-.4-5-1.5zm17.2 26.8c-.7-.7-1-1.5-1-2.5s.3-1.8 1-2.5 1.5-1 2.5-1 1.8.3 2.5 1 1 1.5 1 2.5-.3 1.8-1 2.5-1.5 1-2.5 1-1.8-.3-2.5-1z"/></g><path d="M605.3 391c.1.5.3 1.4 1 2 3.3 3 14-3.6 18-6 3.7-2.3 7.3-4.8 11-8 6.2-5.3 8.4-8.3 15-15 2.9-3 7.3-7.3 13.1-12.2-2.7-3-5.2-5.1-7.1-6.4-2.1-1.5-2.8-1.8-3.8-1.8-3.5-.1-7.6 2.8-11.8 5.7-5.7 4.1-10.6 8.8-14 12.2-2.2 2.2-4.3 4.3-7 7.4-5 5.8-8.6 11.1-10.9 14.6-.4.4-4.4 3.8-3.5 7.5zm11.2 109.9c.1 0 1.8.4 4.1.7 6.5.8 9.8-.1 10.7-.3 0 0 1.7-.5 3.4-1.2 1.4-.6 24.2-10.9 55.5-25-4.8-2.8-8.9-4.7-12-6-6.4-2.7-8.9-2.9-10-3-2.6-.2-4.7.2-9 1-3.2.6-4.1 1-9 2-4.8 1-4.7.8-7.2 1.4-6.1 1.4-10.7 3.4-17.5 6.6a65.75 65.75 0 0 0-5.9 3l-2.7 1.5c-3 1.8-11.4 9.3-21.7 20.5 11.6-2.2 17.8-1.9 21.3-1.2zm390.2-161.2c-.5-.7-1.2-1.4-1.4-1.7-2.3-2.5-3.9-3.3-4.3-3.5a12.43 12.43 0 0 0-1.8-.6l-22.6-4.7c.4 2.8.9 5 1.3 6.6.5 1.8.8 2.4 1.2 2.9 1.5 2.1 4 3.3 6.5 4.5 3.5 1.7 6.9 2.6 9.2 3.2 1.5.4 3 .8 5 1 3.6.5 6.6.5 8.5.4.1-1.1.5-5-1.6-8.1zm-44.5-149.1a7.52 7.52 0 0 0-1.9.3c-3 .6-4.3 1.4-4.7 1.7-.6.4-1 .8-1.3 1l-14.4 14.6c2.2.9 4.1 1.5 5.5 1.9 1.6.4 2.1.5 2.7.4 2.3-.2 4.4-1.5 6.5-2.9 3-1.9 5.2-3.9 6.8-5.4l3.2-3.2c2.2-2.4 3.6-4.6 4.4-6.1-.8-.5-3.5-2.5-6.8-2.3zm291.2-158.1l-2.5.4c-3.9.8-5.7 1.7-6.1 2-.8.4-1.4.9-1.8 1.1l-18.8 15.8 7.3 1.7c2.1.3 2.8.4 3.6.3 3-.3 5.7-1.8 8.5-3.3 3.9-2.1 6.8-4.3 8.9-5.9 1.4-1.1 2.6-2 4.1-3.5 2.8-2.6 4.7-5 5.7-6.5-1-.7-4.6-2.5-8.9-2.1zm-81.3 157.3l-2.6.3c-4.1.6-5.9 1.3-6.4 1.5-.8.3-1.5.7-1.9.9l-20.2 12.8c3 .8 5.6 1.2 7.5 1.5 2.2.3 2.9.4 3.7.3 3.1-.2 6-1.4 9-2.6 4.1-1.6 7.3-3.5 9.5-4.7 1.5-.9 2.8-1.6 4.4-2.8 3.1-2.1 5-4 6.2-5.3-1-.5-4.7-2.1-9.2-1.9zm-339 104.7c-1 .7-2.3 1.8-2.7 2.1-4.2 3.4-5.8 5.3-6.3 5.9l-1.6 2.1-15.2 25.1 9.1-4.1 4.3-2.4c3.3-2.4 5.9-5.4 8.5-8.5 3.6-4.3 6.1-8.1 7.8-10.7 1.1-1.8 2.2-3.4 3.4-5.5 2.2-4 3.3-7 4-8.9-1.5.3-6.4 1.5-11.3 4.9zm6.8 173.1c-1.2-.2-2.9-.2-3.4-.3-5.3-.2-7.8.5-8.5.6-1.1.3-2 .7-2.6.9l-28.7 14.5a100.24 100.24 0 0 0 9.2 4.4c2.7 1.1 3.5 1.3 4.6 1.5 4 .5 8-.5 12-1.6 5.6-1.5 10.1-3.5 13.1-4.8 2-.9 3.9-1.8 6.3-3.2a52.98 52.98 0 0 0 9.2-6.6c-1.1-1-5.4-4.5-11.2-5.4zm-131-274.3c-1.2.3-2.8.9-3.2 1.1-5 1.9-7.1 3.6-7.7 4.1-.9.7-1.6 1.4-2.1 1.9l-21.3 24.9c4.1.4 7.6.4 10.2.3 2.9-.1 3.8-.2 4.8-.5 3.9-1.1 7.2-3.7 10.6-6.3 4.7-3.6 8.1-7.2 10.4-9.8 1.6-1.7 3-3.2 4.7-5.4 3.1-4.1 5-7.5 6.1-9.8-1.6-.5-6.8-2.1-12.5-.5z" class="K L O P"/><path d="M376.5,672.1c-6.4-6.7-13.8-12.7-21.9-17.8" class="Q"/><path d="M376.6 672c-6.6-6.8-13.9-12.7-21.9-17.8-.2-.1-.3.2-.2.3 7.9 5.1 15.3 11 21.8 17.8.2 0 .5-.2.3-.3h0z"/><path d="M398.2,701.2c-9.6,1.4-19.1,3.9-28,7.3" class="Q"/><path d="M398.1 701.1c-9.6 1.4-19 3.8-28 7.3-.2.1-.1.4.1.3 9-3.5 18.4-5.9 28-7.3.2-.1.1-.4-.1-.3h0z"/><path d="M354.8 801.5a749.54 749.54 0 0 1 6.6-42c3.4-17.9 6.7-31.6 12.1-51.9 0-.1.1-.3.1-.4l13.3-50.1 17-65.9c2.9-9.8 6.5-20.7 11.1-32.7.2-.5.4-.9.5-1.4 5.2-13.6 11.6-28.5 19.6-44.5l.3-.6c.3-.6.6-1.3 1-1.9l1.8-3.5 3.7-7.1c.4-.8.8-1.5 1.2-2.3l2.4-4.3 5.5-9.7c.2-.4.4-.8.6-1.1a116.14 116.14 0 0 1 2.8-4.7c.3-.4.5-.9.8-1.3l8-13c0-.1.1-.2.2-.3l.1-.1c.3-.5.7-1.1 1-1.6-.8 0-1.6 0-2.4-.1h-1c-1.1 0-2.2 0-3.3-.1h-3.4l-1.5 4.2c-.3.7-.5 1.3-.7 2-.3.7-.5 1.3-.8 2-.1.4-.3.7-.4 1-1.4 3.4-2.7 6.5-4.1 9.5-.2.5-.5 1-.7 1.5-.5 1-.9 2-1.4 2.9l-1.5 3c-.3.6-.6 1.1-.9 1.7s-.6 1.1-.9 1.6h0l-2 3.6c-.3.6-.7 1.2-1 1.8l-2.9 4.8c-.1.1-.1.1-.1.2-.6 1-1.3 1.9-1.9 2.9-.3.5-.7 1-1 1.5-.7 1.1-1.5 2.1-2.1 3.1-.1.1-.1.2-.2.3l-.8 1.1c-5.4 7.5-9.7 12.6-14.5 23.1-3.8 8.3-4.1 11.5-10.5 25.5l-2.5 5.5c-2.6 5.4-4.7 9.9-4.3 10.2.2.1 5.1-7.8 6.1-7.3 1.1.6-2.2 10.2-5.4 17.8a94.49 94.49 0 0 1-3.3 6.9l-4.8 19.5-9.7 40.2-5.1 19.8c0 .1 0 .2-.1.3-.7 2.5-1.4 5.1-2.1 8-12.3 47.1-18.4 70.6-19.2 87.5-.3 5.8-.6 18.9-6.1 35.3m137.9-126.3c-1.2 4.6-3.5 11-7.7 17.9-4 6.5-10.4 16.8-22.8 23-11.6 5.8-34.3 10.7-50.5-1.3-15.3-11.4-13.4-29.6-13.3-30.4 2.2-17.8 20-30.1 35.7-31.1 7.7-.5 15.4 2.6 30.9 8.8 11.8 4.7 21.1 9.5 27.7 13.1z" stroke="#000" class="K P Q"/><g class="M"><path d="M394.7 701.4c27.1-5.5 53.4-13.8 79.6-22.1l-79.6 22.1zm44.4-10.1c7.3 3.9 13.6 9.1 18.6 15.2l-18.6-15.2zm-3.3-1.5c4.3-5.5 9.4-10.6 15.2-14.9l-15.2 14.9zm-21.3 5.7c3-9.8 8.2-18.9 15.2-26.8l-15.2 26.8z"/><path d="M420,694.9c6.5,5.6,13.6,10.8,21.3,15.5L420,694.9z"/></g><path d="M327.9 611c4.2 0 10.4.5 17.4 2.3 6.4 1.7 15.8 4.2 23 11.2 6 5.9 14.2 18.8 7.7 30.1-4.2 7.3-13.6 12.3-22.7 12-6.4-.2-11-3-17.5-7-7.3-4.4-11.8-7.2-13.3-11.9-2-6.2 3.1-9.5 5.4-19.7 1.6-7 .8-13.1 0-17z" stroke="#000" class="K P Q"/><g class="M"><path d="M365.1 661.7c-8.3-16.1-18.6-31.4-29-46.6l29 46.6zm-13.8-25.8c2-5 5.3-9.7 9.5-13.5l-9.5 13.5z"/><path d="M350.6 638.2c-5.2-2-10.1-4.7-14.5-7.8l14.5 7.8zm7.9 12.7c-8.4-.7-16.7-3-24.2-6.4l24.2 6.4zm-10-28.7c2.6 2 5 4.3 7.1 6.7l-7.1-6.7zm8.6 25.4c3.6-4.8 6.7-9.9 9.4-15.3l-9.4 15.3z"/></g><g class="K L O"><path d="M435.5 375.4l-.3 6.1c-.3 9.6.4 13.9.7 15.1.3 1.9.7 3.4 1 4.3l15.9 46.4c2.2-7.2 3.8-13.4 4.9-18 1.2-5.1 1.5-6.8 1.7-8.8.6-7.3-.5-14.1-1.7-21-1.6-9.5-3.8-16.9-5.3-21.9a112.88 112.88 0 0 0-3.5-10.2c-2.8-7-5.4-11.5-7.2-14.2-1.3 2.8-5.2 11.6-6.2 22.2zm-33.6 12.5l.5 6c1 9.4 2.3 13.4 2.7 14.5.6 1.8 1.2 3.2 1.6 4l22.2 42.6a264.04 264.04 0 0 0 2.6-18.3c.6-5.2.6-6.9.5-8.8-.4-7.2-2.4-13.6-4.5-20.1-2.9-9-6-15.8-8.2-20.4-1.5-3.1-2.8-5.9-4.8-9.4-3.7-6.4-7-10.3-9.1-12.6-1.1 2.9-3.9 12.1-3.5 22.5zm-44.6 67.7c1.6 1.2 3.9 2.5 4.5 2.9 7.3 4.4 11 5.5 12.1 5.8 1.7.5 3.1.8 4 .9l45.9 4.8c-4.2-5.2-8-9.3-10.9-12.3-3.2-3.4-4.3-4.3-5.8-5.3-5.3-3.7-11.3-5.5-17.3-7.3-8.4-2.5-15.4-3.6-20.3-4.3-3.3-.5-6.2-.9-10.1-1.1-7.1-.4-12.3.2-15.5.8 1.4 2.2 5.8 9.6 13.4 15.1zm168.1 81.8c-1-1.8-2.6-4-3-4.7-5-7.3-7.9-9.9-8.8-10.6-1.3-1.2-2.5-2-3.2-2.5L471.3 496c2 6.7 3.9 12.4 5.4 16.5 1.7 4.6 2.4 6 3.3 7.5 3.4 5.8 8.1 10 12.9 14.3 6.6 5.9 12.4 9.9 16.5 12.6 2.7 1.8 5.2 3.4 8.6 5.2 6.2 3.3 11 4.9 14 5.7-.3-2.9-1.7-12-6.6-20.4z"/><path d="M499.9 561l-.7-5.9c-1.3-9.3-2.8-13.3-3.2-14.4l-1.7-4-23.7-41.5a368.06 368.06 0 0 0-2 18.3c-.4 5.2-.4 6.8-.2 8.8.6 7.1 2.9 13.4 5.2 19.8 3.2 8.8 6.6 15.5 8.9 20 1.6 3 3 5.8 5.2 9.1 3.9 6.2 7.4 10 9.6 12.2.9-2.8 3.4-12 2.6-22.4z"/></g><path d="M469.6 471.3l29.3-13.6m-24.3.8l24.3-5.2" fill="none" class="K L"/><g class="O K L"><path d="M466.5 578.8l.3-6.1c.2-9.6-.6-13.8-.8-15-.4-1.9-.8-3.4-1-4.3l-16.4-46.2c-2.2 7.2-3.7 13.4-4.8 18-1.2 5.2-1.4 6.8-1.6 8.8-.5 7.3.7 14 1.9 20.9 1.7 9.5 3.9 16.8 5.5 21.8 1.1 3.3 2 6.4 3.6 10.2 2.8 7 5.5 11.5 7.4 14.1 1.1-2.8 5-11.6 5.9-22.2zm-75-15.4l4.3-4.4c6.6-7.1 9-11 9.6-12.1 1-1.7 1.8-3.2 2.3-4.1l21.5-48.5c-6.1 3.7-11.2 7.1-14.9 9.7-4.2 2.9-5.4 4-6.8 5.4-5.2 5.1-9.1 11.2-13 17.4-5.4 8.6-9 16-11.4 21.1-1.6 3.4-3.1 6.5-4.8 10.7-3 7.6-4.5 13.3-5.2 16.8 2.6-1.2 10.8-4.7 18.4-12zm38.3 13.6l2.1-5.9c3.1-9.3 3.7-13.8 3.8-15.1l.4-4.6-.8-51.4c-4.1 6.3-7.4 11.8-9.8 15.9-2.6 4.6-3.4 6.2-4.1 8-2.7 7-3.6 14-4.6 21.2-1.3 9.9-1.5 17.9-1.6 23.4-.1 3.7-.1 7 .1 11.3.4 7.9 1.5 13.3 2.4 16.6 1.9-2.1 8-9.3 12.1-19.4zm-64.1-42.6l5-3.1c7.9-5.2 11.1-8.3 11.9-9.2 1.4-1.4 2.5-2.6 3.1-3.4l31.8-41.9c-6.6 1.9-12.2 3.8-16.3 5.3-4.6 1.7-6 2.4-7.7 3.3-6.1 3.5-11.2 8.5-16.3 13.5a194.38 194.38 0 0 0-15.8 17.6c-2.3 2.9-4.5 5.6-7 9.2-4.7 6.7-7.4 11.9-8.9 15.1 2.8-.3 11.3-1.3 20.2-6.4zm107.9-155.5c-1.1 2.1-2.2 4.9-2.6 5.7-3.9 9-4.9 13.5-5.2 14.7-.4 2-.7 3.6-.8 4.6l-4.2 51.8c4.7-5.8 8.4-11 11.1-14.9 3-4.3 3.9-5.8 4.8-7.6 3.3-6.7 4.9-13.7 6.6-20.8 2.3-9.8 3.2-17.9 3.9-23.4.4-3.7.8-7 1-11.4.3-8-.2-13.6-.7-17-2.2 2.1-9 8.6-13.9 18.3zm62.1 42.1l-5.4 1.9c-8.5 3.2-12.2 5.5-13.2 6.1-1.6 1-2.9 2-3.7 2.6l-38.8 33.9c6.6-.2 12.3-.7 16.5-1.2 4.7-.5 6.2-.8 8-1.4 6.5-2 12.4-5.6 18.3-9.4 8.2-5.1 14.4-10.1 18.6-13.6 2.8-2.3 5.4-4.4 8.6-7.4 5.8-5.5 9.5-10 11.6-12.9-2.7-.3-11-1.4-20.5 1.4z"/><path d="M541.4 503.2l-4.6-2.8c-7.4-4.2-11.2-5.2-12.2-5.5-1.7-.4-3.1-.7-4-.8l-46.1-3.7c4.3 5 8.2 9.1 11.1 12 3.3 3.3 4.4 4.2 5.9 5.2 5.4 3.5 11.4 5.2 17.5 6.9 8.4 2.3 15.5 3.3 20.4 3.9 3.3.4 6.2.7 10.1.9 7.2.2 12.4-.5 15.5-1.1-1.4-2.4-5.9-9.7-13.6-15zm-32.6-110.3l-4.8 3.6c-7.5 5.9-10.4 9.3-11.3 10.2-1.3 1.5-2.3 2.9-2.9 3.7l-28.5 44.5c6.5-2.5 11.9-5 15.9-6.9 4.5-2.1 5.9-2.9 7.5-4 5.9-4.1 10.5-9.5 15.3-15 6.6-7.6 11.3-14.3 14.4-18.9 2.1-3.1 4-5.9 6.3-9.8 4.1-7 6.4-12.5 7.7-15.8-2.6.7-11.1 2.6-19.6 8.4zm-154.9 101c2 .3 4.6.4 5.4.5 8.6.6 12.6-.1 13.8-.4 1.8-.3 3.3-.7 4.1-1l46-16.4c-5.9-2.6-11.1-4.5-14.9-5.9-4.3-1.5-5.8-1.8-7.5-2-6.4-.9-12.8.2-19.4 1.3-9 1.5-16.2 3.7-21.1 5.3a123.18 123.18 0 0 0-10.1 3.5c-7 2.9-11.8 5.7-14.7 7.6 2.1 1.6 9 6.2 18.4 7.5zm21.4-76c.8 2 2.1 4.4 2.4 5.1 4 8 6.6 11.1 7.3 12 1.1 1.4 2.2 2.4 2.8 3l35.4 29.3c-1.1-7.1-2.4-13-3.4-17.3-1.1-4.9-1.6-6.4-2.4-8.1-2.7-6.3-6.8-11.2-10.9-16.2-5.7-6.9-11-11.7-14.6-15-2.4-2.2-4.7-4.2-7.8-6.5-5.7-4.2-10.2-6.5-13-7.7.2 2.8.5 12.2 4.2 21.4z"/><path d="M547.9 459l-5.5-.3c-8.6-.2-12.7.6-13.8.9-1.8.4-3.2.8-4.1 1.1l-45.6 18.1c6 2.4 11.3 4.1 15.2 5.3 4.4 1.3 5.8 1.6 7.6 1.8 6.5.6 12.9-.7 19.4-2.1 9-1.9 16.1-4.3 21-6.1 3.3-1.2 6.3-2.2 10-3.9 7-3.1 11.7-6.1 14.5-8.1-2.2-1.5-9.3-5.8-18.7-6.7zm-39.7 71c-.5-2-1.4-4.4-1.7-5.1-2.9-8-5.2-11-5.8-11.9-1-1.3-2-2.4-2.6-3l-34.2-29.5c-.2 7 0 12.9.3 17.1.3 4.8.5 6.3 1 8 1.8 6.2 5.4 11.2 9 16.2 5.1 6.9 10 11.8 13.5 15.1 2.3 2.2 4.4 4.2 7.5 6.5 5.6 4.3 10.2 6.6 13.2 7.8.6-2.9 2.2-12.1-.2-21.2zm-89.5 24.9l3.6-4.5c5.5-7.3 7.2-11.2 7.7-12.4l1.6-4.2 12.3-50.2c-5.8 3.7-10.5 7.1-13.9 9.7-3.8 2.9-5 4-6.2 5.4-4.5 5.2-7.3 11.5-10.1 17.9-3.9 8.8-6.1 16.5-7.6 21.7-1 3.5-1.9 6.7-2.8 11-1.6 7.9-1.9 13.8-1.8 17.4 2.5-.9 10.5-4.3 17.2-11.8z"/><path d="M449.3 557.1l2.2-5.4c3.3-8.6 3.9-12.8 4-14 .2-1.9.3-3.5.3-4.4l-2.4-50.1c-4.6 5.4-8.3 10.2-10.9 13.8-2.9 4-3.7 5.4-4.5 7.1-2.9 6.3-3.8 13-4.8 19.9-1.3 9.4-1.3 17.2-1.2 22.5 0 3.6.1 6.8.5 11 .7 7.7 2.2 13.2 3.2 16.5 2.3-1.9 9.2-7.8 13.6-16.9zM386.4 540l4.9-2.4c7.6-4.1 10.7-7 11.6-7.8 1.4-1.3 2.4-2.5 3.1-3.2l31.1-41.2c-6.4.6-11.7 1.4-15.7 2.2-4.4.8-5.8 1.3-7.4 2-5.9 2.6-10.8 7.2-15.8 11.8-6.9 6.4-11.9 12.5-15.4 16.7-2.3 2.8-4.4 5.4-6.9 9-4.6 6.7-7.2 12.1-8.7 15.5 2.5.3 10.6 1.1 19.2-2.6zm-18.8-59.6c1.6 1 3.8 2.1 4.4 2.4 7 3.5 10.8 4.1 11.8 4.2 1.7.2 3.1.3 3.9.3l46-3.4c-3.9-5-7.4-9-10.1-11.8-3-3.2-4.1-4-5.5-4.9-5.1-3.1-11-4-17-5-8.3-1.3-15.3-1.2-20.1-1-3.2.1-6.2.2-10.1.7a70.03 70.03 0 0 0-15.7 3.8c1.2 2.4 5.1 10 12.4 14.7z"/><path d="M378.6 445.7c1 1.6 2.6 3.6 3 4.2 4.9 6.5 8 8.6 8.9 9.2 1.4.9 2.6 1.6 3.4 2l41.6 16.5c-1.6-6.5-3.4-11.9-4.7-15.8-1.5-4.4-2.2-5.7-3.1-7.1-3.4-5.2-8.2-8.6-13.1-12.1-6.8-4.8-13-7.7-17.3-9.6-2.9-1.3-5.5-2.5-9.1-3.7-6.6-2.2-11.8-2.9-15.1-3.1-.1 2.8.7 11.8 5.5 19.5zm-9 66.3l5.1.3c8 .2 11.8-.9 12.9-1.2 1.7-.5 3.1-1 3.9-1.4l43.5-22.1c-5.5-2.8-10.3-4.9-13.9-6.3-4-1.6-5.4-1.9-7-2.1-6-.7-12 1-18.2 2.6-8.5 2.3-15.3 5.3-19.9 7.5-3.1 1.4-5.9 2.7-9.6 4.8-6.6 3.8-11.2 7.5-13.9 9.9 2.1 1.7 8.4 6.8 17.1 8z"/><path d="M479.8 549.1v-5.6c-.2-8.9-1.4-12.8-1.7-13.8-.5-1.7-1.1-3.1-1.4-3.9l-22-41.6c-2.3 6.8-3.9 12.6-4.9 16.9-1.2 4.8-1.4 6.4-1.5 8.2-.3 6.8 1.5 12.9 3.3 19.2 2.5 8.6 5.5 15.3 7.7 19.8 1.4 3 2.8 5.8 4.8 9.2 3.7 6.2 7.3 10.2 9.6 12.5 1.3-2.6 5.5-11 6.1-20.9zM392 416.7c.4 2 1.2 4.5 1.5 5.2 2.5 8.1 4.7 11.4 5.3 12.3 1 1.4 1.9 2.5 2.4 3.2l32.7 31.5c.5-7 .5-12.9.5-17.2-.1-4.9-.3-6.4-.6-8.1-1.5-6.4-4.8-11.5-8.3-16.7-4.7-7.2-9.5-12.3-12.8-15.8-2.2-2.3-4.2-4.5-7.1-7-5.3-4.6-9.9-7.1-12.8-8.5-.8 2.7-2.8 11.8-.8 21.1zm91.2-22.4c-1.5 1.5-3.2 3.7-3.8 4.3-5.8 7-7.7 10.9-8.2 12-.8 1.7-1.4 3.2-1.7 4.2l-14.4 49.8c5.9-3.4 10.7-6.6 14.2-9 3.9-2.7 5.1-3.8 6.4-5.1 4.7-5 7.7-11.1 10.8-17.4 4.2-8.7 6.8-16.2 8.5-21.4 1.1-3.5 2.2-6.7 3.2-10.9 1.9-7.8 2.4-13.7 2.6-17.4-2.5.7-10.7 3.7-17.6 10.9z"/><path d="M451.7 392.6c-1 1.9-2.1 4.5-2.4 5.3-3.6 8.4-4.4 12.6-4.6 13.8-.3 1.9-.4 3.5-.5 4.4l.3 50.5c4.8-5.2 8.6-9.8 11.4-13.2 3.1-3.9 3.9-5.2 4.8-6.9 3.2-6.2 4.4-12.9 5.6-19.7 1.7-9.4 2-17.2 2.2-22.5.1-3.6.2-6.8 0-11.1-.4-7.8-1.6-13.4-2.5-16.8-2.4 1.7-9.6 7.3-14.3 16.2zm63.9 17.9c-1.9.7-4.2 1.9-4.9 2.2-7.7 3.7-10.9 6.4-11.8 7.2-1.4 1.2-2.5 2.4-3.2 3.1l-32.6 39.8c6.3-.2 11.7-.8 15.6-1.4 4.4-.6 5.8-1 7.4-1.6 6-2.3 11.1-6.6 16.2-11 7.1-6 12.4-11.9 16-15.9 2.4-2.7 4.6-5.2 7.2-8.7 4.8-6.4 7.7-11.8 9.3-15.1-2.4-.5-10.5-1.8-19.2 1.4zm13.9 63.4c-1.5-1.1-3.6-2.3-4.3-2.6-6.8-3.9-10.5-4.7-11.6-4.9-1.6-.3-3-.4-3.9-.5l-45.8 1a145.66 145.66 0 0 0 9.6 12.4c2.9 3.4 3.9 4.3 5.2 5.2 4.9 3.4 10.7 4.6 16.6 5.9 8.2 1.7 15.1 2 20 2.1 3.2.1 6.2.1 10.1-.2 7.2-.6 12.5-2 15.8-3-1.1-2.5-4.6-10.3-11.7-15.4z"/><path d="M517.2 508.2c-.9-1.7-2.4-3.8-2.8-4.4-4.6-6.7-7.6-9-8.4-9.7-1.3-1-2.5-1.7-3.3-2.1l-40.6-18.7c1.4 6.6 2.8 12.1 4 16.1 1.3 4.5 1.9 5.8 2.8 7.3 3.1 5.4 7.8 9.1 12.5 12.8 6.6 5.2 12.6 8.4 16.8 10.6 2.8 1.5 5.4 2.8 8.9 4.2 6.5 2.5 11.6 3.5 14.9 3.9 0-3-.4-12.1-4.8-20zm11.7-66.1l-5-.6c-8-.6-11.8.2-12.9.5-1.7.4-3.1.9-3.9 1.2l-44.2 19.9c5.3 3.1 10 5.4 13.5 7 3.9 1.8 5.2 2.2 6.8 2.4 5.9 1 12-.4 18.2-1.7 8.5-1.9 15.4-4.5 20.1-6.4 3.2-1.3 6-2.4 9.7-4.3 6.8-3.5 11.5-6.9 14.3-9.2-1.9-1.8-8-7.2-16.6-8.8zM421 399l-.3 5.7c-.2 8.9.8 12.9 1.1 14 .5 1.7.9 3.1 1.3 4l20.1 42.9a191.51 191.51 0 0 0 5.6-16.7c1.4-4.8 1.7-6.3 1.9-8.2.6-6.8-.9-13.1-2.4-19.5-2.1-8.8-4.9-15.6-6.8-20.3-1.3-3.1-2.5-5.9-4.4-9.5-3.5-6.5-6.8-10.6-9-13.1-1.5 2.6-6.1 10.8-7.1 20.7z"/></g><ellipse transform="matrix(.4157 -.9095 .9095 .4157 -172.6694 681.5764)" cx="444.1" cy="475.2" rx="36.1" ry="31" fill="#3e3e3f" class="L"/><g fill="#231f20"><ellipse transform="matrix(.4604 -.8877 .8877 .4604 -164.4737 650.1705)" cx="452.6" cy="460.4" rx="1.4" ry="1.1"/><ellipse transform="matrix(.4604 -.8877 .8877 .4604 -181.3036 636.3698)" cx="432.8" cy="467.3" rx="1.4" ry="1.1"/><ellipse transform="matrix(.4604 -.8877 .8877 .4604 -161.5631 659.0891)" cx="461.4" cy="462.4" rx="1.4" ry="1.1"/><ellipse transform="matrix(.4604 -.8877 .8877 .4604 -176.0453 639.648)" cx="438.1" cy="464.6" rx="1.4" ry="1.1"/><ellipse transform="matrix(.4604 -.8877 .8877 .4604 -162.0033 653.8802)" cx="456.9" cy="460.2" rx="1.4" ry="1.1"/><ellipse transform="matrix(.4604 -.8877 .8877 .4604 -167.1618 646.165)" cx="447.9" cy="460.6" rx="1.4" ry="1.1"/><ellipse transform="matrix(.417 -.9089 .9089 .417 -154.5909 673.6216)" cx="447.8" cy="457.3" rx="1" ry=".9"/><ellipse transform="matrix(.417 -.9089 .9089 .417 -160.6312 667.9073)" cx="440.3" cy="459.2" rx="1" ry=".9"/><ellipse transform="matrix(.417 -.9089 .9089 .417 -169.199 663.3592)" cx="432.5" cy="463.6" rx="1" ry=".9"/><ellipse transform="matrix(.417 -.9089 .9089 .417 -151.1382 681.0156)" cx="455.3" cy="458.3" rx="1" ry=".9"/><ellipse transform="matrix(.417 -.9089 .9089 .417 -164.7815 665.684)" cx="436.5" cy="461.3" rx="1" ry=".9"/><ellipse transform="matrix(.417 -.9089 .9089 .417 -152.2136 676.5807)" cx="451.3" cy="456.9" rx="1" ry=".9"/><ellipse transform="matrix(.417 -.9089 .9089 .417 -157.18 670.4385)" cx="444" cy="457.7" rx="1" ry=".9"/><ellipse transform="matrix(.4689 -.8832 .8832 .4689 -171.6373 646.5057)" cx="451.8" cy="466" rx="1.3" ry=".9"/><ellipse transform="matrix(.4689 -.8832 .8832 .4689 -177.3328 640.4662)" cx="443.9" cy="467.7" rx="1.3" ry=".9"/><ellipse transform="matrix(.4689 -.8832 .8832 .4689 -186.1019 635.2091)" cx="435.2" cy="472.4" rx="1.3" ry=".9"/><ellipse transform="matrix(.4689 -.8832 .8832 .4689 -169.1585 653.7805)" cx="459.1" cy="467.6" rx="1.3" ry=".9"/><ellipse transform="matrix(.4689 -.8832 .8832 .4689 -181.5787 637.8978)" cx="439.7" cy="469.9" rx="1.3" ry=".9"/><ellipse transform="matrix(.4689 -.8832 .8832 .4689 -169.5218 649.5346)" cx="455.4" cy="465.7" rx="1.3" ry=".9"/><ellipse transform="matrix(.4689 -.8832 .8832 .4689 -173.9473 643.232)" cx="447.9" cy="466.3" rx="1.3" ry=".9"/><ellipse transform="matrix(.4701 -.8826 .8826 .4701 -175.6335 646.2803)" cx="450.4" cy="469.4" rx=".9" ry=".7"/><ellipse transform="matrix(.4701 -.8826 .8826 .4701 -179.9312 641.7614)" cx="444.5" cy="470.7" rx=".9" ry=".7"/><ellipse transform="matrix(.4701 -.8826 .8826 .4701 -186.5421 637.8269)" cx="437.9" cy="474.3" rx=".9" ry=".7"/><ellipse transform="matrix(.4701 -.8826 .8826 .4701 -173.7587 651.7195)" cx="455.9" cy="470.6" rx=".9" ry=".7"/><ellipse transform="matrix(.4701 -.8826 .8826 .4701 -183.1323 639.8373)" cx="441.3" cy="472.4" rx=".9" ry=".7"/><ellipse transform="matrix(.4701 -.8826 .8826 .4701 -174.0341 648.5452)" cx="453.1" cy="469.2" rx=".9" ry=".7"/><ellipse transform="matrix(.4701 -.8826 .8826 .4701 -177.3643 643.8279)" cx="447.5" cy="469.6" rx=".9" ry=".7"/><ellipse transform="matrix(.5008 -.8656 .8656 .5008 -197.4457 625.9393)" cx="443.9" cy="484.1" rx=".7" ry=".5"/><ellipse transform="matrix(.5008 -.8656 .8656 .5008 -194.7408 629.6951)" cx="448.5" cy="483.7" rx=".7" ry=".5"/><ellipse transform="matrix(.5008 -.8656 .8656 .5008 -190.3211 633.1572)" cx="453.7" cy="481.6" rx=".7" ry=".5"/><ellipse transform="matrix(.5008 -.8656 .8656 .5008 -198.3004 621.6418)" cx="439.8" cy="482.7" rx=".7" ry=".5"/><ellipse transform="matrix(.5008 -.8656 .8656 .5008 -192.6051 631.3757)" cx="451.1" cy="482.7" rx=".7" ry=".5"/><ellipse transform="matrix(.5008 -.8656 .8656 .5008 -198.3891 624.094)" cx="441.9" cy="484" rx=".7" ry=".5"/><ellipse transform="matrix(.5008 -.8656 .8656 .5008 -196.407 627.9324)" cx="446.2" cy="484.2" rx=".7" ry=".5"/><ellipse transform="matrix(.5288 -.8488 .8488 .5288 -198.5889 603.1395)" cx="443.9" cy="480.4" rx=".8" ry=".5"/><ellipse transform="matrix(.5288 -.8488 .8488 .5288 -195.498 606.9061)" cx="448.8" cy="479.5" rx=".8" ry=".5"/><ellipse transform="matrix(.5288 -.8488 .8488 .5288 -190.4465 610.4493)" cx="454.5" cy="476.7" rx=".8" ry=".5"/><ellipse transform="matrix(.5288 -.8488 .8488 .5288 -199.5853 598.902)" cx="439.6" cy="479.2" rx=".8" ry=".5"/><ellipse transform="matrix(.5288 -.8488 .8488 .5288 -193.0586 608.6296)" cx="451.6" cy="478.2" rx=".8" ry=".5"/><ellipse transform="matrix(.5288 -.8488 .8488 .5288 -199.6839 601.2974)" cx="441.7" cy="480.5" rx=".8" ry=".5"/><ellipse transform="matrix(.5288 -.8488 .8488 .5288 -197.407 605.1325)" cx="446.3" cy="480.3" rx=".8" ry=".5"/><ellipse transform="matrix(.4936 -.8697 .8697 .4936 -183.3498 630.9956)" cx="450.2" cy="472.9" rx=".7" ry=".5"/><ellipse transform="matrix(.4936 -.8697 .8697 .4936 -185.9333 627.5449)" cx="445.9" cy="473.4" rx=".7" ry=".5"/><ellipse transform="matrix(.4936 -.8697 .8697 .4936 -190.1217 624.3971)" cx="441.1" cy="475.5" rx=".7" ry=".5"/><ellipse transform="matrix(.4936 -.8697 .8697 .4936 -182.4645 634.9717)" cx="454" cy="474.2" rx=".7" ry=".5"/><ellipse transform="matrix(.4936 -.8697 .8697 .4936 -187.9565 626.01)" cx="443.6" cy="474.4" rx=".7" ry=".5"/><ellipse transform="matrix(.4936 -.8697 .8697 .4936 -182.4311 632.6953)" cx="452.1" cy="473" rx=".7" ry=".5"/><ellipse transform="matrix(.4936 -.8697 .8697 .4936 -184.3538 629.1577)" cx="448.1" cy="472.9" rx=".7" ry=".5"/><ellipse transform="matrix(.068802 -.9976 .9976 .068802 -61.1975 905.0098)" cx="454.2" cy="485.3" rx=".9" ry=".7"/><ellipse transform="matrix(.068802 -.9976 .9976 .068802 -51.9511 903.375)" cx="457.9" cy="479.5" rx=".9" ry=".7"/><ellipse transform="matrix(.068802 -.9976 .9976 .068802 -41.8521 899.0045)" cx="460.6" cy="471.9" rx=".9" ry=".7"/><ellipse transform="matrix(.068802 -.9976 .9976 .068802 -69.9711 903.5752)" cx="449" cy="489.3" rx=".9" ry=".7"/><ellipse transform="matrix(.068802 -.9976 .9976 .068802 -47.0377 901.2734)" cx="459.3" cy="475.8" rx=".9" ry=".7"/><ellipse transform="matrix(.068802 -.9976 .9976 .068802 -65.4423 905.2484)" cx="452.2" cy="487.7" rx=".9" ry=".7"/><ellipse transform="matrix(.068802 -.9976 .9976 .068802 -56.6078 904.7241)" cx="456.3" cy="482.7" rx=".9" ry=".7"/><ellipse transform="matrix(.9016 -.4325 .4325 .9016 -166.3096 236.1763)" cx="436" cy="483.7" rx="1.1" ry=".9"/><ellipse transform="matrix(.9016 -.4325 .4325 .9016 -168.2269 238.9601)" cx="441.2" cy="489.3" rx="1.1" ry=".9"/><ellipse transform="matrix(.9016 -.4325 .4325 .9016 -169.3757 242.7494)" cx="449" cy="493.7" rx="1.1" ry=".9"/><ellipse transform="matrix(.9016 -.4325 .4325 .9016 -163.4051 234.4064)" cx="433.6" cy="476.4" rx="1.1" ry=".9"/><ellipse transform="matrix(.9016 -.4325 .4325 .9016 -168.7934 240.7938)" cx="445" cy="491.5" rx="1.1" ry=".9"/><ellipse transform="matrix(.9016 -.4325 .4325 .9016 -165.247 235.0485)" cx="434.1" cy="480.8" rx="1.1" ry=".9"/><ellipse transform="matrix(.9016 -.4325 .4325 .9016 -167.4547 237.4009)" cx="438.2" cy="486.8" rx="1.1" ry=".9"/><ellipse transform="matrix(.4608 -.8875 .8875 .4608 -152.0017 636.5444)" cx="447.9" cy="443.4" rx="1.7" ry="1.3"/><ellipse transform="matrix(.4608 -.8875 .8875 .4608 -159.8788 627.7994)" cx="436.7" cy="445.5" rx="1.7" ry="1.3"/><ellipse transform="matrix(.4608 -.8875 .8875 .4608 -171.9708 620.2022)" cx="424.4" cy="451.6" rx="1.7" ry="1.3"/><ellipse transform="matrix(.4608 -.8875 .8875 .4608 -148.5456 647.1016)" cx="458.3" cy="445.8" rx="1.7" ry="1.3"/><ellipse transform="matrix(.4608 -.8875 .8875 .4608 -165.7311 624.0932)" cx="430.8" cy="448.4" rx="1.7" ry="1.3"/><ellipse transform="matrix(.4608 -.8875 .8875 .4608 -149.0752 640.9469)" cx="453" cy="443.2" rx="1.7" ry="1.3"/><ellipse transform="matrix(.4608 -.8875 .8875 .4608 -155.1913 631.7963)" cx="442.4" cy="443.6" rx="1.7" ry="1.3"/><ellipse transform="matrix(.3992 -.9169 .9169 .3992 -142.2396 683.0213)" cx="450" cy="450" rx="1.7" ry="1.5"/><ellipse transform="matrix(.3992 -.9169 .9169 .3992 -150.7325 672.72)" cx="437.9" cy="451.4" rx="1.7" ry="1.5"/><ellipse transform="matrix(.3992 -.9169 .9169 .3992 -163.5181 663.9387)" cx="424.8" cy="456.7" rx="1.7" ry="1.5"/><ellipse transform="matrix(.3992 -.9169 .9169 .3992 -138.2576 695.6507)" cx="461.7" cy="453.3" rx="1.7" ry="1.5"/><ellipse transform="matrix(.3992 -.9169 .9169 .3992 -156.9154 668.4331)" cx="431.6" cy="453.9" rx="1.7" ry="1.5"/><ellipse transform="matrix(.3992 -.9169 .9169 .3992 -139.0443 688.232)" cx="455.6" cy="450.2" rx="1.7" ry="1.5"/><ellipse transform="matrix(.3992 -.9169 .9169 .3992 -145.7328 677.4044)" cx="444" cy="449.9" rx="1.7" ry="1.5"/><ellipse transform="matrix(.3859 -.9225 .9225 .3859 -183.0406 683.5942)" cx="422" cy="479.3" rx="1.7" ry="1.4"/><ellipse transform="matrix(.3859 -.9225 .9225 .3859 -191.3682 694.83)" cx="426.2" cy="491.2" rx="1.7" ry="1.4"/><ellipse transform="matrix(.3859 -.9225 .9225 .3859 -196.612 708.9288)" cx="434.2" cy="502.1" rx="1.7" ry="1.4"/><ellipse transform="matrix(.3859 -.9225 .9225 .3859 -170.6771 675.0235)" cx="421.7" cy="465.7" rx="1.7" ry="1.4"/><ellipse transform="matrix(.3859 -.9225 .9225 .3859 -193.9497 701.6717)" cx="430.1" cy="496.5" rx="1.7" ry="1.4"/><ellipse transform="matrix(.3859 -.9225 .9225 .3859 -178.4525 678.7928)" cx="420.6" cy="473.4" rx="1.7" ry="1.4"/><ellipse transform="matrix(.3859 -.9225 .9225 .3859 -187.9634 688.7991)" cx="423.4" cy="485.6" rx="1.7" ry="1.4"/><ellipse transform="matrix(.1103 -.9939 .9939 .1103 -96.6137 854.6577)" cx="429.1" cy="481.3" rx="1.5" ry="1.1"/><ellipse transform="matrix(.1103 -.9939 .9939 .1103 -101.1166 868.0853)" cx="434.3" cy="490.5" rx="1.5" ry="1.1"/><ellipse transform="matrix(.1103 -.9939 .9939 .1103 -101.7451 882.6127)" cx="442.1" cy="498.1" rx="1.5" ry="1.1"/><ellipse transform="matrix(.1103 -.9939 .9939 .1103 -87.3811 841.7387)" cx="426.5" cy="469.7" rx="1.5" ry="1.1"/><ellipse transform="matrix(.1103 -.9939 .9939 .1103 -101.4488 875.145)" cx="438.1" cy="494.2" rx="1.5" ry="1.1"/><ellipse transform="matrix(.1103 -.9939 .9939 .1103 -93.7029 848.4632)" cx="427.1" cy="476.6" rx="1.5" ry="1.1"/><ellipse transform="matrix(.1103 -.9939 .9939 .1103 -99.7323 861.3506)" cx="431.2" cy="486.4" rx="1.5" ry="1.1"/><ellipse transform="matrix(.6758 -.7371 .7371 .6758 -210.1608 494.9918)" cx="457.6" cy="486.4" rx="1.7" ry="1.2"/><ellipse transform="matrix(.6758 -.7371 .7371 .6758 -199.8019 495.4872)" cx="463.3" cy="474.9" rx="1.7" ry="1.2"/><ellipse transform="matrix(.6758 -.7371 .7371 .6758 -188.9871 493.5806)" cx="466.6" cy="461.6" rx="1.7" ry="1.2"/><ellipse transform="matrix(.6758 -.7371 .7371 .6758 -220.5789 491.699)" cx="448.7" cy="496.6" rx="1.7" ry="1.2"/><ellipse transform="matrix(.6758 -.7371 .7371 .6758 -194.5393 494.5761)" cx="464.9" cy="468.4" rx="1.7" ry="1.2"/><ellipse transform="matrix(.6758 -.7371 .7371 .6758 -215.0142 494.2825)" cx="454.4" cy="491.6" rx="1.7" ry="1.2"/><ellipse transform="matrix(.6758 -.7371 .7371 .6758 -204.9181 495.7389)" cx="461.1" cy="480.8" rx="1.7" ry="1.2"/><ellipse transform="matrix(.6003 -.7997 .7997 .6003 -206.9201 566.3279)" cx="463.2" cy="490.2" rx="1.4" ry=".9"/><ellipse transform="matrix(.6003 -.7997 .7997 .6003 -197.5892 564.9888)" cx="466.5" cy="480.2" rx="1.4" ry=".9"/><ellipse transform="matrix(.6003 -.7997 .7997 .6003 -188.6631 561.6779)" cx="467.6" cy="469.6" rx="1.4" ry=".9"/><ellipse transform="matrix(.6003 -.7997 .7997 .6003 -217.2274 565.4922)" cx="457.2" cy="500.1" rx="1.4" ry=".9"/><ellipse transform="matrix(.6003 -.7997 .7997 .6003 -193.2396 563.3942)" cx="467.1" cy="475" rx="1.4" ry=".9"/><ellipse transform="matrix(.6003 -.7997 .7997 .6003 -211.4437 566.587)" cx="461.2" cy="494.8" rx="1.4" ry=".9"/><ellipse transform="matrix(.6003 -.7997 .7997 .6003 -202.0267 566.0458)" cx="465.3" cy="485.2" rx="1.4" ry=".9"/><ellipse transform="matrix(.3992 -.9169 .9169 .3992 -146.0584 686.9628)" cx="451.1" cy="454.9" rx="1.7" ry="1.5"/><ellipse transform="matrix(.3992 -.9169 .9169 .3992 -154.5405 676.6597)" cx="439" cy="456.2" rx="1.7" ry="1.5"/><ellipse transform="matrix(.3992 -.9169 .9169 .3992 -167.3369 667.8801)" cx="425.9" cy="461.6" rx="1.7" ry="1.5"/><ellipse transform="matrix(.3992 -.9169 .9169 .3992 -142.0655 699.5905)" cx="462.8" cy="458.2" rx="1.7" ry="1.5"/><ellipse transform="matrix(.3992 -.9169 .9169 .3992 -160.734 672.3747)" cx="432.7" cy="458.8" rx="1.7" ry="1.5"/><ellipse transform="matrix(.3992 -.9169 .9169 .3992 -142.8522 692.1718)" cx="456.7" cy="455.1" rx="1.7" ry="1.5"/><ellipse transform="matrix(.3992 -.9169 .9169 .3992 -149.5407 681.344)" cx="445.1" cy="454.8" rx="1.7" ry="1.5"/><ellipse transform="matrix(.4157 -.9095 .9095 .4157 -183.5197 653.9869)" cx="417.2" cy="469.8" rx="1.8" ry="1.5"/><ellipse transform="matrix(.4157 -.9095 .9095 .4157 -196.2104 662.2011)" cx="417.3" cy="483.8" rx="1.8" ry="1.5"/><ellipse transform="matrix(.4157 -.9095 .9095 .4157 -207.2741 674.2825)" cx="421.1" cy="498.5" rx="1.8" ry="1.5"/><ellipse transform="matrix(.4157 -.9095 .9095 .4157 -168.2594 649.7578)" cx="421.6" cy="455.8" rx="1.8" ry="1.5"/><ellipse transform="matrix(.4157 -.9095 .9095 .4157 -201.6098 668.0537)" cx="419.1" cy="490.9" rx="1.8" ry="1.5"/><ellipse transform="matrix(.4157 -.9095 .9095 .4157 -177.1524 650.8227)" cx="417.9" cy="463.3" rx="1.8" ry="1.5"/><ellipse transform="matrix(.4157 -.9095 .9095 .4157 -190.3927 657.4273)" cx="416.5" cy="476.9" rx="1.8" ry="1.5"/><ellipse transform="matrix(.4157 -.9095 .9095 .4157 -202.8496 696.9733)" cx="441" cy="506.4" rx="1.8" ry="1.5"/><ellipse transform="matrix(.4157 -.9095 .9095 .4157 -192.2836 706.4127)" cx="453.6" cy="502.9" rx="1.8" ry="1.5"/><ellipse transform="matrix(.4157 -.9095 .9095 .4157 -177.4214 713.7867)" cx="466.8" cy="495" rx="1.8" ry="1.5"/><ellipse transform="matrix(.4157 -.9095 .9095 .4157 -209.0657 684.6186)" cx="428.3" cy="505" rx="1.8" ry="1.5"/><ellipse transform="matrix(.4157 -.9095 .9095 .4157 -185.0824 710.017)" cx="460.1" cy="499.1" rx="1.8" ry="1.5"/><ellipse transform="matrix(.4157 -.9095 .9095 .4157 -207.0628 692.0584)" cx="435.1" cy="507.2" rx="1.8" ry="1.5"/><ellipse transform="matrix(.4157 -.9095 .9095 .4157 -198.2868 702.2612)" cx="447.4" cy="505.5" rx="1.8" ry="1.5"/><ellipse transform="matrix(.4157 -.9095 .9095 .4157 -158.9802 707.3664)" cx="471" cy="477.4" rx="1.8" ry="1.5"/><ellipse transform="matrix(.4157 -.9095 .9095 .4157 -147.0417 698.3315)" cx="470" cy="463.6" rx="1.8" ry="1.5"/><ellipse transform="matrix(.4157 -.9095 .9095 .4157 -137.0932 685.5732)" cx="465" cy="449.5" rx="1.8" ry="1.5"/><ellipse transform="matrix(.4157 -.9095 .9095 .4157 -173.8714 712.6141)" cx="467.7" cy="491.6" rx="1.8" ry="1.5"/><ellipse transform="matrix(.4157 -.9095 .9095 .4157 -142.1806 692.1588)" cx="467.6" cy="456.7" rx="1.8" ry="1.5"/><ellipse transform="matrix(.4157 -.9095 .9095 .4157 -165.066 710.9541)" cx="470.8" cy="483.9" rx="1.8" ry="1.5"/><ellipse transform="matrix(.4157 -.9095 .9095 .4157 -152.4257 703.4791)" cx="471.3" cy="470.4" rx="1.8" ry="1.5"/><ellipse transform="matrix(.4072 -.9133 .9133 .4072 -152.1487 713.5547)" cx="473.6" cy="474" rx="1.5" ry="1.3"/><ellipse transform="matrix(.4072 -.9133 .9133 .4072 -142.4818 705.8461)" cx="472.5" cy="462.7" rx="1.5" ry="1.3"/><ellipse transform="matrix(.4072 -.9133 .9133 .4072 -134.4617 694.9401)" cx="468.1" cy="451.1" rx="1.5" ry="1.3"/><ellipse transform="matrix(.4072 -.9133 .9133 .4072 -164.252 718.0215)" cx="471" cy="485.5" rx="1.5" ry="1.3"/><ellipse transform="matrix(.4072 -.9133 .9133 .4072 -138.5657 700.5634)" cx="470.4" cy="457" rx="1.5" ry="1.3"/><ellipse transform="matrix(.4072 -.9133 .9133 .4072 -157.0787 716.611)" cx="473.5" cy="479.3" rx="1.5" ry="1.3"/><ellipse transform="matrix(.4072 -.9133 .9133 .4072 -146.822 710.2345)" cx="473.7" cy="468.2" rx="1.5" ry="1.3"/></g><g class="K L"><path d="M454.2 410.9l.2 29.9m7.4-22.3l-4.2 23.3M432 413.4l9.1 27.1m.7-23l2.8 22.7m-59.7 36l27.2-1.8m-18.9-7l20.4 3.3m-25.9 33.5l24.7-15.7m-20.8 4.1l20.7-7.9m-10.9 41.8l18.3-24.5M401 514.6l17.2-15.9m28.8 41.4l-3.6-29.2m-4.9 22.8l1.5-23.3m-19.7 28l9-29.4m-13.6 19.1l10.9-21.3m59 9.2l-18.4-17.7m8 18.2l-11.1-16.7m8.3 29.3l-14.3-23.7m3.7 22l-7.2-21m44.6-12.9l-26-6.1m16.1 12.5l-18.3-9.3m33-15.5l-26.9-1.2m18 9.2l-19.9-5.7m27.3-24L476 464m20.7.2l-21.2 3.7m1.2-51.3l-11 28.7m14.7-18l-12.3 20.5m25.1-15.7l-21 21.8m19.8-9.7l-18.8 13.2m-63.5-31.5l15.4 22.8m-4.7-21.7l8.1 20.4m-36.3 3.5l22.6 13.9M403 447.5l14.7 14.8m92.7-59.6l-20.5 24.7M442 376l3.7 30.7m92.7 23l-27.5 12.6m36 21.7l-28.7 2m10.8 41.9l-23.7-14.7m16 55.9L506.4 524m-16.8 29.9l-12.5-26.8m-16.7 44.1l-5.4-30.3m-28 25.4l4.3-31.7m-37.5 16.7l16.2-28m-46.2 7.6l24.5-19.4m-38.2-23.3l28.6-1.3m-17.6-35.6l26.8 7.7m-8.5-45.1l16.3 17.6m12-41.8l12.4 26.8m58.5-27.7l-11.1 30.4" fill="none"/><path d="M977.5 63.1c-.8.5-1.7 1.4-2 1.7-3.1 2.7-4.1 4.6-4.4 5.1l-.9 2-7.7 25.6c3.2-.6 5.8-1.4 7.7-2 2.1-.7 2.8-1 3.4-1.5 2.5-1.8 4.2-4.7 5.8-7.7 2.3-4.1 3.7-7.9 4.6-10.5.6-1.8 1.2-3.4 1.7-5.6 1-4.1 1.3-7.4 1.4-9.5-1.5-.1-5.9-.2-9.6 2.4z" class="O P"/></g><defs ><path id="B" d="M951.1 323.1c-.8-1-1.3-2.1-1.3-3.6 0-.6.1-1.3.2-2.1s.3-1.5.5-2.3c.2-.7.3-1.2.3-1.4l.7-3c.2-1 .3-1.8.3-2.4 0-1.5-.5-2.3-1.6-2.3-.8 0-1.4.4-2 1.1-.6.8-1.1 1.7-1.4 2.9l-3 14.2h-6.4l4.7-22.1h6.4l-.5 2.3c1.5-1.6 3.2-2.5 5.2-2.5 1.5 0 2.7.4 3.6 1.2s1.3 2.1 1.3 3.8c0 .9-.1 1.8-.3 2.8l-.9 3.8-.6 2.7c-.2.9-.3 1.6-.3 2.1 0 .6.1 1 .4 1.4.3.3.7.5 1.4.5.9 0 1.6-.3 2.1-1 .5-.6 1.1-1.6 1.6-2.9h1.9c-1.1 3.2-2.3 5.4-3.8 6.5-1.4 1.1-2.9 1.7-4.4 1.7-1.9.1-3.3-.4-4.1-1.4z"/><path id="C" d="M974.4 322.9c-1.2-1.1-1.8-2.9-1.8-5.3 0-2 .4-4.3 1.2-6.7s2.1-4.6 3.9-6.3c1.8-1.8 4.1-2.7 6.8-2.7 3.2 0 4.9 1.4 4.9 4.2 0 1.7-.5 3.2-1.4 4.5-.9 1.4-2.2 2.5-3.8 3.3s-3.2 1.3-5 1.4c-.1.9-.1 1.5-.1 1.8 0 1.4.3 2.4.8 2.9s1.3.8 2.4.8c1.6 0 3-.4 4.1-1.1s2.4-1.9 3.7-3.4h1.5c-3.3 5.4-7.3 8.2-12.1 8.2-2.2.1-3.9-.5-5.1-1.6zm8.3-10.8c1-.7 1.8-1.6 2.4-2.7s.9-2.2.9-3.4-.4-1.8-1.1-1.8c-1.1 0-2.1.9-3.1 2.8s-1.7 4-2.2 6.3c1.1-.1 2.1-.5 3.1-1.2z"/><path id="D" d="M1063 322.9c-1.2-1.1-1.8-2.9-1.8-5.3 0-2 .4-4.3 1.2-6.7s2.1-4.6 3.9-6.3c1.8-1.8 4.1-2.7 6.8-2.7 3.2 0 4.9 1.4 4.9 4.2 0 1.7-.5 3.2-1.4 4.5-.9 1.4-2.2 2.5-3.8 3.3s-3.2 1.3-5 1.4c-.1.9-.1 1.5-.1 1.8 0 1.4.3 2.4.8 2.9s1.3.8 2.4.8c1.6 0 3-.4 4.1-1.1s2.4-1.9 3.7-3.4h1.5c-3.3 5.4-7.3 8.2-12.1 8.2-2.2.1-3.8-.5-5.1-1.6zm8.3-10.8c1-.7 1.8-1.6 2.4-2.7s.9-2.2.9-3.4-.4-1.8-1.1-1.8c-1.1 0-2.1.9-3.1 2.8s-1.7 4-2.2 6.3c1.1-.1 2.1-.5 3.1-1.2z"/><path id="E" d="M1080 322.9c-1.2-1.1-1.8-2.9-1.8-5.3 0-2 .4-4.3 1.2-6.7s2.1-4.6 3.9-6.3c1.8-1.8 4-2.7 6.8-2.7 1.8 0 3 .4 3.8 1.1.8.8 1.1 1.7 1.1 2.9 0 1-.2 1.8-.7 2.4-.4.6-1 .8-1.7.8-.5 0-1-.2-1.5-.5a6.61 6.61 0 0 0 .5-2.6c0-.6-.1-1-.3-1.3s-.5-.5-.9-.5c-.9 0-1.8.7-2.7 2.2-.9 1.4-1.6 3.2-2.2 5.3s-.8 3.9-.8 5.6c0 1.4.3 2.4.8 2.9s1.3.8 2.4.8c1.6 0 3-.4 4.1-1.1s2.4-1.9 3.7-3.4h1.5c-3.3 5.4-7.3 8.2-12.1 8.2-2.2-.1-3.9-.7-5.1-1.8z"/><path id="F" d="M1119 323.2c-.9-.9-1.3-2.2-1.3-4 0-.7.1-1.7.4-2.9l3-14.2h6.4l-3.2 15c-.1.4-.2.9-.2 1.4 0 .6.1 1 .4 1.3s.7.4 1.4.4c.9 0 1.6-.4 2.4-1.1.7-.7 1.3-1.7 1.6-2.8h1.9c-1.1 3.2-2.5 5.3-4.2 6.5-1.7 1.1-3.4 1.7-5.1 1.7-1.5.1-2.6-.4-3.5-1.3zm3.9-24.4c-.7-.7-1-1.5-1-2.5s.3-1.8 1-2.5 1.5-1 2.5-1 1.8.3 2.5 1 1 1.5 1 2.5-.3 1.8-1 2.5-1.5 1-2.5 1-1.8-.3-2.5-1z"/><path id="G" d="M1207.5 323.2c-.9-.9-1.3-2.2-1.3-4 0-.7.1-1.7.4-2.9l3-14.2h6.4l-3.2 15c-.1.4-.2.9-.2 1.4 0 .6.1 1 .4 1.3s.7.4 1.4.4c.9 0 1.6-.4 2.4-1.1s1.3-1.7 1.6-2.8h1.9c-1.1 3.2-2.5 5.3-4.2 6.5-1.7 1.1-3.4 1.7-5.1 1.7-1.5.1-2.7-.4-3.5-1.3zm3.9-24.4c-.7-.7-1-1.5-1-2.5s.3-1.8 1-2.5 1.5-1 2.5-1 1.8.3 2.5 1 1 1.5 1 2.5-.3 1.8-1 2.5-1.5 1-2.5 1-1.8-.3-2.5-1z"/><path id="H" d="M1309.8 322.9c-1.2-1.1-1.8-2.9-1.8-5.3 0-2 .4-4.3 1.2-6.7s2.1-4.6 3.9-6.3c1.8-1.8 4-2.7 6.8-2.7 1.8 0 3.1.4 3.8 1.1.7.8 1.1 1.8 1.1 3 0 1.1-.2 1.9-.7 2.4s-1 .8-1.7.8c-.6 0-1.1-.2-1.5-.5.4-.9.5-1.8.5-2.6 0-1.2-.4-1.8-1.2-1.8-.9 0-1.8.7-2.7 2.2s-1.6 3.2-2.2 5.2-.9 3.8-.9 5.2c0 2.4.9 3.7 2.7 3.7.8 0 1.7-.2 2.7-.7s1.9-1.1 2.6-1.7c-.8 4.4-3.3 6.5-7.6 6.5-2.1-.1-3.8-.7-5-1.8z"/><path id="I" d="M1513.5 302.2h6.4l-.6 2.7c1-.9 1.9-1.6 2.7-2 .8-.5 1.7-.7 2.6-.7s1.7.3 2.2 1c.5.6.8 1.4.8 2.3s-.3 1.6-.8 2.3c-.6.6-1.3 1-2.3 1-.6 0-1.1-.2-1.3-.5s-.4-.8-.5-1.3c-.1-.4-.2-.7-.3-.8a.55.55 0 0 0-.5-.3c-.6 0-1.1.1-1.6.4s-1 .7-1.7 1.3l-3.5 16.8h-6.4l4.8-22.2z"/><path id="J" d="M1540.2 322.9c-1.2-1.1-1.8-2.9-1.8-5.3 0-2 .4-4.3 1.2-6.7s2.1-4.6 3.9-6.3c1.8-1.8 4.1-2.7 6.8-2.7 3.2 0 4.9 1.4 4.9 4.2 0 1.7-.5 3.2-1.4 4.5-.9 1.4-2.2 2.5-3.8 3.3s-3.2 1.3-5 1.4c-.1.9-.1 1.5-.1 1.8 0 1.4.3 2.4.8 2.9s1.3.8 2.4.8c1.6 0 3-.4 4.1-1.1s2.4-1.9 3.7-3.4h1.5c-3.3 5.4-7.3 8.2-12.1 8.2-2.2.1-3.9-.5-5.1-1.6zm8.3-10.8c1-.7 1.8-1.6 2.4-2.7s.9-2.2.9-3.4-.4-1.8-1.1-1.8c-1.1 0-2.1.9-3.1 2.8s-1.7 4-2.2 6.3c1-.1 2.1-.5 3.1-1.2z"/><path id="K" d="M1567.7 323.1c-.7-.9-1.1-2.1-1.1-3.6 0-.6.1-1.3.2-2.1s.3-1.5.5-2.3c.2-.7.3-1.2.3-1.4l.7-3c.2-1 .3-1.8.3-2.4 0-1.5-.5-2.3-1.6-2.3-.8 0-1.4.4-2 1.1s-1.1 1.7-1.4 2.9l-3 14.2h-6.4l4.7-22.1h6.4l-.5 2.3c1.5-1.6 3.2-2.5 5.2-2.5 1.5 0 2.7.4 3.6 1.2s1.3 2.1 1.3 3.8c0 .9-.1 1.8-.3 2.8l-.9 3.8-.6 2.7c-.2.9-.3 1.6-.3 2.1 0 .6.1 1 .4 1.4.3.3.7.5 1.4.5s1.2-.1 1.5-.3c-.2 1.5-.7 2.6-1.6 3.4s-2 1.1-3.2 1.1c-1.8.2-2.9-.3-3.6-1.3z"/><path id="L" d="M902.3 375.8c-1.1-1.1-1.7-2.9-1.7-5.4 0-2.2.4-4.5 1.3-6.9s2.2-4.4 3.9-6.1 3.8-2.5 6.2-2.5c1.2 0 2.1.2 2.7.6s.9 1 .9 1.6v.2l2.2-10.2 6.5-.9-5.1 23.9c-.1.4-.2.9-.2 1.4 0 .6.1 1 .4 1.3s.7.4 1.4.4c.8 0 1.5-.4 2.1-1.1s1.1-1.6 1.4-2.8h1.9c-1.8 5.3-4.8 7.9-8.9 7.9-1.2 0-2.2-.3-2.9-1-.8-.6-1.2-1.6-1.4-2.8-.8 1.2-1.7 2.2-2.8 2.9-1.1.8-2.3 1.1-3.8 1.1-1.6.2-3-.4-4.1-1.6zm9.2-3.5c.7-.6 1.2-1.5 1.5-2.7v-.2l2.2-10.1c-.3-1-.9-1.5-1.8-1.5-1.2 0-2.2.7-3.2 2.1-.9 1.4-1.7 3-2.2 4.9s-.8 3.6-.8 5.1.2 2.4.6 2.8.9.6 1.6.6 1.4-.3 2.1-1z"/><path id="M" d="M925.7 375.8c-1.3-1.1-1.9-2.9-1.9-5.3 0-2 .4-4.2 1.2-6.7.8-2.4 2.1-4.6 4-6.3 1.8-1.8 4.1-2.7 6.9-2.7 3.8 0 5.7 2.4 5.7 7.1h.5c1 0 2.1-.3 3.4-.8s2.4-1.1 3.4-1.9l.4 1.2a11.44 11.44 0 0 1-3.3 2.3c-1.4.6-2.9 1.1-4.5 1.3-.2 2.7-.8 5-1.8 7s-2.2 3.5-3.8 4.6c-1.5 1.1-3.2 1.6-5 1.6-2.2.3-4-.3-5.2-1.4zm9-3.5c.7-.8 1.3-1.9 1.9-3.3a21.59 21.59 0 0 0 1.1-4.7c-.8-.2-1.2-.8-1.2-1.9 0-1.2.5-2 1.4-2.4-.1-1-.2-1.6-.4-2s-.6-.6-1.2-.6c-1 0-1.9.7-2.8 2.1s-1.6 3.1-2.2 5.1-.8 3.7-.8 5.2c0 1.4.2 2.4.5 2.8.3.5.9.7 1.8.7.5.2 1.2-.2 1.9-1z"/><path id="N" d="M972.4 376.1c-.8-1-1.3-2.1-1.3-3.6 0-.6.1-1.3.2-2.1s.3-1.5.5-2.3c.2-.7.3-1.2.3-1.4l.7-3c.2-1 .3-1.8.3-2.4 0-1.5-.5-2.3-1.6-2.3-.8 0-1.4.4-2 1.1-.6.8-1.1 1.7-1.4 2.9l-3 14.2h-6.4l4.7-22.1h6.4l-.5 2.3c1.5-1.6 3.2-2.5 5.2-2.5 1.5 0 2.7.4 3.6 1.2s1.3 2.1 1.3 3.8c0 .9-.1 1.8-.3 2.8l-.9 3.8-.6 2.7c-.2.9-.3 1.6-.3 2.1 0 .6.1 1 .4 1.4.3.3.7.5 1.4.5.9 0 1.6-.3 2.1-1 .5-.6 1.1-1.6 1.6-2.9h1.9c-1.1 3.2-2.3 5.4-3.8 6.5-1.4 1.1-2.9 1.7-4.4 1.7-2 .1-3.3-.4-4.1-1.4z"/><path id="O" d="M1010.7 375.8c-1.1-1.1-1.7-2.9-1.7-5.4 0-2.2.4-4.5 1.3-6.9s2.2-4.4 3.9-6.1 3.8-2.5 6.2-2.5c1.2 0 2.1.2 2.7.6s.9 1 .9 1.6v.3l.5-2.3h6.4l-3.2 15c-.1.4-.2.9-.2 1.4 0 1.3.6 1.9 1.8 1.9.8 0 1.5-.4 2.1-1.1.6-.8 1.1-1.8 1.4-3h1.9c-1.1 3.2-2.4 5.3-4 6.5-1.6 1.1-3.2 1.7-4.8 1.7-1.2 0-2.2-.3-3-1s-1.2-1.7-1.3-3c-.9 1.2-1.8 2.2-2.8 2.9-1 .8-2.3 1.1-3.7 1.1-1.9.1-3.3-.5-4.4-1.7zm9.2-3.6c.7-.7 1.2-1.6 1.5-2.8l2.1-10c0-.4-.1-.8-.4-1.1-.3-.4-.8-.6-1.4-.6-1.2 0-2.2.7-3.2 2.1-.9 1.4-1.7 3-2.2 4.9s-.8 3.6-.8 5.1.2 2.4.6 2.8.9.6 1.6.6c.8.1 1.5-.3 2.2-1zm-1.9-22.5c-1.1-1-1.7-2.6-1.7-4.6h3.9c0 1.2.3 2.1.9 2.7s1.5 1 2.6 1c1.2 0 2.3-.4 3.2-1.1s1.5-1.6 1.6-2.6h3.8c-.1 1.1-.7 2.2-1.5 3.1-.9.9-2 1.7-3.4 2.2s-2.8.8-4.4.8c-2.2.1-3.9-.4-5-1.5z"/><path id="P" d="M1090.4 375.8c-1.3-1.1-1.9-2.9-1.9-5.3 0-2 .4-4.2 1.2-6.7.8-2.4 2.1-4.6 4-6.3 1.8-1.8 4.1-2.7 6.9-2.7 3.8 0 5.7 2.4 5.7 7.1h.5c1 0 2.1-.3 3.4-.8s2.4-1.1 3.4-1.9l.4 1.2a11.44 11.44 0 0 1-3.3 2.3c-1.4.6-2.9 1.1-4.5 1.3-.2 2.7-.8 5-1.8 7s-2.2 3.5-3.8 4.6c-1.5 1.1-3.2 1.6-5 1.6-2.2.3-3.9-.3-5.2-1.4zm9.1-3.5c.7-.8 1.3-1.9 1.9-3.3s.9-3 1.1-4.7c-.8-.2-1.2-.8-1.2-1.9 0-1.2.5-2 1.4-2.4-.1-1-.2-1.6-.4-2s-.6-.6-1.2-.6c-1 0-1.9.7-2.8 2.1s-1.6 3.1-2.2 5.1-.8 3.7-.8 5.2c0 1.4.2 2.4.5 2.8.3.5.9.7 1.8.7.5.2 1.2-.2 1.9-1z"/><path id="Q" d="M1140.3 355.2h6.4l-.6 2.7c1-.9 1.9-1.6 2.7-2 .8-.5 1.7-.7 2.6-.7s1.7.3 2.2 1c.5.6.8 1.4.8 2.3s-.3 1.6-.8 2.3c-.6.6-1.3 1-2.3 1-.6 0-1.1-.2-1.3-.5s-.4-.8-.5-1.3c-.1-.4-.2-.7-.3-.8a.55.55 0 0 0-.5-.3c-.6 0-1.1.1-1.6.4l-1.7 1.3-3.5 16.8h-6.4l4.8-22.2z"/><path id="R" d="M1155.1 375.9c-1.2-1.1-1.8-2.9-1.8-5.3 0-2 .4-4.3 1.2-6.7s2.1-4.6 3.9-6.3c1.8-1.8 4.1-2.7 6.8-2.7 3.2 0 4.9 1.4 4.9 4.2 0 1.7-.5 3.2-1.4 4.5-.9 1.4-2.2 2.5-3.8 3.3s-3.2 1.3-5 1.4c-.1.6-.1 1.1-.1 1.3 0 2.4.9 3.7 2.7 3.7.8 0 1.7-.2 2.6-.7s1.8-1 2.6-1.7c-.8 4.4-3.3 6.5-7.6 6.5-2.1.2-3.8-.4-5-1.5zm8.3-10.8c1-.7 1.8-1.6 2.4-2.7s.9-2.3.9-3.5-.4-1.8-1.1-1.8c-1 0-2.1.9-3.1 2.8s-1.8 4-2.3 6.3c1.1 0 2.2-.3 3.2-1.1z"/><path id="S" d="M1197.6 376.2c-.9-.9-1.3-2.2-1.3-4 0-.7.1-1.7.4-2.9l4.7-22.1 6.5-.9-5.1 23.9c-.1.4-.2.9-.2 1.4 0 .6.1 1 .4 1.3s.7.4 1.4.4c.9 0 1.6-.4 2.4-1.1s1.3-1.7 1.6-2.8h1.9c-1.1 3.2-2.5 5.3-4.2 6.5-1.7 1.1-3.4 1.7-5.1 1.7-1.4 0-2.6-.5-3.4-1.4z"/><path id="T" d="M1270 376.2c-.9-.9-1.3-2.2-1.3-4 0-.7.1-1.7.4-2.9l3-14.2h6.4l-3.2 15c-.1.4-.2.9-.2 1.4 0 .6.1 1 .4 1.3s.7.4 1.4.4c.9 0 1.6-.4 2.4-1.1.7-.7 1.3-1.7 1.6-2.8h1.9c-1.1 3.2-2.5 5.3-4.2 6.5-1.7 1.1-3.4 1.7-5.1 1.7-1.5.1-2.7-.4-3.5-1.3zm3.9-24.4c-.7-.7-1-1.5-1-2.5s.3-1.8 1-2.5 1.5-1 2.5-1 1.8.3 2.5 1 1 1.5 1 2.5-.3 1.8-1 2.5-1.5 1-2.5 1-1.8-.3-2.5-1z"/><path id="U" d="M1399.8 376.2c-.9-.9-1.3-2.2-1.3-4 0-.7.1-1.7.4-2.9l2.7-12.4h-1.5l.4-1.8h1.5l1.3-6.1 6.5-.9-1.5 7h2.7l-.4 1.8h-2.7l-2.8 13.3c-.1.4-.2.9-.2 1.4 0 .6.1 1 .4 1.3s.7.4 1.4.4c.9 0 1.6-.4 2.4-1.1.7-.7 1.3-1.7 1.6-2.8h1.9c-1.1 3.2-2.5 5.3-4.2 6.5-1.7 1.1-3.4 1.7-5.1 1.7-1.5 0-2.6-.5-3.5-1.4z"/><path id="V" d="M1526.9 376.2c-.9-.9-1.3-2.2-1.3-4 0-.7.1-1.7.4-2.9l3-14.2h6.4l-3.2 15c-.1.4-.1.9-.1 1.2 0 1.2.4 1.8 1.3 1.8.8 0 1.5-.3 2.1-1s1.1-1.6 1.4-2.8l3-14.2h6.4l-3.2 15c-.1.4-.2.9-.2 1.4 0 .6.1 1 .4 1.3s.7.4 1.4.4c.8 0 1.5-.4 2.1-1.1s1.1-1.6 1.4-2.8h1.9c-1.1 3.2-2.4 5.3-4 6.5-1.6 1.1-3.2 1.7-4.8 1.7-1.3 0-2.3-.4-3-1.1s-1.2-1.8-1.3-3.1c-1 1.6-2.1 2.7-3.2 3.3s-2.2.9-3.4.9c-1.5.1-2.6-.4-3.5-1.3z"/><path id="W" d="M1566.3 375.9c-1.2-1.1-1.8-2.9-1.8-5.3 0-2 .4-4.3 1.2-6.7s2.1-4.6 3.9-6.3c1.8-1.8 4.1-2.7 6.8-2.7 3.2 0 4.9 1.4 4.9 4.2 0 1.7-.5 3.2-1.4 4.5-.9 1.4-2.2 2.5-3.8 3.3s-3.2 1.3-5 1.4c-.1.6-.1 1.1-.1 1.3 0 2.4.9 3.7 2.7 3.7.8 0 1.7-.2 2.7-.7s1.8-1 2.6-1.7c-.8 4.4-3.3 6.5-7.6 6.5-2.2.2-3.9-.4-5.1-1.5zm8.3-10.8c1-.7 1.8-1.6 2.4-2.7s.9-2.3.9-3.5-.4-1.8-1.1-1.8c-1 0-2.1.9-3.1 2.8s-1.8 4-2.3 6.3c1.2 0 2.2-.3 3.2-1.1z"/><path id="X" d="M1081.2 429.1c-1.1-1-1.6-2.4-1.6-4.2 0-.9.1-1.7.3-2.5l4.7-22.1 6.5-.9-2.1 9.9c.8-.5 1.5-.8 2-1s1.1-.2 1.6-.2c3.5 0 5.2 2.5 5.2 7.6 0 2-.4 4.2-1.2 6.5s-2.1 4.3-3.9 5.9c-1.8 1.7-4.2 2.5-7 2.5-1.9 0-3.4-.5-4.5-1.5zm9.7-4.5c.8-1.1 1.4-2.5 1.9-4.2s.7-3.3.7-4.9c0-1.2-.2-2.2-.6-3s-1-1.2-1.7-1.2c-.4 0-.9.1-1.5.2-.5.1-.9.3-1.1.6l-2.4 11.2c-.1.4-.1.7-.1 1 0 1.4.8 2 2.3 2 .8 0 1.7-.6 2.5-1.7z"/><path id="Y" d="M1192.8 428.8c-1.1-1.1-1.7-2.9-1.7-5.4 0-2.2.4-4.5 1.3-6.9s2.2-4.4 3.9-6.1 3.8-2.5 6.2-2.5c1.2 0 2.1.2 2.7.6s.9 1 .9 1.6v.3l.5-2.3h6.4l-3.2 15c-.1.4-.2.9-.2 1.4 0 1.3.6 1.9 1.8 1.9.8 0 1.5-.4 2.1-1.1.6-.8 1.1-1.8 1.4-3h1.9c-1.1 3.2-2.4 5.3-4 6.5-1.6 1.1-3.2 1.7-4.8 1.7-1.2 0-2.2-.3-3-1s-1.2-1.7-1.3-3c-.9 1.2-1.8 2.2-2.8 2.9-1 .8-2.3 1.1-3.7 1.1-1.9.1-3.3-.5-4.4-1.7zm9.3-3.6c.7-.7 1.2-1.6 1.5-2.8l2.1-10c0-.4-.1-.8-.4-1.1-.3-.4-.8-.6-1.4-.6-1.2 0-2.2.7-3.2 2.1-.9 1.4-1.7 3-2.2 4.9s-.8 3.6-.8 5.1.2 2.4.6 2.8.9.6 1.6.6c.7.1 1.5-.3 2.2-1z"/><path id="Z" d="M1215.9 429.2c-.9-.9-1.3-2.2-1.3-4 0-.7.1-1.7.4-2.9l4.7-22.1 6.5-.9-5.1 23.9c-.1.4-.2.9-.2 1.4 0 .6.1 1 .4 1.3s.7.4 1.4.4c.9 0 1.6-.4 2.4-1.1s1.3-1.7 1.6-2.8h1.9c-1.1 3.2-2.5 5.3-4.2 6.5-1.7 1.1-3.4 1.7-5.1 1.7-1.4 0-2.5-.5-3.4-1.4z"/><path id="a" d="M1251.4 428.8c-1.1-1.1-1.7-2.9-1.7-5.4 0-2.2.4-4.5 1.3-6.9s2.2-4.4 3.9-6.1 3.8-2.5 6.2-2.5c1.2 0 2.1.2 2.7.6s.9 1 .9 1.6v.3l.5-2.3h6.4l-3.2 15c-.1.4-.2.9-.2 1.4 0 1.3.6 1.9 1.8 1.9.8 0 1.5-.4 2.1-1.1.6-.8 1.1-1.8 1.4-3h1.9c-1.1 3.2-2.4 5.3-4 6.5-1.6 1.1-3.2 1.7-4.8 1.7-1.2 0-2.2-.3-3-1s-1.2-1.7-1.3-3c-.9 1.2-1.8 2.2-2.8 2.9-1 .8-2.3 1.1-3.7 1.1-1.8.1-3.2-.5-4.4-1.7zm9.3-3.6c.7-.7 1.2-1.6 1.5-2.8l2.1-10c0-.4-.1-.8-.4-1.1-.3-.4-.8-.6-1.4-.6-1.2 0-2.2.7-3.2 2.1-.9 1.4-1.7 3-2.2 4.9s-.8 3.6-.8 5.1.2 2.4.6 2.8.9.6 1.6.6c.7.1 1.5-.3 2.2-1z"/><path id="b" d="M1274.5 429.2c-.9-.9-1.3-2.2-1.3-4 0-.7.1-1.7.4-2.9l2.7-12.4h-1.5l.4-1.8h1.5l1.3-6.1 6.5-.9-1.5 7h2.7l-.4 1.8h-2.7l-2.8 13.3c-.1.4-.2.9-.2 1.4 0 .6.1 1 .4 1.3s.7.4 1.4.4c.9 0 1.6-.4 2.4-1.1s1.3-1.7 1.6-2.8h1.9c-1.1 3.2-2.5 5.3-4.2 6.5-1.7 1.1-3.4 1.7-5.1 1.7-1.5 0-2.6-.5-3.5-1.4z"/><path id="c" d="M934.5 461.2h6.4l-.6 2.7c1-.9 1.9-1.6 2.7-2 .8-.5 1.7-.7 2.6-.7s1.7.3 2.2 1c.5.6.8 1.4.8 2.3s-.3 1.6-.8 2.3c-.6.6-1.3 1-2.3 1-.6 0-1.1-.2-1.3-.5s-.4-.8-.5-1.3c-.1-.4-.2-.7-.3-.8s-.3-.3-.5-.3c-.6 0-1.1.1-1.6.4l-1.7 1.3-3.5 16.8h-6.4l4.8-22.2z"/><path id="d" d="M949.3 481.9c-1.2-1.1-1.8-2.9-1.8-5.3 0-2 .4-4.3 1.2-6.7s2.1-4.6 3.9-6.3c1.8-1.8 4.1-2.7 6.8-2.7 3.2 0 4.9 1.4 4.9 4.2 0 1.7-.5 3.2-1.4 4.5-.9 1.4-2.2 2.5-3.8 3.3s-3.2 1.3-5 1.4c-.1.6-.1 1.1-.1 1.3 0 2.4.9 3.7 2.7 3.7.8 0 1.7-.2 2.6-.7s1.8-1 2.6-1.7c-.8 4.4-3.3 6.5-7.6 6.5-2.2.2-3.8-.4-5-1.5zm8.2-10.7c1-.7 1.8-1.6 2.4-2.7s.9-2.3.9-3.5-.4-1.8-1.1-1.8c-1 0-2.1.9-3.1 2.8s-1.8 4-2.3 6.3c1.2-.1 2.3-.4 3.2-1.1z"/><path id="e" d="M977 482.2c-.9-.9-1.3-2.2-1.3-4 0-.7.1-1.7.4-2.9l3-14.2h6.4l-3.2 15c-.1.4-.1.9-.1 1.2 0 1.2.4 1.8 1.3 1.8.8 0 1.5-.3 2.1-1s1.1-1.6 1.4-2.8l3-14.2h6.4l-3.2 15c-.1.4-.2.9-.2 1.4 0 .6.1 1 .4 1.3s.7.4 1.4.4c.8 0 1.5-.4 2.1-1.1s1.1-1.6 1.4-2.8h1.9c-1.1 3.2-2.4 5.3-4 6.5-1.6 1.1-3.2 1.7-4.8 1.7-1.3 0-2.3-.4-3-1.1-.8-.7-1.2-1.8-1.3-3.1-1 1.6-2.1 2.7-3.2 3.3s-2.2.9-3.4.9c-1.5.1-2.7-.4-3.5-1.3z"/><path id="f" d="M953.2 535.1c-.8-1-1.3-2.1-1.3-3.6 0-.6.1-1.3.2-2.1s.3-1.5.5-2.3c.2-.7.3-1.2.3-1.4l.7-3c.2-1 .3-1.8.3-2.4 0-1.5-.5-2.3-1.6-2.3-.8 0-1.4.4-2 1.1-.6.8-1.1 1.7-1.4 2.9l-3 14.2h-6.4l4.7-22.1h6.4l-.5 2.3c1.5-1.6 3.2-2.5 5.2-2.5 1.5 0 2.7.4 3.6 1.2s1.3 2.1 1.3 3.8c0 .9-.1 1.8-.3 2.8l-.9 3.8-.6 2.7c-.2.9-.3 1.6-.3 2.1 0 .6.1 1 .4 1.4.3.3.7.5 1.4.5.9 0 1.6-.3 2.1-1 .5-.6 1.1-1.6 1.6-2.9h1.9c-1.1 3.2-2.3 5.4-3.8 6.5-1.4 1.1-2.9 1.7-4.4 1.7-1.9.1-3.2-.4-4.1-1.4z"/><path id="g" d="M1185.2 535.8c-1-.5-1.7-1.3-2.2-2.1a5.44 5.44 0 0 1-.7-2.7c0-1 .2-1.8.7-2.5s1-1.2 1.7-1.6l3-6.3c.9-2.2 1.7-4.4 2.4-6.8l6.5-.9c.1 3.8.4 7.8.8 12.2l.2 3.8c0 .7-.1 1.2-.2 1.7 1.4-.8 2.4-1.5 3.2-2.2h1.9c-1.9 2.2-4.1 4-6.8 5.5-.9.9-1.9 1.6-3.2 2s-2.5.6-3.8.6c-1.4.1-2.6-.2-3.5-.7zm4.9-3.7c.7-.6 1.1-1.7 1.1-3.1 0-.9-.1-2.1-.3-3.7l-.6-6.8c-.7 2.3-1.9 5.1-3.6 8.3.7.4 1 .9 1 1.5s-.2 1.1-.6 1.5-.8.7-1.4.7-1-.2-1.2-.6c0 1.1.2 1.8.6 2.3s1.1.8 2.1.8c1.2.1 2.1-.2 2.9-.9zm-4.1 14.3c.6-.6.9-1.1 1.2-1.4.2-.3.3-.6.3-.9 0-.2-.1-.4-.2-.6s-.3-.4-.5-.6c-.3-.3-.5-.6-.7-.8-.1-.3-.2-.5-.2-.9 0-.6.2-1.1.7-1.5s1.1-.6 1.8-.6 1.3.2 1.7.7c.4.4.6 1 .6 1.8 0 1-.4 2-1.1 3.1a8.06 8.06 0 0 1-2.8 2.7l-.8-1z"/><path id="h" d="M1353.3 535.2c-.7-.9-1.1-2.1-1.1-3.6 0-.6.1-1.3.2-2.1s.3-1.5.5-2.3c.2-.7.3-1.2.3-1.4l.7-3c.2-1 .3-1.8.3-2.4 0-1.5-.5-2.3-1.6-2.3-.8 0-1.4.4-2 1.1s-1.1 1.7-1.4 2.9l-3 14.2h-6.4l4.7-22.1h6.4l-.5 2.3c1.5-1.6 3.2-2.5 5.2-2.5 1.5 0 2.7.4 3.6 1.2s1.3 2.1 1.3 3.8c0 .9-.1 1.8-.3 2.8l-.9 3.8-.6 2.7c-.2.9-.3 1.6-.3 2.1 0 .6.1 1 .4 1.4.3.3.7.5 1.4.5s1.2-.1 1.5-.3c-.2 1.5-.7 2.6-1.6 3.4s-2 1.1-3.2 1.1c-1.8.1-2.9-.4-3.6-1.3z"/></defs></svg>