<?xml version="1.0" encoding="utf-8"?>
<!-- Generator: Adobe Illustrator 24.0.1, SVG Export Plug-In . SVG Version: 6.00 Build 0)  -->
<svg version="1.1" id="Layer_1" xmlns="http://www.w3.org/2000/svg" xmlns:xlink="http://www.w3.org/1999/xlink" x="0px" y="0px"
	 viewBox="0 0 1024 768" style="enable-background:new 0 0 1024 768;" xml:space="preserve">
<style type="text/css">
	.st0{fill:url(#SVGID_1_);}
	.st1{fill:#5B9E38;}
	.st2{fill:#E9C515;}
	.st3{fill:#F2A82A;}
	.st4{fill:#5FBC5B;}
	.st5{fill:#43B649;}
	.st6{fill:#4BD54A;}
	.st7{fill:#4BA14A;}
	.st8{fill:#BC9F77;}
	.st9{fill:#A67C52;}
	.st10{opacity:0.42;fill:#39B54A;}
	.st11{fill:#E95A74;}
	.st12{fill:#ED9BAF;stroke:#000000;stroke-width:0.25;stroke-miterlimit:10;}
	.st13{fill:#E95A74;stroke:#000000;stroke-width:0.25;stroke-miterlimit:10;}
	.st14{fill:#422200;}
	.st15{fill:#ED9BAF;}
	.st16{fill:#231F20;}
	.st17{fill:#DBBE69;}
	.st18{fill:#E6E6E6;stroke:#000000;stroke-width:0.5;stroke-miterlimit:10;}
	.st19{fill:#FFFFFF;stroke:#000000;stroke-width:0.5;stroke-miterlimit:10;}
	.st20{fill:#DBBE69;stroke:#000000;stroke-width:0.5;stroke-miterlimit:10;}
	.st21{fill:#FFFFFF;}
	.st22{fill:#F2F2F2;stroke:#000000;stroke-width:0.5;stroke-miterlimit:10;}
	.st23{fill:#FAAF40;stroke:#231F20;stroke-width:0.5;stroke-miterlimit:10;}
	.st24{fill:none;stroke:#F6921E;stroke-width:3;stroke-miterlimit:10;}
	.st25{fill:#FFF100;stroke:#231F20;stroke-width:0.5;stroke-miterlimit:10;}
	.st26{fill:#F6921E;}
	.st27{fill:none;stroke:#FAAF40;stroke-miterlimit:10;}
	.st28{fill:#F9EC31;}
	.st29{fill:#F05A28;}
	.st30{fill:#C1272D;}
	.st31{opacity:0.6;}
	.st32{fill:#A67C52;stroke:#CCCCCC;stroke-miterlimit:10;}
	.st33{fill:#A67C52;stroke:#999999;stroke-miterlimit:10;}
	.st34{fill:#FFC228;}
	.st35{opacity:0.83;fill:#A67C52;}
	.st36{fill:#FFFF00;stroke:#FFFF00;stroke-width:0.5;stroke-miterlimit:10;}
	.st37{fill:#FFFF00;stroke:#FFFF00;stroke-miterlimit:10;}
	.st38{fill:#FFFF00;}
	.st39{fill:url(#SVGID_2_);}
	.st40{fill:url(#SVGID_3_);}
	.st41{fill:url(#SVGID_4_);}
	.st42{fill:url(#SVGID_5_);}
	.st43{fill:#E8D442;stroke:#000000;stroke-width:0.1;stroke-miterlimit:10;}
	.st44{fill:#FCEE21;stroke:#231F20;stroke-width:0.5;stroke-miterlimit:10;}
	.st45{font-family:'FranklinGothic-Heavy';}
	.st46{font-size:82px;}
	.st47{font-size:58.0636px;}
</style>
<linearGradient id="SVGID_1_" gradientUnits="userSpaceOnUse" x1="512" y1="415" x2="512" y2="-9.094947e-13">
	<stop  offset="0.1564" style="stop-color:#DEE8E5"/>
	<stop  offset="0.3492" style="stop-color:#BCD5DF"/>
	<stop  offset="0.8883" style="stop-color:#00A0C7"/>
</linearGradient>
<rect class="st0" width="1024" height="415"/>
<path class="st1" d="M69.29,736.85c294.28,0.71,588.55,1.42,882.83,2.13c50-186.77-196.97-335.42-428.71-337.97
	C287.94,398.43,25.24,546.23,69.29,736.85z"/>
<g>
	<path class="st2" d="M92,469.88c163.74,37.14,327.47,74.27,491.21,111.41C522.5,421.95,373.95,334.41,250.69,357.72
		C161.89,374.52,109.21,444.5,92,469.88z"/>
	<path class="st3" d="M230,469.88c0.01,0,0.01,0,1.01,0c0.44,0,1.07,0,1.99,0c0.04,0,0.96,0,1,0c0.33,0,0.67,0,1,0
		c0.67,0,1.33,0,2,0s1.33,0,2,0c1,0,2,0,3,0s2,0,3,0c0.33,0,0.67,0,1,0c0.01,0,0.99,0,1,0c0.99,0,1,0,1,0
		c1.59-0.03,0.79-111.23-4-111.14c-0.29,0.01-0.75,0.31-3,0.93c-1.69,0.47-3.82,0.89-4,0.93c-3.53,0.81,4.86,38.23,1,67.24
		C235.93,443.44,228.6,469.55,230,469.88z"/>
	<path class="st3" d="M296.09,469.88C296.09,469.88,296.09,469.88,296.09,469.88c0.01,0,0.05,0,1.02,0c0.44,0,1.08,0,2.01,0
		c0.04,0,0.97,0,1.01,0c0.34,0,0.67,0,1.01,0c0.67,0,1.35,0,2.02,0c0.67,0,1.35,0,2.02,0c1.01,0,2.02,0,3.03,0c1.01,0,2.02,0,3.03,0
		c0.34,0,0.67,0,1.01,0c0.01,0,1,0,1.01,0c0.37,0,0.6,0,0.75,0c0.13,0,0.26,0,0.26,0c0.85,0,1.91-109.51-2.25-113.94
		c-1.52-1.62-3-1.87-3-1.87c-0.44-0.07-0.53-0.01-3,0c0,0-0.67,0-2,0c-3,0-3,0-3,0c7.31,68.48,5.5,92.04,2,99.93
		C302.66,454.77,295.9,469.81,296.09,469.88z"/>
	<path class="st3" d="M377.97,469.88c0,0,0.29,0,0.87,0c0.38,0,0.92,0,1.7,0c0.03,0,0.82,0,0.86,0c0.29,0,0.57,0,0.86,0
		c0.57,0,1.14,0,1.71,0s1.14,0,1.71,0c0.86,0,1.71,0,2.57,0s1.71,0,2.57,0c0.29,0,0.57,0,0.86,0c0.01,0,0.84,0,0.86,0
		c0.31,0,0.51,0,0.64,0c0.22,0,0.22,0,0.22,0c1.5-53.84,1.41-93.37-0.36-94.33c-1.13-0.61-2-0.93-2-0.93
		c-1.31-0.49-1.68-0.41-3-0.93c-0.32-0.13-0.33-0.14-2-0.93c-1.32-0.62-1.98-0.94-2-0.93c-1.98,0.2,4.67,30.9,0,60.7
		C382.63,441.25,377.19,469.74,377.97,469.88z"/>
	<path class="st3" d="M153.61,469.88c0,0,0.13,0,0.4,0c0.17,0,0.42,0,0.78,0c0.02,0,0.38,0,0.39,0c0.13,0,0.26,0,0.39,0
		c0.26,0,0.53,0,0.79,0c0.26,0,0.53,0,0.79,0c0.39,0,0.79,0,1.18,0c0.39,0,0.79,0,1.18,0c0.13,0,0.26,0,0.39,0c0.01,0,0.39,0,0.39,0
		c0.14,0,0.24,0,0.29,0c0.08,0,0.1,0,0.1,0c2.64-0.08-1.71-70.04-1.71-70.04c-1.06,0.43-1.59,0.65-2,0.93c0,0,0,0,0,0
		c-0.28,0.35-0.45,0.51-1,0.93c-0.73,0.57,0.91,30.23,1,37.36C157.16,452.27,153.02,469.8,153.61,469.88z"/>
	<path class="st3" d="M459.53,469.88c0,0,0.1,0,0.3,0c0.13,0,0.31,0,0.58,0c0.01,0,0.28,0,0.29,0c0.1,0,0.19,0,0.29,0
		c0.19,0,0.39,0,0.58,0s0.39,0,0.58,0c0.29,0,0.58,0,0.88,0s0.58,0,0.88,0c0.1,0,0.19,0,0.29,0c0,0,0.29,0,0.29,0
		c0.11,0,0.17,0,0.22,0c0.02,0,0.07,0,0.07,0c0.26,0,0.87-50.75-0.78-52.3c-0.33-0.31-1.33-1.25-1-0.93c-0.73-0.83-1-0.93-1-0.93
		c0,0,0,0,0,0s-0.25-0.23-1,0c-0.89,0.28,0.57,19.05,0,30.82C460.66,453.46,459.05,469.84,459.53,469.88z"/>
</g>
<path class="st4" d="M342,522.29c-47.45-104.07-138.56-168.58-229.22-162.95c-51.52,3.2-90.68,28.3-112.86,46.03
	c0,1.17,0,2.34,0,3.52c0,1.87,0,3.75,0,5.62c-0.01,6.97-0.04,6.7,0,8.44c0.04,1.72,0.1,2.51,0.09,4.29
	c-0.01,1.96-0.07,1.85-0.09,4.15c-0.01,1.94,0.03,2.52,0,4.92c-0.01,0.91-0.02,1.03-0.03,1.84c-0.01,1.47,0.01,2.66,0.03,3.78
	c0.08,5.44,0.15,10.86,0,16.87c-0.03,1.29-0.07,2.34-0.09,2.99c0.22,2.33,0.18,4.34-0.07,6.64
	C113.84,486.39,227.92,504.34,342,522.29z"/>
<path class="st5" d="M1024,453.52c-0.12,0.14-0.23,0.28-0.35,0.41c-10.43,12.42-21.01,23.71-31.61,33.98
	c-10.27,9.96-20.56,18.96-30.74,27.11c-8.05,6.45-16.21,12.51-24.47,18.19c-1.34,0.94-2.69,1.86-4.04,2.75
	c-0.22,0.16-0.43,0.3-0.65,0.44c-1.07,0.73-2.15,1.45-3.23,2.15c-1.08,0.71-2.16,1.41-3.24,2.1c-43.15,27.8-88.56,46-133.54,57.38
	c-114.95,29.08-227.08,13.64-291.39,0c-11.39-2.42-21.28-4.78-29.42-6.82c7.71-17.64,16.28-34.51,25.61-50.56
	c0.83-1.42,1.66-2.84,2.5-4.25c0.09-0.15,0.17-0.29,0.26-0.44c0.55-0.92,1.1-1.84,1.65-2.75c17.98-29.67,38.57-56.36,61.15-79.69
	c45.97-47.52,100.14-81.09,157.05-97.36c34.12-9.76,69.22-13.3,104.13-9.89c39.21,3.84,73.64,15.98,102.7,31.15
	c3.38,1.76,6.69,3.57,9.92,5.4c2.56,1.46,5.07,2.93,7.53,4.42c16.22,9.8,30.43,20.29,42.51,30.34c2.25,1.86,4.42,3.71,6.51,5.54
	C1006.41,434.92,1016.87,445.72,1024,453.52z"/>
<g>
	<path class="st2" d="M989.73,398.56c11.39,0.89,22.87,2.84,34.27,5.81V477c-0.12,0.13-0.23,0.26-0.35,0.39v38.64
		c-10.54-2.22-21.07-4.44-31.61-6.66c-39.74-8.37-79.47-16.75-119.21-25.12c-11.47-2.41-22.95-4.83-34.42-7.25
		c-2.14-0.45-4.27-0.9-6.41-1.35c2.95-4.05,7.34-9.78,13.19-16.32c16.07-17.96,43.08-42.02,81.18-53.95
		c3.23-1.01,6.55-1.94,9.94-2.76c1.84-0.46,3.71-0.88,5.6-1.26c1.5-0.31,3.01-0.6,4.54-0.87c11.84-2.08,24-2.84,36.29-2.34
		C985.07,398.24,987.39,398.38,989.73,398.56z"/>
	<path class="st3" d="M931.52,475.65c0,0,0,0,0.73,0c0.32,0,0.77,0,1.43,0c0.03,0,0.69,0,0.72,0c0.24,0,0.48,0,0.72,0
		c0.48,0,0.96,0,1.44,0c0.48,0,0.96,0,1.44,0c0.72,0,1.44,0,2.16,0s1.44,0,2.16,0c0.24,0,0.48,0,0.72,0c0.01,0,0.71,0,0.72,0
		c0.71,0,0.72,0,0.72,0c1.15-0.02,0.57-74.53-2.88-74.46c-0.21,0-0.54,0.21-2.16,0.63c-1.22,0.32-2.76,0.6-2.88,0.63
		c-2.55,0.54,3.5,25.62,0.72,45.05C935.8,457.93,930.52,475.42,931.52,475.65z"/>
	<path class="st3" d="M979.19,475.65C979.19,475.65,979.19,475.65,979.19,475.65c0.01,0,0.04,0,0.74,0c0.32,0,0.78,0,1.45,0
		c0.03,0,0.7,0,0.73,0c0.24,0,0.49,0,0.73,0c0.49,0,0.97,0,1.46,0c0.49,0,0.97,0,1.46,0c0.73,0,1.46,0,2.18,0s1.46,0,2.18,0
		c0.24,0,0.49,0,0.73,0c0.01,0,0.72,0,0.73,0c0.27,0,0.43,0,0.54,0c0.09,0,0.19,0,0.19,0c0.61,0,1.38-73.37-1.62-76.34
		c-1.1-1.08-2.16-1.25-2.16-1.25c-0.32-0.05-0.38-0.01-2.16,0c0,0-0.48,0-1.44,0c-2.16,0-2.16,0-2.16,0
		c5.27,45.88,3.97,61.67,1.44,66.96C983.93,465.52,979.05,475.59,979.19,475.65z"/>
	<path class="st3" d="M876.43,475.65c0,0,0.1,0,0.29,0c0.13,0,0.31,0,0.57,0c0.01,0,0.27,0,0.28,0c0.09,0,0.19,0,0.28,0
		c0.19,0,0.38,0,0.57,0s0.38,0,0.57,0c0.28,0,0.57,0,0.85,0s0.57,0,0.85,0c0.09,0,0.19,0,0.28,0c0,0,0.28,0,0.28,0
		c0.1,0,0.17,0,0.21,0c0.06,0,0.07,0,0.07,0c1.91-0.05-1.23-46.93-1.23-46.93c-0.76,0.29-1.15,0.44-1.44,0.63c0,0,0,0,0,0
		c-0.2,0.23-0.33,0.34-0.72,0.63c-0.52,0.38,0.66,20.25,0.72,25.03C879,463.84,876.01,475.59,876.43,475.65z"/>
</g>
<g>
	<rect y="584" class="st6" width="1024" height="184"/>
</g>
<path class="st7" d="M84,654c6.67-0.33,13.33-0.67,20-1c0.08-0.93,0.22-2.36,0.51-4.1c0.41-2.45,0.81-3.74,0.49-3.9
	c-0.65-0.32-3.26,4.34-4,4c-0.66-0.3,1.31-3.97,0-8c-0.46-1.41-1.4-3.12-2-3c-1.38,0.27-0.27,9.91-1,10c-0.71,0.09-2.17-9.09-3-9
	c-0.77,0.08-0.5,7.97-1,8c-0.47,0.02-0.85-6.93-2-7c-1.08-0.06-1.74,6.01-3,6c-1.54-0.01-2.63-9.05-3-9c-0.41,0.05,0.95,10.81,0,11
	c-0.84,0.17-2.53-8.16-4-8c-1.02,0.11-1.81,4.28-1,8C81.61,650.8,83.02,652.83,84,654z"/>
<path class="st7" d="M293.82,654.4c6.67-0.33,13.33-0.67,20-1c0.08-0.93,0.22-2.36,0.51-4.1c0.41-2.45,0.81-3.74,0.49-3.9
	c-0.65-0.32-3.26,4.34-4,4c-0.66-0.3,1.31-3.97,0-8c-0.46-1.41-1.4-3.12-2-3c-1.38,0.27-0.27,9.91-1,10c-0.71,0.09-2.17-9.09-3-9
	c-0.77,0.08-0.5,7.97-1,8c-0.47,0.02-0.85-6.93-2-7c-1.08-0.06-1.74,6.01-3,6c-1.54-0.01-2.63-9.05-3-9c-0.41,0.05,0.95,10.81,0,11
	c-0.84,0.17-2.53-8.16-4-8c-1.02,0.11-1.81,4.28-1,8C291.43,651.2,292.83,653.22,293.82,654.4z"/>
<path class="st7" d="M215.82,707.4c6.67-0.33,13.33-0.67,20-1c0.08-0.93,0.22-2.36,0.51-4.1c0.41-2.45,0.81-3.74,0.49-3.9
	c-0.65-0.32-3.26,4.34-4,4c-0.66-0.3,1.31-3.97,0-8c-0.46-1.41-1.4-3.12-2-3c-1.38,0.27-0.27,9.91-1,10c-0.71,0.09-2.17-9.09-3-9
	c-0.77,0.08-0.5,7.97-1,8c-0.47,0.02-0.85-6.93-2-7c-1.08-0.06-1.74,6.01-3,6c-1.54-0.01-2.63-9.05-3-9c-0.41,0.05,0.95,10.81,0,11
	c-0.84,0.17-2.53-8.16-4-8c-1.02,0.11-1.81,4.28-1,8C213.43,704.2,214.83,706.22,215.82,707.4z"/>
<path class="st7" d="M522.82,648.4c6.67-0.33,13.33-0.67,20-1c0.08-0.93,0.22-2.36,0.51-4.1c0.41-2.45,0.81-3.74,0.49-3.9
	c-0.65-0.32-3.26,4.34-4,4c-0.66-0.3,1.31-3.97,0-8c-0.46-1.41-1.4-3.12-2-3c-1.38,0.27-0.27,9.91-1,10c-0.71,0.09-2.17-9.09-3-9
	c-0.77,0.08-0.5,7.97-1,8c-0.47,0.02-0.85-6.93-2-7c-1.08-0.06-1.74,6.01-3,6c-1.54-0.01-2.63-9.05-3-9c-0.41,0.05,0.95,10.81,0,11
	c-0.84,0.17-2.53-8.16-4-8c-1.02,0.11-1.81,4.28-1,8C520.43,645.2,521.83,647.22,522.82,648.4z"/>
<path class="st7" d="M922.82,639.4c6.67-0.33,13.33-0.67,20-1c0.08-0.93,0.22-2.36,0.51-4.1c0.41-2.45,0.81-3.74,0.49-3.9
	c-0.65-0.32-3.26,4.34-4,4c-0.66-0.3,1.31-3.97,0-8c-0.46-1.41-1.4-3.12-2-3c-1.38,0.27-0.27,9.91-1,10c-0.71,0.09-2.17-9.09-3-9
	c-0.77,0.08-0.5,7.97-1,8c-0.47,0.02-0.85-6.93-2-7c-1.08-0.06-1.74,6.01-3,6c-1.54-0.01-2.63-9.05-3-9c-0.41,0.05,0.95,10.81,0,11
	c-0.84,0.17-2.53-8.16-4-8c-1.02,0.11-1.81,4.28-1,8C920.43,636.2,921.83,638.22,922.82,639.4z"/>
<path class="st7" d="M430.82,738.4c6.67-0.33,13.33-0.67,20-1c0.08-0.93,0.22-2.36,0.51-4.1c0.41-2.45,0.81-3.74,0.49-3.9
	c-0.65-0.32-3.26,4.34-4,4c-0.66-0.3,1.31-3.97,0-8c-0.46-1.41-1.4-3.12-2-3c-1.38,0.27-0.27,9.91-1,10c-0.71,0.09-2.17-9.09-3-9
	c-0.77,0.08-0.5,7.97-1,8c-0.47,0.02-0.85-6.93-2-7c-1.08-0.06-1.74,6.01-3,6c-1.54-0.01-2.63-9.05-3-9c-0.41,0.05,0.95,10.81,0,11
	c-0.84,0.17-2.53-8.16-4-8c-1.02,0.11-1.81,4.28-1,8C428.43,735.2,429.83,737.22,430.82,738.4z"/>
<path class="st7" d="M646.82,689.4c6.67-0.33,13.33-0.67,20-1c0.08-0.93,0.22-2.36,0.51-4.1c0.41-2.45,0.81-3.74,0.49-3.9
	c-0.65-0.32-3.26,4.34-4,4c-0.66-0.3,1.31-3.97,0-8c-0.46-1.41-1.4-3.12-2-3c-1.38,0.27-0.27,9.91-1,10c-0.71,0.09-2.17-9.09-3-9
	c-0.77,0.08-0.5,7.97-1,8c-0.47,0.02-0.85-6.93-2-7c-1.08-0.06-1.74,6.01-3,6c-1.54-0.01-2.63-9.05-3-9c-0.41,0.05,0.95,10.81,0,11
	c-0.84,0.17-2.53-8.16-4-8c-1.02,0.11-1.81,4.28-1,8C644.43,686.2,645.83,688.22,646.82,689.4z"/>
<path class="st7" d="M740.82,724.4c6.67-0.33,13.33-0.67,20-1c0.08-0.93,0.22-2.36,0.51-4.1c0.41-2.45,0.81-3.74,0.49-3.9
	c-0.65-0.32-3.26,4.34-4,4c-0.66-0.3,1.31-3.97,0-8c-0.46-1.41-1.4-3.12-2-3c-1.38,0.27-0.27,9.91-1,10c-0.71,0.09-2.17-9.09-3-9
	c-0.77,0.08-0.5,7.97-1,8c-0.47,0.02-0.85-6.93-2-7c-1.08-0.06-1.74,6.01-3,6c-1.54-0.01-2.63-9.05-3-9c-0.41,0.05,0.95,10.81,0,11
	c-0.84,0.17-2.53-8.16-4-8c-1.02,0.11-1.81,4.28-1,8C738.43,721.2,739.83,723.22,740.82,724.4z"/>
<g>
	<g>
		<path class="st6" d="M1023.65,466v62.59H0v-52.2c0.1-1.34,0.1-2.65,0-4.02v-1.65c0.46-1.02,0.87-2.06,1.19-3.15
			c0.15-0.53,0.29-1.06,0.42-1.58H1023.65z"/>
	</g>
	<path class="st7" d="M188.18,492.31c6.66-0.27,13.33-0.54,19.99-0.81c0.08-0.75,0.22-1.91,0.51-3.31c0.41-1.97,0.81-3.01,0.49-3.14
		c-0.65-0.26-3.25,3.5-4,3.23c-0.66-0.24,1.3-3.2,0-6.45c-0.46-1.14-1.4-2.52-2-2.42c-1.38,0.22-0.27,7.99-1,8.07
		c-0.71,0.07-2.17-7.33-3-7.26c-0.77,0.07-0.5,6.43-1,6.45c-0.47,0.02-0.85-5.59-2-5.65c-1.07-0.05-1.74,4.85-3,4.84
		c-1.54-0.01-2.62-7.3-3-7.26c-0.41,0.04,0.95,8.72,0,8.87c-0.84,0.14-2.53-6.58-4-6.45c-1.02,0.09-1.81,3.45-1,6.45
		C185.79,489.73,187.2,491.36,188.18,492.31z"/>
	<path class="st7" d="M446.09,522.15c6.66-0.27,13.33-0.54,19.99-0.81c0.08-0.75,0.22-1.91,0.51-3.31c0.41-1.97,0.81-3.01,0.49-3.14
		c-0.65-0.26-3.25,3.5-4,3.23c-0.66-0.24,1.3-3.2,0-6.45c-0.46-1.14-1.4-2.52-2-2.42c-1.38,0.22-0.27,7.99-1,8.07
		c-0.71,0.07-2.17-7.33-3-7.26c-0.77,0.07-0.5,6.43-1,6.45c-0.47,0.02-0.85-5.59-2-5.65c-1.07-0.05-1.74,4.85-3,4.84
		c-1.54-0.01-2.62-7.3-3-7.26c-0.41,0.04,0.95,8.72,0,8.87c-0.84,0.14-2.53-6.58-4-6.45c-1.02,0.09-1.81,3.45-1,6.45
		C443.7,519.58,445.11,521.21,446.09,522.15z"/>
	<path class="st7" d="M972.91,485.05c6.66-0.27,13.33-0.54,19.99-0.81c0.08-0.75,0.22-1.91,0.51-3.31c0.41-1.97,0.81-3.01,0.49-3.14
		c-0.65-0.26-3.25,3.5-4,3.23c-0.66-0.24,1.3-3.2,0-6.45c-0.46-1.14-1.4-2.52-2-2.42c-1.38,0.22-0.27,7.99-1,8.07
		c-0.71,0.07-2.17-7.33-3-7.26c-0.77,0.07-0.5,6.43-1,6.45c-0.47,0.02-0.85-5.59-2-5.65c-1.07-0.05-1.74,4.85-3,4.84
		c-1.54-0.01-2.62-7.3-3-7.26c-0.41,0.04,0.95,8.72,0,8.87c-0.84,0.14-2.53-6.58-4-6.45c-1.02,0.09-1.81,3.45-1,6.45
		C970.52,482.47,971.93,484.1,972.91,485.05z"/>
	<path class="st7" d="M558.05,492.31c6.66-0.27,13.33-0.54,19.99-0.81c0.08-0.75,0.22-1.91,0.51-3.31c0.41-1.97,0.81-3.01,0.49-3.14
		c-0.65-0.26-3.25,3.5-4,3.23c-0.66-0.24,1.3-3.2,0-6.45c-0.46-1.14-1.4-2.52-2-2.42c-1.38,0.22-0.27,7.99-1,8.07
		c-0.71,0.07-2.17-7.33-3-7.26c-0.77,0.07-0.5,6.43-1,6.45c-0.47,0.02-0.85-5.59-2-5.65c-1.07-0.05-1.74,4.85-3,4.84
		c-1.54-0.01-2.62-7.3-3-7.26c-0.41,0.04,0.95,8.72,0,8.87c-0.84,0.14-2.53-6.58-4-6.45c-1.02,0.09-1.81,3.45-1,6.45
		C555.66,489.73,557.07,491.36,558.05,492.31z"/>
	<path class="st7" d="M22.23,489.08c6.66-0.27,13.33-0.54,19.99-0.81c0.08-0.75,0.22-1.91,0.51-3.31c0.41-1.97,0.81-3.01,0.49-3.14
		c-0.65-0.26-3.25,3.5-4,3.23c-0.66-0.24,1.3-3.2,0-6.45c-0.46-1.14-1.4-2.52-2-2.42c-1.38,0.22-0.27,7.99-1,8.07
		c-0.71,0.07-2.17-7.33-3-7.26c-0.77,0.07-0.5,6.43-1,6.45c-0.47,0.02-0.85-5.59-2-5.65c-1.07-0.05-1.74,4.85-3,4.84
		c-1.54-0.01-2.62-7.3-3-7.26c-0.41,0.04,0.95,8.72,0,8.87c-0.84,0.14-2.53-6.58-4-6.45c-1.02,0.09-1.81,3.45-1,6.45
		C19.85,486.5,21.25,488.13,22.23,489.08z"/>
</g>
<g>
	<rect x="0" y="528" class="st8" width="1024" height="58"/>
	<ellipse class="st9" cx="81" cy="550" rx="9" ry="4"/>
	<ellipse class="st9" cx="154" cy="573" rx="9" ry="4"/>
	<ellipse class="st9" cx="293" cy="554" rx="9" ry="4"/>
	<ellipse class="st9" cx="602" cy="569" rx="9" ry="4"/>
	<ellipse class="st9" cx="448" cy="577" rx="9" ry="4"/>
	<ellipse class="st9" cx="735" cy="559" rx="9" ry="4"/>
	<ellipse class="st9" cx="910" cy="542" rx="9" ry="4"/>
	<ellipse class="st9" cx="985" cy="581" rx="9" ry="4"/>
</g>
<rect x="590.62" y="372" class="st30" width="218.3" height="92.32"/>
<polygon class="st30" points="600.68,366.43 590.62,374.01 590.62,374.01 600.68,374.01 602.19,374.01 627.34,374.01 628.85,374.01 
	654.5,374.01 656.01,374.01 681.16,374.01 682.67,374.01 702.29,374.01 703.8,374.01 729.45,374.01 730.96,374.01 760.13,374.01 
	761.64,374.01 808.92,374.01 761.64,338.41 760.13,337.27 730.96,315.3 729.45,314.17 703.8,294.85 702.29,293.71 699.77,291.82 
	682.64,304.72 681.16,305.83 655.23,325.36 654.5,325.91 628.79,345.26 627.34,346.36 602.19,365.3 "/>
<polygon class="st31" points="628.79,345.26 628.85,345.26 628.85,374.01 628.85,464.32 627.34,464.32 627.34,374.01 627.34,346.36 
	"/>
<rect x="654.5" y="325.36" class="st31" width="1.51" height="138.96"/>
<polygon class="st31" points="672.11,307.31 672.11,375.49 672.11,463.95 673.62,463.95 673.62,375.49 673.62,370.19 673.62,339 
	673.62,306.19 673.59,306.19 "/>
<rect x="600.68" y="365.17" class="st31" width="1.51" height="99.15"/>
<polygon class="st31" points="703.8,294.85 703.8,337.52 703.8,368.71 703.8,374.01 703.8,463.58 702.29,463.58 702.29,374.01 
	702.29,368.71 702.29,337.52 702.29,293.71 "/>
<polygon class="st31" points="729.45,314.17 729.45,374.01 729.45,463.58 730.96,463.58 730.96,374.01 730.96,315.3 "/>
<polygon class="st31" points="760.13,337.27 760.13,374.01 760.13,463.58 761.64,463.58 761.64,374.01 761.64,338.41 "/>
<polygon class="st31" points="787.29,357.73 787.29,374.01 787.29,463.58 788.8,463.58 788.8,374.01 788.8,358.86 "/>
<polygon class="st31" points="802.89,369.47 802.89,374.01 802.89,464.32 801.38,464.32 801.38,374.01 801.38,368.33 "/>
<rect x="680.91" y="395.94" class="st32" width="41.25" height="68.56"/>
<rect x="686.26" y="337.52" class="st33" width="26.59" height="31.19"/>
<polygon class="st34" points="701.37,292.74 576.46,384.28 570,379.54 694.91,288.01 "/>
<polygon class="st34" points="692.62,289.68 815.61,379.8 822,375.12 699.02,285 "/>
<rect y="527" class="st35" width="1024" height="7"/>
<g>
	<g>
		<polygon class="st36" points="502.5,204.24 502.55,204.19 471.87,164.81 471.82,164.85 		"/>
		<polygon class="st36" points="492.77,213.67 492.81,213.61 451.66,185.47 451.62,185.53 		"/>
		<polygon class="st36" points="489.78,224.78 489.8,224.72 441.99,210.81 441.97,210.87 		"/>
		<polygon class="st36" points="512.65,199.33 512.71,199.31 496.94,151.87 496.88,151.89 		"/>
		
			<rect x="500.88" y="173.87" transform="matrix(0.0944 -0.9955 0.9955 0.0944 303.111 681.0195)" class="st36" width="50.02" height="0.07"/>
		<polygon class="st36" points="534.34,201.8 534.4,201.82 546.12,153.21 546.05,153.19 		"/>
		
			<rect x="550.35" y="226.22" transform="matrix(0.9947 -0.1029 0.1029 0.9947 -20.2323 60.4102)" class="st36" width="49.78" height="0.07"/>
		<polygon class="st36" points="548.58,220.33 548.62,220.38 589.24,191.48 589.21,191.42 		"/>
		<polygon class="st36" points="543.7,208.12 543.76,208.16 571.76,166.81 571.71,166.77 		"/>
		<g>
			<polygon class="st36" points="536.87,252.82 536.82,252.86 567.67,292.12 567.72,292.07 			"/>
			<polygon class="st36" points="546.56,243.35 546.52,243.4 587.8,271.36 587.83,271.31 			"/>
			<polygon class="st36" points="549.5,232.22 549.48,232.28 597.36,245.99 597.37,245.92 			"/>
			<polygon class="st36" points="526.75,257.77 526.68,257.79 542.65,305.17 542.72,305.14 			"/>
			
				<rect x="488.61" y="283.22" transform="matrix(0.0901 -0.9959 0.9959 0.0901 185.232 769.2576)" class="st36" width="50.02" height="0.07"/>
			<polygon class="st36" points="505.04,255.39 504.98,255.37 493.47,304.04 493.54,304.05 			"/>
			<polygon class="st36" points="488.78,228.46 488.78,228.39 439.29,233.78 439.3,233.85 			"/>
			<polygon class="st36" points="490.72,236.93 490.68,236.87 450.18,265.95 450.22,266.01 			"/>
			<polygon class="st36" points="495.65,249.11 495.6,249.07 467.77,290.55 467.82,290.58 			"/>
		</g>
	</g>
	<path class="st37" d="M488.71,176.1l21.32,29.84l0.05-0.04l-21.3-29.81C488.76,176.09,488.73,176.09,488.71,176.1z"/>
	<path class="st37" d="M475.73,192.52c-0.05,0.05-0.1,0.09-0.15,0.14l20.91,13.9l0.11-0.16L475.73,192.52z"/>
	<path class="st37" d="M493.6,220.13l-35.35-10.28c0,0.02-0.01,0.04-0.01,0.07l35.34,10.28L493.6,220.13z"/>
	<path class="st37" d="M513.21,174.73l3.27,26.41l0.07-0.01l-3.26-26.38C513.26,174.73,513.24,174.73,513.21,174.73z"/>
	<path class="st37" d="M529.61,175.6l-2.3,24.47l0.07,0.01l2.3-24.47C529.66,175.6,529.63,175.6,529.61,175.6z"/>
	<path class="st37" d="M543.16,190.07l-6.94,11.43l0.06,0.03l6.94-11.43C543.2,190.09,543.18,190.08,543.16,190.07z"/>
	<path class="st37" d="M582.77,221.24l-28.48,2.98l0.01,0.07l28.48-2.98C582.77,221.28,582.77,221.26,582.77,221.24z"/>
	<path class="st37" d="M552.42,221.65l34.54-24.58c-0.01-0.02-0.02-0.04-0.03-0.06l-34.55,24.58L552.42,221.65z"/>
	<path class="st37" d="M557.56,199.57l-10.06,14.85l0.06,0.04l10.05-14.84C557.59,199.6,557.58,199.58,557.56,199.57z"/>
	<path class="st37" d="M563.22,271.95l-17.33-22.05l-0.05,0.04L563.17,272C563.18,271.98,563.2,271.97,563.22,271.95z"/>
	<path class="st37" d="M548.49,240.25l-0.03,0.06l34.9,14.77c0.01-0.02,0.02-0.04,0.02-0.06L548.49,240.25z"/>
	<path class="st37" d="M571.08,233.3l-18.14-1.34l0,0.07l18.11,1.34C571.06,233.35,571.07,233.33,571.08,233.3z"/>
	<path class="st37" d="M541.77,282.02l-7.75-22.98l-0.06,0.02l7.74,22.97C541.73,282.03,541.75,282.02,541.77,282.02z"/>
	<path class="st37" d="M521.06,259.56l0.86,35.89c0.02,0,0.04,0,0.07,0l-0.86-35.9L521.06,259.56z"/>
	<path class="st37" d="M502.82,282.12l6.02-25.46l-0.07-0.02l-6.01,25.43C502.78,282.09,502.8,282.1,502.82,282.12z"/>
	<path class="st37" d="M466.99,236.7l25.6-2.79l-0.01-0.07l-25.6,2.79C466.98,236.66,466.98,236.68,466.99,236.7z"/>
	<path class="st37" d="M476.05,257.31l21.32-20.77l-0.05-0.05L476,257.27C476.02,257.28,476.03,257.3,476.05,257.31z"/>
	<path class="st37" d="M499.4,250.34l-20.88,31.12c0.02,0.02,0.03,0.03,0.05,0.05l20.89-31.13L499.4,250.34z"/>
	<ellipse class="st38" cx="521.26" cy="228.93" rx="34.37" ry="33.06"/>
</g>
<linearGradient id="SVGID_2_" gradientUnits="userSpaceOnUse" x1="71.6072" y1="188" x2="71.6072" y2="241.0362">
	<stop  offset="0.0408" style="stop-color:#DEE8E5"/>
	<stop  offset="0.3358" style="stop-color:#DCE7E5"/>
	<stop  offset="0.4073" style="stop-color:#DCE7E5"/>
	<stop  offset="0.5458" style="stop-color:#DCE7E5"/>
	<stop  offset="0.6341" style="stop-color:#BCD5DF"/>
	<stop  offset="0.9123" style="stop-color:#1FA9CB"/>
	<stop  offset="1" style="stop-color:#00A0C7"/>
</linearGradient>
<path class="st39" d="M46.77,236.87c8.66,3.77,15.66,4.32,20.42,4.14c10.07-0.38,14.83-4.22,26.99-5.79c7.71-1,14.11-0.53,18.23,0
	c2.39-1.73,10.14-7.82,11.5-18.01c0.45-3.42-1.09-8.13-1.75-10.82c-0.93-3.77-1.41-5.67-2.45-6.76c-3.19-3.33-9.72-2.42-14.02,0.21
	c-2.84,1.74-3.61,3.56-4.95,3.1c-2.36-0.8-0.87-6.75-4.32-11.11c-3.37-4.26-8.96-3.84-9.54-3.79c-5.41,0.5-10.09,5.16-10.21,8.28
	c-0.02,0.52,0,3.31,0,3.31l0,0c0,0-3.78-2.93-8.02-5.79c-2.41-1.62-3.63-2.44-4.65-2.73c-0.87-0.25-4.59-1.57-7.21,0.73
	c-2.84,2.51-2.7,6.18-4.63,6.55c-1.93,0.37-2.47-3.2-5.66-4.37c-2.27-0.83-5.22,0.16-6.69,2.18c-1.9,2.62-0.86,6.52-1.79,6.74
	c-0.67,0.16-1.07-1.89-2.92-3.31c-1.96-1.5-4.21-1.29-4.55-1.25c-4.16,0.46-6.73,5.38-7.72,7.28c-0.02,0.03-0.04,0.08-0.08,0.15
	c-5.41,10.54-3.01,19.51-3.01,19.51c1.96,7.36,7.32,11.06,8.07,11.56C36.64,242.76,46.16,237.24,46.77,236.87z"/>
<linearGradient id="SVGID_3_" gradientUnits="userSpaceOnUse" x1="115.045" y1="49.9565" x2="115.045" y2="114.0362">
	<stop  offset="0.0408" style="stop-color:#DEE8E5"/>
	<stop  offset="0.3358" style="stop-color:#DCE7E5"/>
	<stop  offset="0.4073" style="stop-color:#DCE7E5"/>
	<stop  offset="0.5458" style="stop-color:#DCE7E5"/>
	<stop  offset="0.6341" style="stop-color:#BCD5DF"/>
	<stop  offset="0.9123" style="stop-color:#1FA9CB"/>
	<stop  offset="1" style="stop-color:#00A0C7"/>
</linearGradient>
<path class="st40" d="M81,109c11.87,4.55,21.47,5.22,28,5c13.81-0.46,20.33-5.1,37-7c10.57-1.2,19.34-0.64,25,0
	c3.28-2.09,13.91-9.45,15.76-21.76c0.62-4.13-1.49-9.82-2.4-13.07c-1.27-4.55-1.93-6.85-3.36-8.17c-4.37-4.02-13.32-2.93-19.22,0.25
	c-3.9,2.1-4.95,4.3-6.78,3.75c-3.24-0.97-1.2-8.16-5.92-13.42C144.46,49.42,136.8,49.94,136,50c-7.42,0.6-13.84,6.24-14,10
	c-0.03,0.63,0,4,0,4l0,0c0,0-5.18-3.54-11-7c-3.3-1.96-4.98-2.95-6.37-3.3c-1.19-0.3-6.3-1.9-9.88,0.88
	c-3.9,3.03-3.7,7.46-6.35,7.92c-2.65,0.45-3.38-3.86-7.76-5.28c-3.11-1-7.16,0.19-9.17,2.64c-2.6,3.17-1.18,7.88-2.46,8.15
	c-0.92,0.19-1.46-2.28-4-4c-2.68-1.81-5.78-1.55-6.24-1.51c-5.7,0.56-9.23,6.5-10.58,8.8c-0.02,0.04-0.06,0.1-0.11,0.18
	c-7.42,12.74-4.13,23.57-4.13,23.57C46.62,103.93,53.98,108.4,55,109C67.11,116.12,80.15,109.45,81,109z"/>
<linearGradient id="SVGID_4_" gradientUnits="userSpaceOnUse" x1="943.5" y1="30" x2="943.5" y2="92.0362">
	<stop  offset="0.0408" style="stop-color:#DEE8E5"/>
	<stop  offset="0.3358" style="stop-color:#DCE7E5"/>
	<stop  offset="0.4073" style="stop-color:#DCE7E5"/>
	<stop  offset="0.5458" style="stop-color:#DCE7E5"/>
	<stop  offset="0.6341" style="stop-color:#BCD5DF"/>
	<stop  offset="0.9123" style="stop-color:#1FA9CB"/>
	<stop  offset="1" style="stop-color:#00A0C7"/>
</linearGradient>
<path class="st41" d="M911.51,87.16c11.16,4.41,20.18,5.05,26.31,4.84c12.98-0.45,19.1-4.94,34.77-6.78
	c9.93-1.17,18.18-0.62,23.49,0c3.08-2.03,13.07-9.15,14.81-21.06c0.59-4-1.4-9.5-2.25-12.66c-1.19-4.4-1.82-6.63-3.16-7.91
	c-4.11-3.89-12.52-2.83-18.06,0.24c-3.66,2.03-4.65,4.16-6.37,3.63c-3.04-0.94-1.12-7.9-5.56-13c-4.34-4.99-11.54-4.49-12.29-4.43
	c-6.97,0.58-13,6.04-13.16,9.68c-0.03,0.61,0,3.87,0,3.87l0,0c0,0-4.87-3.43-10.34-6.78c-3.1-1.9-4.68-2.86-5.99-3.2
	c-1.12-0.29-5.92-1.84-9.28,0.85c-3.66,2.93-3.47,7.22-5.97,7.66c-2.49,0.44-3.18-3.74-7.29-5.11c-2.92-0.97-6.73,0.18-8.62,2.55
	c-2.44,3.07-1.11,7.63-2.31,7.89c-0.86,0.18-1.38-2.21-3.76-3.87c-2.52-1.76-5.43-1.5-5.86-1.46c-5.36,0.54-8.68,6.29-9.95,8.52
	c-0.02,0.04-0.06,0.1-0.1,0.17c-6.97,12.33-3.88,22.82-3.88,22.82c2.52,8.61,9.43,12.94,10.39,13.52
	C898.45,94.05,910.71,87.6,911.51,87.16z"/>
<linearGradient id="SVGID_5_" gradientUnits="userSpaceOnUse" x1="784.6072" y1="181" x2="784.6072" y2="228.0362" gradientTransform="matrix(-1 0 0 1 1615.2144 0)">
	<stop  offset="0.0408" style="stop-color:#DEE8E5"/>
	<stop  offset="0.3358" style="stop-color:#DCE7E5"/>
	<stop  offset="0.4073" style="stop-color:#DCE7E5"/>
	<stop  offset="0.5458" style="stop-color:#DCE7E5"/>
	<stop  offset="0.6341" style="stop-color:#BCD5DF"/>
	<stop  offset="0.9123" style="stop-color:#1FA9CB"/>
	<stop  offset="1" style="stop-color:#00A0C7"/>
</linearGradient>
<path class="st42" d="M853.07,224.34c-7.83,3.34-14.17,3.83-18.47,3.67c-9.11-0.34-13.41-3.74-24.41-5.14
	c-6.97-0.88-12.76-0.47-16.49,0c-2.16-1.54-9.17-6.93-10.4-15.97c-0.41-3.03,0.98-7.21,1.58-9.6c0.84-3.34,1.27-5.03,2.22-6
	c2.88-2.95,8.79-2.15,12.68,0.18c2.57,1.54,3.26,3.15,4.48,2.75c2.14-0.71,0.79-5.99,3.91-9.85c3.05-3.78,8.1-3.41,8.63-3.36
	c4.9,0.44,9.13,4.58,9.24,7.34c0.02,0.46,0,2.94,0,2.94l0,0c0,0,3.42-2.6,7.26-5.14c2.18-1.44,3.29-2.16,4.21-2.42
	c0.79-0.22,4.16-1.4,6.52,0.65c2.57,2.22,2.44,5.48,4.19,5.81c1.75,0.33,2.23-2.84,5.12-3.87c2.05-0.74,4.73,0.14,6.05,1.94
	c1.72,2.33,0.78,5.79,1.62,5.98c0.61,0.14,0.97-1.68,2.64-2.94c1.77-1.33,3.81-1.14,4.12-1.11c3.76,0.41,6.09,4.77,6.98,6.46
	c0.02,0.03,0.04,0.07,0.07,0.13c4.89,9.35,2.72,17.3,2.72,17.3c-1.77,6.53-6.62,9.81-7.3,10.25
	C862.23,229.56,853.63,224.67,853.07,224.34z"/>
<text transform="matrix(0.6853 0 0 1 845.001 -24.3862)"><tspan x="0" y="0" class="st30 st45 st46">TAS</tspan><tspan x="140.66" y="0" class="st45 st47"> DEPOZIT CEREALE SI FURAJE</tspan></text>
</svg>
