<svg id="Layer_1" data-name="Layer 1" xmlns="http://www.w3.org/2000/svg" xmlns:xlink="http://www.w3.org/1999/xlink" viewBox="0 0 1906 986"><defs><style>.cls-1{fill:url(#linear-gradient);}.cls-2{fill:#e9c515;}.cls-3{fill:#e9a315;}.cls-4{fill:#43b649;}.cls-5{fill:url(#linear-gradient-2);}.cls-6{fill:url(#linear-gradient-3);}.cls-7{fill:url(#linear-gradient-4);}.cls-8{fill:url(#linear-gradient-5);}.cls-9{fill:url(#linear-gradient-6);}.cls-10{fill:url(#linear-gradient-7);}.cls-11{fill:url(#linear-gradient-8);}.cls-12{fill:#89d54a;}.cls-13{fill:#4ba14a;}.cls-14{fill:#ece09c;}.cls-15{fill:#c1272d;}.cls-16{opacity:0.6;}.cls-17,.cls-18{fill:#a67c52;}.cls-17{stroke:#ccc;}.cls-17,.cls-18,.cls-23,.cls-24,.cls-25{stroke-miterlimit:10;}.cls-18{stroke:#999;}.cls-19{fill:#ffc228;}.cls-20{fill:#8cc63f;}.cls-21{fill:#52a03f;}.cls-22{fill:#8c6239;}.cls-23,.cls-24,.cls-25,.cls-26{fill:#ff0;}.cls-23{stroke:#000;}.cls-24,.cls-25{stroke:#ff0;}.cls-24{stroke-width:0.5px;}</style><linearGradient id="linear-gradient" x1="953" y1="632" x2="953" gradientUnits="userSpaceOnUse"><stop offset="0.16" stop-color="#dee8e5"/><stop offset="0.35" stop-color="#bcd5df"/><stop offset="0.89" stop-color="#00a0c7"/></linearGradient><linearGradient id="linear-gradient-2" x1="239.26" y1="129.66" x2="239.26" y2="193.74" gradientUnits="userSpaceOnUse"><stop offset="0.04" stop-color="#dee8e5"/><stop offset="0.34" stop-color="#dce7e5"/><stop offset="0.41" stop-color="#dce7e5"/><stop offset="0.55" stop-color="#dce7e5"/><stop offset="0.63" stop-color="#bcd5df"/><stop offset="0.91" stop-color="#1fa9cb"/><stop offset="1" stop-color="#00a0c7"/></linearGradient><linearGradient id="linear-gradient-3" x1="308.22" y1="238" x2="308.22" y2="287.74" xlink:href="#linear-gradient-2"/><linearGradient id="linear-gradient-4" x1="496.22" y1="157.66" x2="496.22" y2="230" xlink:href="#linear-gradient-2"/><linearGradient id="linear-gradient-5" x1="74.99" y1="210.31" x2="74.99" y2="263.35" xlink:href="#linear-gradient-2"/><linearGradient id="linear-gradient-6" x1="1825.2" y1="168.71" x2="1825.2" y2="230.74" xlink:href="#linear-gradient-2"/><linearGradient id="linear-gradient-7" x1="1544.35" y1="126.71" x2="1544.35" y2="203.58" xlink:href="#linear-gradient-2"/><linearGradient id="linear-gradient-8" x1="802.65" y1="253.39" x2="802.65" y2="300.42" gradientTransform="matrix(-1, 0, 0, 1, 2497.21, 0)" xlink:href="#linear-gradient-2"/></defs><title>2</title><rect class="cls-1" width="1906" height="632"/><path class="cls-2" d="M1086.47,783.52,90.26,643.44h-.07L44.5,637,8.94,632,0,630.74v-5.21q2.43-2.16,5.16-4.53l2.57-2.21c5-4.26,10.65-8.94,17-13.95l.05,0,0,0C80,561.49,187.29,494.32,347.61,475.53,542.06,452.73,764.83,506.89,926,618.79l3.17,2.21q7.7,5.41,15.2,11,3.35,2.47,6.63,5C1005.89,679,1052.4,728.08,1086.47,783.52Z"/><path class="cls-3" d="M868,704,90.26,643.44h-.07L7.7,637,0,636.4V621.7l1-.7,3.13-2.21c6.33-4.45,13.21-9.12,20.63-13.95l.05,0,0,0c65-42.23,171.06-95.73,309.29-106.25,186.31-14.17,335.59,57,429.26,120.26l3.26,2.21q8.15,5.55,15.7,11c2.33,1.68,4.62,3.34,6.87,5C830.77,667.59,857.82,693.87,868,704Z"/><path class="cls-4" d="M1906,630.8l-.9.51c-26.86,15.31-54.1,29.23-81.39,41.9-26.44,12.27-52.93,23.37-79.15,33.42q-31.08,11.93-63,22.42-5.18,1.74-10.4,3.4l-1.67.53c-2.76.91-5.54,1.79-8.32,2.65s-5.56,1.74-8.34,2.59c-111.1,34.27-228,56.72-343.83,70.75-296,35.85-584.67,16.82-750.25,0-29.33-3-54.79-5.9-75.75-8.41a640.64,640.64,0,0,1,65.94-62.34c2.14-1.75,4.27-3.49,6.44-5.24l.66-.53,4.25-3.4c46.3-36.57,99.31-69.48,157.45-98.25,118.36-58.59,257.83-100,404.36-120a1474.58,1474.58,0,0,1,268.1-12.2A1350.09,1350.09,0,0,1,1654.63,537q13,3.27,25.54,6.66,9.88,2.68,19.39,5.45c41.76,12.08,78.35,25,109.45,37.4q8.68,3.43,16.76,6.82C1860.71,607.86,1887.64,621.18,1906,630.8Z"/><path class="cls-2" d="M1906,511.39V629.92l-.79.64v63.06l-52.58-8-19.21-2.91L1702.34,662.9,1571.21,643l-8.49-1.29q-32.21-4.86-64.43-9.75l-13.73-2.08-14.56-2.2c2-2,4.36-4.25,7-6.72,6-5.67,13.7-12.47,23-19.92a445.9,445.9,0,0,1,102.91-61.66A463.22,463.22,0,0,1,1684.3,513c7.33-1.65,14.87-3.16,22.57-4.5,4.18-.75,8.43-1.44,12.72-2.06,3.4-.51,6.83-1,10.31-1.42a535.43,535.43,0,0,1,82.41-3.82c5.29.15,10.55.38,15.87.67A610.05,610.05,0,0,1,1906,511.39Z"/><path class="cls-3" d="M1906,525.34v97.53l-34.11,6.63h0c-2.84.56-5.68,1.12-8.52,1.66l-161,31.31-167.56,32.58c3.08-5.48,15.33-26.6,36.43-52.7q4.41-5.46,9.34-11.19c3.16-3.65,6.48-7.38,10-11.14,21.82-23.6,49.85-48.65,83.9-68.77,38.71-22.9,85.19-39.42,139.16-40.22A282.54,282.54,0,0,1,1906,525.34Z"/><path class="cls-5" d="M205.22,188.7a70.48,70.48,0,0,0,28,5c13.81-.46,20.32-5.1,37-7a111.13,111.13,0,0,1,25,0c3.27-2.09,13.9-9.45,15.76-21.76.62-4.13-1.49-9.81-2.4-13.07-1.27-4.55-1.93-6.85-3.36-8.17-4.37-4-13.32-2.92-19.22.25-3.9,2.11-4.95,4.3-6.78,3.75-3.24-1-1.2-8.16-5.92-13.42s-12.28-4.64-13.08-4.58c-7.42.61-13.84,6.24-14,10,0,.63,0,4,0,4h0s-5.18-3.54-11-7c-3.3-2-5-2.95-6.38-3.3-1.19-.3-6.3-1.9-9.88.88-3.9,3-3.69,7.46-6.35,7.91s-3.38-3.86-7.76-5.27a9,9,0,0,0-9.17,2.64c-2.6,3.17-1.19,7.88-2.46,8.14-.92.19-1.47-2.28-4-4a10.07,10.07,0,0,0-6.24-1.51c-5.71.56-9.24,6.5-10.59,8.8l-.1.18c-7.42,12.74-4.13,23.57-4.13,23.57a25.6,25.6,0,0,0,11.06,14C191.33,195.82,204.37,189.15,205.22,188.7Z"/><path class="cls-6" d="M284.15,283.83a46,46,0,0,0,19.79,3.88c9.77-.36,14.37-4,26.16-5.43a71.07,71.07,0,0,1,17.68,0c2.31-1.63,9.83-7.34,11.14-16.89.44-3.21-1.05-7.62-1.7-10.15-.89-3.53-1.36-5.32-2.37-6.34-3.09-3.12-9.42-2.27-13.59.2-2.76,1.63-3.5,3.33-4.8,2.91-2.28-.76-.84-6.34-4.18-10.42S323.6,238,323,238c-5.25.47-9.78,4.84-9.9,7.77,0,.49,0,3.1,0,3.1h0s-3.66-2.75-7.77-5.43a20.15,20.15,0,0,0-4.51-2.57c-.84-.23-4.45-1.47-7,.69-2.76,2.35-2.62,5.79-4.49,6.14s-2.4-3-5.49-4.1a6.06,6.06,0,0,0-6.49,2.05c-1.84,2.46-.84,6.12-1.74,6.33-.65.14-1-1.78-2.83-3.11a6.49,6.49,0,0,0-4.41-1.17c-4,.44-6.53,5.05-7.48,6.83l-.08.14C255.62,264.58,258,273,258,273a19.51,19.51,0,0,0,7.81,10.84C274.33,289.35,283.55,284.18,284.15,283.83Z"/><path class="cls-7" d="M455.08,224.31A90.55,90.55,0,0,0,488.91,230c16.69-.52,24.56-5.76,44.7-7.9a142.8,142.8,0,0,1,30.21,0c4-2.37,16.8-10.67,19-24.57.76-4.66-1.8-11.08-2.9-14.76-1.53-5.13-2.33-7.73-4.06-9.22-5.28-4.54-16.09-3.3-23.22.29-4.71,2.37-6,4.85-8.19,4.23-3.91-1.09-1.45-9.21-7.15-15.16s-14.84-5.24-15.81-5.16c-9,.68-16.71,7-16.91,11.29,0,.71,0,4.51,0,4.51h0s-6.26-4-13.29-7.9c-4-2.21-6-3.33-7.7-3.73-1.44-.34-7.61-2.15-11.94,1-4.71,3.42-4.47,8.43-7.67,8.94s-4.09-4.36-9.38-6a11.45,11.45,0,0,0-11.08,3c-3.14,3.58-1.43,8.9-3,9.2-1.11.21-1.77-2.58-4.84-4.52a12.75,12.75,0,0,0-7.54-1.7c-6.89.63-11.15,7.34-12.79,9.93,0,0-.07.11-.12.2-9,14.38-5,26.61-5,26.61,3.24,10,12.13,15.09,13.36,15.76C438.3,232.35,454.06,224.82,455.08,224.31Z"/><path class="cls-8" d="M50.15,259.18a46.08,46.08,0,0,0,20.43,4.14c10.07-.38,14.82-4.22,27-5.79a71.21,71.21,0,0,1,18.24,0c2.39-1.73,10.14-7.82,11.5-18,.45-3.42-1.09-8.13-1.75-10.82-.93-3.77-1.41-5.67-2.46-6.76-3.19-3.33-9.71-2.42-14,.21-2.85,1.73-3.61,3.55-5,3.1-2.36-.8-.87-6.75-4.32-11.11s-9-3.84-9.54-3.79c-5.41.5-10.09,5.16-10.21,8.28,0,.52,0,3.31,0,3.31h0s-3.78-2.93-8-5.8c-2.4-1.62-3.63-2.44-4.64-2.73s-4.6-1.57-7.21.73c-2.84,2.51-2.7,6.17-4.63,6.55s-2.47-3.2-5.66-4.37a6.14,6.14,0,0,0-6.7,2.19c-1.89,2.62-.86,6.52-1.79,6.74-.67.16-1.07-1.89-2.92-3.31a6.57,6.57,0,0,0-4.55-1.25c-4.16.46-6.73,5.38-7.72,7.28l-.08.15c-5.41,10.54-3,19.51-3,19.51a20.72,20.72,0,0,0,8.07,11.55C40,265.07,49.54,259.55,50.15,259.18Z"/><path class="cls-9" d="M1793.21,225.87a64.81,64.81,0,0,0,26.31,4.84c13-.45,19.1-4.94,34.77-6.78a100.87,100.87,0,0,1,23.49,0c3.08-2,13.07-9.15,14.81-21.07.59-4-1.4-9.5-2.25-12.65-1.19-4.41-1.82-6.63-3.16-7.91-4.11-3.89-12.52-2.83-18.06.24-3.66,2-4.65,4.16-6.37,3.63-3-.93-1.13-7.89-5.57-13s-11.54-4.5-12.29-4.43c-7,.58-13,6-13.15,9.68,0,.61,0,3.87,0,3.87h0s-4.87-3.43-10.34-6.78c-3.1-1.89-4.68-2.85-6-3.19-1.12-.3-5.92-1.85-9.28.85-3.67,2.93-3.48,7.22-6,7.66s-3.18-3.74-7.3-5.11a8.35,8.35,0,0,0-8.62,2.56c-2.44,3.07-1.11,7.63-2.31,7.88-.86.19-1.37-2.21-3.76-3.87a9.15,9.15,0,0,0-5.86-1.46c-5.36.54-8.68,6.29-10,8.52l-.1.17c-7,12.33-3.88,22.82-3.88,22.82a24.64,24.64,0,0,0,10.4,13.52C1780.16,232.76,1792.41,226.3,1793.21,225.87Z"/><path class="cls-10" d="M1504.7,197.54a80.22,80.22,0,0,0,32.61,6c16.08-.56,23.67-6.12,43.09-8.4a125.46,125.46,0,0,1,29.11,0c3.82-2.51,16.2-11.33,18.36-26.1.72-5-1.74-11.78-2.8-15.69-1.47-5.45-2.25-8.22-3.91-9.8-5.09-4.82-15.52-3.51-22.38.31-4.54,2.52-5.76,5.15-7.9,4.49-3.77-1.16-1.39-9.78-6.89-16.1s-14.31-5.57-15.24-5.49c-8.64.72-16.11,7.48-16.3,12,0,.76,0,4.8,0,4.8h0s-6-4.25-12.81-8.39c-3.84-2.36-5.8-3.54-7.42-4-1.39-.36-7.34-2.28-11.51,1.06-4.54,3.63-4.3,8.95-7.39,9.5s-3.94-4.64-9-6.34a10.38,10.38,0,0,0-10.69,3.17c-3,3.8-1.37,9.45-2.86,9.77-1.07.23-1.7-2.74-4.66-4.8a11.32,11.32,0,0,0-7.27-1.8c-6.64.67-10.75,7.79-12.32,10.55l-.13.21c-8.63,15.28-4.8,28.28-4.8,28.28a30.46,30.46,0,0,0,12.88,16.75C1488.53,206.08,1503.72,198.08,1504.7,197.54Z"/><path class="cls-11" d="M1717,296.73a42.41,42.41,0,0,1-18.47,3.67c-9.11-.34-13.41-3.75-24.41-5.14a65.54,65.54,0,0,0-16.5,0c-2.16-1.54-9.17-6.94-10.4-16-.41-3,1-7.21,1.58-9.6.84-3.34,1.28-5,2.22-6,2.89-2.95,8.79-2.14,12.68.19,2.58,1.54,3.27,3.15,4.48,2.75,2.13-.71.79-6,3.9-9.85s8.11-3.41,8.63-3.36c4.9.44,9.13,4.58,9.24,7.34,0,.46,0,2.93,0,2.93h0s3.42-2.6,7.26-5.13a18.83,18.83,0,0,1,4.2-2.43c.79-.22,4.16-1.39,6.52.65,2.58,2.22,2.44,5.48,4.19,5.81s2.24-2.84,5.12-3.88a5.63,5.63,0,0,1,6.06,1.94c1.71,2.33.78,5.79,1.62,6,.61.14,1-1.68,2.64-2.94a6,6,0,0,1,4.12-1.1c3.76.41,6.09,4.77,7,6.46a.69.69,0,0,1,.07.13c4.89,9.35,2.72,17.3,2.72,17.3a18.45,18.45,0,0,1-7.29,10.25C1726.19,302,1717.58,297.06,1717,296.73Z"/><path class="cls-12" d="M0,621V986H1297.15a33.23,33.23,0,0,1,4.11-.26,36.56,36.56,0,0,1,4.35.26H1906V621Z"/><path class="cls-13" d="M163.35,709.74l36.19-1.81c.13-1.68.4-4.27.92-7.42.74-4.43,1.48-6.76.88-7-1.18-.58-5.88,7.86-7.23,7.23-1.19-.54,2.36-7.17,0-14.47-.83-2.55-2.53-5.64-3.62-5.42-2.49.49-.5,17.92-1.81,18.09s-3.92-16.45-5.43-16.29-.91,14.43-1.8,14.48-1.55-12.55-3.62-12.67-3.15,10.87-5.43,10.86c-2.78,0-4.75-16.37-5.43-16.28s1.73,19.55,0,19.9c-1.52.31-4.57-14.77-7.23-14.48-1.85.21-3.28,7.75-1.81,14.48A25.41,25.41,0,0,0,163.35,709.74Z"/><path class="cls-13" d="M542.92,710.46l36.18-1.81c.14-1.68.4-4.27.93-7.42.74-4.43,1.47-6.76.88-7.05-1.18-.58-5.89,7.85-7.24,7.23-1.19-.54,2.36-7.17,0-14.47-.83-2.55-2.53-5.64-3.62-5.43-2.49.5-.49,17.93-1.81,18.09s-3.92-16.44-5.42-16.28-.91,14.43-1.81,14.48-1.55-12.55-3.62-12.67S554.24,696,552,696c-2.78,0-4.75-16.38-5.42-16.28s1.72,19.55,0,19.89c-1.53.32-4.57-14.76-7.24-14.47-1.85.21-3.28,7.75-1.81,14.47A25.39,25.39,0,0,0,542.92,710.46Z"/><path class="cls-13" d="M401.81,806.34,438,804.53c.14-1.68.4-4.27.93-7.42.74-4.43,1.47-6.76.88-7.05-1.18-.58-5.88,7.85-7.23,7.23-1.19-.55,2.36-7.18,0-14.47-.83-2.56-2.53-5.64-3.62-5.43-2.49.5-.5,17.93-1.81,18.09s-3.92-16.44-5.43-16.28-.91,14.43-1.81,14.47-1.54-12.54-3.61-12.66-3.15,10.87-5.43,10.86c-2.78,0-4.75-16.38-5.43-16.29s1.72,19.55,0,19.9c-1.53.31-4.57-14.76-7.23-14.47-1.85.2-3.28,7.75-1.81,14.47A25.46,25.46,0,0,0,401.81,806.34Z"/><path class="cls-13" d="M957.18,699.6l36.19-1.8c.13-1.68.4-4.28.92-7.43.74-4.43,1.47-6.76.88-7-1.18-.58-5.88,7.86-7.23,7.24-1.19-.55,2.36-7.18,0-14.47-.83-2.56-2.53-5.65-3.62-5.43-2.49.5-.5,17.93-1.81,18.09s-3.92-16.44-5.43-16.28-.91,14.43-1.81,14.47-1.54-12.54-3.61-12.66-3.15,10.86-5.43,10.85c-2.78,0-4.75-16.37-5.43-16.28s1.73,19.55,0,19.9c-1.53.31-4.57-14.77-7.23-14.47-1.85.2-3.28,7.74-1.81,14.47A25.41,25.41,0,0,0,957.18,699.6Z"/><path class="cls-13" d="M1680.79,683.32l36.19-1.81c.13-1.68.4-4.27.92-7.42.74-4.43,1.47-6.76.88-7.05-1.18-.58-5.88,7.86-7.23,7.24-1.19-.55,2.36-7.18,0-14.47-.83-2.56-2.53-5.65-3.62-5.43-2.49.5-.5,17.93-1.81,18.09s-3.92-16.44-5.43-16.28-.91,14.42-1.81,14.47-1.54-12.54-3.61-12.66-3.15,10.86-5.43,10.85c-2.78,0-4.75-16.37-5.43-16.28s1.73,19.55,0,19.9c-1.53.31-4.57-14.77-7.23-14.47-1.85.2-3.28,7.74-1.81,14.47A25.41,25.41,0,0,0,1680.79,683.32Z"/><path class="cls-13" d="M790.75,862.42l36.18-1.81c.14-1.68.41-4.27.93-7.43.74-4.42,1.47-6.75.88-7-1.18-.58-5.88,7.85-7.23,7.23-1.19-.55,2.36-7.18,0-14.47-.83-2.56-2.53-5.64-3.62-5.43-2.49.5-.5,17.93-1.81,18.09s-3.92-16.44-5.43-16.28-.91,14.43-1.81,14.47-1.54-12.54-3.61-12.66-3.15,10.87-5.43,10.85c-2.78,0-4.75-16.37-5.43-16.28s1.72,19.55,0,19.9c-1.53.31-4.57-14.76-7.23-14.47-1.85.2-3.28,7.75-1.81,14.47A25.46,25.46,0,0,0,790.75,862.42Z"/><path class="cls-13" d="M1181.5,773.77l36.18-1.8c.14-1.68.4-4.28.93-7.43.74-4.43,1.47-6.76.88-7-1.18-.58-5.89,7.86-7.23,7.24s2.36-7.18,0-14.47c-.83-2.56-2.53-5.65-3.62-5.43-2.49.5-.5,17.93-1.81,18.09s-3.92-16.44-5.43-16.28-.91,14.43-1.81,14.47-1.54-12.54-3.61-12.66-3.15,10.86-5.43,10.85c-2.78,0-4.75-16.37-5.43-16.28s1.72,19.55,0,19.9c-1.53.31-4.57-14.77-7.23-14.47-1.85.2-3.28,7.74-1.81,14.47A25.41,25.41,0,0,0,1181.5,773.77Z"/><path class="cls-13" d="M1351.55,837.09l36.18-1.81c.14-1.68.4-4.27.93-7.42.74-4.43,1.47-6.76.88-7.05-1.18-.58-5.89,7.86-7.23,7.24-1.19-.55,2.36-7.18,0-14.48-.83-2.55-2.53-5.64-3.62-5.42-2.49.49-.5,17.92-1.81,18.09S1373,809.8,1371.45,810s-.91,14.42-1.81,14.47-1.54-12.55-3.62-12.67-3.14,10.87-5.42,10.86c-2.79,0-4.75-16.37-5.43-16.28s1.72,19.55,0,19.9c-1.53.31-4.57-14.77-7.24-14.48-1.84.21-3.27,7.75-1.81,14.48A25.41,25.41,0,0,0,1351.55,837.09Z"/><path class="cls-13" d="M351.71,694l35.84-1.79c.14-1.67.39-4.23.92-7.36.73-4.38,1.46-6.69.87-7-1.17-.57-5.83,7.78-7.17,7.17-1.18-.54,2.34-7.11,0-14.33-.82-2.54-2.5-5.6-3.58-5.38-2.47.49-.49,17.76-1.79,17.92s-3.89-16.29-5.38-16.13-.9,14.29-1.79,14.34-1.53-12.43-3.58-12.55-3.12,10.77-5.38,10.75c-2.76,0-4.7-16.21-5.38-16.12s1.71,19.36,0,19.71c-1.51.31-4.52-14.63-7.16-14.34-1.83.21-3.25,7.67-1.79,14.34A25.12,25.12,0,0,0,351.71,694Z"/><path class="cls-13" d="M1603.67,913.68l35.84-1.79c.14-1.66.4-4.23.92-7.35.73-4.39,1.46-6.7.87-7-1.17-.57-5.83,7.79-7.17,7.17-1.17-.54,2.34-7.11,0-14.33-.82-2.53-2.5-5.59-3.58-5.38-2.47.49-.49,17.76-1.79,17.92s-3.89-16.28-5.38-16.13-.9,14.29-1.79,14.34-1.53-12.43-3.58-12.54-3.12,10.76-5.38,10.75c-2.75,0-4.7-16.22-5.37-16.13s1.7,19.36,0,19.71c-1.52.31-4.53-14.63-7.17-14.33-1.83.2-3.25,7.67-1.79,14.33A25.12,25.12,0,0,0,1603.67,913.68Z"/><path class="cls-13" d="M1399.91,737.65l35.83-1.79c.14-1.67.4-4.23.92-7.35.74-4.39,1.46-6.7.88-7-1.17-.57-5.84,7.79-7.17,7.17-1.18-.54,2.34-7.11,0-14.33-.82-2.54-2.5-5.6-3.58-5.38-2.47.49-.5,17.76-1.8,17.92s-3.88-16.29-5.37-16.13-.9,14.29-1.79,14.34-1.53-12.43-3.59-12.55-3.11,10.77-5.37,10.76c-2.76,0-4.71-16.22-5.38-16.13s1.71,19.36,0,19.71c-1.51.31-4.53-14.63-7.17-14.34-1.82.21-3.24,7.68-1.79,14.34A25.23,25.23,0,0,0,1399.91,737.65Z"/><path class="cls-13" d="M1814.16,944.2l35.83-1.79c.14-1.67.4-4.24.92-7.36.74-4.38,1.46-6.69.88-7-1.17-.57-5.84,7.78-7.17,7.17-1.18-.54,2.34-7.11,0-14.34-.82-2.53-2.5-5.59-3.59-5.37-2.46.49-.49,17.76-1.79,17.92s-3.88-16.29-5.37-16.13-.9,14.29-1.79,14.33-1.53-12.42-3.59-12.54-3.11,10.76-5.37,10.75c-2.76,0-4.71-16.21-5.38-16.12s1.71,19.36,0,19.71c-1.51.3-4.53-14.63-7.17-14.34-1.82.2-3.24,7.67-1.79,14.34A25.23,25.23,0,0,0,1814.16,944.2Z"/><path class="cls-12" d="M-1,864V986H1255.67a35.25,35.25,0,0,1,11.38-2,36.3,36.3,0,0,1,11.4,1.82,34.13,34.13,0,0,1,5.71-.5c1.17,0,2.33.06,3.46.16a35.6,35.6,0,0,1,28.7.47H1905V864Z"/><rect class="cls-14" y="618.79" width="1906" height="18.21"/><rect class="cls-15" x="1012.39" y="455" width="361.55" height="163.98"/><polygon class="cls-15" points="1029.05 457.4 1012.38 470 1012.39 470 1029.05 470 1031.55 470 1073.21 470 1075.7 470 1118.19 470 1120.69 470 1162.34 470 1164.84 470 1197.33 470 1199.83 470 1242.32 470 1244.82 470 1293.13 470 1295.63 470 1373.94 470 1295.63 410.78 1293.13 408.89 1244.82 372.35 1242.32 370.46 1199.83 338.33 1197.33 336.44 1193.17 333.29 1164.79 354.75 1162.34 356.6 1119.39 389.08 1118.19 389.99 1075.61 422.18 1073.21 424 1031.55 455.5 1029.05 457.4"/><polygon class="cls-16" points="1075.61 421.81 1075.7 421.81 1075.7 469.42 1075.7 618.98 1073.21 618.98 1073.21 469.42 1073.21 423.62 1075.61 421.81"/><rect class="cls-16" x="1118.19" y="388.84" width="2.5" height="230.14"/><polygon class="cls-16" points="1147.35 358.94 1147.35 471.87 1147.35 618.37 1149.85 618.37 1149.85 471.87 1149.85 463.09 1149.85 411.43 1149.85 357.1 1149.8 357.1 1147.35 358.94"/><rect class="cls-16" x="1029.05" y="454.77" width="2.5" height="164.21"/><polygon class="cls-16" points="1199.83 338.31 1199.83 408.99 1199.83 460.65 1199.83 469.42 1199.83 617.76 1197.33 617.76 1197.33 469.42 1197.33 460.65 1197.33 408.99 1197.33 336.43 1199.83 338.31"/><polygon class="cls-16" points="1242.32 370.31 1242.32 469.42 1242.32 617.76 1244.82 617.76 1244.82 469.42 1244.82 372.19 1242.32 370.31"/><polygon class="cls-16" points="1293.13 408.57 1293.13 469.42 1293.13 617.76 1295.63 617.76 1295.63 469.42 1295.63 410.45 1293.13 408.57"/><polygon class="cls-16" points="1338.12 442.45 1338.12 469.42 1338.12 617.76 1340.62 617.76 1340.62 469.42 1340.62 444.33 1338.12 442.45"/><polygon class="cls-16" points="1363.94 461.9 1363.94 469.42 1363.94 618.98 1361.45 618.98 1361.45 469.42 1361.45 460.02 1363.94 461.9"/><rect class="cls-17" x="1161.93" y="505.75" width="68.31" height="113.54"/><rect class="cls-18" x="1170.78" y="408.99" width="44.05" height="51.65"/><polygon class="cls-19" points="1195.82 334.82 988.94 486.42 978.24 478.58 1185.12 326.98 1195.82 334.82"/><polygon class="cls-19" points="1181.33 329.76 1385.01 479.01 1395.6 471.25 1191.92 322 1181.33 329.76"/><polygon class="cls-20" points="1448.22 383.67 1487.66 540.19 1408.77 540.19 1448.22 383.67"/><polygon class="cls-21" points="1448.76 385.81 1448.76 538.2 1448.09 540.19 1488 540.19 1448.76 385.81"/><path class="cls-22" d="M1442.72,617.52l10.06.48q-.94-73.11-1.91-146.23h-3.64Q1445,544.64,1442.72,617.52Z"/><polygon class="cls-20" points="948.66 426 971.56 516.84 925.77 516.84 948.66 426"/><polygon class="cls-21" points="948.98 427.24 948.98 515.69 948.59 516.84 971.75 516.84 948.98 427.24"/><path class="cls-22" d="M945.47,561.72l5.84.28q-.55-42.43-1.1-84.87h-2.12Q946.79,519.43,945.47,561.72Z"/><polygon class="cls-20" points="888.21 454 915.65 562.87 860.77 562.87 888.21 454"/><polygon class="cls-21" points="888.58 455.49 888.58 561.49 888.12 562.87 915.88 562.87 888.58 455.49"/><path class="cls-22" d="M884.39,616.67l7,.33q-.67-50.87-1.33-101.72h-2.54Q886,566,884.39,616.67Z"/><path class="cls-21" d="M1527.77,422q-.06,42.48-.14,85c-.33,1.29-.66,2.58-1,3.87a71.25,71.25,0,0,0,13.1.57c4-.2,5.76-.63,7.41-1.71a11.72,11.72,0,0,0,4.55-6.26,106.16,106.16,0,0,0-4.55-49c-5.16-15.11-8.61-24.27-16.28-30.29A35.87,35.87,0,0,0,1527.77,422Z"/><path class="cls-20" d="M1527.77,422v84.8l.57,4a85.3,85.3,0,0,1-12.53.57c-4.43-.12-6.27-.53-8-1.71a10.88,10.88,0,0,1-4-5.69c-.17-3.73-1.26-30.61,4.42-49.72a100.1,100.1,0,0,1,6.4-15.77c3.54-6.92,6.3-10.26,8.55-12.53A39.84,39.84,0,0,1,1527.77,422Z"/><path class="cls-22" d="M1524.77,548.73l5.73.27q-.55-41.64-1.09-83.28h-2.08Q1526.06,507.23,1524.77,548.73Z"/><path class="cls-21" d="M810.25,466q-.07,48.16-.16,96.33L809,566.72a78.32,78.32,0,0,0,14.56.64c4.43-.22,6.39-.72,8.23-1.93a13.35,13.35,0,0,0,5.06-7.11,122.64,122.64,0,0,0-5.06-55.52c-5.73-17.14-9.56-27.52-18.08-34.33A41.55,41.55,0,0,0,810.25,466Z"/><path class="cls-20" d="M810.25,466v96.13l.63,4.59a93.28,93.28,0,0,1-13.92.64c-4.92-.14-7-.6-8.86-1.93a12.29,12.29,0,0,1-4.43-6.46c-.19-4.23-1.41-34.7,4.9-56.36a114.45,114.45,0,0,1,7.12-17.89c3.93-7.83,7-11.62,9.5-14.2A46.12,46.12,0,0,1,810.25,466Z"/><path class="cls-22" d="M806.91,609.66l6.37.31q-.62-47.21-1.21-94.41h-2.31Z"/><rect class="cls-23" x="1164.5" y="475.5" width="60" height="15"/><path d="M1170.91,478.26h3.38v.79a2.65,2.65,0,0,0-.94.46,2.21,2.21,0,0,0-.75,1.06l-.13.4a.5.5,0,0,1-.27.3,1.07,1.07,0,0,1-.53.11,1.09,1.09,0,0,1-.55-.12.34.34,0,0,1-.21-.31Zm10.12,0V486a.4.4,0,0,0,.19.37.6.6,0,0,0,.19.08l.59.08c.41,0,.62.17.62.36s-.11.21-.34.28a3,3,0,0,1-.82.08h-6.57a3.12,3.12,0,0,1-.86-.09c-.19-.06-.28-.15-.28-.27s.2-.31.61-.36l.59-.08a.48.48,0,0,0,.18-.08.4.4,0,0,0,.2-.37v-7.75Zm4.44,0V481a.34.34,0,0,1-.21.31,1.15,1.15,0,0,1-.55.12,1.07,1.07,0,0,1-.53-.11.51.51,0,0,1-.28-.3l-.13-.4a2.19,2.19,0,0,0-.74-1.06,2.94,2.94,0,0,0-.94-.46v-.79Z"/><path d="M1191.31,479.93l.65,1.37-2.27,4.26a.69.69,0,0,0-.1.34c0,.28.25.48.76.6l.44.1c.29.07.43.18.43.33s-.31.33-.94.33H1187a2.15,2.15,0,0,1-.75-.1c-.19-.07-.28-.16-.28-.28s.19-.24.57-.32a6.71,6.71,0,0,0,.77-.21,2.57,2.57,0,0,0,.49-.26,2.12,2.12,0,0,0,.59-.72Zm.88-1.67h5.18l3.57,7.75a2.21,2.21,0,0,0,.23.36,1,1,0,0,0,.51.2,1.73,1.73,0,0,1,.46.15.21.21,0,0,1,.13.2c0,.23-.33.34-1,.34h-6.41a1.49,1.49,0,0,1-.61-.1c-.16-.06-.23-.14-.23-.25a.22.22,0,0,1,.1-.2,2,2,0,0,1,.46-.16,1,1,0,0,0,.36-.15.23.23,0,0,0,.1-.19.56.56,0,0,0,0-.2l-.42-1H1191l.35-.78h2.88l-2.37-5.37Z"/><path d="M1209.25,478.08v.76a3.6,3.6,0,0,0-1.22.34.68.68,0,0,0-.42.58.72.72,0,0,0,.35.58,4.06,4.06,0,0,0,1.13.47c.36.1,1.17.29,2.44.58.77.17,1.37.33,1.79.46a7.62,7.62,0,0,1,1.2.52c1,.55,1.52,1.2,1.52,1.95a2.06,2.06,0,0,1-.83,1.56A5.84,5.84,0,0,1,1213,487a14.83,14.83,0,0,1-1.69.34,13.34,13.34,0,0,1-1.72.12v-.75a5.34,5.34,0,0,0,1.61-.39.75.75,0,0,0,.5-.67c0-.29-.26-.55-.77-.78a14.65,14.65,0,0,0-2-.54l-2.17-.51c-.39-.1-.76-.22-1.12-.35-1.61-.59-2.41-1.38-2.41-2.36a2,2,0,0,1,.6-1.39,4.29,4.29,0,0,1,1.68-1A12.07,12.07,0,0,1,1209.25,478.08Zm-.67,8.61v.75a10.32,10.32,0,0,1-2.33-.31l-.65-.15-.35,0a1.21,1.21,0,0,0-.38,0,1.9,1.9,0,0,0-.41.22,1,1,0,0,1-.5.14c-.48,0-.72-.19-.72-.56v-2.41a.36.36,0,0,1,.2-.31,1,1,0,0,1,.52-.13.83.83,0,0,1,.44.08.7.7,0,0,1,.27.31,3.82,3.82,0,0,0,.86,1.06,5.19,5.19,0,0,0,1.3.84A5.42,5.42,0,0,0,1208.58,486.69Zm1.68-7.85v-.73c.51,0,1,.05,1.33.1s.92.15,1.61.3a1.91,1.91,0,0,0,.42.06.56.56,0,0,0,.36-.09l.28-.19a.85.85,0,0,1,.51-.15.81.81,0,0,1,.5.13.49.49,0,0,1,.16.41v2.18a.36.36,0,0,1-.21.31,1.08,1.08,0,0,1-.54.12,1.46,1.46,0,0,1-.48-.08.7.7,0,0,1-.19-.13.88.88,0,0,1-.13-.26,2.12,2.12,0,0,0-.49-.66,3.94,3.94,0,0,0-.81-.62A6.1,6.1,0,0,0,1210.26,478.84Z"/><polygon class="cls-24" points="910.19 266.83 910.25 266.79 874.44 224.84 874.38 224.88 910.19 266.83"/><polygon class="cls-24" points="898.83 276.88 898.87 276.82 850.84 246.85 850.79 246.91 898.83 276.88"/><polygon class="cls-24" points="895.34 288.72 895.36 288.65 839.55 273.84 839.53 273.9 895.34 288.72"/><polygon class="cls-24" points="922.03 261.61 922.1 261.59 903.7 211.05 903.63 211.07 922.03 261.61"/><polygon class="cls-24" points="934.72 261.04 934.79 261.05 940.25 208.01 940.18 208 934.72 261.04"/><polygon class="cls-24" points="947.35 264.24 947.43 264.26 961.1 212.48 961.03 212.46 947.35 264.24"/><polygon class="cls-24" points="966.2 293 966.21 293.07 1024 287.56 1023.99 287.49 966.2 293"/><polygon class="cls-24" points="963.98 283.98 964.02 284.04 1011.45 253.25 1011.4 253.19 963.98 283.98"/><polygon class="cls-24" points="958.29 270.98 958.35 271.01 991.04 226.97 990.98 226.93 958.29 270.98"/><polygon class="cls-24" points="950.31 318.59 950.25 318.63 986.26 360.44 986.32 360.4 950.31 318.59"/><polygon class="cls-24" points="961.62 308.5 961.58 308.56 1009.75 338.34 1009.8 338.28 961.62 308.5"/><polygon class="cls-24" points="965.05 296.64 965.03 296.71 1020.91 311.31 1020.93 311.24 965.05 296.64"/><polygon class="cls-24" points="938.49 323.86 938.42 323.88 957.06 374.34 957.13 374.32 938.49 323.86"/><polygon class="cls-24" points="925.81 324.48 925.73 324.47 920.52 377.53 920.6 377.54 925.81 324.48"/><polygon class="cls-24" points="913.16 321.32 913.08 321.31 899.65 373.14 899.73 373.16 913.16 321.32"/><polygon class="cls-24" points="894.18 292.64 894.17 292.57 836.4 298.31 836.41 298.38 894.18 292.64"/><polygon class="cls-24" points="896.44 301.66 896.39 301.6 849.12 332.57 849.16 332.63 896.44 301.66"/><polygon class="cls-24" points="902.19 314.64 902.13 314.6 869.64 358.77 869.71 358.81 902.19 314.64"/><path class="cls-25" d="M894.09,236.86,919,268.65l.07,0-24.87-31.76Z"/><path class="cls-25" d="M878.93,254.36l-.17.15,24.42,14.81.13-.17Z"/><path class="cls-25" d="M899.8,283.76l-41.26-10.95,0,.07,41.26,10.95Z"/><path class="cls-25" d="M922.69,235.4l3.82,28.13h.07l-3.81-28.11Z"/><path class="cls-25" d="M941.84,236.33l-2.69,26.06h.08l2.68-26.06Z"/><path class="cls-25" d="M957.65,251.75l-8.09,12.17.06,0,8.1-12.17Z"/><path class="cls-25" d="M1003.88,285l-33.25,3.17v.07l33.24-3.17Z"/><path class="cls-25" d="M968.46,285.39l40.32-26.18,0-.07-40.33,26.19Z"/><path class="cls-25" d="M974.46,261.86l-11.74,15.82.07,0,11.73-15.81Z"/><path class="cls-25" d="M981.06,339l-20.22-23.49-.06,0L981,339Z"/><path class="cls-25" d="M963.87,305.2l0,.07L1004.58,321l0-.06Z"/><path class="cls-25" d="M990.24,297.8l-21.17-1.43v.07l21.13,1.43Z"/><path class="cls-25" d="M956,349.69l-9-24.48-.07,0,9,24.46Z"/><path class="cls-25" d="M931.86,325.76l1,38.23h.08l-1-38.23Z"/><path class="cls-25" d="M910.57,349.79l7-27.11-.07,0-7,27.09Z"/><path class="cls-25" d="M868.73,301.42l29.88-3v-.07l-29.88,3A.15.15,0,0,1,868.73,301.42Z"/><path class="cls-25" d="M879.32,323.37l24.89-22.13-.06-.05-24.9,22.14Z"/><path class="cls-25" d="M906.56,316,882.19,349.1l0,0L906.63,316Z"/><ellipse class="cls-26" cx="932.08" cy="293.14" rx="40.12" ry="35.22"/><path class="cls-13" d="M256.67,933.42l36.18-1.81c.14-1.68.4-4.27.93-7.42.74-4.43,1.47-6.76.88-7.05-1.18-.58-5.89,7.86-7.23,7.24s2.36-7.18,0-14.47c-.83-2.56-2.53-5.65-3.62-5.43-2.49.5-.5,17.93-1.81,18.09s-3.92-16.44-5.43-16.28-.91,14.42-1.81,14.47-1.54-12.54-3.61-12.66S268,919,265.72,919c-2.78,0-4.75-16.37-5.43-16.28s1.72,19.55,0,19.9c-1.53.31-4.57-14.77-7.23-14.47-1.85.2-3.28,7.74-1.81,14.47A25.41,25.41,0,0,0,256.67,933.42Z"/><path class="cls-13" d="M636.24,934.14l36.18-1.81c.14-1.68.4-4.27.92-7.42.75-4.43,1.48-6.76.89-7-1.18-.58-5.89,7.86-7.24,7.24-1.19-.55,2.36-7.18,0-14.47-.83-2.56-2.53-5.65-3.62-5.43-2.49.49-.49,17.93-1.81,18.09s-3.92-16.44-5.42-16.28-.91,14.42-1.81,14.47-1.55-12.54-3.62-12.66-3.15,10.86-5.43,10.85c-2.78,0-4.75-16.37-5.43-16.28s1.73,19.55,0,19.9c-1.52.31-4.57-14.77-7.23-14.47-1.85.2-3.28,7.74-1.81,14.47A25.29,25.29,0,0,0,636.24,934.14Z"/><path class="cls-13" d="M1050.5,923.29l36.18-1.81c.14-1.68.4-4.27.93-7.42.74-4.43,1.47-6.76.88-7-1.18-.58-5.89,7.85-7.23,7.23s2.36-7.17,0-14.47c-.83-2.56-2.53-5.64-3.62-5.43-2.49.5-.5,17.93-1.81,18.09s-3.92-16.44-5.43-16.28-.91,14.43-1.81,14.48-1.54-12.55-3.61-12.67-3.15,10.87-5.43,10.86c-2.78,0-4.75-16.38-5.43-16.29s1.72,19.55,0,19.9c-1.53.31-4.57-14.76-7.23-14.47-1.85.21-3.28,7.75-1.81,14.47A25.4,25.4,0,0,0,1050.5,923.29Z"/><path class="cls-13" d="M1774.11,907l36.18-1.81c.14-1.68.4-4.27.93-7.43.74-4.42,1.47-6.75.88-7-1.18-.58-5.89,7.85-7.23,7.23-1.19-.55,2.36-7.18,0-14.47-.83-2.56-2.53-5.64-3.62-5.43-2.49.5-.5,17.93-1.81,18.09s-3.92-16.44-5.43-16.28-.91,14.43-1.81,14.47-1.54-12.54-3.61-12.66-3.15,10.87-5.43,10.85c-2.78,0-4.75-16.37-5.43-16.28s1.72,19.55,0,19.9c-1.53.31-4.57-14.76-7.23-14.47-1.85.2-3.28,7.75-1.81,14.47A25.46,25.46,0,0,0,1774.11,907Z"/><path class="cls-13" d="M1300.51,985.76l.75,0a36.06,36.06,0,0,1,4.32.26c.53-2.68,1.56-7.21,0-12.06-.83-2.56-2.53-5.64-3.62-5.43C1299.79,969,1301,982.24,1300.51,985.76Z"/><path class="cls-13" d="M1308.34,986l1.69-2.2c1.21-1.56,2.29-2.86,2.78-2.62s.2,1.31-.2,3.36c-.08.44-.17.93-.28,1.46Z"/><path class="cls-13" d="M1269.28,986c-.13-.63-.22-1.26-.3-1.89-.69-6,.61-11.8,2.22-12,2.22-.24,4.7,10.15,6.34,13.46.08.15.15.29.22.41.25.42.48.64.68.6s.29-.24.39-.6c0-.06,0-.12,0-.19.78-3.69-1.09-19-.43-19.11s2.64,16.27,5.43,16.29c2.28,0,3.48-11,5.42-10.86,1.74.1,2.51,8.88,3.21,11.76.14.57.27.91.41.91s.26-.42.35-1.1c.44-3.36.31-13.26,1.46-13.38s2.6,7.68,3.9,12.52a26,26,0,0,0,.92,2.94c-.11,0-.23,0-.34,0-.34,0-.69,0-1,.08s-.57.05-.85.09l-.17,0Z"/></svg>