<?xml version="1.0" encoding="utf-8"?>
<!-- Generator: Adobe Illustrator 24.0.1, SVG Export Plug-In . SVG Version: 6.00 Build 0)  -->
<svg version="1.1" id="Layer_1" xmlns="http://www.w3.org/2000/svg" xmlns:xlink="http://www.w3.org/1999/xlink" x="0px" y="0px"
	 viewBox="0 0 1024 768" style="enable-background:new 0 0 1024 768;" xml:space="preserve">
<style type="text/css">
	.st0{fill:url(#SVGID_1_);}
	.st1{fill:#5B9E38;}
	.st2{fill:#E9C515;}
	.st3{fill:#F2A82A;}
	.st4{fill:#5FBC5B;}
	.st5{fill:#43B649;}
	.st6{fill:#4BD54A;}
	.st7{fill:#4BA14A;}
	.st8{fill:#BC9F77;}
	.st9{fill:#A67C52;}
	.st10{opacity:0.42;fill:#39B54A;}
	.st11{fill:#E95A74;}
	.st12{fill:#ED9BAF;stroke:#000000;stroke-width:0.25;stroke-miterlimit:10;}
	.st13{fill:#E95A74;stroke:#000000;stroke-width:0.25;stroke-miterlimit:10;}
	.st14{fill:#422200;}
	.st15{fill:#ED9BAF;}
	.st16{fill:#231F20;}
	.st17{fill:#DBBE69;}
	.st18{fill:#E6E6E6;stroke:#000000;stroke-width:0.5;stroke-miterlimit:10;}
	.st19{fill:#FFFFFF;stroke:#000000;stroke-width:0.5;stroke-miterlimit:10;}
	.st20{fill:#DBBE69;stroke:#000000;stroke-width:0.5;stroke-miterlimit:10;}
	.st21{fill:#FFFFFF;}
	.st22{fill:#F2F2F2;stroke:#000000;stroke-width:0.5;stroke-miterlimit:10;}
	.st23{fill:#FAAF40;stroke:#231F20;stroke-width:0.5;stroke-miterlimit:10;}
	.st24{fill:none;stroke:#F6921E;stroke-width:3;stroke-miterlimit:10;}
	.st25{fill:#FFF100;stroke:#231F20;stroke-width:0.5;stroke-miterlimit:10;}
	.st26{fill:#F6921E;}
	.st27{fill:none;stroke:#FAAF40;stroke-miterlimit:10;}
	.st28{fill:#F9EC31;}
	.st29{fill:#F05A28;}
	.st30{fill:#C1272D;}
	.st31{opacity:0.6;}
	.st32{fill:#A67C52;stroke:#CCCCCC;stroke-miterlimit:10;}
	.st33{fill:#A67C52;stroke:#999999;stroke-miterlimit:10;}
	.st34{fill:#FFC228;}
	.st35{opacity:0.83;fill:#A67C52;}
	.st36{fill:#FFFF00;stroke:#FFFF00;stroke-width:0.5;stroke-miterlimit:10;}
	.st37{fill:#FFFF00;stroke:#FFFF00;stroke-miterlimit:10;}
	.st38{fill:#FFFF00;}
	.st39{fill:url(#SVGID_2_);}
	.st40{fill:url(#SVGID_3_);}
	.st41{fill:url(#SVGID_4_);}
	.st42{fill:url(#SVGID_5_);}
	.st43{fill:#E8D442;stroke:#000000;stroke-width:0.1;stroke-miterlimit:10;}
	.st44{fill:#FCEE21;stroke:#231F20;stroke-width:0.5;stroke-miterlimit:10;}
	.st45{font-family:'FranklinGothic-Heavy';}
	.st46{font-size:82px;}
	.st47{font-size:58.0636px;}
</style>
<linearGradient id="SVGID_1_" gradientUnits="userSpaceOnUse" x1="512" y1="415" x2="512" y2="-9.094947e-13">
	<stop  offset="0.1564" style="stop-color:#DEE8E5"/>
	<stop  offset="0.3492" style="stop-color:#BCD5DF"/>
	<stop  offset="0.8883" style="stop-color:#00A0C7"/>
</linearGradient>
<rect class="st0" width="1024" height="415"/>
<path class="st1" d="M69.29,736.85c294.28,0.71,588.55,1.42,882.83,2.13c50-186.77-196.97-335.42-428.71-337.97
	C287.94,398.43,25.24,546.23,69.29,736.85z"/>
<g>
	<path class="st2" d="M92,469.88c163.74,37.14,327.47,74.27,491.21,111.41C522.5,421.95,373.95,334.41,250.69,357.72
		C161.89,374.52,109.21,444.5,92,469.88z"/>
	<path class="st3" d="M230,469.88c0.01,0,0.01,0,1.01,0c0.44,0,1.07,0,1.99,0c0.04,0,0.96,0,1,0c0.33,0,0.67,0,1,0
		c0.67,0,1.33,0,2,0s1.33,0,2,0c1,0,2,0,3,0s2,0,3,0c0.33,0,0.67,0,1,0c0.01,0,0.99,0,1,0c0.99,0,1,0,1,0
		c1.59-0.03,0.79-111.23-4-111.14c-0.29,0.01-0.75,0.31-3,0.93c-1.69,0.47-3.82,0.89-4,0.93c-3.53,0.81,4.86,38.23,1,67.24
		C235.93,443.44,228.6,469.55,230,469.88z"/>
	<path class="st3" d="M296.09,469.88C296.09,469.88,296.09,469.88,296.09,469.88c0.01,0,0.05,0,1.02,0c0.44,0,1.08,0,2.01,0
		c0.04,0,0.97,0,1.01,0c0.34,0,0.67,0,1.01,0c0.67,0,1.35,0,2.02,0c0.67,0,1.35,0,2.02,0c1.01,0,2.02,0,3.03,0c1.01,0,2.02,0,3.03,0
		c0.34,0,0.67,0,1.01,0c0.01,0,1,0,1.01,0c0.37,0,0.6,0,0.75,0c0.13,0,0.26,0,0.26,0c0.85,0,1.91-109.51-2.25-113.94
		c-1.52-1.62-3-1.87-3-1.87c-0.44-0.07-0.53-0.01-3,0c0,0-0.67,0-2,0c-3,0-3,0-3,0c7.31,68.48,5.5,92.04,2,99.93
		C302.66,454.77,295.9,469.81,296.09,469.88z"/>
	<path class="st3" d="M377.97,469.88c0,0,0.29,0,0.87,0c0.38,0,0.92,0,1.7,0c0.03,0,0.82,0,0.86,0c0.29,0,0.57,0,0.86,0
		c0.57,0,1.14,0,1.71,0s1.14,0,1.71,0c0.86,0,1.71,0,2.57,0s1.71,0,2.57,0c0.29,0,0.57,0,0.86,0c0.01,0,0.84,0,0.86,0
		c0.31,0,0.51,0,0.64,0c0.22,0,0.22,0,0.22,0c1.5-53.84,1.41-93.37-0.36-94.33c-1.13-0.61-2-0.93-2-0.93
		c-1.31-0.49-1.68-0.41-3-0.93c-0.32-0.13-0.33-0.14-2-0.93c-1.32-0.62-1.98-0.94-2-0.93c-1.98,0.2,4.67,30.9,0,60.7
		C382.63,441.25,377.19,469.74,377.97,469.88z"/>
	<path class="st3" d="M153.61,469.88c0,0,0.13,0,0.4,0c0.17,0,0.42,0,0.78,0c0.02,0,0.38,0,0.39,0c0.13,0,0.26,0,0.39,0
		c0.26,0,0.53,0,0.79,0c0.26,0,0.53,0,0.79,0c0.39,0,0.79,0,1.18,0c0.39,0,0.79,0,1.18,0c0.13,0,0.26,0,0.39,0c0.01,0,0.39,0,0.39,0
		c0.14,0,0.24,0,0.29,0c0.08,0,0.1,0,0.1,0c2.64-0.08-1.71-70.04-1.71-70.04c-1.06,0.43-1.59,0.65-2,0.93c0,0,0,0,0,0
		c-0.28,0.35-0.45,0.51-1,0.93c-0.73,0.57,0.91,30.23,1,37.36C157.16,452.27,153.02,469.8,153.61,469.88z"/>
	<path class="st3" d="M459.53,469.88c0,0,0.1,0,0.3,0c0.13,0,0.31,0,0.58,0c0.01,0,0.28,0,0.29,0c0.1,0,0.19,0,0.29,0
		c0.19,0,0.39,0,0.58,0s0.39,0,0.58,0c0.29,0,0.58,0,0.88,0s0.58,0,0.88,0c0.1,0,0.19,0,0.29,0c0,0,0.29,0,0.29,0
		c0.11,0,0.17,0,0.22,0c0.02,0,0.07,0,0.07,0c0.26,0,0.87-50.75-0.78-52.3c-0.33-0.31-1.33-1.25-1-0.93c-0.73-0.83-1-0.93-1-0.93
		c0,0,0,0,0,0s-0.25-0.23-1,0c-0.89,0.28,0.57,19.05,0,30.82C460.66,453.46,459.05,469.84,459.53,469.88z"/>
</g>
<path class="st4" d="M342,522.29c-47.45-104.07-138.56-168.58-229.22-162.95c-51.52,3.2-90.68,28.3-112.86,46.03
	c0,1.17,0,2.34,0,3.52c0,1.87,0,3.75,0,5.62c-0.01,6.97-0.04,6.7,0,8.44c0.04,1.72,0.1,2.51,0.09,4.29
	c-0.01,1.96-0.07,1.85-0.09,4.15c-0.01,1.94,0.03,2.52,0,4.92c-0.01,0.91-0.02,1.03-0.03,1.84c-0.01,1.47,0.01,2.66,0.03,3.78
	c0.08,5.44,0.15,10.86,0,16.87c-0.03,1.29-0.07,2.34-0.09,2.99c0.22,2.33,0.18,4.34-0.07,6.64
	C113.84,486.39,227.92,504.34,342,522.29z"/>
<path class="st5" d="M1024,453.52c-0.12,0.14-0.23,0.28-0.35,0.41c-10.43,12.42-21.01,23.71-31.61,33.98
	c-10.27,9.96-20.56,18.96-30.74,27.11c-8.05,6.45-16.21,12.51-24.47,18.19c-1.34,0.94-2.69,1.86-4.04,2.75
	c-0.22,0.16-0.43,0.3-0.65,0.44c-1.07,0.73-2.15,1.45-3.23,2.15c-1.08,0.71-2.16,1.41-3.24,2.1c-43.15,27.8-88.56,46-133.54,57.38
	c-114.95,29.08-227.08,13.64-291.39,0c-11.39-2.42-21.28-4.78-29.42-6.82c7.71-17.64,16.28-34.51,25.61-50.56
	c0.83-1.42,1.66-2.84,2.5-4.25c0.09-0.15,0.17-0.29,0.26-0.44c0.55-0.92,1.1-1.84,1.65-2.75c17.98-29.67,38.57-56.36,61.15-79.69
	c45.97-47.52,100.14-81.09,157.05-97.36c34.12-9.76,69.22-13.3,104.13-9.89c39.21,3.84,73.64,15.98,102.7,31.15
	c3.38,1.76,6.69,3.57,9.92,5.4c2.56,1.46,5.07,2.93,7.53,4.42c16.22,9.8,30.43,20.29,42.51,30.34c2.25,1.86,4.42,3.71,6.51,5.54
	C1006.41,434.92,1016.87,445.72,1024,453.52z"/>
<g>
	<path class="st2" d="M989.73,398.56c11.39,0.89,22.87,2.84,34.27,5.81V477c-0.12,0.13-0.23,0.26-0.35,0.39v38.64
		c-10.54-2.22-21.07-4.44-31.61-6.66c-39.74-8.37-79.47-16.75-119.21-25.12c-11.47-2.41-22.95-4.83-34.42-7.25
		c-2.14-0.45-4.27-0.9-6.41-1.35c2.95-4.05,7.34-9.78,13.19-16.32c16.07-17.96,43.08-42.02,81.18-53.95
		c3.23-1.01,6.55-1.94,9.94-2.76c1.84-0.46,3.71-0.88,5.6-1.26c1.5-0.31,3.01-0.6,4.54-0.87c11.84-2.08,24-2.84,36.29-2.34
		C985.07,398.24,987.39,398.38,989.73,398.56z"/>
	<path class="st3" d="M931.52,475.65c0,0,0,0,0.73,0c0.32,0,0.77,0,1.43,0c0.03,0,0.69,0,0.72,0c0.24,0,0.48,0,0.72,0
		c0.48,0,0.96,0,1.44,0c0.48,0,0.96,0,1.44,0c0.72,0,1.44,0,2.16,0s1.44,0,2.16,0c0.24,0,0.48,0,0.72,0c0.01,0,0.71,0,0.72,0
		c0.71,0,0.72,0,0.72,0c1.15-0.02,0.57-74.53-2.88-74.46c-0.21,0-0.54,0.21-2.16,0.63c-1.22,0.32-2.76,0.6-2.88,0.63
		c-2.55,0.54,3.5,25.62,0.72,45.05C935.8,457.93,930.52,475.42,931.52,475.65z"/>
	<path class="st3" d="M979.19,475.65C979.19,475.65,979.19,475.65,979.19,475.65c0.01,0,0.04,0,0.74,0c0.32,0,0.78,0,1.45,0
		c0.03,0,0.7,0,0.73,0c0.24,0,0.49,0,0.73,0c0.49,0,0.97,0,1.46,0c0.49,0,0.97,0,1.46,0c0.73,0,1.46,0,2.18,0s1.46,0,2.18,0
		c0.24,0,0.49,0,0.73,0c0.01,0,0.72,0,0.73,0c0.27,0,0.43,0,0.54,0c0.09,0,0.19,0,0.19,0c0.61,0,1.38-73.37-1.62-76.34
		c-1.1-1.08-2.16-1.25-2.16-1.25c-0.32-0.05-0.38-0.01-2.16,0c0,0-0.48,0-1.44,0c-2.16,0-2.16,0-2.16,0
		c5.27,45.88,3.97,61.67,1.44,66.96C983.93,465.52,979.05,475.59,979.19,475.65z"/>
	<path class="st3" d="M876.43,475.65c0,0,0.1,0,0.29,0c0.13,0,0.31,0,0.57,0c0.01,0,0.27,0,0.28,0c0.09,0,0.19,0,0.28,0
		c0.19,0,0.38,0,0.57,0s0.38,0,0.57,0c0.28,0,0.57,0,0.85,0s0.57,0,0.85,0c0.09,0,0.19,0,0.28,0c0,0,0.28,0,0.28,0
		c0.1,0,0.17,0,0.21,0c0.06,0,0.07,0,0.07,0c1.91-0.05-1.23-46.93-1.23-46.93c-0.76,0.29-1.15,0.44-1.44,0.63c0,0,0,0,0,0
		c-0.2,0.23-0.33,0.34-0.72,0.63c-0.52,0.38,0.66,20.25,0.72,25.03C879,463.84,876.01,475.59,876.43,475.65z"/>
</g>
<g>
	<rect y="584" class="st6" width="1024" height="184"/>
</g>
<path class="st7" d="M43,636c6.67-0.33,13.33-0.67,20-1c0.08-0.93,0.22-2.36,0.51-4.1c0.41-2.45,0.81-3.74,0.49-3.9
	c-0.65-0.32-3.26,4.34-4,4c-0.66-0.3,1.31-3.97,0-8c-0.46-1.41-1.4-3.12-2-3c-1.38,0.27-0.27,9.91-1,10c-0.71,0.09-2.17-9.09-3-9
	c-0.77,0.08-0.5,7.97-1,8c-0.47,0.02-0.85-6.93-2-7c-1.08-0.06-1.74,6.01-3,6c-1.54-0.01-2.63-9.05-3-9c-0.41,0.05,0.95,10.81,0,11
	c-0.84,0.17-2.53-8.16-4-8c-1.02,0.11-1.81,4.28-1,8C40.61,632.8,42.02,634.83,43,636z"/>
<path class="st7" d="M293.82,654.4c6.67-0.33,13.33-0.67,20-1c0.08-0.93,0.22-2.36,0.51-4.1c0.41-2.45,0.81-3.74,0.49-3.9
	c-0.65-0.32-3.26,4.34-4,4c-0.66-0.3,1.31-3.97,0-8c-0.46-1.41-1.4-3.12-2-3c-1.38,0.27-0.27,9.91-1,10c-0.71,0.09-2.17-9.09-3-9
	c-0.77,0.08-0.5,7.97-1,8c-0.47,0.02-0.85-6.93-2-7c-1.08-0.06-1.74,6.01-3,6c-1.54-0.01-2.63-9.05-3-9c-0.41,0.05,0.95,10.81,0,11
	c-0.84,0.17-2.53-8.16-4-8c-1.02,0.11-1.81,4.28-1,8C291.43,651.2,292.83,653.22,293.82,654.4z"/>
<path class="st7" d="M215.82,707.4c6.67-0.33,13.33-0.67,20-1c0.08-0.93,0.22-2.36,0.51-4.1c0.41-2.45,0.81-3.74,0.49-3.9
	c-0.65-0.32-3.26,4.34-4,4c-0.66-0.3,1.31-3.97,0-8c-0.46-1.41-1.4-3.12-2-3c-1.38,0.27-0.27,9.91-1,10c-0.71,0.09-2.17-9.09-3-9
	c-0.77,0.08-0.5,7.97-1,8c-0.47,0.02-0.85-6.93-2-7c-1.08-0.06-1.74,6.01-3,6c-1.54-0.01-2.63-9.05-3-9c-0.41,0.05,0.95,10.81,0,11
	c-0.84,0.17-2.53-8.16-4-8c-1.02,0.11-1.81,4.28-1,8C213.43,704.2,214.83,706.22,215.82,707.4z"/>
<path class="st7" d="M522.82,648.4c6.67-0.33,13.33-0.67,20-1c0.08-0.93,0.22-2.36,0.51-4.1c0.41-2.45,0.81-3.74,0.49-3.9
	c-0.65-0.32-3.26,4.34-4,4c-0.66-0.3,1.31-3.97,0-8c-0.46-1.41-1.4-3.12-2-3c-1.38,0.27-0.27,9.91-1,10c-0.71,0.09-2.17-9.09-3-9
	c-0.77,0.08-0.5,7.97-1,8c-0.47,0.02-0.85-6.93-2-7c-1.08-0.06-1.74,6.01-3,6c-1.54-0.01-2.63-9.05-3-9c-0.41,0.05,0.95,10.81,0,11
	c-0.84,0.17-2.53-8.16-4-8c-1.02,0.11-1.81,4.28-1,8C520.43,645.2,521.83,647.22,522.82,648.4z"/>
<path class="st7" d="M922.82,639.4c6.67-0.33,13.33-0.67,20-1c0.08-0.93,0.22-2.36,0.51-4.1c0.41-2.45,0.81-3.74,0.49-3.9
	c-0.65-0.32-3.26,4.34-4,4c-0.66-0.3,1.31-3.97,0-8c-0.46-1.41-1.4-3.12-2-3c-1.38,0.27-0.27,9.91-1,10c-0.71,0.09-2.17-9.09-3-9
	c-0.77,0.08-0.5,7.97-1,8c-0.47,0.02-0.85-6.93-2-7c-1.08-0.06-1.74,6.01-3,6c-1.54-0.01-2.63-9.05-3-9c-0.41,0.05,0.95,10.81,0,11
	c-0.84,0.17-2.53-8.16-4-8c-1.02,0.11-1.81,4.28-1,8C920.43,636.2,921.83,638.22,922.82,639.4z"/>
<path class="st7" d="M430.82,738.4c6.67-0.33,13.33-0.67,20-1c0.08-0.93,0.22-2.36,0.51-4.1c0.41-2.45,0.81-3.74,0.49-3.9
	c-0.65-0.32-3.26,4.34-4,4c-0.66-0.3,1.31-3.97,0-8c-0.46-1.41-1.4-3.12-2-3c-1.38,0.27-0.27,9.91-1,10c-0.71,0.09-2.17-9.09-3-9
	c-0.77,0.08-0.5,7.97-1,8c-0.47,0.02-0.85-6.93-2-7c-1.08-0.06-1.74,6.01-3,6c-1.54-0.01-2.63-9.05-3-9c-0.41,0.05,0.95,10.81,0,11
	c-0.84,0.17-2.53-8.16-4-8c-1.02,0.11-1.81,4.28-1,8C428.43,735.2,429.83,737.22,430.82,738.4z"/>
<path class="st7" d="M646.82,689.4c6.67-0.33,13.33-0.67,20-1c0.08-0.93,0.22-2.36,0.51-4.1c0.41-2.45,0.81-3.74,0.49-3.9
	c-0.65-0.32-3.26,4.34-4,4c-0.66-0.3,1.31-3.97,0-8c-0.46-1.41-1.4-3.12-2-3c-1.38,0.27-0.27,9.91-1,10c-0.71,0.09-2.17-9.09-3-9
	c-0.77,0.08-0.5,7.97-1,8c-0.47,0.02-0.85-6.93-2-7c-1.08-0.06-1.74,6.01-3,6c-1.54-0.01-2.63-9.05-3-9c-0.41,0.05,0.95,10.81,0,11
	c-0.84,0.17-2.53-8.16-4-8c-1.02,0.11-1.81,4.28-1,8C644.43,686.2,645.83,688.22,646.82,689.4z"/>
<path class="st7" d="M740.82,724.4c6.67-0.33,13.33-0.67,20-1c0.08-0.93,0.22-2.36,0.51-4.1c0.41-2.45,0.81-3.74,0.49-3.9
	c-0.65-0.32-3.26,4.34-4,4c-0.66-0.3,1.31-3.97,0-8c-0.46-1.41-1.4-3.12-2-3c-1.38,0.27-0.27,9.91-1,10c-0.71,0.09-2.17-9.09-3-9
	c-0.77,0.08-0.5,7.97-1,8c-0.47,0.02-0.85-6.93-2-7c-1.08-0.06-1.74,6.01-3,6c-1.54-0.01-2.63-9.05-3-9c-0.41,0.05,0.95,10.81,0,11
	c-0.84,0.17-2.53-8.16-4-8c-1.02,0.11-1.81,4.28-1,8C738.43,721.2,739.83,723.22,740.82,724.4z"/>
<g>
	<g>
		<path class="st6" d="M1023.65,466v62.59H0v-52.2c0.1-1.34,0.1-2.65,0-4.02v-1.65c0.46-1.02,0.87-2.06,1.19-3.15
			c0.15-0.53,0.29-1.06,0.42-1.58H1023.65z"/>
	</g>
	<path class="st7" d="M188.18,492.31c6.66-0.27,13.33-0.54,19.99-0.81c0.08-0.75,0.22-1.91,0.51-3.31c0.41-1.97,0.81-3.01,0.49-3.14
		c-0.65-0.26-3.25,3.5-4,3.23c-0.66-0.24,1.3-3.2,0-6.45c-0.46-1.14-1.4-2.52-2-2.42c-1.38,0.22-0.27,7.99-1,8.07
		c-0.71,0.07-2.17-7.33-3-7.26c-0.77,0.07-0.5,6.43-1,6.45c-0.47,0.02-0.85-5.59-2-5.65c-1.07-0.05-1.74,4.85-3,4.84
		c-1.54-0.01-2.62-7.3-3-7.26c-0.41,0.04,0.95,8.72,0,8.87c-0.84,0.14-2.53-6.58-4-6.45c-1.02,0.09-1.81,3.45-1,6.45
		C185.79,489.73,187.2,491.36,188.18,492.31z"/>
	<path class="st7" d="M446.09,522.15c6.66-0.27,13.33-0.54,19.99-0.81c0.08-0.75,0.22-1.91,0.51-3.31c0.41-1.97,0.81-3.01,0.49-3.14
		c-0.65-0.26-3.25,3.5-4,3.23c-0.66-0.24,1.3-3.2,0-6.45c-0.46-1.14-1.4-2.52-2-2.42c-1.38,0.22-0.27,7.99-1,8.07
		c-0.71,0.07-2.17-7.33-3-7.26c-0.77,0.07-0.5,6.43-1,6.45c-0.47,0.02-0.85-5.59-2-5.65c-1.07-0.05-1.74,4.85-3,4.84
		c-1.54-0.01-2.62-7.3-3-7.26c-0.41,0.04,0.95,8.72,0,8.87c-0.84,0.14-2.53-6.58-4-6.45c-1.02,0.09-1.81,3.45-1,6.45
		C443.7,519.58,445.11,521.21,446.09,522.15z"/>
	<path class="st7" d="M972.91,485.05c6.66-0.27,13.33-0.54,19.99-0.81c0.08-0.75,0.22-1.91,0.51-3.31c0.41-1.97,0.81-3.01,0.49-3.14
		c-0.65-0.26-3.25,3.5-4,3.23c-0.66-0.24,1.3-3.2,0-6.45c-0.46-1.14-1.4-2.52-2-2.42c-1.38,0.22-0.27,7.99-1,8.07
		c-0.71,0.07-2.17-7.33-3-7.26c-0.77,0.07-0.5,6.43-1,6.45c-0.47,0.02-0.85-5.59-2-5.65c-1.07-0.05-1.74,4.85-3,4.84
		c-1.54-0.01-2.62-7.3-3-7.26c-0.41,0.04,0.95,8.72,0,8.87c-0.84,0.14-2.53-6.58-4-6.45c-1.02,0.09-1.81,3.45-1,6.45
		C970.52,482.47,971.93,484.1,972.91,485.05z"/>
	<path class="st7" d="M558.05,492.31c6.66-0.27,13.33-0.54,19.99-0.81c0.08-0.75,0.22-1.91,0.51-3.31c0.41-1.97,0.81-3.01,0.49-3.14
		c-0.65-0.26-3.25,3.5-4,3.23c-0.66-0.24,1.3-3.2,0-6.45c-0.46-1.14-1.4-2.52-2-2.42c-1.38,0.22-0.27,7.99-1,8.07
		c-0.71,0.07-2.17-7.33-3-7.26c-0.77,0.07-0.5,6.43-1,6.45c-0.47,0.02-0.85-5.59-2-5.65c-1.07-0.05-1.74,4.85-3,4.84
		c-1.54-0.01-2.62-7.3-3-7.26c-0.41,0.04,0.95,8.72,0,8.87c-0.84,0.14-2.53-6.58-4-6.45c-1.02,0.09-1.81,3.45-1,6.45
		C555.66,489.73,557.07,491.36,558.05,492.31z"/>
	<path class="st7" d="M22.23,489.08c6.66-0.27,13.33-0.54,19.99-0.81c0.08-0.75,0.22-1.91,0.51-3.31c0.41-1.97,0.81-3.01,0.49-3.14
		c-0.65-0.26-3.25,3.5-4,3.23c-0.66-0.24,1.3-3.2,0-6.45c-0.46-1.14-1.4-2.52-2-2.42c-1.38,0.22-0.27,7.99-1,8.07
		c-0.71,0.07-2.17-7.33-3-7.26c-0.77,0.07-0.5,6.43-1,6.45c-0.47,0.02-0.85-5.59-2-5.65c-1.07-0.05-1.74,4.85-3,4.84
		c-1.54-0.01-2.62-7.3-3-7.26c-0.41,0.04,0.95,8.72,0,8.87c-0.84,0.14-2.53-6.58-4-6.45c-1.02,0.09-1.81,3.45-1,6.45
		C19.85,486.5,21.25,488.13,22.23,489.08z"/>
</g>
<g>
	<rect x="0" y="528" class="st8" width="1024" height="58"/>
	<ellipse class="st9" cx="81" cy="550" rx="9" ry="4"/>
	<ellipse class="st9" cx="154" cy="573" rx="9" ry="4"/>
	<ellipse class="st9" cx="293" cy="554" rx="9" ry="4"/>
	<ellipse class="st9" cx="602" cy="569" rx="9" ry="4"/>
	<ellipse class="st9" cx="448" cy="577" rx="9" ry="4"/>
	<ellipse class="st9" cx="735" cy="559" rx="9" ry="4"/>
	<ellipse class="st9" cx="910" cy="542" rx="9" ry="4"/>
	<ellipse class="st9" cx="985" cy="581" rx="9" ry="4"/>
</g>
<g>
	<ellipse class="st10" cx="149.91" cy="682.6" rx="47.32" ry="12.4"/>
	<path class="st11" d="M113.82,641.86c0.3,0.83-0.07,1.75-0.35,2.31c-5.48-1.03-10.96-2.07-16.44-3.1
		c-1.68-1.63-1.71-2.91-1.69-3.32c0.14-2.49,3.77-5.04,9.27-5.25c-0.2,0.89-0.4,1.78-0.59,2.67c-0.26-0.12-2.44-1.08-4.14,0.14
		c-0.91,0.66-1.86,2.07-1.54,3.09C99.38,641.62,112.45,638.14,113.82,641.86z"/>
	<rect x="134.59" y="657.62" class="st11" width="9.16" height="24.91"/>
	<rect x="170.34" y="657.62" class="st11" width="9.16" height="24.91"/>
	<rect x="127.21" y="660.59" class="st12" width="9.16" height="24.91"/>
	<rect x="164.36" y="660.59" class="st12" width="9.16" height="24.91"/>
	<ellipse class="st12" cx="151.51" cy="647.39" rx="45.94" ry="29.04"/>
	<ellipse class="st11" cx="187.67" cy="616.03" rx="26.01" ry="25.95"/>
	<ellipse class="st12" cx="190.64" cy="614.61" rx="26.01" ry="26.47"/>
	<path class="st13" d="M175.09,588.18c-5.4,0.03-9.62,0.1-12.2,0.1c-0.16,0-0.52,0-0.78,0.28c-1.76,1.83,1.99,14.01,6.85,14.2
		c4.95,0.19,9.41-12.1,7.6-14.22C176.31,588.25,175.88,588.06,175.09,588.18z"/>
	<path class="st13" d="M217.12,588.18c-5.4,0.03-9.62,0.1-12.2,0.1c-0.16,0-0.52,0-0.78,0.28c-1.76,1.83,1.99,14.01,6.85,14.2
		c4.95,0.19,9.41-12.1,7.6-14.22C218.34,588.25,217.91,588.06,217.12,588.18z"/>
	<g>
		<path class="st14" d="M173.02,611.37c4.63-0.04,9.27-0.07,13.9-0.11c0.25-5.26-3.52-9.2-7.13-9.11c-3.72,0.09-6.46,4.44-6.77,7.84
			C172.97,610.52,172.99,610.99,173.02,611.37z"/>
		<path class="st15" d="M177.15,611.37c1.58-0.02,3.16-0.05,4.74-0.07c0.09-3.43-1.2-6.01-2.43-5.95c-1.27,0.06-2.2,2.9-2.31,5.11
			C177.14,610.81,177.14,611.12,177.15,611.37z"/>
	</g>
	<g>
		<path class="st14" d="M194.38,611.86c4.63-0.04,9.27-0.07,13.9-0.11c0.25-5.26-3.52-9.2-7.13-9.11c-3.72,0.09-6.46,4.44-6.77,7.84
			C194.33,611.01,194.34,611.48,194.38,611.86z"/>
		<path class="st15" d="M198.95,611.86c1.58-0.02,3.16-0.05,4.74-0.07c0.09-3.43-1.2-6.01-2.43-5.95c-1.27,0.06-2.2,2.9-2.31,5.11
			C198.93,611.3,198.94,611.61,198.95,611.86z"/>
	</g>
	<g>
		<path class="st11" d="M193.32,630.99h-6.22c-3.33,0-6.03-2.7-6.03-6.03l0,0c0-3.33,2.7-6.03,6.03-6.03h6.22
			c3.33,0,6.03,2.7,6.03,6.03l0,0C199.36,628.29,196.65,630.99,193.32,630.99z"/>
		<g>
			<ellipse class="st16" cx="187.43" cy="624.96" rx="1.1" ry="1.17"/>
			<ellipse class="st16" cx="193.74" cy="624.96" rx="1.1" ry="1.17"/>
		</g>
	</g>
</g>
<g>
	<ellipse class="st10" cx="808.61" cy="512.85" rx="23.47" ry="6.15"/>
	<path class="st11" d="M826.5,492.64c-0.15,0.41,0.03,0.87,0.17,1.14c2.72-0.51,5.44-1.02,8.16-1.54c0.84-0.81,0.85-1.44,0.84-1.65
		c-0.07-1.23-1.87-2.5-4.6-2.6c0.1,0.44,0.2,0.88,0.3,1.32c0.13-0.06,1.21-0.54,2.05,0.07c0.45,0.33,0.92,1.03,0.76,1.53
		C833.67,492.53,827.18,490.8,826.5,492.64z"/>
	
		<rect x="811.66" y="500.46" transform="matrix(-1 -4.483182e-11 4.483182e-11 -1 1627.8652 1013.2687)" class="st11" width="4.54" height="12.35"/>
	
		<rect x="793.93" y="500.46" transform="matrix(-1 -4.483182e-11 4.483182e-11 -1 1592.3949 1013.2687)" class="st11" width="4.54" height="12.35"/>
	
		<rect x="815.32" y="501.93" transform="matrix(-1 -4.523238e-11 4.523238e-11 -1 1635.1865 1016.2231)" class="st12" width="4.54" height="12.35"/>
	
		<rect x="796.89" y="501.93" transform="matrix(-1 -4.443169e-11 4.443169e-11 -1 1598.3278 1016.2231)" class="st12" width="4.54" height="12.35"/>
	<ellipse class="st12" cx="807.81" cy="495.39" rx="22.78" ry="14.4"/>
	<ellipse class="st11" cx="789.88" cy="479.83" rx="12.9" ry="12.87"/>
	<ellipse class="st12" cx="788.4" cy="479.13" rx="12.9" ry="13.13"/>
	<path class="st13" d="M796.11,466.02c2.68,0.01,4.77,0.05,6.05,0.05c0.08,0,0.26,0,0.39,0.14c0.87,0.91-0.99,6.95-3.4,7.04
		c-2.46,0.09-4.67-6-3.77-7.05C795.51,466.05,795.72,465.96,796.11,466.02z"/>
	<path class="st13" d="M775.27,466.02c2.68,0.01,4.77,0.05,6.05,0.05c0.08,0,0.26,0,0.39,0.14c0.87,0.91-0.99,6.95-3.4,7.04
		c-2.46,0.09-4.67-6-3.77-7.05C774.66,466.05,774.88,465.96,775.27,466.02z"/>
	<g>
		<path class="st14" d="M797.14,477.52c-2.3-0.02-4.6-0.04-6.89-0.05c-0.13-2.61,1.75-4.57,3.54-4.52c1.84,0.05,3.2,2.2,3.36,3.89
			C797.17,477.1,797.16,477.33,797.14,477.52z"/>
		<path class="st15" d="M795.09,477.52c-0.78-0.01-1.57-0.02-2.35-0.04c-0.04-1.7,0.59-2.98,1.21-2.95
			c0.63,0.03,1.09,1.44,1.15,2.54C795.1,477.24,795.1,477.4,795.09,477.52z"/>
	</g>
	<g>
		<path class="st14" d="M786.55,477.76c-2.3-0.02-4.6-0.04-6.89-0.05c-0.13-2.61,1.75-4.57,3.54-4.52c1.84,0.05,3.2,2.2,3.36,3.89
			C786.57,477.34,786.57,477.57,786.55,477.76z"/>
		<path class="st15" d="M784.28,477.76c-0.78-0.01-1.57-0.02-2.35-0.04c-0.04-1.7,0.59-2.98,1.21-2.95
			c0.63,0.03,1.09,1.44,1.15,2.54C784.29,477.49,784.29,477.64,784.28,477.76z"/>
	</g>
	<g>
		<path class="st11" d="M787.07,487.25h3.09c1.65,0,2.99-1.34,2.99-2.99l0,0c0-1.65-1.34-2.99-2.99-2.99h-3.09
			c-1.65,0-2.99,1.34-2.99,2.99l0,0C784.08,485.91,785.42,487.25,787.07,487.25z"/>
		<g>
			<ellipse class="st16" cx="790" cy="484.26" rx="0.55" ry="0.58"/>
			<ellipse class="st16" cx="786.86" cy="484.26" rx="0.55" ry="0.58"/>
		</g>
	</g>
</g>
<g>
	<ellipse class="st10" cx="98.48" cy="477.88" rx="20.48" ry="6.12"/>
	<g>
		<g>
			
				<rect x="106.22" y="471.66" transform="matrix(-1 -5.125912e-11 5.125912e-11 -1 213.2552 950.8785)" class="st17" width="0.82" height="7.56"/>
			
				<rect x="106.22" y="478.44" transform="matrix(-1 -5.125912e-11 5.125912e-11 -1 213.2552 957.6528)" width="0.82" height="0.78"/>
		</g>
		<g>
			
				<rect x="89.72" y="470.43" transform="matrix(-1 -5.125912e-11 5.125912e-11 -1 180.266 948.4176)" class="st17" width="0.82" height="7.56"/>
			<rect x="89.72" y="477.21" transform="matrix(-1 -5.125912e-11 5.125912e-11 -1 180.266 955.1919)" width="0.82" height="0.78"/>
		</g>
		<path class="st18" d="M80.9,457.47c0.01,1.6,1.04,1.73,1.28,3.8c0.25,2.13-0.75,2.75-0.64,5.22c0.1,2.23,1.01,3.8,1.28,4.27
			c1.2,2.07,2.8,2.67,3.53,2.85c2.48,0.61,3.2-1.7,5.45-0.95c1.82,0.61,1.66,2.01,3.53,2.85c2.18,0.99,3.2-0.56,6.73-0.95
			c2.71-0.3,2.89,0.89,5.45,0.47c1.77-0.29,1.97-0.79,3.85-0.95c2.24-0.19,2.63,0.47,4.17,0c0,0,0.56-0.18,1.08-0.52
			c0.85-0.57,1.22-1.88,2.19-3.55c1.2-2.06,1.64-1.77,2.37-3.49c0.28-0.66,0.43-1.21,0.95-1.74c0.69-0.72,1.3-0.64,1.42-1.16
			c0.11-0.48-0.33-0.85-0.95-1.88c0,0-0.72-1.2-1.22-2.69c-0.65-1.92-0.52-2.97-1.67-4.43c-1.92-2.46-3.09-0.51-6.41-3.32
			c-1.78-1.51-2.1-2.63-3.85-3.32c-1.44-0.57-1.64,0.02-3.53-0.47c-2.63-0.69-2.8-1.99-4.49-1.9c-1.85,0.1-1.89,1.67-3.85,1.9
			c-2.29,0.26-3-1.8-4.49-0.95c-1.18,0.68-0.88,2.06-2.56,3.8c-1.2,1.24-2.42,1.64-3.2,1.9c-1.77,0.58-1.99-0.1-3.2,0.47
			C82.62,453.43,80.89,455.39,80.9,457.47z"/>
		<g>
			
				<rect x="103.35" y="473.68" transform="matrix(-1 -5.151536e-11 5.151536e-11 -1 207.6234 952.9009)" class="st17" width="0.92" height="5.54"/>
			
				<rect x="103.35" y="479.16" transform="matrix(-1 -5.151536e-11 5.151536e-11 -1 207.6234 958.8876)" width="0.92" height="0.57"/>
		</g>
		<g>
			
				<rect x="87.37" y="472.33" transform="matrix(-1 -4.974255e-11 4.974255e-11 -1 175.5433 950.8942)" class="st17" width="0.8" height="6.24"/>
			<rect x="87.37" y="477.92" transform="matrix(-1 -4.974255e-11 4.974255e-11 -1 175.5433 956.4903)" width="0.8" height="0.65"/>
		</g>
		<path class="st19" d="M115.24,446.53c-0.89,2.38-6.47,2.77-7.54,1.78c-1.28-1.17,2.37-5.62,5.03-5.35
			C114.33,443.12,115.81,445.02,115.24,446.53z"/>
		<path class="st19" d="M124.57,446.68c0.89,2.38,6.47,2.77,7.54,1.78c1.28-1.17-2.37-5.62-5.03-5.35
			C125.48,443.28,124.01,445.18,124.57,446.68z"/>
		<path class="st20" d="M111.35,454.04c-0.16,1.6-0.38,3.96,0.72,6.33c2.04,4.37,6.8,4.92,7.61,5.02c1.17,0.14,4.22,0.42,6.61-1.93
			c0.91-0.89,1.31-1.85,1.73-2.83c0,0,1.23-2.89,1.06-6.29c-0.32-6.54-4.39-14.33-9.21-14.15
			C114.94,440.37,111.88,448.83,111.35,454.04z"/>
		<g>
			<ellipse class="st21" cx="124.77" cy="451.76" rx="1.46" ry="1.94"/>
			<ellipse cx="124.79" cy="451.68" rx="0.75" ry="1.01"/>
		</g>
		<g>
			<ellipse class="st21" cx="116.48" cy="451.76" rx="1.46" ry="1.94"/>
			<ellipse cx="116.5" cy="451.68" rx="0.75" ry="1.01"/>
		</g>
		<path d="M121.55,462.43c-0.45,0.54-0.62,1.12-0.63,1.11c-0.02-0.01,0.16-0.84,0.73-1.52c0.24-0.28,0.35-0.32,0.44-0.3
			c0.2,0.06,0.32,0.45,0.26,0.52c-0.05,0.05-0.16-0.11-0.35-0.11C121.82,462.13,121.68,462.27,121.55,462.43z"/>
		<path d="M119.66,462.27c0.48,0.5,0.69,1.06,0.71,1.05c0.02-0.01-0.22-0.82-0.83-1.44c-0.25-0.26-0.38-0.29-0.46-0.25
			c-0.2,0.07-0.29,0.48-0.22,0.54c0.05,0.04,0.15-0.13,0.34-0.14C119.37,462,119.52,462.13,119.66,462.27z"/>
		<path class="st22" d="M112.8,440.98c0,0.4,0.39,0.44,0.48,0.95c0.1,0.53-0.28,0.69-0.24,1.31c0.04,0.56,0.38,0.95,0.48,1.07
			c0.45,0.52,1.05,0.67,1.32,0.72c0.93,0.15,1.2-0.43,2.04-0.24c0.68,0.15,0.62,0.5,1.32,0.72c0.82,0.25,1.2-0.14,2.52-0.24
			c1.01-0.07,1.08,0.22,2.04,0.12c0.66-0.07,0.74-0.2,1.44-0.24c0.84-0.05,0.98,0.12,1.56,0c0,0,0.21-0.04,0.4-0.13
			c0.32-0.14,0.45-0.47,0.82-0.89c0.45-0.52,0.61-0.45,0.89-0.88c0.1-0.17,0.16-0.3,0.35-0.44c0.26-0.18,0.49-0.16,0.53-0.29
			c0.04-0.12-0.12-0.21-0.36-0.47c0,0-0.27-0.3-0.46-0.68c-0.24-0.48-0.2-0.75-0.62-1.11c-0.72-0.62-1.16-0.13-2.4-0.83
			c-0.67-0.38-0.79-0.66-1.44-0.83c-0.54-0.14-0.61,0.01-1.32-0.12c-0.98-0.17-1.05-0.5-1.68-0.48c-0.69,0.02-0.71,0.42-1.44,0.48
			c-0.86,0.07-1.12-0.45-1.68-0.24c-0.44,0.17-0.33,0.52-0.96,0.95c-0.45,0.31-0.91,0.41-1.2,0.48c-0.66,0.15-0.74-0.03-1.2,0.12
			C113.44,439.97,112.8,440.46,112.8,440.98z"/>
	</g>
</g>
<g>
	<ellipse class="st10" cx="565.94" cy="736.71" rx="82.95" ry="21.29"/>
	<g>
		<g>
			<rect x="531.3" y="715.08" class="st17" width="3.31" height="26.28"/>
			<rect x="531.3" y="738.64" width="3.31" height="2.72"/>
		</g>
		<g>
			<rect x="598.1" y="710.8" class="st17" width="3.31" height="26.28"/>
			<rect x="598.1" y="734.36" width="3.31" height="2.72"/>
		</g>
		<path class="st18" d="M637.15,665.7c-0.03,5.56-4.19,6.03-5.19,13.21c-1.03,7.4,3.04,9.58,2.6,18.16
			c-0.4,7.75-4.08,13.21-5.19,14.86c-4.86,7.21-11.34,9.29-14.28,9.91c-10.03,2.12-12.97-5.92-22.06-3.3
			c-7.38,2.12-6.73,6.98-14.28,9.91c-8.84,3.43-12.98-1.96-27.25-3.3c-10.97-1.03-11.71,3.1-22.06,1.65
			c-7.18-1.01-7.96-2.75-15.57-3.3c-9.06-0.66-10.63,1.63-16.87,0c0,0-2.28-0.61-4.37-1.81c-3.46-1.98-4.92-6.53-8.85-12.33
			c-4.86-7.18-6.64-6.17-9.59-12.13c-1.13-2.29-1.74-4.2-3.83-6.07c-2.81-2.5-5.27-2.23-5.75-4.04c-0.44-1.66,1.34-2.97,3.85-6.55
			c0,0,2.9-4.17,4.93-9.35c2.62-6.67,2.11-10.33,6.75-15.41c7.79-8.54,12.52-1.77,25.96-11.56c7.22-5.26,8.5-9.15,15.57-11.56
			c5.82-1.98,6.63,0.08,14.28-1.65c10.66-2.41,11.33-6.92,18.17-6.6c7.51,0.34,7.64,5.82,15.57,6.6c9.27,0.92,12.14-6.26,18.17-3.3
			c4.79,2.35,3.57,7.16,10.38,13.21c4.86,4.31,9.82,5.71,12.98,6.6c7.17,2.02,8.05-0.36,12.98,1.65
			C630.18,651.65,637.18,658.47,637.15,665.7z"/>
		<g>
			<rect x="542.5" y="722.1" class="st17" width="3.72" height="19.28"/>
			<rect x="542.5" y="741.15" width="3.72" height="1.99"/>
		</g>
		<g>
			<rect x="607.69" y="717.39" class="st17" width="3.26" height="21.71"/>
			<rect x="607.69" y="736.86" width="3.26" height="2.25"/>
		</g>
		<path class="st19" d="M498.06,627.64c3.6,8.27,26.19,9.63,30.54,6.21c5.17-4.08-9.58-19.55-20.36-18.62
			C501.75,615.79,495.78,622.4,498.06,627.64z"/>
		<path class="st19" d="M460.28,628.19c-3.6,8.27-26.19,9.63-30.54,6.21c-5.17-4.08,9.58-19.55,20.36-18.62
			C456.6,616.35,462.57,622.95,460.28,628.19z"/>
		<path class="st20" d="M513.83,653.77c0.67,5.57,1.54,13.79-2.94,22.02c-8.27,15.21-27.53,17.13-30.83,17.45
			c-4.76,0.47-17.07,1.46-26.76-6.72c-3.67-3.1-5.31-6.42-7-9.84c0,0-4.97-10.06-4.3-21.88c1.29-22.75,17.77-49.87,37.29-49.23
			C499.29,606.22,511.66,635.66,513.83,653.77z"/>
		<g>
			<ellipse class="st21" cx="459.49" cy="645.85" rx="5.9" ry="6.76"/>
			<ellipse cx="459.4" cy="645.55" rx="3.05" ry="3.53"/>
		</g>
		<g>
			<ellipse class="st21" cx="493.06" cy="645.87" rx="5.9" ry="6.76"/>
			<ellipse cx="492.97" cy="645.57" rx="3.05" ry="3.53"/>
		</g>
		<path d="M472.51,682.96c1.81,1.89,2.49,3.9,2.56,3.87c0.08-0.03-0.66-2.92-2.95-5.29c-0.95-0.99-1.43-1.12-1.8-1.04
			c-0.83,0.19-1.29,1.57-1.04,1.8c0.19,0.17,0.65-0.39,1.42-0.38C471.42,681.93,471.98,682.41,472.51,682.96z"/>
		<path d="M480.16,682.42c-1.96,1.73-2.81,3.68-2.88,3.64c-0.08-0.04,0.9-2.85,3.38-5.02c1.03-0.9,1.52-1,1.88-0.88
			c0.81,0.26,1.16,1.67,0.88,1.88c-0.2,0.15-0.61-0.44-1.38-0.5C481.33,681.48,480.73,681.92,480.16,682.42z"/>
		<path class="st22" d="M507.96,608.36c-0.01,1.4-1.57,1.52-1.94,3.32c-0.39,1.86,1.14,2.41,0.97,4.56
			c-0.15,1.95-1.53,3.32-1.94,3.73c-1.82,1.81-4.24,2.33-5.34,2.49c-3.75,0.53-4.85-1.49-8.26-0.83c-2.76,0.53-2.52,1.75-5.34,2.49
			c-3.31,0.86-4.86-0.49-10.2-0.83c-4.1-0.26-4.38,0.78-8.26,0.41c-2.69-0.25-2.98-0.69-5.83-0.83c-3.39-0.16-3.98,0.41-6.31,0
			c0,0-0.85-0.15-1.64-0.45c-1.29-0.5-1.84-1.64-3.31-3.1c-1.82-1.81-2.49-1.55-3.59-3.05c-0.42-0.58-0.65-1.06-1.43-1.52
			c-1.05-0.63-1.97-0.56-2.15-1.02c-0.16-0.42,0.5-0.75,1.44-1.64c0,0,1.08-1.05,1.85-2.35c0.98-1.68,0.79-2.6,2.52-3.87
			c2.92-2.15,4.69-0.44,9.71-2.9c2.7-1.32,3.18-2.3,5.83-2.9c2.18-0.5,2.48,0.02,5.34-0.41c3.99-0.61,4.24-1.74,6.8-1.66
			c2.81,0.09,2.86,1.46,5.83,1.66c3.47,0.23,4.54-1.57,6.8-0.83c1.79,0.59,1.34,1.8,3.88,3.32c1.82,1.08,3.67,1.44,4.86,1.66
			c2.68,0.51,3.01-0.09,4.86,0.41C505.35,604.83,507.97,606.54,507.96,608.36z"/>
	</g>
</g>
<g>
	<ellipse class="st10" cx="693.08" cy="624.45" rx="21.92" ry="5.55"/>
	<g>
		<path class="st23" d="M704.44,600.07c5.29-5.31,6.34-5.29,6.76-5.23c2.77,0.37,5.1,5.93,2.98,10.28c-1.8,3.69-6.96,6.84-11.69,6.2
			c-0.55-0.07-3.42-0.46-4.33-2.07C697.81,608.65,697.35,607.18,704.44,600.07z"/>
		<path class="st23" d="M672.64,599.84c-5.53-5.15-6.57-5.11-7-5.04c-2.75,0.45-4.83,6.07-2.51,10.36
			c1.97,3.64,7.27,6.64,11.97,5.87c0.54-0.09,3.4-0.56,4.24-2.19C679.66,608.23,680.05,606.75,672.64,599.84z"/>
		<g>
			<line class="st24" x1="684.93" y1="617.31" x2="681.92" y2="624.5"/>
			<line class="st24" x1="686.31" y1="625.61" x2="683.43" y2="620.9"/>
			<line class="st24" x1="676.08" y1="623.01" x2="683.43" y2="620.9"/>
		</g>
		<g>
			<line class="st24" x1="694.07" y1="617.29" x2="695.92" y2="624.72"/>
			<line class="st24" x1="700.44" y1="624.03" x2="694.99" y2="621"/>
			<line class="st24" x1="689.89" y1="625.63" x2="694.99" y2="621"/>
		</g>
		<ellipse class="st25" cx="688.88" cy="603.12" rx="16.15" ry="16.26"/>
		<path class="st16" d="M679.83,598.23c-0.23-0.15,1.38-3.55,4.06-3.28c2.28,0.23,3.39,2.92,3.1,3.1c-0.25,0.15-1.43-1.53-3.36-1.6
			C681.47,596.37,680.02,598.36,679.83,598.23z"/>
		<path class="st16" d="M690.23,598.23c-0.23-0.15,1.38-3.55,4.06-3.28c2.28,0.23,3.39,2.92,3.1,3.1c-0.25,0.15-1.43-1.53-3.36-1.6
			C691.87,596.37,690.42,598.36,690.23,598.23z"/>
		<path class="st26" d="M687.47,601.57c0.12-1.02-0.08-1.84-0.24-2.32c1.32,0.84,2.65,1.68,3.97,2.52l-4.39,1.86
			C687.05,603.19,687.37,602.49,687.47,601.57z"/>
		<line class="st27" x1="687.49" y1="601.44" x2="691.2" y2="601.77"/>
		<g>
			
				<ellipse transform="matrix(0.7857 -0.6186 0.6186 0.7857 -228.4056 540.3969)" class="st28" cx="665.83" cy="599.89" rx="1.24" ry="1.65"/>
			
				<ellipse transform="matrix(0.5825 -0.8128 0.8128 0.5825 -211.5877 794.9217)" class="st28" cx="668.06" cy="603.44" rx="1.03" ry="1.85"/>
			
				<ellipse transform="matrix(0.2451 -0.9695 0.9695 0.2451 -81.8179 1108.1536)" class="st28" cx="670.71" cy="606.62" rx="0.89" ry="1.41"/>
		</g>
		<g>
			
				<ellipse transform="matrix(0.6186 -0.7857 0.7857 0.6186 -199.7088 788.3948)" class="st28" cx="712.17" cy="599.89" rx="1.65" ry="1.24"/>
			
				<ellipse transform="matrix(0.8128 -0.5825 0.5825 0.8128 -218.6299 526.5222)" class="st28" cx="709.94" cy="603.44" rx="1.85" ry="1.03"/>
			
				<ellipse transform="matrix(0.9695 -0.2451 0.2451 0.9695 -127.1294 191.9)" class="st28" cx="707.29" cy="606.62" rx="1.41" ry="0.89"/>
		</g>
		<path class="st29" d="M684.49,589.16c1.47,0.25,2.12-1.03,5.06-1.41c2.73-0.35,4.02,0.51,5.16-0.06c1.65-0.82,0.68-3.51-0.49-3.63
			c-0.89-0.09-1.59,1.33-2.63,1.23c-1.23-0.12-1.27-2.23-2.34-2.29c-0.91-0.05-1.32,1.48-2.82,1.58c-1.13,0.08-1.71-0.74-2.63-0.59
			c-1.09,0.18-1.32,1.52-1.36,1.76C682.23,586.98,682.83,588.87,684.49,589.16z"/>
	</g>
</g>
<g>
	<ellipse class="st10" cx="890.62" cy="489.4" rx="10.26" ry="2.6"/>
	<g>
		<path class="st23" d="M895.94,477.99c2.47-2.48,2.97-2.48,3.16-2.45c1.3,0.17,2.39,2.78,1.39,4.81c-0.84,1.73-3.26,3.2-5.47,2.9
			c-0.26-0.03-1.6-0.22-2.03-0.97C892.84,482.01,892.62,481.32,895.94,477.99z"/>
		<path class="st23" d="M881.05,477.88c-2.59-2.41-3.08-2.39-3.27-2.36c-1.29,0.21-2.26,2.84-1.17,4.85c0.92,1.7,3.4,3.11,5.6,2.75
			c0.25-0.04,1.59-0.26,1.98-1.03C884.34,481.81,884.52,481.12,881.05,477.88z"/>
		<g>
			<line class="st24" x1="886.81" y1="486.06" x2="885.4" y2="489.42"/>
			<line class="st24" x1="887.45" y1="489.95" x2="886.1" y2="487.74"/>
			<line class="st24" x1="882.66" y1="488.73" x2="886.1" y2="487.74"/>
		</g>
		<g>
			<line class="st24" x1="891.08" y1="486.05" x2="891.95" y2="489.53"/>
			<line class="st24" x1="894.07" y1="489.2" x2="891.52" y2="487.79"/>
			<line class="st24" x1="889.13" y1="489.96" x2="891.52" y2="487.79"/>
		</g>
		<ellipse class="st25" cx="888.65" cy="479.42" rx="7.56" ry="7.61"/>
		<path class="st16" d="M884.42,477.13c-0.11-0.07,0.65-1.66,1.9-1.54c1.07,0.11,1.59,1.37,1.45,1.45
			c-0.12,0.07-0.67-0.72-1.57-0.75C885.19,476.26,884.51,477.19,884.42,477.13z"/>
		<path class="st16" d="M889.29,477.13c-0.11-0.07,0.65-1.66,1.9-1.54c1.07,0.11,1.59,1.37,1.45,1.45
			c-0.12,0.07-0.67-0.72-1.57-0.75C890.06,476.26,889.37,477.19,889.29,477.13z"/>
		<path class="st26" d="M888,478.69c0.05-0.48-0.04-0.86-0.11-1.09c0.62,0.39,1.24,0.79,1.86,1.18l-2.06,0.87
			C887.8,479.45,887.95,479.12,888,478.69z"/>
		<line class="st27" x1="888" y1="478.63" x2="889.74" y2="478.79"/>
		<g>
			
				<ellipse transform="matrix(0.7857 -0.6186 0.6186 0.7857 -107.5177 645.4195)" class="st28" cx="877.86" cy="477.91" rx="0.58" ry="0.77"/>
			
				<ellipse transform="matrix(0.5825 -0.8128 0.8128 0.5825 -22.8789 914.5906)" class="st28" cx="878.91" cy="479.57" rx="0.48" ry="0.87"/>
			
				<ellipse transform="matrix(0.2451 -0.9695 0.9695 0.2451 198.0089 1216.4204)" class="st28" cx="880.15" cy="481.06" rx="0.42" ry="0.66"/>
		</g>
		<g>
			
				<ellipse transform="matrix(0.6186 -0.7857 0.7857 0.6186 -32.3863 889.1002)" class="st28" cx="899.56" cy="477.91" rx="0.77" ry="0.58"/>
			
				<ellipse transform="matrix(0.8128 -0.5825 0.5825 0.8128 -111.1702 613.1826)" class="st28" cx="898.51" cy="479.57" rx="0.87" ry="0.48"/>
			
				<ellipse transform="matrix(0.9695 -0.2451 0.2451 0.9695 -90.5503 234.6425)" class="st28" cx="897.27" cy="481.06" rx="0.66" ry="0.42"/>
		</g>
		<path class="st29" d="M886.6,472.88c0.69,0.12,0.99-0.48,2.37-0.66c1.28-0.17,1.88,0.24,2.42-0.03c0.77-0.38,0.32-1.64-0.23-1.7
			c-0.41-0.04-0.74,0.62-1.23,0.58c-0.58-0.06-0.6-1.04-1.09-1.07c-0.43-0.02-0.62,0.69-1.32,0.74c-0.53,0.04-0.8-0.35-1.23-0.27
			c-0.51,0.09-0.62,0.71-0.64,0.82C885.54,471.86,885.82,472.75,886.6,472.88z"/>
	</g>
</g>
<g>
	<ellipse class="st10" cx="731.62" cy="519.4" rx="10.26" ry="2.6"/>
	<g>
		<path class="st23" d="M736.94,507.99c2.47-2.48,2.97-2.48,3.16-2.45c1.3,0.17,2.39,2.78,1.39,4.81c-0.84,1.73-3.26,3.2-5.47,2.9
			c-0.26-0.03-1.6-0.22-2.03-0.97C733.84,512.01,733.62,511.32,736.94,507.99z"/>
		<path class="st23" d="M722.05,507.88c-2.59-2.41-3.08-2.39-3.27-2.36c-1.29,0.21-2.26,2.84-1.17,4.85c0.92,1.7,3.4,3.11,5.6,2.75
			c0.25-0.04,1.59-0.26,1.98-1.03C725.34,511.81,725.52,511.12,722.05,507.88z"/>
		<g>
			<line class="st24" x1="727.81" y1="516.06" x2="726.4" y2="519.42"/>
			<line class="st24" x1="728.45" y1="519.95" x2="727.1" y2="517.74"/>
			<line class="st24" x1="723.66" y1="518.73" x2="727.1" y2="517.74"/>
		</g>
		<g>
			<line class="st24" x1="732.08" y1="516.05" x2="732.95" y2="519.53"/>
			<line class="st24" x1="735.07" y1="519.2" x2="732.52" y2="517.79"/>
			<line class="st24" x1="730.13" y1="519.96" x2="732.52" y2="517.79"/>
		</g>
		<ellipse class="st25" cx="729.65" cy="509.42" rx="7.56" ry="7.61"/>
		<path class="st16" d="M725.42,507.13c-0.11-0.07,0.65-1.66,1.9-1.54c1.07,0.11,1.59,1.37,1.45,1.45
			c-0.12,0.07-0.67-0.72-1.57-0.75C726.19,506.26,725.51,507.19,725.42,507.13z"/>
		<path class="st16" d="M730.29,507.13c-0.11-0.07,0.65-1.66,1.9-1.54c1.07,0.11,1.59,1.37,1.45,1.45
			c-0.12,0.07-0.67-0.72-1.57-0.75C731.06,506.26,730.37,507.19,730.29,507.13z"/>
		<path class="st26" d="M729,508.69c0.05-0.48-0.04-0.86-0.11-1.09c0.62,0.39,1.24,0.79,1.86,1.18l-2.06,0.87
			C728.8,509.45,728.95,509.12,729,508.69z"/>
		<line class="st27" x1="729" y1="508.63" x2="730.74" y2="508.79"/>
		<g>
			
				<ellipse transform="matrix(0.7857 -0.6186 0.6186 0.7857 -160.1436 553.4952)" class="st28" cx="718.86" cy="507.91" rx="0.58" ry="0.77"/>
			
				<ellipse transform="matrix(0.5825 -0.8128 0.8128 0.5825 -113.641 797.878)" class="st28" cx="719.91" cy="509.57" rx="0.48" ry="0.87"/>
			
				<ellipse transform="matrix(0.2451 -0.9695 0.9695 0.2451 48.9027 1084.9178)" class="st28" cx="721.15" cy="511.06" rx="0.42" ry="0.66"/>
		</g>
		<g>
			
				<ellipse transform="matrix(0.6186 -0.7857 0.7857 0.6186 -116.6059 775.6119)" class="st28" cx="740.56" cy="507.91" rx="0.77" ry="0.58"/>
			
				<ellipse transform="matrix(0.8128 -0.5825 0.5825 0.8128 -158.4094 526.176)" class="st28" cx="739.51" cy="509.57" rx="0.87" ry="0.48"/>
			
				<ellipse transform="matrix(0.9695 -0.2451 0.2451 0.9695 -102.7565 196.5796)" class="st28" cx="738.27" cy="511.06" rx="0.66" ry="0.42"/>
		</g>
		<path class="st29" d="M727.6,502.88c0.69,0.12,0.99-0.48,2.37-0.66c1.28-0.17,1.88,0.24,2.42-0.03c0.77-0.38,0.32-1.64-0.23-1.7
			c-0.41-0.04-0.74,0.62-1.23,0.58c-0.58-0.06-0.6-1.04-1.09-1.07c-0.43-0.02-0.62,0.69-1.32,0.74c-0.53,0.04-0.8-0.35-1.23-0.27
			c-0.51,0.09-0.62,0.71-0.64,0.82C726.54,501.86,726.82,502.75,727.6,502.88z"/>
	</g>
</g>
<g>
	<ellipse class="st10" cx="343.62" cy="511.4" rx="10.26" ry="2.6"/>
	<g>
		<path class="st23" d="M348.94,499.99c2.47-2.48,2.97-2.48,3.16-2.45c1.3,0.17,2.39,2.78,1.39,4.81c-0.84,1.73-3.26,3.2-5.47,2.9
			c-0.26-0.03-1.6-0.22-2.03-0.97C345.84,504.01,345.62,503.32,348.94,499.99z"/>
		<path class="st23" d="M334.05,499.88c-2.59-2.41-3.08-2.39-3.27-2.36c-1.29,0.21-2.26,2.84-1.17,4.85c0.92,1.7,3.4,3.11,5.6,2.75
			c0.25-0.04,1.59-0.26,1.98-1.03C337.34,503.81,337.52,503.12,334.05,499.88z"/>
		<g>
			<line class="st24" x1="339.81" y1="508.06" x2="338.4" y2="511.42"/>
			<line class="st24" x1="340.45" y1="511.95" x2="339.1" y2="509.74"/>
			<line class="st24" x1="335.66" y1="510.73" x2="339.1" y2="509.74"/>
		</g>
		<g>
			<line class="st24" x1="344.08" y1="508.05" x2="344.95" y2="511.53"/>
			<line class="st24" x1="347.07" y1="511.2" x2="344.52" y2="509.79"/>
			<line class="st24" x1="342.13" y1="511.96" x2="344.52" y2="509.79"/>
		</g>
		<ellipse class="st25" cx="341.65" cy="501.42" rx="7.56" ry="7.61"/>
		<path class="st16" d="M337.42,499.13c-0.11-0.07,0.65-1.66,1.9-1.54c1.07,0.11,1.59,1.37,1.45,1.45
			c-0.12,0.07-0.67-0.72-1.57-0.75C338.19,498.26,337.51,499.19,337.42,499.13z"/>
		<path class="st16" d="M342.29,499.13c-0.11-0.07,0.65-1.66,1.9-1.54c1.07,0.11,1.59,1.37,1.45,1.45
			c-0.12,0.07-0.67-0.72-1.57-0.75C343.06,498.26,342.37,499.19,342.29,499.13z"/>
		<path class="st26" d="M341,500.69c0.05-0.48-0.04-0.86-0.11-1.09c0.62,0.39,1.24,0.79,1.86,1.18l-2.06,0.87
			C340.8,501.45,340.95,501.12,341,500.69z"/>
		<line class="st27" x1="341" y1="500.63" x2="342.74" y2="500.79"/>
		<g>
			
				<ellipse transform="matrix(0.7857 -0.6186 0.6186 0.7857 -238.3313 311.7766)" class="st28" cx="330.86" cy="499.91" rx="0.58" ry="0.77"/>
			
				<ellipse transform="matrix(0.5825 -0.8128 0.8128 0.5825 -269.1169 479.1682)" class="st28" cx="331.91" cy="501.57" rx="0.48" ry="0.87"/>
			
				<ellipse transform="matrix(0.2451 -0.9695 0.9695 0.2451 -236.2244 702.7184)" class="st28" cx="333.15" cy="503.06" rx="0.42" ry="0.66"/>
		</g>
		<g>
			
				<ellipse transform="matrix(0.6186 -0.7857 0.7857 0.6186 -258.3156 467.6968)" class="st28" cx="352.56" cy="499.91" rx="0.77" ry="0.58"/>
			
				<ellipse transform="matrix(0.8128 -0.5825 0.5825 0.8128 -226.3791 298.657)" class="st28" cx="351.51" cy="501.57" rx="0.87" ry="0.48"/>
			
				<ellipse transform="matrix(0.9695 -0.2451 0.2451 0.9695 -112.6347 101.2184)" class="st28" cx="350.27" cy="503.06" rx="0.66" ry="0.42"/>
		</g>
		<path class="st29" d="M339.6,494.88c0.69,0.12,0.99-0.48,2.37-0.66c1.28-0.17,1.88,0.24,2.42-0.03c0.77-0.38,0.32-1.64-0.23-1.7
			c-0.41-0.04-0.74,0.62-1.23,0.58c-0.58-0.06-0.6-1.04-1.09-1.07c-0.43-0.02-0.62,0.69-1.32,0.74c-0.53,0.04-0.8-0.35-1.23-0.27
			c-0.51,0.09-0.62,0.71-0.64,0.82C338.54,493.86,338.82,494.75,339.6,494.88z"/>
	</g>
</g>
<rect x="590.62" y="372" class="st30" width="218.3" height="92.32"/>
<polygon class="st30" points="600.68,366.43 590.62,374.01 590.62,374.01 600.68,374.01 602.19,374.01 627.34,374.01 628.85,374.01 
	654.5,374.01 656.01,374.01 681.16,374.01 682.67,374.01 702.29,374.01 703.8,374.01 729.45,374.01 730.96,374.01 760.13,374.01 
	761.64,374.01 808.92,374.01 761.64,338.41 760.13,337.27 730.96,315.3 729.45,314.17 703.8,294.85 702.29,293.71 699.77,291.82 
	682.64,304.72 681.16,305.83 655.23,325.36 654.5,325.91 628.79,345.26 627.34,346.36 602.19,365.3 "/>
<polygon class="st31" points="628.79,345.26 628.85,345.26 628.85,374.01 628.85,464.32 627.34,464.32 627.34,374.01 627.34,346.36 
	"/>
<rect x="654.5" y="325.36" class="st31" width="1.51" height="138.96"/>
<polygon class="st31" points="672.11,307.31 672.11,375.49 672.11,463.95 673.62,463.95 673.62,375.49 673.62,370.19 673.62,339 
	673.62,306.19 673.59,306.19 "/>
<rect x="600.68" y="365.17" class="st31" width="1.51" height="99.15"/>
<polygon class="st31" points="703.8,294.85 703.8,337.52 703.8,368.71 703.8,374.01 703.8,463.58 702.29,463.58 702.29,374.01 
	702.29,368.71 702.29,337.52 702.29,293.71 "/>
<polygon class="st31" points="729.45,314.17 729.45,374.01 729.45,463.58 730.96,463.58 730.96,374.01 730.96,315.3 "/>
<polygon class="st31" points="760.13,337.27 760.13,374.01 760.13,463.58 761.64,463.58 761.64,374.01 761.64,338.41 "/>
<polygon class="st31" points="787.29,357.73 787.29,374.01 787.29,463.58 788.8,463.58 788.8,374.01 788.8,358.86 "/>
<polygon class="st31" points="802.89,369.47 802.89,374.01 802.89,464.32 801.38,464.32 801.38,374.01 801.38,368.33 "/>
<rect x="680.91" y="395.94" class="st32" width="41.25" height="68.56"/>
<rect x="686.26" y="337.52" class="st33" width="26.59" height="31.19"/>
<polygon class="st34" points="701.37,292.74 576.46,384.28 570,379.54 694.91,288.01 "/>
<polygon class="st34" points="692.62,289.68 815.61,379.8 822,375.12 699.02,285 "/>
<rect y="527" class="st35" width="1024" height="7"/>
<g>
	<g>
		<polygon class="st36" points="502.5,204.24 502.55,204.19 471.87,164.81 471.82,164.85 		"/>
		<polygon class="st36" points="492.77,213.67 492.81,213.61 451.66,185.47 451.62,185.53 		"/>
		<polygon class="st36" points="489.78,224.78 489.8,224.72 441.99,210.81 441.97,210.87 		"/>
		<polygon class="st36" points="512.65,199.33 512.71,199.31 496.94,151.87 496.88,151.89 		"/>
		
			<rect x="500.88" y="173.87" transform="matrix(0.0944 -0.9955 0.9955 0.0944 303.111 681.0195)" class="st36" width="50.02" height="0.07"/>
		<polygon class="st36" points="534.34,201.8 534.4,201.82 546.12,153.21 546.05,153.19 		"/>
		
			<rect x="550.35" y="226.22" transform="matrix(0.9947 -0.1029 0.1029 0.9947 -20.2323 60.4102)" class="st36" width="49.78" height="0.07"/>
		<polygon class="st36" points="548.58,220.33 548.62,220.38 589.24,191.48 589.21,191.42 		"/>
		<polygon class="st36" points="543.7,208.12 543.76,208.16 571.76,166.81 571.71,166.77 		"/>
		<g>
			<polygon class="st36" points="536.87,252.82 536.82,252.86 567.67,292.12 567.72,292.07 			"/>
			<polygon class="st36" points="546.56,243.35 546.52,243.4 587.8,271.36 587.83,271.31 			"/>
			<polygon class="st36" points="549.5,232.22 549.48,232.28 597.36,245.99 597.37,245.92 			"/>
			<polygon class="st36" points="526.75,257.77 526.68,257.79 542.65,305.17 542.72,305.14 			"/>
			
				<rect x="488.61" y="283.22" transform="matrix(0.0901 -0.9959 0.9959 0.0901 185.232 769.2576)" class="st36" width="50.02" height="0.07"/>
			<polygon class="st36" points="505.04,255.39 504.98,255.37 493.47,304.04 493.54,304.05 			"/>
			<polygon class="st36" points="488.78,228.46 488.78,228.39 439.29,233.78 439.3,233.85 			"/>
			<polygon class="st36" points="490.72,236.93 490.68,236.87 450.18,265.95 450.22,266.01 			"/>
			<polygon class="st36" points="495.65,249.11 495.6,249.07 467.77,290.55 467.82,290.58 			"/>
		</g>
	</g>
	<path class="st37" d="M488.71,176.1l21.32,29.84l0.05-0.04l-21.3-29.81C488.76,176.09,488.73,176.09,488.71,176.1z"/>
	<path class="st37" d="M475.73,192.52c-0.05,0.05-0.1,0.09-0.15,0.14l20.91,13.9l0.11-0.16L475.73,192.52z"/>
	<path class="st37" d="M493.6,220.13l-35.35-10.28c0,0.02-0.01,0.04-0.01,0.07l35.34,10.28L493.6,220.13z"/>
	<path class="st37" d="M513.21,174.73l3.27,26.41l0.07-0.01l-3.26-26.38C513.26,174.73,513.24,174.73,513.21,174.73z"/>
	<path class="st37" d="M529.61,175.6l-2.3,24.47l0.07,0.01l2.3-24.47C529.66,175.6,529.63,175.6,529.61,175.6z"/>
	<path class="st37" d="M543.16,190.07l-6.94,11.43l0.06,0.03l6.94-11.43C543.2,190.09,543.18,190.08,543.16,190.07z"/>
	<path class="st37" d="M582.77,221.24l-28.48,2.98l0.01,0.07l28.48-2.98C582.77,221.28,582.77,221.26,582.77,221.24z"/>
	<path class="st37" d="M552.42,221.65l34.54-24.58c-0.01-0.02-0.02-0.04-0.03-0.06l-34.55,24.58L552.42,221.65z"/>
	<path class="st37" d="M557.56,199.57l-10.06,14.85l0.06,0.04l10.05-14.84C557.59,199.6,557.58,199.58,557.56,199.57z"/>
	<path class="st37" d="M563.22,271.95l-17.33-22.05l-0.05,0.04L563.17,272C563.18,271.98,563.2,271.97,563.22,271.95z"/>
	<path class="st37" d="M548.49,240.25l-0.03,0.06l34.9,14.77c0.01-0.02,0.02-0.04,0.02-0.06L548.49,240.25z"/>
	<path class="st37" d="M571.08,233.3l-18.14-1.34l0,0.07l18.11,1.34C571.06,233.35,571.07,233.33,571.08,233.3z"/>
	<path class="st37" d="M541.77,282.02l-7.75-22.98l-0.06,0.02l7.74,22.97C541.73,282.03,541.75,282.02,541.77,282.02z"/>
	<path class="st37" d="M521.06,259.56l0.86,35.89c0.02,0,0.04,0,0.07,0l-0.86-35.9L521.06,259.56z"/>
	<path class="st37" d="M502.82,282.12l6.02-25.46l-0.07-0.02l-6.01,25.43C502.78,282.09,502.8,282.1,502.82,282.12z"/>
	<path class="st37" d="M466.99,236.7l25.6-2.79l-0.01-0.07l-25.6,2.79C466.98,236.66,466.98,236.68,466.99,236.7z"/>
	<path class="st37" d="M476.05,257.31l21.32-20.77l-0.05-0.05L476,257.27C476.02,257.28,476.03,257.3,476.05,257.31z"/>
	<path class="st37" d="M499.4,250.34l-20.88,31.12c0.02,0.02,0.03,0.03,0.05,0.05l20.89-31.13L499.4,250.34z"/>
	<ellipse class="st38" cx="521.26" cy="228.93" rx="34.37" ry="33.06"/>
</g>
<linearGradient id="SVGID_2_" gradientUnits="userSpaceOnUse" x1="71.6072" y1="188" x2="71.6072" y2="241.0362">
	<stop  offset="0.0408" style="stop-color:#DEE8E5"/>
	<stop  offset="0.3358" style="stop-color:#DCE7E5"/>
	<stop  offset="0.4073" style="stop-color:#DCE7E5"/>
	<stop  offset="0.5458" style="stop-color:#DCE7E5"/>
	<stop  offset="0.6341" style="stop-color:#BCD5DF"/>
	<stop  offset="0.9123" style="stop-color:#1FA9CB"/>
	<stop  offset="1" style="stop-color:#00A0C7"/>
</linearGradient>
<path class="st39" d="M46.77,236.87c8.66,3.77,15.66,4.32,20.42,4.14c10.07-0.38,14.83-4.22,26.99-5.79c7.71-1,14.11-0.53,18.23,0
	c2.39-1.73,10.14-7.82,11.5-18.01c0.45-3.42-1.09-8.13-1.75-10.82c-0.93-3.77-1.41-5.67-2.45-6.76c-3.19-3.33-9.72-2.42-14.02,0.21
	c-2.84,1.74-3.61,3.56-4.95,3.1c-2.36-0.8-0.87-6.75-4.32-11.11c-3.37-4.26-8.96-3.84-9.54-3.79c-5.41,0.5-10.09,5.16-10.21,8.28
	c-0.02,0.52,0,3.31,0,3.31l0,0c0,0-3.78-2.93-8.02-5.79c-2.41-1.62-3.63-2.44-4.65-2.73c-0.87-0.25-4.59-1.57-7.21,0.73
	c-2.84,2.51-2.7,6.18-4.63,6.55c-1.93,0.37-2.47-3.2-5.66-4.37c-2.27-0.83-5.22,0.16-6.69,2.18c-1.9,2.62-0.86,6.52-1.79,6.74
	c-0.67,0.16-1.07-1.89-2.92-3.31c-1.96-1.5-4.21-1.29-4.55-1.25c-4.16,0.46-6.73,5.38-7.72,7.28c-0.02,0.03-0.04,0.08-0.08,0.15
	c-5.41,10.54-3.01,19.51-3.01,19.51c1.96,7.36,7.32,11.06,8.07,11.56C36.64,242.76,46.16,237.24,46.77,236.87z"/>
<linearGradient id="SVGID_3_" gradientUnits="userSpaceOnUse" x1="115.045" y1="49.9565" x2="115.045" y2="114.0362">
	<stop  offset="0.0408" style="stop-color:#DEE8E5"/>
	<stop  offset="0.3358" style="stop-color:#DCE7E5"/>
	<stop  offset="0.4073" style="stop-color:#DCE7E5"/>
	<stop  offset="0.5458" style="stop-color:#DCE7E5"/>
	<stop  offset="0.6341" style="stop-color:#BCD5DF"/>
	<stop  offset="0.9123" style="stop-color:#1FA9CB"/>
	<stop  offset="1" style="stop-color:#00A0C7"/>
</linearGradient>
<path class="st40" d="M81,109c11.87,4.55,21.47,5.22,28,5c13.81-0.46,20.33-5.1,37-7c10.57-1.2,19.34-0.64,25,0
	c3.28-2.09,13.91-9.45,15.76-21.76c0.62-4.13-1.49-9.82-2.4-13.07c-1.27-4.55-1.93-6.85-3.36-8.17c-4.37-4.02-13.32-2.93-19.22,0.25
	c-3.9,2.1-4.95,4.3-6.78,3.75c-3.24-0.97-1.2-8.16-5.92-13.42C144.46,49.42,136.8,49.94,136,50c-7.42,0.6-13.84,6.24-14,10
	c-0.03,0.63,0,4,0,4l0,0c0,0-5.18-3.54-11-7c-3.3-1.96-4.98-2.95-6.37-3.3c-1.19-0.3-6.3-1.9-9.88,0.88
	c-3.9,3.03-3.7,7.46-6.35,7.92c-2.65,0.45-3.38-3.86-7.76-5.28c-3.11-1-7.16,0.19-9.17,2.64c-2.6,3.17-1.18,7.88-2.46,8.15
	c-0.92,0.19-1.46-2.28-4-4c-2.68-1.81-5.78-1.55-6.24-1.51c-5.7,0.56-9.23,6.5-10.58,8.8c-0.02,0.04-0.06,0.1-0.11,0.18
	c-7.42,12.74-4.13,23.57-4.13,23.57C46.62,103.93,53.98,108.4,55,109C67.11,116.12,80.15,109.45,81,109z"/>
<linearGradient id="SVGID_4_" gradientUnits="userSpaceOnUse" x1="943.5" y1="30" x2="943.5" y2="92.0362">
	<stop  offset="0.0408" style="stop-color:#DEE8E5"/>
	<stop  offset="0.3358" style="stop-color:#DCE7E5"/>
	<stop  offset="0.4073" style="stop-color:#DCE7E5"/>
	<stop  offset="0.5458" style="stop-color:#DCE7E5"/>
	<stop  offset="0.6341" style="stop-color:#BCD5DF"/>
	<stop  offset="0.9123" style="stop-color:#1FA9CB"/>
	<stop  offset="1" style="stop-color:#00A0C7"/>
</linearGradient>
<path class="st41" d="M911.51,87.16c11.16,4.41,20.18,5.05,26.31,4.84c12.98-0.45,19.1-4.94,34.77-6.78
	c9.93-1.17,18.18-0.62,23.49,0c3.08-2.03,13.07-9.15,14.81-21.06c0.59-4-1.4-9.5-2.25-12.66c-1.19-4.4-1.82-6.63-3.16-7.91
	c-4.11-3.89-12.52-2.83-18.06,0.24c-3.66,2.03-4.65,4.16-6.37,3.63c-3.04-0.94-1.12-7.9-5.56-13c-4.34-4.99-11.54-4.49-12.29-4.43
	c-6.97,0.58-13,6.04-13.16,9.68c-0.03,0.61,0,3.87,0,3.87l0,0c0,0-4.87-3.43-10.34-6.78c-3.1-1.9-4.68-2.86-5.99-3.2
	c-1.12-0.29-5.92-1.84-9.28,0.85c-3.66,2.93-3.47,7.22-5.97,7.66c-2.49,0.44-3.18-3.74-7.29-5.11c-2.92-0.97-6.73,0.18-8.62,2.55
	c-2.44,3.07-1.11,7.63-2.31,7.89c-0.86,0.18-1.38-2.21-3.76-3.87c-2.52-1.76-5.43-1.5-5.86-1.46c-5.36,0.54-8.68,6.29-9.95,8.52
	c-0.02,0.04-0.06,0.1-0.1,0.17c-6.97,12.33-3.88,22.82-3.88,22.82c2.52,8.61,9.43,12.94,10.39,13.52
	C898.45,94.05,910.71,87.6,911.51,87.16z"/>
<linearGradient id="SVGID_5_" gradientUnits="userSpaceOnUse" x1="784.6072" y1="181" x2="784.6072" y2="228.0362" gradientTransform="matrix(-1 0 0 1 1615.2144 0)">
	<stop  offset="0.0408" style="stop-color:#DEE8E5"/>
	<stop  offset="0.3358" style="stop-color:#DCE7E5"/>
	<stop  offset="0.4073" style="stop-color:#DCE7E5"/>
	<stop  offset="0.5458" style="stop-color:#DCE7E5"/>
	<stop  offset="0.6341" style="stop-color:#BCD5DF"/>
	<stop  offset="0.9123" style="stop-color:#1FA9CB"/>
	<stop  offset="1" style="stop-color:#00A0C7"/>
</linearGradient>
<path class="st42" d="M853.07,224.34c-7.83,3.34-14.17,3.83-18.47,3.67c-9.11-0.34-13.41-3.74-24.41-5.14
	c-6.97-0.88-12.76-0.47-16.49,0c-2.16-1.54-9.17-6.93-10.4-15.97c-0.41-3.03,0.98-7.21,1.58-9.6c0.84-3.34,1.27-5.03,2.22-6
	c2.88-2.95,8.79-2.15,12.68,0.18c2.57,1.54,3.26,3.15,4.48,2.75c2.14-0.71,0.79-5.99,3.91-9.85c3.05-3.78,8.1-3.41,8.63-3.36
	c4.9,0.44,9.13,4.58,9.24,7.34c0.02,0.46,0,2.94,0,2.94l0,0c0,0,3.42-2.6,7.26-5.14c2.18-1.44,3.29-2.16,4.21-2.42
	c0.79-0.22,4.16-1.4,6.52,0.65c2.57,2.22,2.44,5.48,4.19,5.81c1.75,0.33,2.23-2.84,5.12-3.87c2.05-0.74,4.73,0.14,6.05,1.94
	c1.72,2.33,0.78,5.79,1.62,5.98c0.61,0.14,0.97-1.68,2.64-2.94c1.77-1.33,3.81-1.14,4.12-1.11c3.76,0.41,6.09,4.77,6.98,6.46
	c0.02,0.03,0.04,0.07,0.07,0.13c4.89,9.35,2.72,17.3,2.72,17.3c-1.77,6.53-6.62,9.81-7.3,10.25
	C862.23,229.56,853.63,224.67,853.07,224.34z"/>
<text transform="matrix(0.6853 0 0 1 845.001 -24.3862)"><tspan x="0" y="0" class="st30 st45 st46">TAS</tspan><tspan x="140.66" y="0" class="st45 st47"> DEPOZIT CEREALE SI FURAJE</tspan></text>
<g>
	<ellipse class="st10" cx="416.3" cy="518.22" rx="26.04" ry="7.78"/>
	<g>
		<g>
			
				<rect x="426.14" y="510.31" transform="matrix(-1 -4.908308e-11 4.908308e-11 -1 853.3139 1030.2324)" class="st17" width="1.04" height="9.61"/>
			
				<rect x="426.14" y="518.93" transform="matrix(-1 -4.908308e-11 4.908308e-11 -1 853.3139 1038.845)" width="1.04" height="0.99"/>
		</g>
		<g>
			
				<rect x="405.17" y="508.75" transform="matrix(-1 -5.258872e-11 5.258872e-11 -1 811.3727 1027.1036)" class="st17" width="1.04" height="9.61"/>
			
				<rect x="405.17" y="517.36" transform="matrix(-1 -5.258872e-11 5.258872e-11 -1 811.3727 1035.7162)" width="1.04" height="0.99"/>
		</g>
		<path class="st18" d="M393.95,492.27c0.01,2.03,1.32,2.21,1.63,4.83c0.32,2.71-0.95,3.5-0.81,6.64c0.12,2.83,1.28,4.83,1.63,5.43
			c1.53,2.64,3.56,3.39,4.48,3.62c3.15,0.77,4.07-2.16,6.93-1.21c2.32,0.78,2.11,2.55,4.48,3.62c2.78,1.25,4.07-0.72,8.56-1.21
			c3.44-0.38,3.68,1.13,6.93,0.6c2.25-0.37,2.5-1.01,4.89-1.21c2.85-0.24,3.34,0.59,5.3,0c0,0,0.72-0.22,1.37-0.66
			c1.08-0.72,1.55-2.39,2.78-4.51c1.53-2.63,2.09-2.26,3.01-4.43c0.36-0.84,0.55-1.54,1.2-2.22c0.88-0.91,1.66-0.82,1.81-1.48
			c0.14-0.61-0.42-1.08-1.21-2.39c0,0-0.91-1.52-1.55-3.42c-0.82-2.44-0.66-3.78-2.12-5.63c-2.45-3.12-3.93-0.65-8.15-4.22
			c-2.27-1.92-2.67-3.34-4.89-4.22c-1.83-0.72-2.08,0.03-4.48-0.6c-3.35-0.88-3.56-2.53-5.7-2.41c-2.36,0.13-2.4,2.13-4.89,2.41
			c-2.91,0.33-3.81-2.29-5.7-1.21c-1.5,0.86-1.12,2.62-3.26,4.83c-1.53,1.58-3.08,2.09-4.07,2.41c-2.25,0.74-2.53-0.13-4.07,0.6
			C396.14,487.13,393.94,489.62,393.95,492.27z"/>
		<g>
			
				<rect x="422.49" y="512.88" transform="matrix(-1 -5.142876e-11 5.142876e-11 -1 846.1539 1032.8036)" class="st17" width="1.17" height="7.05"/>
			
				<rect x="422.49" y="519.84" transform="matrix(-1 -5.142876e-11 5.142876e-11 -1 846.1539 1040.4148)" width="1.17" height="0.73"/>
		</g>
		<g>
			
				<rect x="402.17" y="511.16" transform="matrix(-1 -4.979584e-11 4.979584e-11 -1 805.3684 1030.2523)" class="st17" width="1.02" height="7.94"/>
			
				<rect x="402.17" y="518.27" transform="matrix(-1 -4.979584e-11 4.979584e-11 -1 805.3684 1037.3669)" width="1.02" height="0.82"/>
		</g>
		<path class="st19" d="M437.61,478.36c-1.13,3.02-8.22,3.52-9.59,2.27c-1.62-1.49,3.01-7.15,6.39-6.8
			C436.45,474.03,438.33,476.44,437.61,478.36z"/>
		<path class="st19" d="M449.47,478.56c1.13,3.02,8.22,3.52,9.59,2.27c1.62-1.49-3.01-7.15-6.39-6.8
			C450.63,474.23,448.75,476.64,449.47,478.56z"/>
		<path class="st20" d="M432.66,487.91c-0.21,2.04-0.48,5.04,0.92,8.05c2.6,5.56,8.64,6.26,9.68,6.38c1.49,0.17,5.36,0.53,8.4-2.45
			c1.15-1.13,1.67-2.35,2.2-3.6c0,0,1.56-3.68,1.35-8c-0.4-8.32-5.58-18.22-11.71-17.99C437.23,470.53,433.34,481.29,432.66,487.91z
			"/>
		<g>
			<ellipse class="st21" cx="449.72" cy="485.01" rx="1.85" ry="2.47"/>
			<ellipse cx="449.75" cy="484.9" rx="0.96" ry="1.29"/>
		</g>
		<g>
			<ellipse class="st21" cx="439.18" cy="485.02" rx="1.85" ry="2.47"/>
			<ellipse cx="439.21" cy="484.91" rx="0.96" ry="1.29"/>
		</g>
		<path d="M445.63,498.58c-0.57,0.69-0.78,1.42-0.8,1.41c-0.03-0.01,0.21-1.07,0.92-1.93c0.3-0.36,0.45-0.41,0.56-0.38
			c0.26,0.07,0.41,0.57,0.33,0.66c-0.06,0.06-0.2-0.14-0.44-0.14C445.98,498.2,445.8,498.38,445.63,498.58z"/>
		<path d="M443.23,498.38c0.61,0.63,0.88,1.34,0.9,1.33c0.02-0.01-0.28-1.04-1.06-1.84c-0.32-0.33-0.48-0.36-0.59-0.32
			c-0.25,0.1-0.36,0.61-0.28,0.69c0.06,0.06,0.19-0.16,0.43-0.18C442.86,498.04,443.05,498.19,443.23,498.38z"/>
		<path class="st22" d="M434.5,471.31c0,0.51,0.49,0.55,0.61,1.21c0.12,0.68-0.36,0.88-0.3,1.67c0.05,0.71,0.48,1.21,0.61,1.36
			c0.57,0.66,1.33,0.85,1.68,0.91c1.18,0.19,1.52-0.54,2.59-0.3c0.87,0.19,0.79,0.64,1.68,0.91c1.04,0.32,1.52-0.18,3.2-0.3
			c1.29-0.09,1.38,0.28,2.59,0.15c0.84-0.09,0.94-0.25,1.83-0.3c1.06-0.06,1.25,0.15,1.98,0c0,0,0.27-0.06,0.51-0.17
			c0.41-0.18,0.58-0.6,1.04-1.13c0.57-0.66,0.78-0.57,1.13-1.11c0.13-0.21,0.2-0.39,0.45-0.56c0.33-0.23,0.62-0.21,0.68-0.37
			c0.05-0.15-0.16-0.27-0.45-0.6c0,0-0.34-0.38-0.58-0.86c-0.31-0.61-0.25-0.95-0.79-1.42c-0.92-0.78-1.47-0.16-3.05-1.06
			c-0.85-0.48-1-0.84-1.83-1.06c-0.68-0.18-0.78,0.01-1.68-0.15c-1.25-0.22-1.33-0.64-2.13-0.61c-0.88,0.03-0.9,0.53-1.83,0.61
			c-1.09,0.08-1.43-0.58-2.13-0.3c-0.56,0.22-0.42,0.66-1.22,1.21c-0.57,0.4-1.15,0.52-1.52,0.61c-0.84,0.19-0.95-0.03-1.52,0.15
			C435.32,470.02,434.5,470.65,434.5,471.31z"/>
	</g>
</g>
<g>
	<ellipse class="st10" cx="952.51" cy="754.89" rx="32.2" ry="8.16"/>
	<g>
		<path class="st23" d="M969.18,719.08c7.76-7.79,9.31-7.77,9.93-7.68c4.07,0.55,7.5,8.71,4.38,15.11
			c-2.65,5.43-10.22,10.04-17.17,9.11c-0.8-0.11-5.03-0.68-6.37-3.05C959.45,731.68,958.78,729.52,969.18,719.08z"/>
		<path class="st23" d="M922.48,718.74c-8.12-7.57-9.66-7.5-10.28-7.4c-4.04,0.66-7.09,8.91-3.68,15.22
			c2.89,5.35,10.68,9.75,17.58,8.62c0.8-0.13,5-0.82,6.22-3.22C932.78,731.06,933.35,728.89,922.48,718.74z"/>
		<g>
			<line class="st24" x1="940.53" y1="744.4" x2="936.11" y2="754.96"/>
			<line class="st24" x1="942.55" y1="756.6" x2="938.32" y2="749.68"/>
			<line class="st24" x1="927.53" y1="752.78" x2="938.32" y2="749.68"/>
		</g>
		<g>
			<line class="st24" x1="953.95" y1="744.38" x2="956.67" y2="755.28"/>
			<line class="st24" x1="963.32" y1="754.27" x2="955.31" y2="749.83"/>
			<line class="st24" x1="947.81" y1="756.63" x2="955.31" y2="749.83"/>
		</g>
		<ellipse class="st25" cx="946.33" cy="723.56" rx="23.73" ry="23.89"/>
		<path class="st16" d="M933.04,716.38c-0.33-0.22,2.03-5.22,5.97-4.82c3.35,0.34,4.98,4.3,4.55,4.56c-0.36,0.22-2.1-2.25-4.94-2.35
			C935.45,713.64,933.31,716.56,933.04,716.38z"/>
		<path class="st16" d="M948.32,716.38c-0.33-0.22,2.03-5.22,5.97-4.82c3.35,0.34,4.98,4.3,4.55,4.56c-0.36,0.22-2.1-2.25-4.94-2.35
			C950.73,713.64,948.59,716.56,948.32,716.38z"/>
		<path class="st26" d="M944.26,721.28c0.17-1.49-0.12-2.7-0.36-3.41c1.94,1.23,3.89,2.47,5.83,3.7l-6.45,2.73
			C943.64,723.67,944.11,722.63,944.26,721.28z"/>
		<line class="st27" x1="944.28" y1="721.09" x2="949.73" y2="721.58"/>
		<g>
			
				<ellipse transform="matrix(0.7857 -0.6186 0.6186 0.7857 -249.1203 718.4396)" class="st28" cx="912.46" cy="718.81" rx="1.82" ry="2.43"/>
			
				<ellipse transform="matrix(0.5825 -0.8128 0.8128 0.5825 -206.2026 1046.5823)" class="st28" cx="915.74" cy="724.03" rx="1.51" ry="2.72"/>
			
				<ellipse transform="matrix(0.2451 -0.9695 0.9695 0.2451 -12.2672 1441.6371)" class="st28" cx="919.64" cy="728.7" rx="1.31" ry="2.08"/>
		</g>
		<g>
			
				<ellipse transform="matrix(0.6186 -0.7857 0.7857 0.6186 -190.7839 1044.6276)" class="st28" cx="980.55" cy="718.82" rx="2.43" ry="1.82"/>
			
				<ellipse transform="matrix(0.8128 -0.5825 0.5825 0.8128 -238.8356 704.8231)" class="st28" cx="977.27" cy="724.03" rx="2.72" ry="1.51"/>
			
				<ellipse transform="matrix(0.9695 -0.2451 0.2451 0.9695 -148.9378 260.855)" class="st28" cx="973.37" cy="728.7" rx="2.08" ry="1.31"/>
		</g>
		<path class="st29" d="M939.88,703.05c2.16,0.37,3.12-1.51,7.44-2.07c4-0.52,5.91,0.74,7.58-0.09c2.43-1.21,0.99-5.16-0.72-5.34
			c-1.3-0.14-2.33,1.96-3.86,1.81c-1.81-0.18-1.87-3.27-3.43-3.36c-1.34-0.07-1.95,2.17-4.15,2.33c-1.67,0.12-2.52-1.09-3.86-0.86
			c-1.6,0.27-1.94,2.24-2,2.58C936.57,699.85,937.44,702.62,939.88,703.05z"/>
	</g>
</g>
<g>
	<ellipse class="st10" cx="57.06" cy="727.73" rx="24.94" ry="6.32"/>
	<g>
		<path class="st23" d="M69.98,699.99c6.01-6.04,7.21-6.02,7.69-5.95c3.15,0.42,5.81,6.75,3.39,11.7c-2.05,4.2-7.92,7.78-13.3,7.06
			c-0.62-0.08-3.9-0.52-4.93-2.36C62.44,709.75,61.92,708.08,69.98,699.99z"/>
		<path class="st23" d="M33.79,699.72c-6.29-5.87-7.48-5.81-7.96-5.73c-3.13,0.51-5.49,6.9-2.85,11.79
			c2.24,4.14,8.27,7.55,13.62,6.68c0.62-0.1,3.87-0.63,4.82-2.5C41.78,709.27,42.22,707.58,33.79,699.72z"/>
		<g>
			<line class="st24" x1="47.78" y1="719.6" x2="44.36" y2="727.79"/>
			<line class="st24" x1="49.34" y1="729.06" x2="46.07" y2="723.69"/>
			<line class="st24" x1="37.71" y1="726.09" x2="46.07" y2="723.69"/>
		</g>
		<g>
			<line class="st24" x1="58.18" y1="719.58" x2="60.28" y2="728.03"/>
			<line class="st24" x1="65.43" y1="727.25" x2="59.23" y2="723.81"/>
			<line class="st24" x1="53.42" y1="729.08" x2="59.23" y2="723.81"/>
		</g>
		<ellipse class="st25" cx="52.27" cy="703.45" rx="18.38" ry="18.51"/>
		<path class="st16" d="M41.98,697.89c-0.26-0.17,1.57-4.04,4.62-3.74c2.6,0.26,3.86,3.33,3.52,3.53c-0.28,0.17-1.62-1.74-3.83-1.82
			C43.85,695.78,42.19,698.03,41.98,697.89z"/>
		<path class="st16" d="M53.81,697.89c-0.26-0.17,1.57-4.04,4.62-3.74c2.6,0.26,3.86,3.33,3.52,3.53c-0.28,0.17-1.62-1.74-3.83-1.82
			C55.68,695.78,54.02,698.03,53.81,697.89z"/>
		<path class="st26" d="M50.67,701.69c0.13-1.16-0.1-2.09-0.28-2.64c1.51,0.96,3.01,1.91,4.52,2.87l-5,2.11
			C50.19,703.54,50.55,702.74,50.67,701.69z"/>
		<line class="st27" x1="50.69" y1="701.54" x2="54.91" y2="701.92"/>
		<g>
			
				<ellipse transform="matrix(0.7857 -0.6186 0.6186 0.7857 -427.2808 166.0472)" class="st28" cx="26.04" cy="699.78" rx="1.41" ry="1.88"/>
			
				<ellipse transform="matrix(0.5825 -0.8128 0.8128 0.5825 -560.1414 317.0513)" class="st28" cx="28.58" cy="703.82" rx="1.17" ry="2.1"/>
			
				<ellipse transform="matrix(0.2451 -0.9695 0.9695 0.2451 -661.9972 564.6445)" class="st28" cx="31.6" cy="707.44" rx="1.01" ry="1.61"/>
		</g>
		<g>
			
				<ellipse transform="matrix(0.6186 -0.7857 0.7857 0.6186 -519.7906 328.8216)" class="st28" cx="78.78" cy="699.78" rx="1.88" ry="1.41"/>
			
				<ellipse transform="matrix(0.8128 -0.5825 0.5825 0.8128 -395.7267 176.1644)" class="st28" cx="76.24" cy="703.83" rx="2.1" ry="1.17"/>
			
				<ellipse transform="matrix(0.9695 -0.2451 0.2451 0.9695 -171.1928 39.5374)" class="st28" cx="73.22" cy="707.44" rx="1.61" ry="1.01"/>
		</g>
		<path class="st29" d="M47.28,687.56c1.67,0.29,2.41-1.17,5.76-1.6c3.1-0.4,4.58,0.58,5.87-0.07c1.88-0.93,0.77-4-0.55-4.14
			c-1.01-0.11-1.81,1.52-2.99,1.4c-1.41-0.14-1.45-2.54-2.66-2.6c-1.04-0.06-1.51,1.68-3.21,1.8c-1.29,0.09-1.95-0.84-2.99-0.67
			c-1.24,0.21-1.5,1.73-1.55,2C44.71,685.09,45.39,687.24,47.28,687.56z"/>
	</g>
</g>
</svg>
